<svg width="801" height="801" viewBox="0 0 801 801" fill="none" xmlns="http://www.w3.org/2000/svg">
<g clip-path="url(#clip0_2587_18448)">
<path d="M162.539 241.157V257.547L176.899 249.257L191.259 240.967L205.629 232.677V232.847V232.867V249.257V249.267V265.837V265.847V282.227L219.989 273.937L234.349 265.647L248.719 257.357V241.157V240.967V224.567V224.387V224.377V208.167V207.977L263.079 199.687L277.439 191.397L290.919 183.627V168.337H290.929L290.919 168.327V151.757V135.177L276.559 143.467L262.209 151.747H262.199V151.757L248.719 159.537V174.807V174.817V175.007V191.397V191.587V207.797L234.349 216.087L219.989 224.377L205.629 232.667V216.277V216.267V199.697V199.687V184.407L204.749 184.917L190.389 193.207L176.029 201.507V201.517H176.019L162.539 209.287V224.567V241.157Z" fill="#C6A76F"/>
<path d="M205.629 199.697V216.267V216.277V232.667L219.989 224.377L234.349 216.087L248.719 207.797V191.587V191.397V175.007V174.817V174.807V159.537L247.839 160.047L233.479 168.337L219.109 176.627L205.629 184.407V199.687V199.697Z" fill="#C6A76F"/>
<path d="M263.079 199.687L248.719 207.977V208.167V224.377V224.387V224.567V240.967V241.157V257.357L234.349 265.647L219.989 273.937L205.629 282.227V265.847V265.837V249.267V249.257V232.867V232.847V232.677L191.259 240.967L176.899 249.257L162.539 257.547V257.737V274.137V290.717V307.117L176.899 298.827L191.259 290.527L205.629 282.237V282.417V282.427V298.827V298.837V315.407V315.417V331.987L219.989 323.697L234.349 315.407L248.719 307.117V307.107V290.717V290.527V274.137V273.947V273.937V257.737V257.547L263.079 249.257L277.439 240.967L290.919 233.187V218.097V201.507V184.927V184.917V183.627L277.439 191.397L263.079 199.687Z" fill="#C6A76F"/>
<path d="M205.629 315.406V298.836V298.826V282.426V282.416V282.236L191.259 290.526L176.899 298.826L162.539 307.116V307.296V323.706V340.286V356.866L176.899 348.576L191.259 340.286L205.629 331.996V331.986V315.416V315.406Z" fill="#C6A76F"/>
<path d="M263.079 249.257L248.719 257.547V257.737V273.937V273.947V274.137V290.527V290.717V307.107V307.117V307.297L263.079 299.007L277.439 290.717L290.919 282.947V267.837V251.257V234.677V234.667V233.187L277.439 240.967L263.079 249.257Z" fill="#C6A76F"/>
<path d="M148.518 233.706V266.546V282.966V299.386V381.506L162.738 373.296L176.958 365.076H176.968L191.178 356.866H191.188L205.408 348.656L219.628 340.446L233.848 332.236H233.858L248.068 324.026H248.078L262.298 315.816L276.508 307.606L290.728 299.396L304.948 291.176H304.958V274.766V241.916V209.076V159.806V143.386V110.536H304.948L290.738 118.746H290.728L276.508 126.956L262.288 135.166L248.068 143.376L233.848 151.586L219.618 159.806L205.398 168.016L191.178 176.226L176.958 184.436H176.948L162.728 192.646L148.508 196.586V233.706H148.518ZM162.738 209.076L162.748 209.066L163.618 208.566L176.958 200.866H176.968L191.188 192.646L205.408 184.436L206.288 183.926L219.628 176.226L233.858 168.016L248.078 159.806L248.958 159.296L262.298 151.596L262.308 151.586L276.518 143.386L290.738 135.176V168.006H290.748L290.738 168.016V184.436V233.696V282.966L276.518 291.186L262.298 299.396L248.078 307.606L233.858 315.816L219.628 324.026L205.408 332.236L191.188 340.446L176.968 348.656L176.958 348.666L162.748 356.866H162.738V307.606V258.346V209.076Z" fill="#C6A76F"/>
<path d="M304.969 143.376V159.796V209.066V241.906V274.756V291.176L319.189 299.386L333.409 307.606L347.629 315.816H347.639L361.859 324.026L376.079 332.236L390.299 340.446V291.186V274.766V241.916V225.496V209.076V176.226V154.806L376.079 151.596H376.069L361.859 143.386V192.646V225.486L358.339 236.136L347.629 233.706L335.519 223.696L335.299 221.546L333.409 209.076V126.956L319.189 118.746L304.969 110.536V143.376ZM361.859 258.346H361.849L361.859 258.326V258.346Z" fill="#E8CEA0"/>
<mask id="mask0_2587_18448" style="mask-type:luminance" maskUnits="userSpaceOnUse" x="138" y="613" width="277" height="187">
<path d="M282.038 613.217L138.398 750.397L233.848 799.037L414.478 697.427L282.038 613.217Z" fill="white"/>
</mask>
<g mask="url(#mask0_2587_18448)">
<path d="M449.628 584.097H408.328V625.397H449.628V584.097Z" fill="#DFE9ED"/>
<path d="M449.628 625.396H408.328V666.696H449.628V625.396Z" fill="#DFE9ED"/>
<path d="M449.628 666.696H408.328V707.996H449.628V666.696Z" fill="#DFE9ED"/>
<path d="M449.628 707.986H408.328V749.286H449.628V707.986Z" fill="#DFE9ED"/>
<path d="M449.628 749.287H408.328V790.587H449.628V749.287Z" fill="#DFE9ED"/>
<path d="M449.628 790.587H408.328V831.887H449.628V790.587Z" fill="#DFE9ED"/>
<path d="M408.337 584.097H367.037V625.397H408.337V584.097Z" fill="#DFE9ED"/>
<path d="M408.337 625.396H367.037V666.696H408.337V625.396Z" fill="#DFE9ED"/>
<path d="M408.337 666.696H367.037V707.996H408.337V666.696Z" fill="#DFE9ED"/>
<path d="M408.337 707.986H367.037V749.286H408.337V707.986Z" fill="#DFE9ED"/>
<path d="M408.337 749.287H367.037V790.587H408.337V749.287Z" fill="#DFE9ED"/>
<path d="M408.337 790.587H367.037V831.887H408.337V790.587Z" fill="#DFE9ED"/>
<path d="M367.038 584.097H325.738V625.397H367.038V584.097Z" fill="#DFE9ED"/>
<path d="M367.038 625.396H325.738V666.696H367.038V625.396Z" fill="#DFE9ED"/>
<path d="M367.038 666.696H325.738V707.996H367.038V666.696Z" fill="#DFE9ED"/>
<path d="M367.038 707.986H325.738V749.286H367.038V707.986Z" fill="#DFE9ED"/>
<path d="M367.038 749.287H325.738V790.587H367.038V749.287Z" fill="#DFE9ED"/>
<path d="M367.038 790.587H325.738V831.887H367.038V790.587Z" fill="#DFE9ED"/>
<path d="M325.737 584.097H284.438V625.397H325.737V584.097Z" fill="#DFE9ED"/>
<path d="M325.737 625.396H284.438V666.696H325.737V625.396Z" fill="#DFE9ED"/>
<path d="M325.737 666.696H284.438V707.996H325.737V666.696Z" fill="#DFE9ED"/>
<path d="M325.737 707.986H284.438V749.286H325.737V707.986Z" fill="#DFE9ED"/>
<path d="M325.737 749.287H284.438V790.587H325.737V749.287Z" fill="#DFE9ED"/>
<path d="M325.737 790.587H284.438V831.887H325.737V790.587Z" fill="#DFE9ED"/>
<path d="M284.448 584.097H243.148V625.397H284.448V584.097Z" fill="#DFE9ED"/>
<path d="M284.448 625.396H243.148V666.696H284.448V625.396Z" fill="#DFE9ED"/>
<path d="M284.448 666.696H243.148V707.996H284.448V666.696Z" fill="#DFE9ED"/>
<path d="M284.448 707.986H243.148V749.286H284.448V707.986Z" fill="#DFE9ED"/>
<path d="M284.448 749.287H243.148V790.587H284.448V749.287Z" fill="#DFE9ED"/>
<path d="M284.448 790.587H243.148V831.887H284.448V790.587Z" fill="#DFE9ED"/>
<path d="M243.148 584.097H201.848V625.397H243.148V584.097Z" fill="#DFE9ED"/>
<path d="M243.148 625.396H201.848V666.696H243.148V625.396Z" fill="#DFE9ED"/>
<path d="M243.148 666.696H201.848V707.996H243.148V666.696Z" fill="#DFE9ED"/>
<path d="M243.148 707.986H201.848V749.286H243.148V707.986Z" fill="#DFE9ED"/>
<path d="M243.148 749.287H201.848V790.587H243.148V749.287Z" fill="#DFE9ED"/>
<path d="M243.148 790.587H201.848V831.887H243.148V790.587Z" fill="#DFE9ED"/>
<path d="M201.847 584.097H160.547V625.397H201.847V584.097Z" fill="#DFE9ED"/>
<path d="M201.847 625.396H160.547V666.696H201.847V625.396Z" fill="#DFE9ED"/>
<path d="M201.847 666.696H160.547V707.996H201.847V666.696Z" fill="#DFE9ED"/>
<path d="M201.847 707.986H160.547V749.286H201.847V707.986Z" fill="#DFE9ED"/>
<path d="M201.847 749.287H160.547V790.587H201.847V749.287Z" fill="#DFE9ED"/>
<path d="M201.847 790.587H160.547V831.887H201.847V790.587Z" fill="#DFE9ED"/>
<path d="M160.558 584.097H119.258V625.397H160.558V584.097Z" fill="#DFE9ED"/>
<path d="M160.558 625.396H119.258V666.696H160.558V625.396Z" fill="#DFE9ED"/>
<path d="M160.558 666.696H119.258V707.996H160.558V666.696Z" fill="#DFE9ED"/>
<path d="M160.558 707.986H119.258V749.286H160.558V707.986Z" fill="#DFE9ED"/>
<path d="M160.558 749.287H119.258V790.587H160.558V749.287Z" fill="#DFE9ED"/>
<path d="M160.558 790.587H119.258V831.887H160.558V790.587Z" fill="#DFE9ED"/>
</g>
<path d="M251.699 422.877V388.157L237.479 392.357L237.509 413.467L251.699 422.877Z" fill="#A5B1C4"/>
<path d="M223.248 404.577L237.478 403.467V391.167L223.248 388.157V404.577Z" fill="#DFE9ED"/>
<path d="M223.248 453.847L237.478 445.627V429.207V412.797L223.258 420.997H223.248V421.007V437.417V453.847Z" fill="#DFE9ED"/>
<path d="M179.49 443.986V427.566L165.27 430.706V452.766L179.49 443.986Z" fill="#A5B1C4"/>
<path d="M166.359 453.846V453.836V428.316L165.029 428.706L152.139 429.206V445.626V445.636V462.056V478.476L166.359 470.266V453.846Z" fill="#DFE9ED"/>
<mask id="mask1_2587_18448" style="mask-type:luminance" maskUnits="userSpaceOnUse" x="137" y="340" width="115" height="98">
<path d="M237.478 347.097L229.978 342.767C225.818 340.367 220.688 340.367 216.528 342.767L209.038 347.097L194.818 355.307L180.598 363.517H180.588L166.368 371.737L152.148 379.937L143.618 384.867C140.098 386.897 137.928 390.657 137.928 394.727V397.407C137.928 401.837 140.298 405.937 144.128 408.157H144.138C149.088 411.027 152.148 416.307 152.148 422.027V424.307V429.197L166.368 437.407L180.598 429.207V396.357L194.818 388.147L209.038 379.937L215.318 376.317L219.068 374.147C220.928 373.067 223.258 374.407 223.268 376.567V379.757V384.087V388.157L237.498 396.367L251.718 388.157V371.737V361.347C251.718 357.607 249.728 354.157 246.488 352.287L237.498 347.097H237.478ZM166.358 404.587V404.567H166.368L166.358 404.587Z" fill="white"/>
</mask>
<g mask="url(#mask1_2587_18448)">
<path d="M237.477 361.037L227.927 358.017C225.027 356.347 221.467 356.347 218.567 358.017L209.037 363.517H209.027L194.807 371.727L180.587 379.937L180.577 379.947L166.367 388.157L180.587 396.367L194.807 388.157L209.027 379.947L215.307 376.327L219.517 373.887C221.177 372.927 223.257 374.127 223.257 376.047V384.087V388.157L230.587 392.387C234.857 394.847 240.117 394.847 244.387 392.387L251.707 388.157V371.737V355.307L237.487 361.037H237.477Z" fill="#353644"/>
<path d="M166.368 401.247V404.597L166.358 401.247L152.138 396.377L137.918 388.167V404.587L145.698 409.077C149.678 411.377 152.138 415.627 152.138 420.227V429.217L157.588 431.987L159.408 433.117C163.688 435.777 169.088 435.857 173.448 433.347L180.588 429.227V396.377L166.368 401.247Z" fill="#353644"/>
<path d="M237.478 347.097L223.248 338.887L209.028 347.097L194.808 355.307L180.588 363.517H180.578L166.358 371.737L152.138 379.937L137.918 388.157L152.138 396.367L157.728 399.757L163.238 402.827C165.178 403.907 167.548 403.897 169.468 402.777L180.588 396.357L173.828 392.447L171.788 391.277L169.138 389.737C167.918 389.037 167.938 387.267 169.178 386.597L176.028 382.847L180.588 379.937H180.598L194.818 371.727L209.038 363.517L209.048 363.507L218.478 358.067C221.438 356.357 225.088 356.357 228.048 358.067L234.638 361.867C236.398 362.887 238.578 362.887 240.338 361.867L249.618 356.507L251.708 355.297L237.488 347.087L237.478 347.097Z" fill="#53576B"/>
</g>
<path d="M166.968 700.927L142.218 688.337C133.118 684.097 114.888 691.447 109.868 702.357C103.338 716.567 105.478 730.927 111.178 734.997C111.688 735.367 114.878 737.497 115.478 737.667L138.408 750.397L166.968 700.927Z" fill="url(#paint0_linear_2587_18448)"/>
<path d="M168.559 734.83C176.446 721.17 175.728 705.991 166.957 700.926C158.185 695.862 144.68 702.83 136.794 716.49C128.907 730.15 129.625 745.329 138.397 750.394C147.168 755.458 160.673 748.49 168.559 734.83Z" fill="#353644"/>
<path d="M159.608 713.857C158.328 713.117 156.828 712.917 155.258 713.177C156.518 716.557 155.888 721.447 153.268 725.987C150.648 730.527 146.728 733.517 143.168 734.117C143.728 735.607 144.648 736.807 145.928 737.547C150.128 739.977 156.598 736.637 160.378 730.087C164.158 723.537 163.808 716.277 159.608 713.847V713.857Z" fill="#A5B1C4"/>
<path d="M153.269 725.997C155.889 721.457 156.519 716.567 155.259 713.187C151.699 713.787 147.779 716.777 145.159 721.317C142.539 725.857 141.909 730.747 143.169 734.127C146.729 733.527 150.649 730.537 153.269 725.997Z" fill="#DFE9ED"/>
<path d="M255.218 747.937L230.468 735.347C221.368 731.107 203.138 738.457 198.118 749.367C191.588 763.577 193.728 777.937 199.428 782.007C199.938 782.377 203.128 784.507 203.728 784.677L226.658 797.407L255.218 747.937Z" fill="url(#paint1_linear_2587_18448)"/>
<path d="M256.808 781.838C264.694 768.178 263.977 752.999 255.205 747.934C246.433 742.87 232.928 749.838 225.042 763.498C217.155 777.158 217.873 792.337 226.645 797.401C235.417 802.466 248.921 795.498 256.808 781.838Z" fill="#353644"/>
<path d="M247.858 760.867C246.578 760.127 245.078 759.927 243.508 760.187C244.768 763.567 244.138 768.457 241.518 772.997C238.898 777.537 234.978 780.527 231.418 781.127C231.978 782.617 232.898 783.817 234.178 784.557C238.378 786.987 244.848 783.647 248.628 777.097C252.408 770.547 252.058 763.287 247.858 760.857V760.867Z" fill="#A5B1C4"/>
<path d="M241.519 773.006C244.139 768.466 244.769 763.576 243.509 760.196C239.949 760.796 236.029 763.786 233.409 768.326C230.789 772.866 230.159 777.756 231.419 781.136C234.979 780.536 238.899 777.546 241.519 773.006Z" fill="#DFE9ED"/>
<path d="M425.558 649.897L400.808 637.307C391.708 633.067 373.478 640.417 368.458 651.327C361.928 665.537 364.068 679.897 369.768 683.967C370.278 684.337 373.468 686.467 374.068 686.637L396.998 699.367L425.558 649.897Z" fill="url(#paint2_linear_2587_18448)"/>
<path d="M427.157 683.8C435.044 670.14 434.326 654.96 425.554 649.896C416.782 644.832 403.278 651.8 395.391 665.46C387.505 679.12 388.222 694.299 396.994 699.363C405.766 704.428 419.271 697.46 427.157 683.8Z" fill="#353644"/>
<path d="M418.198 662.827C416.918 662.087 415.418 661.887 413.848 662.147C415.108 665.527 414.478 670.417 411.858 674.957C409.238 679.497 405.318 682.487 401.758 683.087C402.318 684.577 403.238 685.777 404.518 686.517C408.718 688.947 415.188 685.607 418.968 679.057C422.748 672.507 422.398 665.247 418.198 662.817V662.827Z" fill="#A5B1C4"/>
<path d="M411.859 674.966C414.479 670.426 415.109 665.536 413.849 662.156C410.289 662.756 406.369 665.746 403.749 670.286C401.129 674.826 400.499 679.716 401.759 683.096C405.319 682.496 409.239 679.506 411.859 674.966Z" fill="#DFE9ED"/>
<mask id="mask2_2587_18448" style="mask-type:luminance" maskUnits="userSpaceOnUse" x="120" y="77" width="299" height="384">
<path d="M404.528 135.167H404.518L390.308 126.957H390.298L376.078 118.747L361.858 110.537L347.638 102.327H347.628L333.418 94.1065H333.408L319.188 85.8965L304.968 77.6865L298.038 81.6965L295.008 83.4465L302.188 93.3965L299.748 94.8065L290.748 102.327L277.238 105.547L265.308 100.507L262.308 102.327L248.088 110.537L233.868 118.747L219.648 126.957H219.638L205.428 135.167H205.418L191.198 143.387L189.868 157.137L187.978 158.577L187.538 160.507L176.988 168.007L176.978 168.017L162.648 172.917L148.538 168.017L134.318 176.227H134.308L130.518 178.417C124.068 182.137 120.098 189.017 120.098 196.467V200.857V217.277V266.547V282.967V299.387V348.657V365.077V385.517C120.098 393.197 124.198 400.287 130.838 404.127L134.318 406.137L148.538 414.347L162.758 422.557H162.768L176.988 430.767L185.648 435.777L191.208 438.987L205.428 447.197H205.438L214.088 452.197L219.648 455.407L221.358 456.397L224.338 458.117C230.238 461.527 237.518 461.527 243.418 458.117L248.088 455.417H248.098L262.318 447.197L276.538 438.987L290.758 430.777H290.768L304.978 422.567H304.988L319.208 414.347L324.758 411.137L333.428 406.127L347.648 397.917L353.198 394.717L361.878 389.707L376.098 381.497L390.318 373.287L404.538 365.077L407.058 363.617L411.218 361.207C415.888 358.507 418.758 353.527 418.758 348.137V324.017V307.587V274.747V241.897V225.477V209.057V192.627V159.787V152.387C418.758 146.807 415.768 141.647 410.928 138.877L406.318 136.227L404.548 135.147L404.528 135.167ZM390.298 176.217V209.067V225.487V241.907V274.757V291.177V340.447L376.078 348.667L361.858 356.877L347.638 365.087H347.628L333.418 373.297H333.408L319.188 381.507L304.968 389.717L290.748 397.927H290.738L276.518 406.147L262.308 414.357H262.298L248.078 422.567L233.858 424.317L219.628 422.567L205.408 414.357L191.188 406.147L176.968 397.937L176.958 397.927L162.738 389.717L148.518 381.507V299.397V282.977V266.557V198.627C151.008 198.627 153.498 197.987 155.728 196.697L162.738 192.647L176.958 184.437H176.968L191.188 176.227L205.408 168.017L219.628 159.807L233.858 151.587L248.078 143.377L262.298 135.177L276.518 126.957L290.738 118.747H290.748L304.958 110.537H304.968L319.188 118.747L333.408 126.957L347.628 135.167L361.858 143.387L376.068 151.597H376.078L380.848 154.357C383.768 156.047 387.028 156.887 390.298 156.887V176.217Z" fill="white"/>
</mask>
<g mask="url(#mask2_2587_18448)">
<path d="M404.517 151.597L390.297 155.697V176.217V176.227V192.647V209.067V209.077V225.487V225.497V241.907V241.917V258.337V274.757V274.767V291.177V291.187V307.607V324.027V340.447V340.457L376.077 348.667L361.857 356.877L347.637 365.087H347.627L333.417 373.297H333.407L319.187 381.507L304.967 389.717L290.747 397.927L290.737 397.937L276.517 406.147L262.307 414.357H262.297L248.077 422.567L233.857 424.317V447.187V447.197V463.617L248.057 455.417L248.077 455.407L262.297 447.197L276.517 438.987L290.727 430.777H290.737V430.767L290.747 430.777L304.957 422.567H304.967V422.557L319.187 414.347L324.737 411.137L333.407 406.137L347.627 397.927L353.177 394.727L361.857 389.717L376.077 381.507L390.297 373.297L404.517 365.087L418.737 356.877V356.867V340.447V324.037V324.027V307.607V307.597V291.187V274.767V274.757V258.337V241.917V241.907V225.497V225.487V209.077V209.067V192.647V192.637V176.227V159.807V159.797V143.387L404.517 151.587V151.597Z" fill="#C6A76F"/>
<path d="M120.078 381.507V397.927L134.298 406.137L148.518 414.347L162.738 422.557H162.748L176.968 430.767L185.628 435.777L191.188 438.987L205.408 447.197H205.418L214.068 452.197L219.628 455.407L228.298 460.407L233.858 463.617V447.197V424.317L219.628 422.567L205.408 414.357L191.188 406.147L176.968 397.937L176.958 397.927L162.738 389.717L148.518 381.507V299.397V282.977V266.557V195.027L134.298 192.647L120.078 184.437V200.857V217.277V266.547V282.967V299.387V348.657V365.077V381.507Z" fill="#E8CEA0"/>
<path d="M134.298 192.646L141.308 196.696C145.768 199.266 151.258 199.266 155.718 196.696L162.728 192.646L176.948 184.436H176.958L191.178 176.226L205.398 168.016L219.618 159.806L233.848 151.586L248.068 143.376L262.288 135.176L276.508 126.956L290.728 118.746H290.738L304.948 110.536H304.958L319.178 118.746L333.398 126.956L347.618 135.166L361.848 143.386L376.058 151.596H376.068L380.838 154.356C386.688 157.736 393.888 157.736 399.728 154.356L404.498 151.596L418.718 143.386L404.508 135.166H404.498L390.288 126.956H390.278L376.058 118.746L361.838 110.536L347.618 102.326H347.608L333.398 94.1063H333.388L319.168 85.8963L311.878 81.6863C307.588 79.2063 302.308 79.2163 298.018 81.6863L294.988 83.4363L302.168 93.3863L299.728 94.7963L290.728 102.316L277.218 105.536L265.288 100.496L262.288 102.316L248.068 110.526L233.848 118.736L219.628 126.946H219.618L205.408 135.156H205.398L191.178 143.376L189.848 157.126L187.958 158.566L187.518 160.496L176.968 167.996L176.958 168.006L162.628 172.906L148.518 168.006L134.298 176.216H134.288L120.078 184.426L134.298 192.636V192.646Z" fill="#F2E8C4"/>
</g>
<path d="M219.629 465.966L205.409 474.176H205.399L205.389 474.186V490.416V490.426V506.836V506.846V523.066L219.609 514.856L233.829 506.646L248.059 498.436V482.386V482.206V465.966V465.786V465.776V455.966L233.859 464.166L228.299 460.966L219.629 465.966Z" fill="#DFE9ED"/>
<path d="M248.058 465.786V465.966V482.206V482.386V498.436L233.828 506.646L219.608 514.856L205.388 523.066V506.846V506.836V490.426V490.416V474.186L191.188 482.386L176.968 490.596H176.958L162.738 498.806V515.226V515.236V531.656V547.706L176.938 539.496L191.158 531.286L205.388 523.076V523.256V523.266V539.496V539.506V555.916V555.926V572.156L219.608 563.946L233.828 555.736L248.058 547.526V531.476V531.286V515.056V514.866V514.856V498.806V498.626L262.278 490.416L276.498 482.206L290.728 473.996V457.756V441.336V441.326V431.336L276.518 439.536L262.298 447.746L248.078 455.956L248.058 455.966V465.776V465.786Z" fill="#DFE9ED"/>
<path d="M191.158 629.646L205.388 621.436V621.426V605.016V605.006V588.596V588.586V572.346V572.336V572.166L191.158 580.376L176.938 588.586L162.738 596.786V597.346V613.756V613.766V630.186V630.196V646.056L176.938 637.856L191.158 629.646Z" fill="#DFE9ED"/>
<path d="M262.279 539.496L248.059 547.706V547.896V563.946V563.956V564.136V580.376V580.556V596.786V596.796V596.976L262.279 588.766L276.499 580.556L290.729 572.346V572.336V555.926V539.506V539.496V523.266V523.256V523.076L276.499 531.286L262.279 539.496Z" fill="#DFE9ED"/>
<path d="M191.158 580.376L205.388 572.166V572.336V572.346V588.586V588.596V605.006V605.016V621.426L219.608 613.216L233.828 605.006L248.058 596.796V596.786V580.556V580.376V564.136V563.956V563.946V547.896V547.706L262.278 539.496L276.498 531.286L290.728 523.076V506.846V490.426V490.416V474.176V474.166V473.996L276.498 482.206L262.278 490.416L248.058 498.626V498.806V514.856V514.866V515.056V531.286V531.476V547.526L233.828 555.736L219.608 563.946L205.388 572.156V555.926V555.916V539.506V539.496V523.266V523.256V523.076L191.158 531.286L176.938 539.496L162.738 547.706V548.076V564.496V564.506V580.916V596.786L176.938 588.586L191.158 580.376Z" fill="#DFE9ED"/>
<path d="M304.969 432.577V448.987V465.407V481.837V514.677V580.367L319.189 588.587L333.409 596.797V580.377V514.687V498.267V448.997V416.147L324.739 411.137L319.189 414.347L304.969 422.557V432.567V432.577ZM319.189 440.787H319.179L319.189 440.777V440.787Z" fill="#DFE9ED"/>
<path d="M376.078 440.776L361.848 432.566V448.986V498.256V531.096V563.946V596.786V613.216H361.858L376.068 621.426H376.078L390.298 629.636V596.796V514.686V498.266V443.916L376.078 440.786V440.776Z" fill="#DFE9ED"/>
<path d="M376.068 621.427L361.858 613.217H361.848L347.638 621.427H347.628L333.408 629.637L319.188 637.857L304.968 646.057L290.748 654.277H290.738L276.518 662.487L262.308 670.697H262.298L248.078 678.907L233.858 687.117H233.848L219.638 695.327H219.628L205.418 703.537L219.628 711.747L224.788 714.727C230.398 717.967 237.298 717.967 242.908 714.727L244.358 713.897L248.078 711.747L262.298 703.537L276.518 695.327L290.738 687.117H290.748L304.958 678.907H304.968L319.188 670.697L333.408 662.487L347.628 654.277L361.848 646.067L376.078 637.847L390.298 629.637L376.078 621.427H376.068Z" fill="#FFFFF8"/>
<path d="M290.738 397.937L290.748 397.927H290.738V397.937Z" fill="#5FF25F"/>
<path d="M262.299 414.357H262.309L262.299 414.347V414.357Z" fill="#5FF25F"/>
<path d="M219.629 438.987H219.639L219.629 438.977V438.987Z" fill="#5FF25F"/>
<path d="M219.628 695.326H219.638L233.848 687.126V687.116H233.857L248.077 678.906L262.298 670.696H262.308L276.518 662.486L290.738 654.276H290.748L304.968 646.066V646.056L319.188 637.856L333.408 629.646V629.636L347.628 621.436V621.426H347.637L361.848 613.226V613.216V596.796V596.786V580.366V563.956V563.946V547.526V531.106V531.096V514.686V498.266V498.256V481.836V465.416V448.996V448.986V432.566L347.628 424.356V440.776V457.206V473.626V490.046V506.476V522.886V522.896V539.316V555.736V572.156H347.637L347.628 572.166V588.576V605.006L333.408 613.216L319.188 621.426L304.968 629.636L290.748 637.846H290.738V637.856L276.518 646.056V646.066L262.298 654.276L248.077 662.476V662.486L233.857 670.696H233.848L219.628 678.906L205.418 687.116H205.408L191.188 695.326L205.408 703.536H205.418L219.628 695.336V695.326Z" fill="#353644"/>
<path d="M205.408 430.777H205.418L205.408 430.767V430.777Z" fill="#5FF25F"/>
<path d="M205.419 687.117L219.629 678.906L233.849 670.696H233.859L248.079 662.487V662.477L262.299 654.276L276.519 646.066V646.057L290.739 637.857V637.846H290.749L304.969 629.636L319.189 621.427L333.409 613.216L347.629 605.006V588.576V572.167V572.156V555.737V539.316V522.896V522.886V506.477V490.046V473.626V457.206V440.776V424.356L333.409 416.146V432.566V448.986V448.996V465.417V481.836V498.257V498.266V514.677V514.686V531.107V547.526V563.946V580.367V580.376V596.786V596.797L319.189 604.996V605.006L304.969 613.206V613.216H304.959L290.739 621.427L276.519 629.636L262.299 637.846L248.079 646.057V646.066L248.069 646.057L233.859 654.266H233.849V654.276L219.629 662.477V662.487L205.409 670.686V670.696L191.189 678.896V678.906L176.969 687.107V687.117L191.189 695.326L205.409 687.117H205.419Z" fill="#A5B1C4"/>
<path d="M191.188 678.906L205.408 670.696L219.628 662.486L233.848 654.276L233.858 654.266L248.068 646.056H248.078L262.298 637.846L276.518 629.636L290.738 621.426L304.958 613.216H304.968L319.188 605.006L333.408 596.796L319.188 588.586L304.968 580.376L290.748 588.586H290.738L276.518 596.796L262.298 605.006L248.078 613.216L233.858 621.426H233.848L219.628 629.636L205.418 637.846H205.408L191.188 646.056L176.968 654.266L162.748 662.486H162.738L148.518 670.696L162.738 678.906H162.748L176.958 687.116H176.968L191.188 678.906Z" fill="#FFFFF8"/>
<path d="M162.738 662.476L162.748 662.486L176.968 654.276V654.266L191.188 646.056L205.408 637.856V637.846H205.418L219.628 629.646V629.636L233.848 621.436V621.426H233.858L248.078 613.216L262.298 605.006L276.518 596.796L290.738 588.586V588.576L290.748 588.586L304.968 580.376V580.366V563.946V547.526V531.106V514.686H304.958L304.968 514.676V498.256V481.846V481.836V465.416V465.406V448.996V448.986V432.576V432.566V422.566H304.958L290.748 430.776L290.738 430.766V430.776V440.776L290.748 440.786H290.738V457.196V457.206V473.626V490.046V490.056V506.466V522.896V539.306V539.316V555.736V555.746V572.156L276.518 580.366L262.298 588.576L248.078 596.786V596.796H248.068L233.848 604.996V605.006L219.628 613.216L205.408 621.426H205.398L191.188 629.636L176.968 637.846H176.958L162.738 646.056V645.506V629.646V629.636V613.216V613.206V596.796V596.236V580.366V563.956V563.946V547.526V547.146V531.106V514.686V514.676V498.256L176.958 490.046H176.968L191.188 481.836L205.388 473.626H205.398H205.408L219.628 465.416L228.298 460.406L219.628 455.406L214.068 452.196L205.408 457.196V457.206H205.398L191.188 465.406V465.416H191.178L176.968 473.616V473.626L176.958 473.616L162.738 481.836L148.518 485.916V506.466V522.896V539.316V555.736V572.156V572.166V588.576V588.586V604.996V605.006V621.426V637.846V637.856V654.266V654.276V670.696L162.738 662.486V662.476Z" fill="#DFE9ED"/>
<path d="M347.629 151.586V200.856V233.706L354.189 237.486C357.599 239.456 361.859 236.996 361.859 233.056V225.496V192.656V143.386L347.629 135.166V151.586Z" fill="#353644"/>
<path d="M333.408 159.806V209.066V221.146C333.408 223.836 334.848 226.326 337.178 227.676L347.628 233.706V200.866V151.596V135.166L333.408 126.956V159.806Z" fill="#A5B1C4"/>
<path d="M340.527 164.636V181.056V197.476L351.747 203.966C353.077 204.736 354.747 203.776 354.747 202.236V189.276V173.996C354.747 173.286 354.367 172.626 353.747 172.266L340.527 164.636Z" fill="#A5B1C4"/>
<path d="M340.529 458.687V475.107V491.527L351.749 498.017C353.079 498.787 354.749 497.827 354.749 496.287V483.327V468.047C354.749 467.337 354.369 466.677 353.749 466.317L340.529 458.687Z" fill="#A5B1C4"/>
<path d="M340.529 535.937V552.357V568.777L351.749 575.267C353.079 576.037 354.749 575.077 354.749 573.537V560.577V545.297C354.749 544.587 354.369 543.927 353.749 543.567L340.529 535.937Z" fill="#A5B1C4"/>
<path d="M291.728 629.797L277.508 638.007L263.288 646.217L249.068 654.427L262.288 662.057C262.908 662.417 263.668 662.417 264.288 662.057L277.508 654.427L291.728 646.217L302.958 639.737C304.288 638.967 304.288 637.037 302.958 636.277L291.728 629.797Z" fill="#A5B1C4"/>
<mask id="mask3_2587_18448" style="mask-type:luminance" maskUnits="userSpaceOnUse" x="120" y="394" width="299" height="356">
<path d="M404.518 424.367L390.298 416.147H390.288L376.078 407.937H376.068L361.848 399.727L353.178 394.727L347.628 397.927L333.408 406.137L324.738 411.147L333.408 416.157L347.628 424.367L361.848 432.577L376.078 440.787L380.538 443.367C383.558 445.107 386.928 445.977 390.298 445.977V498.267V514.687V596.797V629.647L376.078 637.857L361.848 646.067L347.628 654.287L333.408 662.487L319.188 670.707L304.968 678.917H304.958L290.748 687.127H290.738L276.518 695.337L262.298 703.547L248.078 711.757L233.858 714.447V719.967L233.848 714.447L219.628 711.757L205.418 703.547H205.408L191.188 695.337L176.968 687.127H176.958L162.748 678.917H162.738L148.518 670.707V654.287V637.867V605.017V588.597V572.177V488.147C150.658 488.147 152.788 487.597 154.698 486.487L162.738 481.847L176.958 473.627H176.968L191.178 465.427H191.188L205.398 457.217H205.408L214.068 452.207L205.418 447.207H205.408L191.188 438.997L185.628 435.787L176.968 440.787L176.958 440.797L162.738 449.007L148.518 457.207L134.298 465.427H134.288L128.638 468.697C123.338 471.757 120.078 477.407 120.078 483.517V506.477V522.897V555.737V572.167V588.587V605.007V670.697V673.987C120.078 682.117 124.408 689.627 131.448 693.697L131.788 693.897L134.298 695.347L148.508 703.547L162.728 711.767L176.948 719.977H176.958L191.168 728.187H191.178L205.388 736.397H205.398L219.618 744.607L224.258 747.287C230.178 750.707 237.468 750.717 243.398 747.297L246.948 745.247L248.048 744.597H248.058L262.278 736.387L276.498 728.167L290.718 719.957L304.938 711.747H304.948L319.168 703.537L333.378 695.327H333.388L347.608 687.117L361.828 678.907L376.048 670.697H376.058L390.278 662.477L404.498 654.267L408.848 651.757C414.958 648.227 418.718 641.707 418.718 634.657V629.647V613.217V580.377V563.957V514.687V481.847V465.417V448.997V443.497C418.718 436.727 415.108 430.477 409.248 427.097L404.498 424.357L404.518 424.367Z" fill="white"/>
</mask>
<g mask="url(#mask3_2587_18448)">
<path d="M219.628 744.597L233.838 752.807H233.848V736.387V719.967V714.437L219.628 711.747L205.418 703.537H205.408L191.188 695.327L176.968 687.117H176.958L162.748 678.907H162.738L148.518 670.697V654.277V654.267V637.857V637.847V621.427V605.007V604.997V588.587V588.577V572.167V572.157V555.737V539.317V522.897V506.467V484.587L134.298 481.837L120.078 473.627V490.047V506.467V506.477V522.887V522.897V539.317V555.727V555.737V572.157V572.167V588.577V588.587V604.997V605.007V621.427V637.847V654.257V654.277V670.687V670.697V687.117V687.127L134.298 695.337L148.508 703.537H148.518V703.547L162.738 711.757L176.958 719.967H176.968L191.178 728.177H191.188L205.398 736.387H205.408L219.628 744.597Z" fill="#353644"/>
<path d="M376.068 670.696L376.078 670.686L390.298 662.476L404.518 654.266L418.738 646.056V629.646V629.636V613.216V613.206V596.796V580.376V580.366V563.956V563.946V547.526V531.106V514.686V514.676V498.256V481.846V481.836V465.416V465.406V448.996V448.986V432.566L404.518 440.776L390.298 443.916V465.416V481.836V498.256V498.266V514.676V514.686V531.106V547.526V563.946V580.376V596.786V596.796V613.216V629.636L376.078 637.846L361.848 646.056V646.066L347.628 654.276L333.408 662.476V662.486L319.188 670.696L304.968 678.906H304.958L290.748 687.116H290.738L276.518 695.326L262.298 703.536L248.078 711.746L233.858 714.436L233.848 719.956V719.966V736.386V752.806L248.068 744.596L248.078 744.586L262.298 736.386V736.376L276.518 728.166L290.738 719.956L304.958 711.746H304.968L319.188 703.536L333.398 695.326H333.408L347.628 687.116L361.848 678.906V678.896L376.068 670.696Z" fill="#353644"/>
<path d="M404.518 424.367L390.298 416.147H390.288L376.078 407.937H376.068L361.848 399.727L353.178 394.727L347.628 397.927L333.408 406.137L324.738 411.147L333.408 416.157L347.628 424.367L361.848 432.577L376.078 440.787L380.538 443.367C386.578 446.847 394.018 446.847 400.068 443.367L404.528 440.797L418.748 432.587L404.528 424.387L404.518 424.367Z" fill="#53576B"/>
<path d="M176.968 473.616L191.178 465.416H191.188L205.398 457.206H205.408L214.068 452.196L205.418 447.196H205.408L191.188 438.986L185.628 435.776L176.968 440.776L176.958 440.786L162.738 448.996L148.518 457.196L134.298 465.416H134.288L120.078 473.626L134.298 481.836L142.338 486.476C146.168 488.686 150.878 488.686 154.708 486.476L162.748 481.836L176.968 473.616Z" fill="#53576B"/>
</g>
<path d="M361.859 324.027L347.639 315.817H347.629L333.409 307.607L319.189 299.397L304.969 291.187L304.959 291.177L290.739 299.397L276.519 307.607L262.309 315.817L248.089 324.027H248.079L233.869 332.237H233.859L219.639 340.447L205.419 348.657L191.199 356.867H191.189L176.979 365.077H176.969L162.749 373.297L148.529 381.507L162.749 389.717L176.969 397.927H176.979L191.199 406.147L205.419 414.347L219.639 422.567L221.369 423.567C229.099 428.027 238.629 428.027 246.359 423.567L248.089 422.567L262.309 414.357H262.319L276.529 406.147L290.749 397.937L290.759 397.927L304.979 389.717L319.199 381.507L333.419 373.297H333.429L347.639 365.087H347.649L361.869 356.877L376.089 348.667L390.309 340.457L376.089 332.237L361.869 324.027H361.859ZM205.409 397.927H205.419L205.409 397.937V397.927Z" fill="#F2E8C4"/>
<path d="M191.188 143.386L205.408 135.176V135.166H205.418L219.628 126.966V126.956H219.638L233.857 118.756V118.746L248.077 110.536L262.298 102.326L265.298 100.506" stroke="#C6AF8F" stroke-width="3" stroke-miterlimit="10"/>
<path d="M298.038 81.6962C302.328 79.2162 307.608 79.2162 311.898 81.6862L319.188 85.8962L333.408 94.1062H333.418L347.628 102.316L347.638 102.326L361.858 110.526L376.078 118.746L390.298 126.956H390.308L404.518 135.166H404.528L406.298 136.246L410.908 138.896C413.328 140.286 415.288 142.266 416.638 144.596C417.988 146.936 418.738 149.616 418.738 152.406V348.156C418.738 353.546 415.868 358.526 411.198 361.226L407.058 363.626L404.518 365.086L390.298 373.296L376.078 381.506L361.858 389.716L353.178 394.726L347.628 397.926L333.408 406.136L324.738 411.136L319.188 414.346L304.968 422.556L304.958 422.566L290.748 430.776H290.738L276.518 438.986L248.078 455.406H248.068L243.398 458.106C240.448 459.816 237.148 460.666 233.858 460.666C230.568 460.666 227.268 459.816 224.318 458.116L219.628 455.406L214.068 452.196L205.418 447.196H205.408L191.188 438.986L185.628 435.776L176.968 430.776L162.748 422.566H162.738L148.518 414.346L134.298 406.136L130.818 404.126C124.178 400.286 120.078 393.196 120.078 385.516V196.466C120.078 192.746 121.068 189.166 122.868 186.046C124.668 182.936 127.278 180.286 130.498 178.416L134.288 176.236H134.298L148.518 168.016" stroke="#C6AF8F" stroke-width="3" stroke-miterlimit="10"/>
<mask id="mask4_2587_18448" style="mask-type:luminance" maskUnits="userSpaceOnUse" x="148" y="16" width="157" height="159">
<path d="M290.748 69.4764H290.738V21.4064C290.738 20.6764 290.338 19.9964 289.688 19.6564C281.118 15.1064 270.808 15.2864 262.408 20.1464L262.298 20.2064L248.078 28.4164H248.068L233.858 36.6164L219.628 44.8364L205.408 53.0464L191.188 61.2564L176.968 69.4664H176.958L170.608 73.1364C165.738 75.9564 162.738 81.1564 162.738 86.7764V94.0964H162.748L162.738 94.1064V110.516H162.748L162.738 110.536V143.366L155.268 147.686C151.088 150.096 148.518 154.556 148.518 159.376V162.746C148.518 165.996 150.258 169.006 153.068 170.636L157.598 173.246C160.778 175.086 164.698 175.086 167.878 173.246L176.958 168.006H176.968L184.448 163.676L187.438 161.946C189.758 160.606 191.188 158.136 191.188 155.456V105.916C191.188 98.5964 195.088 91.8364 201.428 88.1764L205.408 85.8764L219.628 77.6664L219.638 77.6564L233.858 69.4564L248.078 61.2364L255.258 57.0964C258.388 55.2864 262.298 57.5464 262.298 61.1664V97.0464C262.298 100.296 264.038 103.306 266.848 104.926L271.788 107.776C274.708 109.466 278.308 109.466 281.228 107.776L290.728 102.296L300.068 96.9064C303.088 95.1564 304.958 91.9364 304.958 88.4464V87.8864V85.8764C304.958 80.7864 302.248 76.0864 297.838 73.5464L290.738 69.4464L290.748 69.4764ZM178.848 87.0564C178.848 87.0564 178.848 87.0764 178.838 87.0764L176.958 85.9064L178.858 87.0564H178.848Z" fill="white"/>
</mask>
<g mask="url(#mask4_2587_18448)">
<path d="M290.738 85.8966V85.9066H290.748L304.968 77.6966V77.6866L290.748 69.4766H290.738V69.4866V85.8966Z" fill="#A07F57"/>
<path d="M176.968 135.176V135.166V118.746V102.326L182.928 89.6163L176.958 85.9063L162.738 77.6963V94.1063L162.748 94.1163H162.738V110.526L162.748 110.536L162.738 110.546V126.956V143.376V143.386L176.968 151.596V135.176Z" fill="#77552C"/>
<path d="M178.928 87.0967L181.968 88.8767L191.188 77.6967L205.408 69.4867H205.418L219.628 61.2867L233.858 53.0667L248.078 44.8567L262.298 36.6467L276.518 28.4367L290.738 20.2267L290.628 20.1567C279.368 12.1467 271.138 15.1167 262.408 20.1567L262.298 20.2167L248.078 28.4267H248.068L233.858 36.6267L219.628 44.8467L205.408 53.0567L191.188 61.2667L176.968 69.4767H176.958L162.738 77.6967L176.958 85.9067L178.928 87.0967Z" fill="#A07F57"/>
<path d="M290.748 85.9068H290.738V69.4868V20.2168L276.518 28.4268L262.298 36.6368L248.078 44.8468L233.858 53.0568L219.628 61.2668L205.418 69.4768H205.408L191.188 77.6868L184.108 81.7768C179.688 84.3268 176.968 89.0368 176.968 94.1468V135.167V151.597L164.258 156.067L163.958 153.807L162.728 156.367L148.508 151.607V168.027L162.728 176.237L176.948 168.027H176.958L184.438 163.697L187.428 161.967C189.748 160.627 191.178 158.157 191.178 155.477V102.897C191.178 97.4568 194.078 92.4368 198.788 89.7168L205.398 85.8968L219.618 77.6868L219.628 77.6768L233.848 69.4768L248.068 61.2568L256.198 56.5668C258.908 55.0068 262.288 56.9568 262.288 60.0868V97.0668C262.288 100.317 264.028 103.327 266.838 104.947L271.778 107.797L276.498 110.517L290.718 102.317L304.938 94.1068H304.948V77.6868L290.728 85.8968L290.748 85.9068Z" fill="#77552C"/>
<path d="M172.178 154.357L174.848 152.817L176.958 151.597L162.728 143.387L148.508 151.597L157.498 156.777C160.738 158.647 164.728 158.647 167.968 156.777L172.178 154.357Z" fill="#A07F57"/>
</g>
<path d="M466.678 241.157V257.547L481.038 249.257L495.398 240.967L509.768 232.677V232.847V232.867V249.257V249.267V265.837V265.847V282.227L524.128 273.937L538.488 265.647L552.858 257.357V241.157V240.967V224.567V224.387V224.377V208.167V207.977L567.218 199.687L581.578 191.397L595.048 183.627V168.337H595.058L595.048 168.327V151.757V135.177L580.688 143.467L566.338 151.747H566.328V151.757L552.858 159.537V174.807V174.817V175.007V191.397V191.587V207.797L538.488 216.087L524.128 224.377L509.768 232.667V216.277V216.267V199.697V199.687V184.407L508.878 184.917L494.518 193.207L480.158 201.507V201.517H480.148L466.678 209.287V224.567V241.157Z" fill="#C6A76F"/>
<path d="M509.768 199.697V216.267V216.277V232.667L524.128 224.377L538.488 216.087L552.858 207.797V191.587V191.397V175.007V174.817V174.807V159.537L551.968 160.047L537.608 168.337L523.238 176.627L509.768 184.407V199.687V199.697Z" fill="#C6A76F"/>
<path d="M567.218 199.687L552.858 207.977V208.167V224.377V224.387V224.567V240.967V241.157V257.357L538.488 265.647L524.128 273.937L509.768 282.227V265.847V265.837V249.267V249.257V232.867V232.847V232.677L495.398 240.967L481.038 249.257L466.678 257.547V257.737V274.137V290.717V307.117L481.038 298.827L495.398 290.527L509.768 282.237V282.417V282.427V298.827V298.837V315.407V315.417V331.987L524.128 323.697L538.488 315.407L552.858 307.117V307.107V290.717V290.527V274.137V273.947V273.937V257.737V257.547L567.218 249.257L581.578 240.967L595.048 233.187V218.097V201.507V184.927V184.917V183.627L581.578 191.397L567.218 199.687Z" fill="#C6A76F"/>
<path d="M509.768 315.406V298.836V298.826V282.426V282.416V282.236L495.398 290.526L481.038 298.826L466.678 307.116V307.296V323.706V340.286V356.866L481.038 348.576L495.398 340.286L509.768 331.996V331.986V315.416V315.406Z" fill="#C6A76F"/>
<path d="M567.217 249.257L552.857 257.547V257.737V273.937V273.947V274.137V290.527V290.717V307.107V307.117V307.297L567.217 299.007L581.577 290.717L595.047 282.947V267.837V251.257V234.677V234.667V233.187L581.577 240.967L567.217 249.257Z" fill="#C6A76F"/>
<path d="M452.647 233.706V266.546V282.966V299.386V381.506L466.867 373.296L481.087 365.076H481.097L495.307 356.866H495.317L509.537 348.656L523.757 340.446L537.977 332.236H537.987L552.197 324.026H552.207L566.427 315.816L580.637 307.606L594.857 299.396L609.077 291.176H609.087V274.766V241.916V209.076V159.806V143.386V110.536H609.077L594.867 118.746H594.857L580.637 126.956L566.417 135.166L552.197 143.376L537.977 151.586L523.747 159.806L509.527 168.016L495.307 176.226L481.087 184.436H481.077L466.857 192.646L452.637 196.586V233.706H452.647ZM466.867 209.076L466.877 209.066L467.747 208.566L481.087 200.866H481.097L495.317 192.646L509.537 184.436L510.417 183.926L523.757 176.226L537.987 168.016L552.207 159.806L553.087 159.296L566.427 151.596L566.437 151.586L580.647 143.386L594.867 135.176V168.006H594.877L594.867 168.016V184.436V233.696V282.966L580.647 291.186L566.427 299.396L552.207 307.606L537.987 315.816L523.757 324.026L509.537 332.236L495.317 340.446L481.097 348.656L481.087 348.666L466.877 356.866H466.867V307.606V258.346V209.076Z" fill="#C6A76F"/>
<path d="M609.098 143.376V159.796V209.066V241.906V274.756V291.176L623.318 299.386L637.538 307.606L651.758 315.816H651.768L665.988 324.026L680.208 332.236L694.428 340.446V291.186V274.766V241.916V225.496V209.076V176.226V154.806L680.208 151.596H680.198L665.988 143.386V192.646V225.486L662.468 236.136L651.758 233.706L639.648 223.696L639.428 221.546L637.538 209.076V126.956L623.318 118.746L609.098 110.536V143.376ZM665.988 258.346H665.978L665.988 258.326V258.346Z" fill="#E8CEA0"/>
<mask id="mask5_2587_18448" style="mask-type:luminance" maskUnits="userSpaceOnUse" x="442" y="613" width="277" height="187">
<path d="M586.167 613.217L442.537 750.397L537.977 799.037L718.607 697.427L586.167 613.217Z" fill="white"/>
</mask>
<g mask="url(#mask5_2587_18448)">
<path d="M753.767 584.097H712.467V625.397H753.767V584.097Z" fill="#DFE9ED"/>
<path d="M753.767 625.396H712.467V666.696H753.767V625.396Z" fill="#DFE9ED"/>
<path d="M753.767 666.696H712.467V707.996H753.767V666.696Z" fill="#DFE9ED"/>
<path d="M753.767 707.986H712.467V749.286H753.767V707.986Z" fill="#DFE9ED"/>
<path d="M753.767 749.287H712.467V790.587H753.767V749.287Z" fill="#DFE9ED"/>
<path d="M753.767 790.587H712.467V831.887H753.767V790.587Z" fill="#DFE9ED"/>
<path d="M712.466 584.097H671.166V625.397H712.466V584.097Z" fill="#DFE9ED"/>
<path d="M712.466 625.396H671.166V666.696H712.466V625.396Z" fill="#DFE9ED"/>
<path d="M712.466 666.696H671.166V707.996H712.466V666.696Z" fill="#DFE9ED"/>
<path d="M712.466 707.986H671.166V749.286H712.466V707.986Z" fill="#DFE9ED"/>
<path d="M712.466 749.287H671.166V790.587H712.466V749.287Z" fill="#DFE9ED"/>
<path d="M712.466 790.587H671.166V831.887H712.466V790.587Z" fill="#DFE9ED"/>
<path d="M671.167 584.097H629.867V625.397H671.167V584.097Z" fill="#DFE9ED"/>
<path d="M671.167 625.396H629.867V666.696H671.167V625.396Z" fill="#DFE9ED"/>
<path d="M671.167 666.696H629.867V707.996H671.167V666.696Z" fill="#DFE9ED"/>
<path d="M671.167 707.986H629.867V749.286H671.167V707.986Z" fill="#DFE9ED"/>
<path d="M671.167 749.287H629.867V790.587H671.167V749.287Z" fill="#DFE9ED"/>
<path d="M671.167 790.587H629.867V831.887H671.167V790.587Z" fill="#DFE9ED"/>
<path d="M629.876 584.097H588.576V625.397H629.876V584.097Z" fill="#DFE9ED"/>
<path d="M629.876 625.396H588.576V666.696H629.876V625.396Z" fill="#DFE9ED"/>
<path d="M629.876 666.696H588.576V707.996H629.876V666.696Z" fill="#DFE9ED"/>
<path d="M629.876 707.986H588.576V749.286H629.876V707.986Z" fill="#DFE9ED"/>
<path d="M629.876 749.287H588.576V790.587H629.876V749.287Z" fill="#DFE9ED"/>
<path d="M629.876 790.587H588.576V831.887H629.876V790.587Z" fill="#DFE9ED"/>
<path d="M588.577 584.097H547.277V625.397H588.577V584.097Z" fill="#DFE9ED"/>
<path d="M588.577 625.396H547.277V666.696H588.577V625.396Z" fill="#DFE9ED"/>
<path d="M588.577 666.696H547.277V707.996H588.577V666.696Z" fill="#DFE9ED"/>
<path d="M588.577 707.986H547.277V749.286H588.577V707.986Z" fill="#DFE9ED"/>
<path d="M588.577 749.287H547.277V790.587H588.577V749.287Z" fill="#DFE9ED"/>
<path d="M588.577 790.587H547.277V831.887H588.577V790.587Z" fill="#DFE9ED"/>
<path d="M547.286 584.097H505.986V625.397H547.286V584.097Z" fill="#DFE9ED"/>
<path d="M547.286 625.396H505.986V666.696H547.286V625.396Z" fill="#DFE9ED"/>
<path d="M547.286 666.696H505.986V707.996H547.286V666.696Z" fill="#DFE9ED"/>
<path d="M547.286 707.986H505.986V749.286H547.286V707.986Z" fill="#DFE9ED"/>
<path d="M547.286 749.287H505.986V790.587H547.286V749.287Z" fill="#DFE9ED"/>
<path d="M547.286 790.587H505.986V831.887H547.286V790.587Z" fill="#DFE9ED"/>
<path d="M505.987 584.097H464.688V625.397H505.987V584.097Z" fill="#DFE9ED"/>
<path d="M505.987 625.396H464.688V666.696H505.987V625.396Z" fill="#DFE9ED"/>
<path d="M505.987 666.696H464.688V707.996H505.987V666.696Z" fill="#DFE9ED"/>
<path d="M505.987 707.986H464.688V749.286H505.987V707.986Z" fill="#DFE9ED"/>
<path d="M505.987 749.287H464.688V790.587H505.987V749.287Z" fill="#DFE9ED"/>
<path d="M505.987 790.587H464.688V831.887H505.987V790.587Z" fill="#DFE9ED"/>
<path d="M464.687 584.097H423.387V625.397H464.687V584.097Z" fill="#DFE9ED"/>
<path d="M464.687 625.396H423.387V666.696H464.687V625.396Z" fill="#DFE9ED"/>
<path d="M464.687 666.696H423.387V707.996H464.687V666.696Z" fill="#DFE9ED"/>
<path d="M464.687 707.986H423.387V749.286H464.687V707.986Z" fill="#DFE9ED"/>
<path d="M464.687 749.287H423.387V790.587H464.687V749.287Z" fill="#DFE9ED"/>
<path d="M464.687 790.587H423.387V831.887H464.687V790.587Z" fill="#DFE9ED"/>
</g>
<path d="M555.827 422.877V388.157L541.607 392.357L541.647 413.467L555.827 422.877Z" fill="#A5B1C4"/>
<path d="M527.377 404.577L541.607 403.467V391.167L527.377 388.157V404.577Z" fill="#DFE9ED"/>
<path d="M527.377 453.847L541.607 445.627V429.207V412.797L527.387 420.997H527.377V421.007V437.417V453.847Z" fill="#DFE9ED"/>
<path d="M483.618 443.986V427.566L469.398 430.706V452.766L483.618 443.986Z" fill="#A5B1C4"/>
<path d="M470.488 453.846V453.836V428.316L469.158 428.706L456.268 429.206V445.626V445.636V462.056V478.476L470.488 470.266V453.846Z" fill="#DFE9ED"/>
<mask id="mask6_2587_18448" style="mask-type:luminance" maskUnits="userSpaceOnUse" x="442" y="340" width="114" height="98">
<path d="M541.607 347.097L534.107 342.767C529.947 340.367 524.817 340.367 520.657 342.767L513.167 347.097L498.947 355.307L484.727 363.517H484.717L470.497 371.737L456.277 379.937L447.747 384.867C444.227 386.897 442.057 390.657 442.057 394.727V397.407C442.057 401.837 444.427 405.937 448.257 408.157H448.267C453.217 411.027 456.277 416.307 456.277 422.027V429.207L470.497 437.417L484.727 429.217V396.367L498.947 388.157L513.167 379.947L519.447 376.327L523.197 374.157C525.057 373.077 527.387 374.417 527.397 376.577V379.767V384.097V388.167L541.627 396.377L555.847 388.167V371.747V361.357C555.847 357.617 553.857 354.167 550.617 352.297L541.627 347.107L541.607 347.097ZM470.487 404.587V404.567H470.497L470.487 404.587Z" fill="white"/>
</mask>
<g mask="url(#mask6_2587_18448)">
<path d="M541.606 361.037L532.056 358.017C529.156 356.347 525.596 356.347 522.696 358.017L513.166 363.517H513.156L498.936 371.727L484.716 379.937L484.706 379.947L470.496 388.157L484.716 396.367L498.936 388.157L513.156 379.947L519.436 376.327L523.646 373.887C525.306 372.927 527.386 374.127 527.386 376.047V384.087V388.157L534.716 392.387C538.986 394.847 544.246 394.847 548.516 392.387L555.836 388.157V371.737V355.307L541.616 361.037H541.606Z" fill="#353644"/>
<path d="M470.497 401.247V404.597L470.487 401.247L456.267 396.377L442.047 388.167V404.587L449.827 409.077C453.807 411.377 456.267 415.627 456.267 420.227V429.217L461.717 431.987L463.537 433.117C467.817 435.777 473.217 435.857 477.577 433.347L484.717 429.227V396.377L470.497 401.247Z" fill="#353644"/>
<path d="M541.607 347.097L527.377 338.887L513.157 347.097L498.937 355.307L484.717 363.517H484.707L470.487 371.737L456.267 379.937L442.047 388.157L456.267 396.367L461.857 399.757L467.367 402.827C469.307 403.907 471.677 403.897 473.597 402.777L484.717 396.357L477.957 392.447L475.917 391.277L473.267 389.737C472.047 389.037 472.067 387.267 473.307 386.597L480.157 382.847L484.717 379.937H484.727L498.947 371.727L513.167 363.517L513.177 363.507L522.607 358.067C525.567 356.357 529.217 356.357 532.177 358.067L538.767 361.867C540.527 362.887 542.707 362.887 544.467 361.867L553.747 356.507L555.837 355.297L541.617 347.087L541.607 347.097Z" fill="#53576B"/>
</g>
<path d="M471.097 700.927L446.347 688.337C437.247 684.097 419.017 691.447 413.997 702.357C407.467 716.567 409.607 730.927 415.307 734.997C415.817 735.367 419.007 737.497 419.607 737.667L442.537 750.397L471.097 700.927Z" fill="url(#paint3_linear_2587_18448)"/>
<path d="M472.7 734.827C480.587 721.167 479.869 705.988 471.097 700.923C462.325 695.859 448.821 702.827 440.934 716.487C433.048 730.147 433.765 745.326 442.537 750.391C451.309 755.455 464.813 748.487 472.7 734.827Z" fill="#353644"/>
<path d="M463.737 713.857C462.457 713.117 460.957 712.917 459.387 713.177C460.647 716.557 460.017 721.447 457.397 725.987C454.777 730.527 450.857 733.517 447.297 734.117C447.857 735.607 448.777 736.807 450.057 737.547C454.257 739.977 460.727 736.637 464.507 730.087C468.287 723.537 467.937 716.277 463.737 713.847V713.857Z" fill="#A5B1C4"/>
<path d="M457.398 725.997C460.018 721.457 460.648 716.567 459.388 713.187C455.828 713.787 451.908 716.777 449.288 721.317C446.668 725.857 446.038 730.747 447.298 734.127C450.858 733.527 454.778 730.537 457.398 725.997Z" fill="#DFE9ED"/>
<path d="M559.347 747.937L534.597 735.347C525.497 731.107 507.267 738.457 502.247 749.367C495.717 763.577 497.857 777.937 503.557 782.007C504.067 782.377 507.257 784.507 507.857 784.677L530.787 797.407L559.347 747.937Z" fill="url(#paint4_linear_2587_18448)"/>
<path d="M560.946 781.835C568.833 768.175 568.115 752.996 559.343 747.931C550.571 742.867 537.067 749.835 529.18 763.495C521.294 777.155 522.011 792.334 530.783 797.399C539.555 802.463 553.06 795.495 560.946 781.835Z" fill="#353644"/>
<path d="M551.987 760.867C550.707 760.127 549.207 759.927 547.637 760.187C548.897 763.567 548.267 768.457 545.647 772.997C543.027 777.537 539.107 780.527 535.547 781.127C536.107 782.617 537.027 783.817 538.307 784.557C542.507 786.987 548.977 783.647 552.757 777.097C556.537 770.547 556.187 763.287 551.987 760.857V760.867Z" fill="#A5B1C4"/>
<path d="M545.648 773.006C548.268 768.466 548.898 763.576 547.638 760.196C544.078 760.796 540.158 763.786 537.538 768.326C534.918 772.866 534.288 777.756 535.548 781.136C539.108 780.536 543.028 777.546 545.648 773.006Z" fill="#DFE9ED"/>
<path d="M729.697 649.897L704.947 637.307C695.847 633.067 677.617 640.417 672.597 651.327C666.067 665.537 668.207 679.897 673.907 683.967C674.417 684.337 677.607 686.467 678.207 686.637L701.137 699.367L729.697 649.897Z" fill="url(#paint5_linear_2587_18448)"/>
<path d="M731.29 683.806C739.177 670.145 738.459 654.966 729.687 649.902C720.915 644.837 707.411 651.805 699.524 665.466C691.638 679.126 692.355 694.305 701.127 699.369C709.899 704.434 723.403 697.466 731.29 683.806Z" fill="#353644"/>
<path d="M722.336 662.827C721.056 662.087 719.557 661.887 717.987 662.147C719.247 665.527 718.617 670.417 715.997 674.957C713.377 679.497 709.456 682.487 705.896 683.087C706.456 684.577 707.376 685.777 708.656 686.517C712.856 688.947 719.327 685.607 723.107 679.057C726.887 672.507 726.536 665.247 722.336 662.817V662.827Z" fill="#A5B1C4"/>
<path d="M715.986 674.966C718.606 670.426 719.236 665.536 717.976 662.156C714.416 662.756 710.496 665.746 707.876 670.286C705.256 674.826 704.626 679.716 705.886 683.096C709.446 682.496 713.366 679.506 715.986 674.966Z" fill="#DFE9ED"/>
<mask id="mask7_2587_18448" style="mask-type:luminance" maskUnits="userSpaceOnUse" x="424" y="77" width="299" height="384">
<path d="M708.657 135.167H708.647L694.437 126.957H694.427L680.207 118.747L665.987 110.537L651.767 102.327H651.757L637.547 94.1065H637.537L623.317 85.8965L609.097 77.6865L602.167 81.6965L599.137 83.4465L606.317 93.3965L603.877 94.8065L594.877 102.327L581.367 105.547L569.437 100.507L566.437 102.327L552.217 110.537L537.997 118.747L523.777 126.957H523.767L509.557 135.167H509.547L495.327 143.387L493.997 157.137L492.107 158.577L491.667 160.507L481.117 168.007L481.107 168.017L466.777 172.917L452.667 168.017L438.447 176.227H438.437L434.647 178.417C428.197 182.137 424.227 189.017 424.227 196.467V200.857V217.277V266.547V282.967V299.387V348.657V365.077V385.517C424.227 393.197 428.327 400.287 434.967 404.127L438.447 406.137L452.667 414.347L466.887 422.557H466.897L481.117 430.767L489.777 435.777L495.337 438.987L509.557 447.197H509.567L518.217 452.197L523.777 455.407L525.487 456.397L528.467 458.117C534.367 461.527 541.647 461.527 547.547 458.117L552.217 455.417H552.227L566.447 447.197L580.667 438.987L594.887 430.777H594.897L609.107 422.567H609.117L623.337 414.347L628.887 411.137L637.557 406.127L651.777 397.917L657.327 394.717L666.007 389.707L680.227 381.497L694.447 373.287L708.667 365.077L711.187 363.617L715.347 361.207C720.017 358.507 722.887 353.527 722.887 348.137V324.017V307.587V274.747V241.897V225.477V209.057V192.627V159.787V152.387C722.887 146.807 719.897 141.647 715.057 138.877L710.447 136.227L708.677 135.147L708.657 135.167ZM694.427 176.217V209.067V225.487V241.907V274.757V291.177V340.447L680.207 348.667L665.987 356.877L651.767 365.087H651.757L637.547 373.297H637.537L623.317 381.507L609.097 389.717L594.877 397.927H594.867L580.647 406.147L566.437 414.357H566.427L552.207 422.567L537.987 424.317L523.757 422.567L509.537 414.357L495.317 406.147L481.097 397.937L481.087 397.927L466.867 389.717L452.647 381.507V299.397V282.977V266.557V198.627C455.137 198.627 457.627 197.987 459.857 196.697L466.867 192.647L481.087 184.437H481.097L495.317 176.227L509.537 168.017L523.757 159.807L537.987 151.587L552.207 143.377L566.427 135.177L580.647 126.957L594.867 118.747H594.877L609.087 110.537H609.097L623.317 118.747L637.537 126.957L651.757 135.167L665.987 143.387L680.197 151.597H680.207L684.977 154.357C687.897 156.047 691.157 156.887 694.427 156.887V176.217Z" fill="white"/>
</mask>
<g mask="url(#mask7_2587_18448)">
<path d="M708.646 151.597L694.426 155.697V176.217V176.227V192.647V209.067V209.077V225.487V225.497V241.907V241.917V258.337V274.757V274.767V291.177V291.187V307.607V324.027V340.447V340.457L680.206 348.667L665.986 356.877L651.766 365.087H651.756L637.546 373.297H637.536L623.316 381.507L609.096 389.717L594.876 397.927L594.866 397.937L580.646 406.147L566.436 414.357H566.426L552.206 422.567L537.986 424.317V447.187V447.197V463.617L552.196 455.417L552.206 455.407L566.426 447.197L580.646 438.987L594.866 430.777V430.767L594.876 430.777L609.086 422.567H609.096V422.557L623.316 414.347L628.866 411.137L637.536 406.137L651.756 397.927L657.306 394.727L665.986 389.717L680.206 381.507L694.426 373.297L708.646 365.087L722.866 356.877V356.867V340.447V324.037V324.027V307.607V307.597V291.187V274.767V274.757V258.337V241.917V241.907V225.497V225.487V209.077V209.067V192.647V192.637V176.227V159.807V159.797V143.387L708.646 151.587V151.597Z" fill="#C6A76F"/>
<path d="M424.207 381.507V397.927L438.427 406.137L452.647 414.347L466.867 422.557H466.877L481.097 430.767L489.757 435.777L495.317 438.987L509.537 447.197H509.547L518.197 452.197L523.757 455.407L532.427 460.407L537.987 463.617V447.197V424.317L523.757 422.567L509.537 414.357L495.317 406.147L481.097 397.937L481.087 397.927L466.867 389.717L452.647 381.507V299.397V282.977V266.557V195.027L438.427 192.647L424.207 184.437V200.857V217.277V266.547V282.967V299.387V348.657V365.077V381.507Z" fill="#E8CEA0"/>
<path d="M438.427 192.646L445.437 196.696C449.897 199.266 455.387 199.266 459.847 196.696L466.857 192.646L481.077 184.436H481.087L495.307 176.226L509.527 168.016L523.747 159.806L537.977 151.586L552.197 143.376L566.417 135.176L580.637 126.956L594.857 118.746H594.867L609.077 110.536H609.087L623.307 118.746L637.527 126.956L651.747 135.166L665.977 143.386L680.187 151.596H680.197L684.967 154.356C690.817 157.736 698.017 157.736 703.857 154.356L708.627 151.596L722.847 143.386L708.637 135.166H708.627L694.417 126.956H694.407L680.187 118.746L665.967 110.536L651.747 102.326H651.737L637.527 94.1063H637.517L623.297 85.8963L616.007 81.6863C611.717 79.2063 606.437 79.2163 602.147 81.6863L599.117 83.4363L606.297 93.3863L603.857 94.7963L594.857 102.316L581.347 105.536L569.417 100.496L566.417 102.316L552.197 110.526L537.977 118.736L523.757 126.946H523.747L509.537 135.156H509.527L495.307 143.376L493.977 157.126L492.087 158.566L491.647 160.496L481.097 167.996L481.087 168.006L466.757 172.906L452.647 168.006L438.427 176.216H438.417L424.207 184.426L438.427 192.636V192.646Z" fill="#F2E8C4"/>
</g>
<path d="M523.757 465.966L509.537 474.176H509.527V474.186V490.416V490.426V506.836V506.846V523.066L523.747 514.856L537.967 506.646L552.197 498.436V482.386V482.206V465.966V465.786V465.776V455.966L537.987 464.166L532.427 460.966L523.757 465.966Z" fill="#DFE9ED"/>
<path d="M552.197 465.786V465.966V482.206V482.386V498.436L537.967 506.646L523.747 514.856L509.527 523.066V506.846V506.836V490.426V490.416V474.186L495.317 482.386L481.097 490.596H481.087L466.867 498.806V515.226V515.236V531.656V547.706L481.077 539.496L495.297 531.286L509.527 523.076V523.256V523.266V539.496V539.506V555.916V555.926V572.156L523.747 563.946L537.967 555.736L552.197 547.526V531.476V531.286V515.056V514.866V514.856V498.806V498.626L566.417 490.416L580.637 482.206L594.867 473.996V457.756V441.336V441.326V431.336L580.647 439.536L566.427 447.746L552.207 455.956L552.197 455.966V465.776V465.786Z" fill="#DFE9ED"/>
<path d="M495.297 629.646L509.527 621.436V621.426V605.016V605.006V588.596V588.586V572.346V572.336V572.166L495.297 580.376L481.077 588.586L466.867 596.786V597.346V613.756V613.766V630.186V630.196V646.056L481.077 637.856L495.297 629.646Z" fill="#DFE9ED"/>
<path d="M566.417 539.496L552.197 547.706V547.896V563.946V563.956V564.136V580.376V580.556V596.786V596.796V596.976L566.417 588.766L580.637 580.556L594.867 572.346V572.336V555.926V539.506V539.496V523.266V523.256V523.076L580.637 531.286L566.417 539.496Z" fill="#DFE9ED"/>
<path d="M495.297 580.376L509.527 572.166V572.336V572.346V588.586V588.596V605.006V605.016V621.426L523.747 613.216L537.967 605.006L552.197 596.796V596.786V580.556V580.376V564.136V563.956V563.946V547.896V547.706L566.417 539.496L580.637 531.286L594.867 523.076V506.846V490.426V490.416V474.176V474.166V473.996L580.637 482.206L566.417 490.416L552.197 498.626V498.806V514.856V514.866V515.056V531.286V531.476V547.526L537.967 555.736L523.747 563.946L509.527 572.156V555.926V555.916V539.506V539.496V523.266V523.256V523.076L495.297 531.286L481.077 539.496L466.867 547.706V548.076V564.496V564.506V580.916V596.786L481.077 588.586L495.297 580.376Z" fill="#DFE9ED"/>
<path d="M609.098 432.577V448.987V465.407V481.837V514.677V580.367L623.318 588.587L637.538 596.797V580.377V514.687V498.267V448.997V416.147L628.868 411.137L623.318 414.347L609.098 422.557V432.567V432.577ZM623.318 440.787H623.308L623.318 440.777V440.787Z" fill="#DFE9ED"/>
<path d="M680.207 440.776L665.977 432.566V448.986V498.256V531.096V563.946V596.786V613.216H665.987L680.197 621.426H680.207L694.427 629.636V596.796V514.686V498.266V443.916L680.207 440.786V440.776Z" fill="#DFE9ED"/>
<path d="M680.197 621.427L665.987 613.217H665.977L651.767 621.427H651.757L637.537 629.637L623.317 637.857L609.097 646.057L594.877 654.277H594.867L580.647 662.487L566.437 670.697H566.427L552.207 678.907L537.987 687.117H537.977L523.767 695.327H523.757L509.547 703.537L523.757 711.747L528.917 714.727C534.527 717.967 541.427 717.967 547.037 714.727L548.487 713.897L552.207 711.747L566.427 703.537L580.647 695.327L594.867 687.117H594.877L609.087 678.907H609.097L623.317 670.697L637.537 662.487L651.757 654.277L665.977 646.067L680.207 637.847L694.427 629.637L680.207 621.427H680.197Z" fill="#FFFFF8"/>
<path d="M594.867 397.937L594.877 397.927H594.867V397.937Z" fill="#5FF25F"/>
<path d="M566.428 414.357H566.438L566.428 414.347V414.357Z" fill="#5FF25F"/>
<path d="M523.758 438.987H523.768L523.758 438.977V438.987Z" fill="#5FF25F"/>
<path d="M523.756 695.326H523.766L537.976 687.126V687.116H537.986L552.206 678.906L566.426 670.696H566.436L580.646 662.486L594.866 654.276H594.876L609.096 646.066V646.056L623.316 637.856L637.536 629.646V629.636L651.756 621.436V621.426H651.766L665.976 613.226V613.216V596.796V596.786V580.366V563.956V563.946V547.526V531.106V531.096V514.686V498.266V498.256V481.836V465.416V448.996V448.986V432.566L651.756 424.356V440.776V457.206V473.626V490.046V506.476V522.886V522.896V539.316V555.736V572.156H651.766L651.756 572.166V588.576V605.006L637.536 613.216L623.316 621.426L609.096 629.636L594.876 637.846H594.866V637.856L580.646 646.056V646.066L566.426 654.276L552.206 662.476V662.486L537.986 670.696H537.976L523.756 678.906L509.546 687.116H509.536L495.316 695.326L509.536 703.536H509.546L523.756 695.336V695.326Z" fill="#353644"/>
<path d="M509.537 430.777H509.547L509.537 430.767V430.777Z" fill="#5FF25F"/>
<path d="M509.548 687.117L523.758 678.906L537.978 670.696H537.988L552.208 662.487V662.477L566.428 654.276L580.648 646.066V646.057L594.868 637.857V637.846H594.878L609.098 629.636L623.318 621.427L637.538 613.216L651.758 605.006V588.576V572.167V572.156V555.737V539.316V522.896V522.886V506.477V490.046V473.626V457.206V440.776V424.356L637.538 416.146V432.566V448.986V448.996V465.417V481.836V498.257V498.266V514.677V514.686V531.107V547.526V563.946V580.367V580.376V596.786V596.797L623.318 604.996V605.006L609.098 613.206V613.216H609.088L594.868 621.427L580.648 629.636L566.428 637.846L552.208 646.057V646.066L552.198 646.057L537.988 654.266H537.978V654.276L523.758 662.477V662.487L509.538 670.686V670.696L495.318 678.896V678.906L481.098 687.107V687.117L495.318 695.326L509.538 687.117H509.548Z" fill="#A5B1C4"/>
<path d="M495.316 678.906L509.536 670.696L523.757 662.486L537.976 654.276L537.986 654.266L552.197 646.056H552.207L566.426 637.846L580.646 629.636L594.866 621.426L609.086 613.216H609.096L623.316 605.006L637.536 596.796L623.316 588.586L609.096 580.376L594.876 588.586H594.866L580.646 596.796L566.426 605.006L552.207 613.216L537.986 621.426H537.976L523.757 629.636L509.546 637.846H509.536L495.316 646.056L481.096 654.266L466.876 662.486H466.866L452.646 670.696L466.866 678.906H466.876L481.086 687.116H481.096L495.316 678.906Z" fill="#FFFFF8"/>
<path d="M466.866 662.476L466.876 662.486L481.096 654.276V654.266L495.316 646.056L509.536 637.856V637.846H509.546L523.757 629.646V629.636L537.976 621.436V621.426H537.986L552.207 613.216L566.426 605.006L580.646 596.796L594.866 588.586V588.576L594.876 588.586L609.096 580.376V580.366V563.946V547.526V531.106V514.686H609.086L609.096 514.676V498.256V481.846V481.836V465.416V465.406V448.996V448.986V432.576V432.566V422.566H609.086L594.876 430.776L594.866 430.766V430.776V440.776L594.876 440.786H594.866V457.196V457.206V473.626V490.046V490.056V506.466V522.896V539.306V539.316V555.736V555.746V572.156L580.646 580.366L566.426 588.576L552.207 596.786V596.796H552.197L537.976 604.996V605.006L523.757 613.216L509.536 621.426H509.526L495.316 629.636L481.096 637.846H481.086L466.866 646.056V645.506V629.646V629.636V613.216V613.206V596.796V596.236V580.366V563.956V563.946V547.526V547.146V531.106V514.686V514.676V498.256L481.086 490.046H481.096L495.316 481.836L509.526 473.626H509.536L523.757 465.416L532.426 460.406L523.757 455.406L518.197 452.196L509.536 457.196V457.206H509.526L495.316 465.406V465.416H495.306L481.096 473.616V473.626L481.086 473.616L466.866 481.836L452.646 485.916V506.466V522.896V539.316V555.736V572.156V572.166V588.576V588.586V604.996V605.006V621.426V637.846V637.856V654.266V654.276V670.696L466.866 662.486V662.476Z" fill="#DFE9ED"/>
<path d="M651.758 151.586V200.856V233.706L658.318 237.486C661.728 239.456 665.988 236.996 665.988 233.056V225.496V192.656V143.386L651.758 135.166V151.586Z" fill="#353644"/>
<path d="M637.537 159.806V209.066V221.146C637.537 223.836 638.977 226.326 641.307 227.676L651.757 233.706V200.866V151.596V135.166L637.537 126.956V159.806Z" fill="#A5B1C4"/>
<path d="M644.656 164.636V181.056V197.476L655.876 203.966C657.206 204.736 658.876 203.776 658.876 202.236V189.276V173.996C658.876 173.286 658.496 172.626 657.876 172.266L644.656 164.636Z" fill="#A5B1C4"/>
<path d="M644.658 458.687V475.107V491.527L655.878 498.017C657.208 498.787 658.878 497.827 658.878 496.287V483.327V468.047C658.878 467.337 658.498 466.677 657.878 466.317L644.658 458.687Z" fill="#A5B1C4"/>
<path d="M644.658 535.937V552.357V568.777L655.878 575.267C657.208 576.037 658.878 575.077 658.878 573.537V560.577V545.297C658.878 544.587 658.498 543.927 657.878 543.567L644.658 535.937Z" fill="#A5B1C4"/>
<path d="M595.867 629.797L581.647 638.007L567.427 646.217L553.207 654.427L566.427 662.057C567.047 662.417 567.807 662.417 568.427 662.057L581.647 654.427L595.867 646.217L607.097 639.737C608.427 638.967 608.427 637.037 607.097 636.277L595.867 629.797Z" fill="#A5B1C4"/>
<mask id="mask8_2587_18448" style="mask-type:luminance" maskUnits="userSpaceOnUse" x="424" y="394" width="299" height="356">
<path d="M708.647 424.367L694.427 416.147H694.417L680.207 407.937H680.197L665.977 399.727L657.307 394.727L651.757 397.927L637.537 406.137L628.867 411.147L637.537 416.157L651.757 424.367L665.977 432.577L680.207 440.787L684.667 443.367C687.687 445.107 691.057 445.977 694.427 445.977V498.267V514.687V596.797V629.647L680.207 637.857L665.977 646.067L651.757 654.287L637.537 662.487L623.317 670.707L609.097 678.917H609.087L594.877 687.127H594.867L580.647 695.337L566.427 703.547L552.207 711.757L537.987 714.447V719.967L537.977 714.447L523.757 711.757L509.547 703.547H509.537L495.317 695.337L481.097 687.127H481.087L466.877 678.917H466.867L452.647 670.707V654.287V637.867V605.017V588.597V572.177V488.147C454.787 488.147 456.917 487.597 458.827 486.487L466.867 481.847L481.087 473.627H481.097L495.307 465.427H495.317L509.527 457.217H509.537L518.197 452.207L509.547 447.207H509.537L495.317 438.997L489.757 435.787L481.097 440.787L481.087 440.797L466.867 449.007L452.647 457.207L438.427 465.427H438.417L432.767 468.697C427.467 471.757 424.207 477.407 424.207 483.517V506.477V522.897V555.737V572.167V588.587V605.007V670.697V673.987C424.207 682.117 428.537 689.627 435.577 693.697L435.917 693.897L438.427 695.347L452.637 703.547L466.857 711.767L481.077 719.977H481.087L495.297 728.187H495.307L509.517 736.397H509.527L523.747 744.607L528.387 747.287C534.307 750.707 541.597 750.717 547.527 747.297L551.077 745.247L552.177 744.597H552.187L566.407 736.387L580.627 728.167L594.847 719.957L609.067 711.747H609.077L623.297 703.537L637.507 695.327H637.517L651.737 687.117L665.957 678.907L680.177 670.697H680.187L694.407 662.477L708.627 654.267L712.977 651.757C719.087 648.227 722.847 641.707 722.847 634.657V629.647V613.217V580.377V563.957V514.687V481.847V465.417V448.997V443.497C722.847 436.727 719.237 430.477 713.377 427.097L708.627 424.357L708.647 424.367Z" fill="white"/>
</mask>
<g mask="url(#mask8_2587_18448)">
<path d="M523.757 744.597L537.967 752.807H537.977V736.387V719.967V714.437L523.757 711.747L509.547 703.537H509.537L495.317 695.327L481.097 687.117H481.087L466.877 678.907H466.867L452.647 670.697V654.277V654.267V637.857V637.847V621.427V605.007V604.997V588.587V588.577V572.167V572.157V555.737V539.317V522.897V506.467V484.587L438.427 481.837L424.207 473.627V490.047V506.467V506.477V522.887V522.897V539.317V555.727V555.737V572.157V572.167V588.577V588.587V604.997V605.007V621.427V637.847V654.257V654.277V670.687V670.697V687.117V687.127L438.427 695.337L452.637 703.537H452.647V703.547L466.867 711.757L481.087 719.967H481.097L495.307 728.177H495.317L509.527 736.387H509.537L523.757 744.597Z" fill="#353644"/>
<path d="M680.197 670.696L680.207 670.686L694.427 662.476L708.647 654.266L722.867 646.056V629.646V629.636V613.216V613.206V596.796V580.376V580.366V563.956V563.946V547.526V531.106V514.686V514.676V498.256V481.846V481.836V465.416V465.406V448.996V448.986V432.566L708.647 440.776L694.427 443.916V465.416V481.836V498.256V498.266V514.676V514.686V531.106V547.526V563.946V580.376V596.786V596.796V613.216V629.636L680.207 637.846L665.977 646.056V646.066L651.757 654.276L637.537 662.476V662.486L623.317 670.696L609.097 678.906H609.087L594.877 687.116H594.867L580.647 695.326L566.427 703.536L552.207 711.746L537.987 714.436L537.977 719.956V719.966V736.386V752.806L552.197 744.596L552.207 744.586L566.427 736.386V736.376L580.647 728.166L594.867 719.956L609.087 711.746H609.097L623.317 703.536L637.527 695.326H637.537L651.757 687.116L665.977 678.906V678.896L680.197 670.696Z" fill="#353644"/>
<path d="M708.647 424.367L694.427 416.147H694.417L680.207 407.937H680.197L665.977 399.727L657.307 394.727L651.757 397.927L637.537 406.137L628.867 411.147L637.537 416.157L651.757 424.367L665.977 432.577L680.207 440.787L684.667 443.367C690.707 446.847 698.147 446.847 704.197 443.367L708.657 440.797L722.877 432.587L708.657 424.387L708.647 424.367Z" fill="#53576B"/>
<path d="M481.097 473.616L495.307 465.416H495.317L509.527 457.206H509.537L518.197 452.196L509.547 447.196H509.537L495.317 438.986L489.757 435.776L481.097 440.776L481.087 440.786L466.867 448.996L452.647 457.196L438.427 465.416H438.417L424.207 473.626L438.427 481.836L446.467 486.476C450.297 488.686 455.007 488.686 458.837 486.476L466.877 481.836L481.097 473.616Z" fill="#53576B"/>
</g>
<path d="M665.988 324.027L651.768 315.817H651.758L637.538 307.607L623.318 299.397L609.098 291.187L609.088 291.177L594.868 299.397L580.648 307.607L566.438 315.817L552.218 324.027H552.208L537.998 332.237H537.988L523.768 340.447L509.548 348.657L495.328 356.867H495.318L481.108 365.077H481.098L466.878 373.297L452.658 381.507L466.878 389.717L481.098 397.927H481.108L495.328 406.147L509.548 414.347L523.768 422.567L525.498 423.567C533.228 428.027 542.758 428.027 550.488 423.567L552.218 422.567L566.438 414.357H566.448L580.658 406.147L594.878 397.937L594.888 397.927L609.108 389.717L623.328 381.507L637.548 373.297H637.558L651.768 365.087H651.778L665.998 356.877L680.218 348.667L694.438 340.457L680.218 332.237L665.998 324.027H665.988ZM509.538 397.927H509.548L509.538 397.937V397.927Z" fill="#F2E8C4"/>
<path d="M495.316 143.386L509.536 135.176V135.166H509.546L523.756 126.966V126.956H523.766L537.986 118.756V118.746L552.206 110.536L566.426 102.326L569.426 100.506" stroke="#C6AF8F" stroke-width="3" stroke-miterlimit="10"/>
<path d="M602.167 81.6962C606.457 79.2162 611.737 79.2162 616.027 81.6862L623.317 85.8962L637.537 94.1062H637.547L651.757 102.316L651.767 102.326L665.987 110.526L680.207 118.746L694.427 126.956H694.437L708.647 135.166H708.657L710.427 136.246L715.037 138.896C717.457 140.286 719.417 142.266 720.767 144.596C722.117 146.936 722.867 149.616 722.867 152.406V348.156C722.867 353.546 719.997 358.526 715.327 361.226L711.187 363.626L708.647 365.086L694.427 373.296L680.207 381.506L665.987 389.716L657.307 394.726L651.757 397.926L637.537 406.136L628.867 411.136L623.317 414.346L609.097 422.556L609.087 422.566L594.877 430.776H594.867L580.647 438.986L552.207 455.406H552.197L547.527 458.106C544.577 459.816 541.277 460.666 537.987 460.666C534.697 460.666 531.397 459.816 528.447 458.116L523.757 455.406L518.197 452.196L509.547 447.196H509.537L495.317 438.986L489.757 435.776L481.097 430.776L466.877 422.566H466.867L452.647 414.346L438.427 406.136L434.947 404.126C428.307 400.286 424.207 393.196 424.207 385.516V196.466C424.207 192.746 425.197 189.166 426.997 186.046C428.797 182.936 431.407 180.286 434.627 178.416L438.417 176.236H438.427L452.647 168.016" stroke="#C6AF8F" stroke-width="3" stroke-miterlimit="10"/>
<mask id="mask9_2587_18448" style="mask-type:luminance" maskUnits="userSpaceOnUse" x="452" y="16" width="158" height="159">
<path d="M594.876 69.4764H594.866V21.4064C594.866 20.6764 594.466 19.9964 593.816 19.6564C585.246 15.1064 574.936 15.2864 566.536 20.1464L566.426 20.2064L552.207 28.4164H552.197L537.986 36.6164L523.757 44.8364L509.536 53.0464L495.316 61.2564L481.096 69.4664H481.086L474.736 73.1364C469.866 75.9564 466.866 81.1564 466.866 86.7764V94.0964H466.876L466.866 94.1064V110.516H466.876L466.866 110.536V143.366L459.396 147.686C455.216 150.096 452.646 154.556 452.646 159.376V162.746C452.646 165.996 454.386 169.006 457.196 170.636L461.726 173.246C464.906 175.086 468.826 175.086 472.006 173.246L481.086 168.006H481.096L488.576 163.676L491.566 161.946C493.886 160.606 495.316 158.136 495.316 155.456V105.916C495.316 98.5964 499.216 91.8364 505.556 88.1764L509.536 85.8764L523.757 77.6664L523.767 77.6564L537.986 69.4564L552.207 61.2364L559.387 57.0964C562.517 55.2864 566.426 57.5464 566.426 61.1664V97.0464C566.426 100.296 568.166 103.306 570.976 104.926L575.916 107.776C578.836 109.466 582.436 109.466 585.356 107.776L594.856 102.296L604.197 96.9064C607.217 95.1564 609.086 91.9364 609.086 88.4464V87.8864V85.8764C609.086 80.7864 606.376 76.0864 601.966 73.5464L594.866 69.4464L594.876 69.4764ZM482.986 87.0564C482.986 87.0564 482.986 87.0764 482.976 87.0764L481.096 85.9064L482.996 87.0564H482.986Z" fill="white"/>
</mask>
<g mask="url(#mask9_2587_18448)">
<path d="M594.867 85.8966V85.9066H594.877L609.097 77.6966V77.6866L594.877 69.4766H594.867V69.4866V85.8966Z" fill="#A07F57"/>
<path d="M481.097 135.176V135.166V118.746V102.326L487.057 89.6163L481.087 85.9063L466.867 77.6963V94.1063L466.877 94.1163H466.867V110.526L466.877 110.536L466.867 110.546V126.956V143.376V143.386L481.097 151.596V135.176Z" fill="#77552C"/>
<path d="M483.057 87.0967L486.097 88.8767L495.317 77.6967L509.537 69.4867H509.547L523.757 61.2867L537.987 53.0667L552.207 44.8567L566.427 36.6467L580.647 28.4367L594.867 20.2267L594.757 20.1567C583.497 12.1467 575.267 15.1167 566.537 20.1567L566.427 20.2167L552.207 28.4267H552.197L537.987 36.6267L523.757 44.8467L509.537 53.0567L495.317 61.2667L481.097 69.4767H481.087L466.867 77.6967L481.087 85.9067L483.057 87.0967Z" fill="#A07F57"/>
<path d="M594.877 85.9068H594.867V69.4868V20.2168L580.647 28.4268L566.427 36.6368L552.207 44.8468L537.987 53.0568L523.757 61.2668L509.547 69.4768H509.537L495.317 77.6868L488.237 81.7768C483.817 84.3268 481.097 89.0368 481.097 94.1468V135.167V151.597L468.387 156.067L468.087 153.807L466.857 156.367L452.637 151.607V168.027L466.857 176.237L481.077 168.027H481.087L488.567 163.697L491.557 161.967C493.877 160.627 495.307 158.157 495.307 155.477V102.897C495.307 97.4568 498.207 92.4368 502.917 89.7168L509.527 85.8968L523.747 77.6868L523.757 77.6768L537.977 69.4768L552.197 61.2568L560.327 56.5668C563.037 55.0068 566.417 56.9568 566.417 60.0868V97.0668C566.417 100.317 568.157 103.327 570.967 104.947L575.907 107.797L580.627 110.517L594.847 102.317L609.067 94.1068H609.077V77.6868L594.857 85.8968L594.877 85.9068Z" fill="#77552C"/>
<path d="M476.316 154.357L478.986 152.817L481.096 151.597L466.866 143.387L452.646 151.597L461.636 156.777C464.876 158.647 468.866 158.647 472.106 156.777L476.316 154.357Z" fill="#A07F57"/>
</g>
</g>
<defs>
<linearGradient id="paint0_linear_2587_18448" x1="105.848" y1="718.757" x2="166.968" y2="718.757" gradientUnits="userSpaceOnUse">
<stop stop-color="#53576B"/>
<stop offset="1" stop-color="#777D99"/>
</linearGradient>
<linearGradient id="paint1_linear_2587_18448" x1="194.098" y1="765.767" x2="255.218" y2="765.767" gradientUnits="userSpaceOnUse">
<stop stop-color="#53576B"/>
<stop offset="1" stop-color="#777D99"/>
</linearGradient>
<linearGradient id="paint2_linear_2587_18448" x1="364.438" y1="667.727" x2="425.558" y2="667.727" gradientUnits="userSpaceOnUse">
<stop stop-color="#53576B"/>
<stop offset="1" stop-color="#777D99"/>
</linearGradient>
<linearGradient id="paint3_linear_2587_18448" x1="409.977" y1="0.027038" x2="471.097" y2="0.027038" gradientUnits="userSpaceOnUse">
<stop stop-color="#53576B"/>
<stop offset="1" stop-color="#777D99"/>
</linearGradient>
<linearGradient id="paint4_linear_2587_18448" x1="498.227" y1="765.767" x2="559.347" y2="765.767" gradientUnits="userSpaceOnUse">
<stop stop-color="#53576B"/>
<stop offset="1" stop-color="#777D99"/>
</linearGradient>
<linearGradient id="paint5_linear_2587_18448" x1="668.567" y1="667.727" x2="729.697" y2="667.727" gradientUnits="userSpaceOnUse">
<stop stop-color="#53576B"/>
<stop offset="1" stop-color="#777D99"/>
</linearGradient>
<clipPath id="clip0_2587_18448">
<rect width="800" height="800" fill="white" transform="translate(0.427734 0.0263672)"/>
</clipPath>
</defs>
</svg>
