<svg width="801" height="801" viewBox="0 0 801 801" fill="none" xmlns="http://www.w3.org/2000/svg">
<mask id="mask0_2587_31696" style="mask-type:luminance" maskUnits="userSpaceOnUse" x="124" y="628" width="348" height="151">
<path d="M403.135 628.454L151.815 645.764L124.445 689.614L277.615 776.054C283.515 779.384 290.745 779.324 296.595 775.884L469.455 674.154C472.295 672.484 472.285 668.364 469.425 666.714L403.145 628.454H403.135Z" fill="white"/>
</mask>
<g mask="url(#mask0_2587_31696)">
<path d="M497.034 589.264H455.734V630.564H497.034V589.264Z" fill="#DFE9ED"/>
<path d="M497.034 630.554H455.734V671.854H497.034V630.554Z" fill="#DFE9ED"/>
<path d="M497.034 671.854H455.734V713.154H497.034V671.854Z" fill="#DFE9ED"/>
<path d="M497.034 713.144H455.734V754.444H497.034V713.144Z" fill="#DFE9ED"/>
<path d="M497.034 754.443H455.734V795.743H497.034V754.443Z" fill="#DFE9ED"/>
<path d="M455.734 589.264H414.434V630.564H455.734V589.264Z" fill="#DFE9ED"/>
<path d="M455.734 630.554H414.434V671.854H455.734V630.554Z" fill="#DFE9ED"/>
<path d="M455.734 671.854H414.434V713.154H455.734V671.854Z" fill="#DFE9ED"/>
<path d="M455.734 713.144H414.434V754.444H455.734V713.144Z" fill="#DFE9ED"/>
<path d="M455.734 754.443H414.434V795.743H455.734V754.443Z" fill="#DFE9ED"/>
<path d="M414.445 589.264H373.145V630.564H414.445V589.264Z" fill="#DFE9ED"/>
<path d="M414.445 630.554H373.145V671.854H414.445V630.554Z" fill="#DFE9ED"/>
<path d="M414.445 671.854H373.145V713.154H414.445V671.854Z" fill="#DFE9ED"/>
<path d="M414.445 713.144H373.145V754.444H414.445V713.144Z" fill="#DFE9ED"/>
<path d="M414.445 754.443H373.145V795.743H414.445V754.443Z" fill="#DFE9ED"/>
<path d="M373.144 589.264H331.844V630.564H373.144V589.264Z" fill="#DFE9ED"/>
<path d="M373.144 630.554H331.844V671.854H373.144V630.554Z" fill="#DFE9ED"/>
<path d="M373.144 671.854H331.844V713.154H373.144V671.854Z" fill="#DFE9ED"/>
<path d="M373.144 713.144H331.844V754.444H373.144V713.144Z" fill="#DFE9ED"/>
<path d="M373.144 754.443H331.844V795.743H373.144V754.443Z" fill="#DFE9ED"/>
<path d="M331.855 589.264H290.555V630.564H331.855V589.264Z" fill="#DFE9ED"/>
<path d="M331.855 630.554H290.555V671.854H331.855V630.554Z" fill="#DFE9ED"/>
<path d="M331.855 671.854H290.555V713.154H331.855V671.854Z" fill="#DFE9ED"/>
<path d="M331.855 713.144H290.555V754.444H331.855V713.144Z" fill="#DFE9ED"/>
<path d="M331.855 754.443H290.555V795.743H331.855V754.443Z" fill="#DFE9ED"/>
<path d="M290.554 589.264H249.254V630.564H290.554V589.264Z" fill="#DFE9ED"/>
<path d="M290.554 630.554H249.254V671.854H290.554V630.554Z" fill="#DFE9ED"/>
<path d="M290.554 671.854H249.254V713.154H290.554V671.854Z" fill="#DFE9ED"/>
<path d="M290.554 713.144H249.254V754.444H290.554V713.144Z" fill="#DFE9ED"/>
<path d="M290.554 754.443H249.254V795.743H290.554V754.443Z" fill="#DFE9ED"/>
<path d="M249.255 589.264H207.955V630.564H249.255V589.264Z" fill="#DFE9ED"/>
<path d="M249.255 630.554H207.955V671.854H249.255V630.554Z" fill="#DFE9ED"/>
<path d="M249.255 671.854H207.955V713.154H249.255V671.854Z" fill="#DFE9ED"/>
<path d="M249.255 713.144H207.955V754.444H249.255V713.144Z" fill="#DFE9ED"/>
<path d="M249.255 754.443H207.955V795.743H249.255V754.443Z" fill="#DFE9ED"/>
<path d="M207.964 589.264H166.664V630.564H207.964V589.264Z" fill="#DFE9ED"/>
<path d="M207.964 630.554H166.664V671.854H207.964V630.554Z" fill="#DFE9ED"/>
<path d="M207.964 671.854H166.664V713.154H207.964V671.854Z" fill="#DFE9ED"/>
<path d="M207.964 713.144H166.664V754.444H207.964V713.144Z" fill="#DFE9ED"/>
<path d="M207.964 754.443H166.664V795.743H207.964V754.443Z" fill="#DFE9ED"/>
<path d="M166.665 589.264H125.365V630.564H166.665V589.264Z" fill="#DFE9ED"/>
<path d="M166.665 630.554H125.365V671.854H166.665V630.554Z" fill="#DFE9ED"/>
<path d="M166.665 671.854H125.365V713.154H166.665V671.854Z" fill="#DFE9ED"/>
<path d="M166.665 713.144H125.365V754.444H166.665V713.144Z" fill="#DFE9ED"/>
<path d="M166.665 754.443H125.365V795.743H166.665V754.443Z" fill="#DFE9ED"/>
<path d="M125.364 589.264H84.0645V630.564H125.364V589.264Z" fill="#DFE9ED"/>
<path d="M125.364 630.554H84.0645V671.854H125.364V630.554Z" fill="#DFE9ED"/>
<path d="M125.364 671.854H84.0645V713.154H125.364V671.854Z" fill="#DFE9ED"/>
<path d="M125.364 713.144H84.0645V754.444H125.364V713.144Z" fill="#DFE9ED"/>
<path d="M125.364 754.443H84.0645V795.743H125.364V754.443Z" fill="#DFE9ED"/>
</g>
<path d="M234.005 736.314V716.044C229.695 716.044 225.375 714.934 221.505 712.694L219.775 711.694L205.555 703.484L191.335 695.274L177.115 687.064L177.105 687.054L162.885 678.844L148.665 670.634V588.524V572.104V555.684V487.754C146.175 487.754 143.685 487.114 141.455 485.824L134.445 481.774L123.015 475.174C121.215 478.294 120.225 481.874 120.225 485.594V489.984V506.404V555.674V572.094V588.514V637.784V654.204V674.644C120.225 682.324 124.325 689.414 130.965 693.254L134.445 695.264L148.665 703.474L162.885 711.684H162.895L177.115 719.894L185.775 724.904L191.335 728.114L205.555 736.324H205.565L214.215 741.324L219.775 744.534L224.465 747.244C227.415 748.944 230.705 749.794 234.005 749.794V736.324V736.314Z" fill="#A07F57"/>
<path d="M177.114 654.204L191.324 645.994H191.334L205.554 637.784L219.774 629.574L233.994 621.364H234.004L248.214 613.154H248.224L262.444 604.944L276.654 596.734H276.664L290.884 588.524L305.104 580.304H305.114V563.894V531.044V498.204V448.934V432.514V399.664H305.104L290.894 407.874H290.884L276.664 416.084L262.444 424.294L248.224 432.504L234.004 440.714L219.774 448.934L205.554 457.144L191.334 465.354L177.114 473.564H177.104L162.884 481.774L155.874 485.824C154.204 486.794 152.384 487.394 150.534 487.634C149.914 487.714 149.294 487.754 148.674 487.754V555.674V572.094V588.514V670.634L162.894 662.424L177.114 654.204ZM234.004 604.944L219.774 613.154L205.554 621.364L191.334 629.574L177.114 637.784L177.104 637.794L162.894 645.994H162.884V645.884L177.054 637.704L191.414 629.414L205.784 621.124L220.144 612.824L234.504 604.534L248.874 596.244V596.364L248.224 596.734L234.004 604.944ZM162.884 498.194H162.894L163.764 497.694L177.104 489.994H177.114L191.334 481.774L205.554 473.564L206.434 473.054L219.774 465.354L234.004 457.144L248.224 448.934L249.104 448.424L262.444 440.724L262.454 440.714L276.664 432.514L290.884 424.304V424.404L276.704 432.594L262.354 440.874H262.344L248.874 448.664L247.984 449.174L233.624 457.464L219.254 465.754L205.784 473.534L204.894 474.044L190.534 482.334L176.174 490.624L176.164 490.634L162.884 498.304V498.204V498.194Z" fill="#77552C"/>
<path d="M386.785 445.654C385.985 445.494 385.185 445.284 384.405 445.024C384.015 444.894 383.625 444.744 383.245 444.584C382.475 444.264 381.725 443.894 380.995 443.474L376.225 440.714H376.215L362.005 432.504L333.555 416.074L319.335 407.864L305.115 399.654V432.494V448.914V498.184V531.024V563.874V580.294L319.335 588.504L333.555 596.724L337.845 599.204V484.354V435.084H337.855L337.845 435.074V418.654L352.075 426.874V476.134V607.414L362.005 613.144L376.225 621.354L390.445 629.564V580.304V563.884V531.034V514.614V498.194V465.344V446.004C390.035 446.004 389.625 445.994 389.225 445.964C388.415 445.914 387.595 445.804 386.795 445.644L386.785 445.654ZM319.335 572.104H319.325L319.335 572.094V572.104ZM362.005 547.474H361.995L362.005 547.454V547.474Z" fill="#A07F57"/>
<path d="M404.664 440.714L399.894 443.484C396.974 445.174 393.704 446.014 390.444 446.014V465.344V498.194V514.614V531.034V563.884V580.304V629.574L376.224 637.794L362.004 646.004L347.784 654.214H347.774L333.564 662.424H333.554L319.334 670.634L305.114 678.844L290.894 687.054H290.884L276.664 695.274L262.454 703.484H262.444L248.224 711.694L246.494 712.694C242.624 714.924 238.314 716.044 234.004 716.044V736.314V749.794C237.294 749.794 240.594 748.944 243.544 747.234L248.214 744.534H248.224L262.444 736.314L276.664 728.104L290.884 719.894H290.894L305.104 711.684H305.114L319.334 703.464L324.884 700.254L333.554 695.244L347.774 687.034L353.324 683.834L362.004 678.824L376.224 670.614L390.444 662.404L404.664 654.194L407.204 652.734L411.344 650.334C416.014 647.634 418.884 642.654 418.884 637.264V613.144V596.714V563.874V531.024V514.604V498.184V481.754V448.914V441.514C418.884 438.724 418.134 436.034 416.784 433.704L404.664 440.694V440.714Z" fill="#77552C"/>
<path d="M176.355 457.405L176.365 457.395H176.355V457.405Z" fill="#C6A76F"/>
<path d="M141.454 485.824C143.684 487.114 146.174 487.754 148.664 487.754C149.284 487.754 149.904 487.714 150.524 487.634C152.374 487.394 154.194 486.794 155.864 485.824L162.874 481.774L177.094 473.564H177.104L191.324 465.354L205.544 457.144L219.764 448.934L233.994 440.714L248.214 432.504L262.434 424.304L276.654 416.084L290.874 407.874H290.884L305.094 399.664H305.104L319.324 407.874L333.544 416.084L347.764 424.294L361.994 432.514L376.204 440.724H376.214L380.984 443.484C381.714 443.904 382.464 444.274 383.234 444.594C383.614 444.754 384.004 444.894 384.394 445.034C385.174 445.294 385.974 445.504 386.774 445.664C387.574 445.824 388.394 445.924 389.204 445.984C389.614 446.014 390.014 446.024 390.424 446.024C393.684 446.024 396.944 445.184 399.874 443.494L404.644 440.734L416.764 433.734C415.414 431.404 413.454 429.424 411.034 428.034L406.424 425.384L404.654 424.304H404.644L390.434 416.094H390.424L376.204 407.884L361.984 399.674L347.764 391.464H347.754L333.544 383.244H333.534L319.314 375.034L312.024 370.824C307.734 368.344 302.454 368.354 298.164 370.824L295.134 372.574L290.284 375.374L296.174 378.774C298.704 380.234 300.754 382.314 302.164 384.764C303.574 387.204 304.354 390.014 304.354 392.934V399.924L290.134 408.124L280.564 413.654C277.684 415.314 274.134 415.314 271.264 413.654L261.694 408.134L249.934 401.344C249.214 400.934 248.634 400.344 248.214 399.664L190.734 432.844L198.384 437.264C200.374 438.414 201.974 440.044 203.084 441.964C204.194 443.884 204.804 446.094 204.804 448.384V457.394H204.794L190.584 465.604H190.574L176.354 473.824L162.134 465.614L148.054 457.484L134.434 465.344H134.424L130.634 467.534C127.414 469.394 124.804 472.044 123.004 475.164L134.434 481.764L141.444 485.814L141.454 485.824Z" fill="#C6A76F"/>
<path d="M347.774 604.954L347.784 604.944L352.074 607.424V508.984V492.564V476.154V476.144V459.724V443.294V426.884L337.844 418.664V435.084H337.854L337.844 435.094V451.514V467.934V484.354V484.364V599.214L347.774 604.944V604.954Z" fill="#77552C"/>
<path d="M362.004 613.154L352.074 607.424L347.784 604.944H347.774L337.844 599.214L333.554 596.734L319.334 588.524L305.114 580.314L305.104 580.304L290.884 588.524L276.664 596.734H276.654L262.444 604.944L248.224 613.154H248.214L234.004 621.364H233.994L219.774 629.574L205.554 637.784L191.334 645.994H191.324L177.114 654.204H177.104L162.884 662.424L148.664 670.634L162.884 678.844L177.104 687.054H177.114L191.334 695.274L205.554 703.474L219.774 711.694L221.504 712.694C225.374 714.924 229.684 716.044 234.004 716.044C238.314 716.044 242.634 714.924 246.494 712.694L248.224 711.694L262.444 703.484H262.454L276.664 695.274L290.884 687.064L290.894 687.054L305.114 678.844L319.334 670.634L333.554 662.424H333.564L347.774 654.214H347.784L362.004 646.004L376.224 637.794L390.444 629.584L376.224 621.364L362.004 613.154Z" fill="#C6A76F"/>
<path d="M275.925 399.914H275.915L265.905 394.134L261.695 391.704L247.475 383.494V397.084C247.475 398.014 247.745 398.904 248.215 399.664C248.635 400.344 249.215 400.924 249.935 401.344L261.695 408.134L271.265 413.654C274.145 415.314 277.695 415.314 280.565 413.654L290.135 408.134L304.355 399.924V392.934C304.355 390.014 303.575 387.214 302.165 384.764L290.135 391.714L275.925 399.914Z" fill="#E2B042"/>
<path d="M176.354 473.824L190.574 465.604H190.584L204.794 457.394H204.804V448.384C204.804 446.094 204.194 443.884 203.084 441.964L190.584 449.184L190.574 449.194L176.364 457.394H176.354L162.134 449.184L150.224 442.304C148.734 444.884 147.914 447.854 147.914 450.934V457.394L148.054 457.484L162.134 465.614L176.354 473.824Z" fill="#E2B042"/>
<path d="M270.084 379.224L277.274 375.084C278.384 374.444 279.754 374.444 280.864 375.084L287.194 378.744C288.154 379.294 288.154 380.684 287.194 381.234L281.134 384.724L265.904 394.134L275.914 399.914H275.924L290.134 391.714L302.164 384.764C300.754 382.314 298.704 380.234 296.174 378.774L290.284 375.374L290.124 375.284L281.324 370.204C277.964 368.264 273.834 368.264 270.474 370.204L261.674 375.284V383.824L270.064 379.224H270.084Z" fill="#F4F0A8"/>
<path d="M176.355 457.394H176.365L190.575 449.194H190.585L203.085 441.964C201.975 440.044 200.375 438.414 198.385 437.264L190.735 432.844L190.585 432.754V438.784L184.975 442.374L185.045 442.414L177.305 446.884C175.735 447.794 173.795 447.794 172.215 446.884L165.965 443.274C165.305 442.894 165.305 441.934 165.965 441.544L173.335 437.294L176.355 435.474V426.964L174.815 425.424L162.125 432.754L156.535 435.984C153.865 437.524 151.705 439.724 150.215 442.304L162.125 449.184L176.345 457.394H176.355Z" fill="#F4F0A8"/>
<path d="M176.364 435.494L173.344 437.314L174.774 436.494L184.984 442.394L190.594 438.804V416.354V403.554C190.594 403.274 190.614 402.994 190.654 402.724C190.914 400.814 192.034 399.104 193.734 398.124L204.824 391.724L219.044 383.514L219.054 383.504L233.264 375.304L233.274 375.294L244.384 368.884C244.904 368.584 245.464 368.534 245.974 368.684C246.144 368.734 246.304 368.804 246.454 368.884C247.054 369.234 247.484 369.884 247.484 370.674V383.504L261.704 391.714L265.914 394.144L281.144 384.734L279.074 385.924L268.784 379.984L270.094 379.224L261.704 383.824V366.024C261.704 362.144 259.894 358.524 256.874 356.204C256.444 355.874 255.984 355.564 255.504 355.284L254.344 354.614C250.164 352.204 245.044 352.174 240.834 354.504C240.764 354.544 240.694 354.574 240.634 354.614L233.264 358.864L219.054 367.074H219.044L204.824 375.284L190.604 383.494L183.214 387.774C181.624 388.694 180.274 389.894 179.194 391.304C177.394 393.654 176.384 396.554 176.384 399.614V408.134V424.564L174.854 425.444L176.394 426.984V435.494H176.364Z" fill="#A07F57"/>
<path d="M174.775 436.494L173.345 437.314L165.975 441.564C165.315 441.944 165.315 442.904 165.975 443.294L172.225 446.904C173.795 447.814 175.735 447.814 177.315 446.904L185.055 442.434L184.985 442.394L174.775 436.494Z" fill="#77552C"/>
<path d="M287.195 378.744L280.865 375.084C279.755 374.444 278.385 374.444 277.275 375.084L270.085 379.224L268.775 379.984L279.065 385.924L281.135 384.734L287.195 381.244C288.155 380.694 288.155 379.304 287.195 378.754V378.744Z" fill="#77552C"/>
<path d="M290.885 397.884L290.895 397.874H290.885V397.884Z" fill="#5FF25F"/>
<path d="M262.445 414.305H262.455L262.445 414.295V414.305Z" fill="#5FF25F"/>
<path d="M219.775 438.935H219.785L219.775 438.925V438.935Z" fill="#5FF25F"/>
<path d="M205.555 430.725H205.565L205.555 430.715V430.725Z" fill="#5FF25F"/>
<path d="M234.005 447.134V426.864C229.695 426.864 225.375 425.754 221.505 423.514L219.775 422.514L205.555 414.304L191.335 406.094L177.115 397.884L177.105 397.874L162.885 389.664L148.665 381.454V299.344V282.924V266.504V198.574C146.175 198.574 143.685 197.934 141.455 196.644L134.445 192.594L123.015 185.994C121.215 189.114 120.225 192.694 120.225 196.414V200.804V217.224V266.494V282.914V299.334V348.604V365.024V385.464C120.225 393.144 124.325 400.234 130.965 404.074L134.445 406.084L148.665 414.294L162.885 422.504H162.895L177.115 430.714L185.775 435.724L191.335 438.934L205.555 447.144H205.565L214.215 452.144L219.775 455.354L224.465 458.064C227.415 459.764 230.705 460.614 234.005 460.614V447.144V447.134Z" fill="#A07F57"/>
<path d="M177.114 365.024L191.324 356.814H191.334L205.554 348.604L219.774 340.394L233.994 332.184H234.004L248.214 323.974H248.224L262.444 315.764L276.654 307.554H276.664L290.884 299.344L305.104 291.124H305.114V274.714V241.864V209.024V159.754V143.334V110.484H305.104L290.894 118.694H290.884L276.664 126.904L262.444 135.114L248.224 143.324L234.004 151.534L219.774 159.754L205.554 167.964L191.334 176.174L177.114 184.384H177.104L162.884 192.594L155.874 196.644C154.204 197.614 152.384 198.214 150.534 198.454C149.914 198.534 149.294 198.574 148.674 198.574V266.494V282.914V299.334V381.454L162.894 373.244L177.114 365.024ZM234.004 315.764L219.774 323.974L205.554 332.184L191.334 340.394L177.114 348.604L177.104 348.614L162.894 356.814H162.884V356.704L177.054 348.524L191.414 340.234L205.784 331.944L220.144 323.644L234.504 315.354L248.874 307.064V307.184L248.224 307.554L234.004 315.764ZM162.884 209.014H162.894L163.764 208.514L177.104 200.814H177.114L191.334 192.594L205.554 184.384L206.434 183.874L219.774 176.174L234.004 167.964L248.224 159.754L249.104 159.244L262.444 151.544L262.454 151.534L276.664 143.334L290.884 135.124V135.224L276.704 143.414L262.354 151.694H262.344L248.874 159.484L247.984 159.994L233.624 168.284L219.254 176.574L205.784 184.354L204.894 184.864L190.534 193.154L176.174 201.444L176.164 201.454L162.884 209.124V209.024V209.014Z" fill="#77552C"/>
<path d="M386.785 156.475C385.985 156.315 385.185 156.105 384.405 155.845C384.015 155.715 383.625 155.565 383.245 155.405C382.475 155.085 381.725 154.715 380.995 154.295L376.225 151.535H376.215L362.005 143.325L333.555 126.895L319.335 118.685L305.115 110.475V143.315V159.735V209.005V241.845V274.695V291.115L319.335 299.325L333.555 307.545L337.845 310.025V195.175V145.905H337.855L337.845 145.895V129.475L352.075 137.695V186.955V318.235L362.005 323.965L376.225 332.175L390.445 340.385V291.125V274.705V241.855V225.435V209.015V176.165V156.825C390.035 156.825 389.625 156.815 389.225 156.785C388.415 156.735 387.595 156.625 386.795 156.465L386.785 156.475ZM319.335 282.925H319.325L319.335 282.915V282.925ZM362.005 258.295H361.995L362.005 258.275V258.295Z" fill="#A07F57"/>
<path d="M404.664 151.534L399.894 154.304C396.974 155.994 393.704 156.834 390.444 156.834V176.164V209.014V225.434V241.854V274.704V291.124V340.394L376.224 348.614L362.004 356.824L347.784 365.034H347.774L333.564 373.244H333.554L319.334 381.454L305.114 389.664L290.894 397.874H290.884L276.664 406.094L262.454 414.304H262.444L248.224 422.514L246.494 423.514C242.624 425.744 238.314 426.864 234.004 426.864V447.134V460.614C237.294 460.614 240.594 459.764 243.544 458.054L248.214 455.354H248.224L262.444 447.134L276.664 438.924L290.884 430.714H290.894L305.104 422.504H305.114L319.334 414.284L324.884 411.074L333.554 406.064L347.774 397.854L353.324 394.654L362.004 389.644L376.224 381.434L390.444 373.224L404.664 365.014L407.204 363.554L411.344 361.154C416.014 358.454 418.884 353.474 418.884 348.084V323.964V307.534V274.694V241.844V225.424V209.004V192.574V159.734V152.334C418.884 149.544 418.134 146.854 416.784 144.524L404.664 151.514V151.534Z" fill="#77552C"/>
<path d="M176.355 168.225L176.365 168.215H176.355V168.225Z" fill="#C6A76F"/>
<path d="M141.454 196.644C143.684 197.934 146.174 198.574 148.664 198.574C149.284 198.574 149.904 198.534 150.524 198.454C152.374 198.214 154.194 197.614 155.864 196.644L162.874 192.594L177.094 184.384H177.104L191.324 176.174L205.544 167.964L219.764 159.754L233.994 151.534L248.214 143.324L262.434 135.124L276.654 126.904L290.874 118.694H290.884L305.094 110.484H305.104L319.324 118.694L333.544 126.904L347.764 135.114L361.994 143.334L376.204 151.544H376.214L380.984 154.304C381.714 154.724 382.464 155.094 383.234 155.414C383.614 155.574 384.004 155.714 384.394 155.854C385.174 156.114 385.974 156.324 386.774 156.484C387.574 156.644 388.394 156.744 389.204 156.804C389.614 156.834 390.014 156.844 390.424 156.844C393.684 156.844 396.944 156.004 399.874 154.314L404.644 151.554L416.764 144.554C415.414 142.224 413.454 140.244 411.034 138.854L406.424 136.204L404.654 135.124H404.644L390.434 126.914H390.424L376.204 118.704L361.984 110.494L347.764 102.284H347.754L333.544 94.0643H333.534L319.314 85.8543L312.024 81.6443C307.734 79.1643 302.454 79.1743 298.164 81.6443L295.134 83.3943L290.284 86.1943L296.174 89.5943C298.704 91.0543 300.754 93.1343 302.164 95.5843C303.574 98.0243 304.354 100.834 304.354 103.754V110.744L290.134 118.944L280.564 124.474C277.684 126.134 274.134 126.134 271.264 124.474L261.694 118.954L249.934 112.164C249.214 111.754 248.634 111.164 248.214 110.484L190.734 143.664L198.384 148.084C200.374 149.234 201.974 150.864 203.084 152.784C204.194 154.704 204.804 156.914 204.804 159.204V168.214H204.794L190.584 176.424H190.574L176.354 184.644L162.134 176.434L148.054 168.304L134.434 176.164H134.424L130.634 178.354C127.414 180.214 124.804 182.864 123.004 185.984L134.434 192.584L141.444 196.634L141.454 196.644Z" fill="#C6A76F"/>
<path d="M347.774 315.774L347.784 315.764L352.074 318.244V219.804V203.384V186.974V186.964V170.544V154.114V137.704L337.844 129.484V145.904H337.854L337.844 145.914V162.334V178.754V195.174V195.184V310.034L347.774 315.764V315.774Z" fill="#77552C"/>
<path d="M362.004 323.974L352.074 318.244L347.784 315.764H347.774L337.844 310.034L333.554 307.554L319.334 299.344L305.114 291.134L305.104 291.124L290.884 299.344L276.664 307.554H276.654L262.444 315.764L248.224 323.974H248.214L234.004 332.184H233.994L219.774 340.394L205.554 348.604L191.334 356.814H191.324L177.114 365.024H177.104L162.884 373.244L148.664 381.454L162.884 389.664L177.104 397.874H177.114L191.334 406.094L205.554 414.294L219.774 422.514L221.504 423.514C225.374 425.744 229.684 426.864 234.004 426.864C238.314 426.864 242.634 425.744 246.494 423.514L248.224 422.514L262.444 414.304H262.454L276.664 406.094L290.884 397.884L290.894 397.874L305.114 389.664L319.334 381.454L333.554 373.244H333.564L347.774 365.034H347.784L362.004 356.824L376.224 348.614L390.444 340.404L376.224 332.184L362.004 323.974Z" fill="#C6A76F"/>
<path d="M275.925 110.734H275.915L265.905 104.954L261.695 102.524L247.475 94.3145V107.904C247.475 108.834 247.745 109.724 248.215 110.484C248.635 111.164 249.215 111.744 249.935 112.164L261.695 118.954L271.265 124.474C274.145 126.134 277.695 126.134 280.565 124.474L290.135 118.954L304.355 110.744V103.754C304.355 100.834 303.575 98.0345 302.165 95.5845L290.135 102.534L275.925 110.734Z" fill="#E2B042"/>
<path d="M176.354 184.644L190.574 176.424H190.584L204.794 168.214H204.804V159.204C204.804 156.914 204.194 154.704 203.084 152.784L190.584 160.004L190.574 160.014L176.364 168.214H176.354L162.134 160.004L150.224 153.124C148.734 155.704 147.914 158.674 147.914 161.754V168.214L148.054 168.304L162.134 176.434L176.354 184.644Z" fill="#E2B042"/>
<path d="M270.084 90.0443L277.274 85.9043C278.384 85.2643 279.754 85.2643 280.864 85.9043L287.194 89.5643C288.154 90.1143 288.154 91.5043 287.194 92.0543L281.134 95.5443L265.904 104.954L275.914 110.734H275.924L290.134 102.534L302.164 95.5843C300.754 93.1343 298.704 91.0543 296.174 89.5943L290.284 86.1943L290.124 86.1043L281.324 81.0243C277.964 79.0843 273.834 79.0843 270.474 81.0243L261.674 86.1043V94.6443L270.064 90.0443H270.084Z" fill="#F4F0A8"/>
<path d="M176.355 168.214H176.365L190.575 160.014H190.585L203.085 152.784C201.975 150.864 200.375 149.234 198.385 148.084L190.735 143.664L190.585 143.574V149.604L184.975 153.194L185.045 153.234L177.305 157.704C175.735 158.614 173.795 158.614 172.215 157.704L165.965 154.094C165.305 153.714 165.305 152.754 165.965 152.364L173.335 148.114L176.355 146.294V137.784L174.815 136.244L162.125 143.574L156.535 146.804C153.865 148.344 151.705 150.544 150.215 153.124L162.125 160.004L176.345 168.214H176.355Z" fill="#F4F0A8"/>
<path d="M176.364 146.314L173.344 148.134L174.774 147.314L184.984 153.214L190.594 149.624V127.174V114.374C190.594 114.094 190.614 113.814 190.654 113.544C190.914 111.634 192.034 109.924 193.734 108.944L204.824 102.544L219.044 94.3345L219.054 94.3244L233.264 86.1245L233.274 86.1145L244.384 79.7044C244.904 79.4044 245.464 79.3545 245.974 79.5044C246.144 79.5545 246.304 79.6244 246.454 79.7044C247.054 80.0544 247.484 80.7044 247.484 81.4944V94.3244L261.704 102.534L265.914 104.964L281.144 95.5545L279.074 96.7444L268.784 90.8045L270.094 90.0445L261.704 94.6444V76.8444C261.704 72.9644 259.894 69.3444 256.874 67.0244C256.444 66.6944 255.984 66.3844 255.504 66.1044L254.344 65.4345C250.164 63.0245 245.044 62.9944 240.834 65.3244C240.764 65.3644 240.694 65.3945 240.634 65.4345L233.264 69.6845L219.054 77.8944H219.044L204.824 86.1044L190.604 94.3144L183.214 98.5944C181.624 99.5144 180.274 100.714 179.194 102.124C177.394 104.474 176.384 107.374 176.384 110.434V118.954V135.384L174.854 136.264L176.394 137.804V146.314H176.364Z" fill="#A07F57"/>
<path d="M174.775 147.314L173.345 148.134L165.975 152.384C165.315 152.764 165.315 153.724 165.975 154.114L172.225 157.724C173.795 158.634 175.735 158.634 177.315 157.724L185.055 153.254L184.985 153.214L174.775 147.314Z" fill="#77552C"/>
<path d="M287.195 89.5648L280.865 85.9048C279.755 85.2648 278.385 85.2648 277.275 85.9048L270.085 90.0448L268.775 90.8048L279.065 96.7448L281.135 95.5548L287.195 92.0648C288.155 91.5148 288.155 90.1248 287.195 89.5748V89.5648Z" fill="#77552C"/>
<mask id="mask1_2587_31696" style="mask-type:luminance" maskUnits="userSpaceOnUse" x="428" y="628" width="348" height="151">
<path d="M707.264 628.454L455.944 645.764L428.574 689.614L581.744 776.054C587.644 779.384 594.874 779.324 600.724 775.884L773.584 674.154C776.424 672.484 776.414 668.364 773.554 666.714L707.274 628.454H707.264Z" fill="white"/>
</mask>
<g mask="url(#mask1_2587_31696)">
<path d="M801.175 589.264H759.875V630.564H801.175V589.264Z" fill="#DFE9ED"/>
<path d="M801.175 630.554H759.875V671.854H801.175V630.554Z" fill="#DFE9ED"/>
<path d="M801.175 671.854H759.875V713.154H801.175V671.854Z" fill="#DFE9ED"/>
<path d="M801.175 713.144H759.875V754.444H801.175V713.144Z" fill="#DFE9ED"/>
<path d="M801.175 754.443H759.875V795.743H801.175V754.443Z" fill="#DFE9ED"/>
<path d="M759.874 589.264H718.574V630.564H759.874V589.264Z" fill="#DFE9ED"/>
<path d="M759.874 630.554H718.574V671.854H759.874V630.554Z" fill="#DFE9ED"/>
<path d="M759.874 671.854H718.574V713.154H759.874V671.854Z" fill="#DFE9ED"/>
<path d="M759.874 713.144H718.574V754.444H759.874V713.144Z" fill="#DFE9ED"/>
<path d="M759.874 754.443H718.574V795.743H759.874V754.443Z" fill="#DFE9ED"/>
<path d="M718.575 589.264H677.275V630.564H718.575V589.264Z" fill="#DFE9ED"/>
<path d="M718.575 630.554H677.275V671.854H718.575V630.554Z" fill="#DFE9ED"/>
<path d="M718.575 671.854H677.275V713.154H718.575V671.854Z" fill="#DFE9ED"/>
<path d="M718.575 713.144H677.275V754.444H718.575V713.144Z" fill="#DFE9ED"/>
<path d="M718.575 754.443H677.275V795.743H718.575V754.443Z" fill="#DFE9ED"/>
<path d="M677.284 589.264H635.984V630.564H677.284V589.264Z" fill="#DFE9ED"/>
<path d="M677.284 630.554H635.984V671.854H677.284V630.554Z" fill="#DFE9ED"/>
<path d="M677.284 671.854H635.984V713.154H677.284V671.854Z" fill="#DFE9ED"/>
<path d="M677.284 713.144H635.984V754.444H677.284V713.144Z" fill="#DFE9ED"/>
<path d="M677.284 754.443H635.984V795.743H677.284V754.443Z" fill="#DFE9ED"/>
<path d="M635.986 589.264H594.686V630.564H635.986V589.264Z" fill="#DFE9ED"/>
<path d="M635.986 630.554H594.686V671.854H635.986V630.554Z" fill="#DFE9ED"/>
<path d="M635.986 671.854H594.686V713.154H635.986V671.854Z" fill="#DFE9ED"/>
<path d="M635.986 713.144H594.686V754.444H635.986V713.144Z" fill="#DFE9ED"/>
<path d="M635.986 754.443H594.686V795.743H635.986V754.443Z" fill="#DFE9ED"/>
<path d="M594.685 589.264H553.385V630.564H594.685V589.264Z" fill="#DFE9ED"/>
<path d="M594.685 630.554H553.385V671.854H594.685V630.554Z" fill="#DFE9ED"/>
<path d="M594.685 671.854H553.385V713.154H594.685V671.854Z" fill="#DFE9ED"/>
<path d="M594.685 713.144H553.385V754.444H594.685V713.144Z" fill="#DFE9ED"/>
<path d="M594.685 754.443H553.385V795.743H594.685V754.443Z" fill="#DFE9ED"/>
<path d="M553.396 589.264H512.096V630.564H553.396V589.264Z" fill="#DFE9ED"/>
<path d="M553.396 630.554H512.096V671.854H553.396V630.554Z" fill="#DFE9ED"/>
<path d="M553.396 671.854H512.096V713.154H553.396V671.854Z" fill="#DFE9ED"/>
<path d="M553.396 713.144H512.096V754.444H553.396V713.144Z" fill="#DFE9ED"/>
<path d="M553.396 754.443H512.096V795.743H553.396V754.443Z" fill="#DFE9ED"/>
<path d="M512.095 589.264H470.795V630.564H512.095V589.264Z" fill="#DFE9ED"/>
<path d="M512.095 630.554H470.795V671.854H512.095V630.554Z" fill="#DFE9ED"/>
<path d="M512.095 671.854H470.795V713.154H512.095V671.854Z" fill="#DFE9ED"/>
<path d="M512.095 713.144H470.795V754.444H512.095V713.144Z" fill="#DFE9ED"/>
<path d="M512.095 754.443H470.795V795.743H512.095V754.443Z" fill="#DFE9ED"/>
<path d="M470.794 589.264H429.494V630.564H470.794V589.264Z" fill="#DFE9ED"/>
<path d="M470.794 630.554H429.494V671.854H470.794V630.554Z" fill="#DFE9ED"/>
<path d="M470.794 671.854H429.494V713.154H470.794V671.854Z" fill="#DFE9ED"/>
<path d="M470.794 713.144H429.494V754.444H470.794V713.144Z" fill="#DFE9ED"/>
<path d="M470.794 754.443H429.494V795.743H470.794V754.443Z" fill="#DFE9ED"/>
<path d="M429.505 589.264H388.205V630.564H429.505V589.264Z" fill="#DFE9ED"/>
<path d="M429.505 630.554H388.205V671.854H429.505V630.554Z" fill="#DFE9ED"/>
<path d="M429.505 671.854H388.205V713.154H429.505V671.854Z" fill="#DFE9ED"/>
<path d="M429.505 713.144H388.205V754.444H429.505V713.144Z" fill="#DFE9ED"/>
<path d="M429.505 754.443H388.205V795.743H429.505V754.443Z" fill="#DFE9ED"/>
</g>
<path d="M538.134 736.314V716.044C533.824 716.044 529.504 714.934 525.634 712.694L523.904 711.694L509.684 703.484L495.464 695.274L481.243 687.064L481.234 687.054L467.014 678.844L452.794 670.634V588.524V572.104V555.684V487.754C450.304 487.754 447.813 487.114 445.583 485.824L438.574 481.774L427.143 475.174C425.343 478.294 424.354 481.874 424.354 485.594V489.984V506.404V555.674V572.094V588.514V637.784V654.204V674.644C424.354 682.324 428.454 689.414 435.094 693.254L438.574 695.264L452.794 703.474L467.014 711.684H467.023L481.243 719.894L489.904 724.904L495.464 728.114L509.684 736.324H509.694L518.344 741.324L523.904 744.534L528.594 747.244C531.544 748.944 534.834 749.794 538.134 749.794V736.324V736.314Z" fill="#A07F57"/>
<path d="M481.243 654.204L495.453 645.994H495.463L509.683 637.784L523.903 629.574L538.123 621.364H538.133L552.343 613.154H552.353L566.573 604.944L580.783 596.734H580.793L595.013 588.524L609.233 580.304H609.243V563.894V531.044V498.204V448.934V432.514V399.664H609.233L595.023 407.874H595.013L580.793 416.084L566.573 424.294L552.353 432.504L538.133 440.714L523.903 448.934L509.683 457.144L495.463 465.354L481.243 473.564H481.233L467.013 481.774L460.003 485.824C458.333 486.794 456.513 487.394 454.663 487.634C454.043 487.714 453.423 487.754 452.803 487.754V555.674V572.094V588.514V670.634L467.023 662.424L481.243 654.204ZM538.133 604.944L523.903 613.154L509.683 621.364L495.463 629.574L481.243 637.784L481.233 637.794L467.023 645.994H467.013V645.884L481.183 637.704L495.543 629.414L509.913 621.124L524.273 612.824L538.633 604.534L553.003 596.244V596.364L552.353 596.734L538.133 604.944ZM467.013 498.194H467.023L467.893 497.694L481.233 489.994H481.243L495.463 481.774L509.683 473.564L510.563 473.054L523.903 465.354L538.133 457.144L552.353 448.934L553.233 448.424L566.573 440.724L566.583 440.714L580.793 432.514L595.013 424.304V424.404L580.833 432.594L566.483 440.874H566.473L553.003 448.664L552.113 449.174L537.753 457.464L523.383 465.754L509.913 473.534L509.023 474.044L494.663 482.334L480.303 490.624L480.293 490.634L467.013 498.304V498.204V498.194Z" fill="#77552C"/>
<path d="M690.924 445.654C690.124 445.494 689.324 445.284 688.544 445.024C688.154 444.894 687.764 444.744 687.384 444.584C686.614 444.264 685.864 443.894 685.134 443.474L680.364 440.714H680.354L666.144 432.504L637.694 416.074L623.474 407.864L609.254 399.654V432.494V448.914V498.184V531.024V563.874V580.294L623.474 588.504L637.694 596.724L641.984 599.204V484.354V435.084H641.994L641.984 435.074V418.654L656.214 426.874V476.134V607.414L666.144 613.144L680.364 621.354L694.584 629.564V580.304V563.884V531.034V514.614V498.194V465.344V446.004C694.174 446.004 693.764 445.994 693.364 445.964C692.554 445.914 691.734 445.804 690.934 445.644L690.924 445.654ZM623.464 572.104H623.454L623.464 572.094V572.104ZM666.134 547.474H666.124L666.134 547.454V547.474Z" fill="#A07F57"/>
<path d="M708.793 440.714L704.023 443.484C701.103 445.174 697.833 446.014 694.573 446.014V465.344V498.194V514.614V531.034V563.884V580.304V629.574L680.353 637.794L666.133 646.004L651.913 654.214H651.903L637.693 662.424H637.683L623.463 670.634L609.243 678.844L595.023 687.054H595.013L580.793 695.274L566.583 703.484H566.573L552.353 711.694L550.623 712.694C546.753 714.924 542.443 716.044 538.133 716.044V736.314V749.794C541.423 749.794 544.723 748.944 547.673 747.234L552.343 744.534H552.353L566.573 736.314L580.793 728.104L595.013 719.894H595.023L609.233 711.684H609.243L623.463 703.464L629.013 700.254L637.683 695.244L651.903 687.034L657.453 683.834L666.133 678.824L680.353 670.614L694.573 662.404L708.793 654.194L711.333 652.734L715.473 650.334C720.143 647.634 723.013 642.654 723.013 637.264V613.144V596.714V563.874V531.024V514.604V498.184V481.754V448.914V441.514C723.013 438.724 722.263 436.034 720.913 433.704L708.793 440.694V440.714Z" fill="#77552C"/>
<path d="M480.494 457.405L480.504 457.395H480.494V457.405Z" fill="#C6A76F"/>
<path d="M445.583 485.824C447.813 487.114 450.303 487.754 452.793 487.754C453.413 487.754 454.033 487.714 454.653 487.634C456.503 487.394 458.323 486.794 459.993 485.824L467.003 481.774L481.223 473.564H481.233L495.453 465.354L509.673 457.144L523.893 448.934L538.123 440.714L552.343 432.504L566.563 424.304L580.783 416.084L595.003 407.874H595.013L609.223 399.664H609.233L623.453 407.874L637.673 416.084L651.893 424.294L666.123 432.514L680.333 440.724H680.343L685.113 443.484C685.843 443.904 686.593 444.274 687.363 444.594C687.743 444.754 688.133 444.894 688.523 445.034C689.303 445.294 690.103 445.504 690.903 445.664C691.703 445.824 692.523 445.924 693.333 445.984C693.743 446.014 694.143 446.024 694.553 446.024C697.813 446.024 701.073 445.184 704.003 443.494L708.773 440.734L720.893 433.734C719.543 431.404 717.583 429.424 715.163 428.034L710.553 425.384L708.783 424.304H708.773L694.563 416.094H694.553L680.333 407.884L666.113 399.674L651.893 391.464H651.883L637.673 383.244H637.663L623.443 375.034L616.153 370.824C611.863 368.344 606.583 368.354 602.293 370.824L599.263 372.574L594.413 375.374L600.303 378.774C602.833 380.234 604.883 382.314 606.293 384.764C607.703 387.204 608.483 390.014 608.483 392.934V399.924L594.263 408.124L584.693 413.654C581.813 415.314 578.263 415.314 575.393 413.654L565.823 408.134L554.063 401.344C553.343 400.934 552.763 400.344 552.343 399.664L494.863 432.844L502.513 437.264C504.503 438.414 506.103 440.044 507.213 441.964C508.323 443.884 508.933 446.094 508.933 448.384V457.394H508.923L494.713 465.604H494.703L480.483 473.824L466.263 465.614L452.183 457.484L438.563 465.344H438.553L434.763 467.534C431.543 469.394 428.933 472.044 427.133 475.164L438.563 481.764L445.573 485.814L445.583 485.824Z" fill="#C6A76F"/>
<path d="M651.903 604.954L651.913 604.944L656.203 607.424V508.984V492.564V476.154V476.144V459.724V443.294V426.884L641.973 418.664V435.084H641.983L641.973 435.094V451.514V467.934V484.354V484.364V599.214L651.903 604.944V604.954Z" fill="#77552C"/>
<path d="M666.133 613.154L656.203 607.424L651.913 604.944H651.903L641.973 599.214L637.683 596.734L623.463 588.524L609.243 580.314L609.233 580.304L595.013 588.524L580.793 596.734H580.783L566.573 604.944L552.353 613.154H552.343L538.133 621.364H538.123L523.903 629.574L509.683 637.784L495.463 645.994H495.453L481.243 654.204H481.233L467.013 662.424L452.793 670.634L467.013 678.844L481.233 687.054H481.243L495.463 695.274L509.683 703.474L523.903 711.694L525.633 712.694C529.503 714.924 533.813 716.044 538.133 716.044C542.443 716.044 546.763 714.924 550.623 712.694L552.353 711.694L566.573 703.484H566.583L580.793 695.274L595.013 687.064L595.023 687.054L609.243 678.844L623.463 670.634L637.683 662.424H637.693L651.903 654.214H651.913L666.133 646.004L680.353 637.794L694.573 629.584L680.353 621.364L666.133 613.154Z" fill="#C6A76F"/>
<path d="M580.063 399.914H580.053L570.043 394.134L565.833 391.704L551.613 383.494V397.084C551.613 398.014 551.883 398.904 552.353 399.664C552.773 400.344 553.353 400.924 554.073 401.344L565.833 408.134L575.403 413.654C578.283 415.314 581.833 415.314 584.703 413.654L594.273 408.134L608.493 399.924V392.934C608.493 390.014 607.713 387.214 606.303 384.764L594.273 391.714L580.063 399.914Z" fill="#E2B042"/>
<path d="M480.493 473.824L494.713 465.604H494.723L508.933 457.394H508.943V448.384C508.943 446.094 508.333 443.884 507.223 441.964L494.723 449.184L494.713 449.194L480.503 457.394H480.493L466.273 449.184L454.363 442.304C452.873 444.884 452.053 447.854 452.053 450.934V457.394L452.193 457.484L466.273 465.614L480.493 473.824Z" fill="#E2B042"/>
<path d="M574.224 379.224L581.414 375.084C582.524 374.444 583.894 374.444 585.004 375.084L591.334 378.744C592.294 379.294 592.294 380.684 591.334 381.234L585.274 384.724L570.044 394.134L580.054 399.914H580.064L594.274 391.714L606.304 384.764C604.894 382.314 602.844 380.234 600.314 378.774L594.424 375.374L594.264 375.284L585.464 370.204C582.104 368.264 577.974 368.264 574.614 370.204L565.814 375.284V383.824L574.204 379.224H574.224Z" fill="#F4F0A8"/>
<path d="M480.493 457.394H480.504L494.714 449.194H494.724L507.224 441.964C506.114 440.044 504.514 438.414 502.523 437.264L494.874 432.844L494.724 432.754V438.784L489.113 442.374L489.184 442.414L481.444 446.884C479.874 447.794 477.934 447.794 476.354 446.884L470.104 443.274C469.444 442.894 469.444 441.934 470.104 441.544L477.474 437.294L480.493 435.474V426.964L478.954 425.424L466.264 432.754L460.673 435.984C458.003 437.524 455.844 439.724 454.354 442.304L466.264 449.184L480.484 457.394H480.493Z" fill="#F4F0A8"/>
<path d="M480.504 435.494L477.484 437.314L478.914 436.494L489.124 442.394L494.734 438.804V416.354V403.554C494.734 403.274 494.754 402.994 494.794 402.724C495.054 400.814 496.174 399.104 497.874 398.124L508.964 391.724L523.184 383.514L523.194 383.504L537.404 375.304L537.414 375.294L548.524 368.884C549.044 368.584 549.604 368.534 550.114 368.684C550.284 368.734 550.444 368.804 550.594 368.884C551.194 369.234 551.624 369.884 551.624 370.674V383.504L565.844 391.714L570.054 394.144L585.284 384.734L583.214 385.924L572.924 379.984L574.234 379.224L565.844 383.824V366.024C565.844 362.144 564.034 358.524 561.014 356.204C560.584 355.874 560.124 355.564 559.644 355.284L558.484 354.614C554.304 352.204 549.184 352.174 544.974 354.504C544.904 354.544 544.834 354.574 544.774 354.614L537.404 358.864L523.194 367.074H523.184L508.964 375.284L494.744 383.494L487.354 387.774C485.764 388.694 484.414 389.894 483.334 391.304C481.534 393.654 480.524 396.554 480.524 399.614V408.134V424.564L478.994 425.444L480.534 426.984V435.494H480.504Z" fill="#A07F57"/>
<path d="M478.904 436.494L477.474 437.314L470.104 441.564C469.444 441.944 469.444 442.904 470.104 443.294L476.354 446.904C477.924 447.814 479.864 447.814 481.444 446.904L489.184 442.434L489.114 442.394L478.904 436.494Z" fill="#77552C"/>
<path d="M591.324 378.744L584.994 375.084C583.884 374.444 582.514 374.444 581.404 375.084L574.214 379.224L572.904 379.984L583.194 385.924L585.264 384.734L591.324 381.244C592.284 380.694 592.284 379.304 591.324 378.754V378.744Z" fill="#77552C"/>
<path d="M595.014 397.884L595.024 397.874H595.014V397.884Z" fill="#5FF25F"/>
<path d="M566.574 414.305H566.584L566.574 414.295V414.305Z" fill="#5FF25F"/>
<path d="M523.904 438.935H523.914L523.904 438.925V438.935Z" fill="#5FF25F"/>
<path d="M509.684 430.725H509.694L509.684 430.715V430.725Z" fill="#5FF25F"/>
<path d="M538.134 447.134V426.864C533.824 426.864 529.504 425.754 525.634 423.514L523.904 422.514L509.684 414.304L495.464 406.094L481.243 397.884L481.234 397.874L467.014 389.664L452.794 381.454V299.344V282.924V266.504V198.574C450.304 198.574 447.813 197.934 445.583 196.644L438.574 192.594L427.143 185.994C425.343 189.114 424.354 192.694 424.354 196.414V200.804V217.224V266.494V282.914V299.334V348.604V365.024V385.464C424.354 393.144 428.454 400.234 435.094 404.074L438.574 406.084L452.794 414.294L467.014 422.504H467.023L481.243 430.714L489.904 435.724L495.464 438.934L509.684 447.144H509.694L518.344 452.144L523.904 455.354L528.594 458.064C531.544 459.764 534.834 460.614 538.134 460.614V447.144V447.134Z" fill="#A07F57"/>
<path d="M481.243 365.024L495.453 356.814H495.463L509.683 348.604L523.903 340.394L538.123 332.184H538.133L552.343 323.974H552.353L566.573 315.764L580.783 307.554H580.793L595.013 299.344L609.233 291.124H609.243V274.714V241.864V209.024V159.754V143.334V110.484H609.233L595.023 118.694H595.013L580.793 126.904L566.573 135.114L552.353 143.324L538.133 151.534L523.903 159.754L509.683 167.964L495.463 176.174L481.243 184.384H481.233L467.013 192.594L460.003 196.644C458.333 197.614 456.513 198.214 454.663 198.454C454.043 198.534 453.423 198.574 452.803 198.574V266.494V282.914V299.334V381.454L467.023 373.244L481.243 365.024ZM538.133 315.764L523.903 323.974L509.683 332.184L495.463 340.394L481.243 348.604L481.233 348.614L467.023 356.814H467.013V356.704L481.183 348.524L495.543 340.234L509.913 331.944L524.273 323.644L538.633 315.354L553.003 307.064V307.184L552.353 307.554L538.133 315.764ZM467.013 209.014H467.023L467.893 208.514L481.233 200.814H481.243L495.463 192.594L509.683 184.384L510.563 183.874L523.903 176.174L538.133 167.964L552.353 159.754L553.233 159.244L566.573 151.544L566.583 151.534L580.793 143.334L595.013 135.124V135.224L580.833 143.414L566.483 151.694H566.473L553.003 159.484L552.113 159.994L537.753 168.284L523.383 176.574L509.913 184.354L509.023 184.864L494.663 193.154L480.303 201.444L480.293 201.454L467.013 209.124V209.024V209.014Z" fill="#77552C"/>
<path d="M690.924 156.475C690.124 156.315 689.324 156.105 688.544 155.845C688.154 155.715 687.764 155.565 687.384 155.405C686.614 155.085 685.864 154.715 685.134 154.295L680.364 151.535H680.354L666.144 143.325L637.694 126.895L623.474 118.685L609.254 110.475V143.315V159.735V209.005V241.845V274.695V291.115L623.474 299.325L637.694 307.545L641.984 310.025V195.175V145.905H641.994L641.984 145.895V129.475L656.214 137.695V186.955V318.235L666.144 323.965L680.364 332.175L694.584 340.385V291.125V274.705V241.855V225.435V209.015V176.165V156.825C694.174 156.825 693.764 156.815 693.364 156.785C692.554 156.735 691.734 156.625 690.934 156.465L690.924 156.475ZM623.464 282.925H623.454L623.464 282.915V282.925ZM666.134 258.295H666.124L666.134 258.275V258.295Z" fill="#A07F57"/>
<path d="M708.793 151.534L704.023 154.304C701.103 155.994 697.833 156.834 694.573 156.834V176.164V209.014V225.434V241.854V274.704V291.124V340.394L680.353 348.614L666.133 356.824L651.913 365.034H651.903L637.693 373.244H637.683L623.463 381.454L609.243 389.664L595.023 397.874H595.013L580.793 406.094L566.583 414.304H566.573L552.353 422.514L550.623 423.514C546.753 425.744 542.443 426.864 538.133 426.864V447.134V460.614C541.423 460.614 544.723 459.764 547.673 458.054L552.343 455.354H552.353L566.573 447.134L580.793 438.924L595.013 430.714H595.023L609.233 422.504H609.243L623.463 414.284L629.013 411.074L637.683 406.064L651.903 397.854L657.453 394.654L666.133 389.644L680.353 381.434L694.573 373.224L708.793 365.014L711.333 363.554L715.473 361.154C720.143 358.454 723.013 353.474 723.013 348.084V323.964V307.534V274.694V241.844V225.424V209.004V192.574V159.734V152.334C723.013 149.544 722.263 146.854 720.913 144.524L708.793 151.514V151.534Z" fill="#77552C"/>
<path d="M480.494 168.225L480.504 168.215H480.494V168.225Z" fill="#C6A76F"/>
<path d="M445.583 196.644C447.813 197.934 450.303 198.574 452.793 198.574C453.413 198.574 454.033 198.534 454.653 198.454C456.503 198.214 458.323 197.614 459.993 196.644L467.003 192.594L481.223 184.384H481.233L495.453 176.174L509.673 167.964L523.893 159.754L538.123 151.534L552.343 143.324L566.563 135.124L580.783 126.904L595.003 118.694H595.013L609.223 110.484H609.233L623.453 118.694L637.673 126.904L651.893 135.114L666.123 143.334L680.333 151.544H680.343L685.113 154.304C685.843 154.724 686.593 155.094 687.363 155.414C687.743 155.574 688.133 155.714 688.523 155.854C689.303 156.114 690.103 156.324 690.903 156.484C691.703 156.644 692.523 156.744 693.333 156.804C693.743 156.834 694.143 156.844 694.553 156.844C697.813 156.844 701.073 156.004 704.003 154.314L708.773 151.554L720.893 144.554C719.543 142.224 717.583 140.244 715.163 138.854L710.553 136.204L708.783 135.124H708.773L694.563 126.914H694.553L680.333 118.704L666.113 110.494L651.893 102.284H651.883L637.673 94.0643H637.663L623.443 85.8543L616.153 81.6443C611.863 79.1643 606.583 79.1743 602.293 81.6443L599.263 83.3943L594.413 86.1943L600.303 89.5943C602.833 91.0543 604.883 93.1343 606.293 95.5843C607.703 98.0243 608.483 100.834 608.483 103.754V110.744L594.263 118.944L584.693 124.474C581.813 126.134 578.263 126.134 575.393 124.474L565.823 118.954L554.063 112.164C553.343 111.754 552.763 111.164 552.343 110.484L494.863 143.664L502.513 148.084C504.503 149.234 506.103 150.864 507.213 152.784C508.323 154.704 508.933 156.914 508.933 159.204V168.214H508.923L494.713 176.424H494.703L480.483 184.644L466.263 176.434L452.183 168.304L438.563 176.164H438.553L434.763 178.354C431.543 180.214 428.933 182.864 427.133 185.984L438.563 192.584L445.573 196.634L445.583 196.644Z" fill="#C6A76F"/>
<path d="M651.903 315.774L651.913 315.764L656.203 318.244V219.804V203.384V186.974V186.964V170.544V154.114V137.704L641.973 129.484V145.904H641.983L641.973 145.914V162.334V178.754V195.174V195.184V310.034L651.903 315.764V315.774Z" fill="#77552C"/>
<path d="M666.133 323.974L656.203 318.244L651.913 315.764H651.903L641.973 310.034L637.683 307.554L623.463 299.344L609.243 291.134L609.233 291.124L595.013 299.344L580.793 307.554H580.783L566.573 315.764L552.353 323.974H552.343L538.133 332.184H538.123L523.903 340.394L509.683 348.604L495.463 356.814H495.453L481.243 365.024H481.233L467.013 373.244L452.793 381.454L467.013 389.664L481.233 397.874H481.243L495.463 406.094L509.683 414.294L523.903 422.514L525.633 423.514C529.503 425.744 533.813 426.864 538.133 426.864C542.443 426.864 546.763 425.744 550.623 423.514L552.353 422.514L566.573 414.304H566.583L580.793 406.094L595.013 397.884L595.023 397.874L609.243 389.664L623.463 381.454L637.683 373.244H637.693L651.903 365.034H651.913L666.133 356.824L680.353 348.614L694.573 340.404L680.353 332.184L666.133 323.974Z" fill="#C6A76F"/>
<path d="M580.063 110.734H580.053L570.043 104.954L565.833 102.524L551.613 94.3145V107.904C551.613 108.834 551.883 109.724 552.353 110.484C552.773 111.164 553.353 111.744 554.073 112.164L565.833 118.954L575.403 124.474C578.283 126.134 581.833 126.134 584.703 124.474L594.273 118.954L608.493 110.744V103.754C608.493 100.834 607.713 98.0345 606.303 95.5845L594.273 102.534L580.063 110.734Z" fill="#E2B042"/>
<path d="M480.493 184.644L494.713 176.424H494.723L508.933 168.214H508.943V159.204C508.943 156.914 508.333 154.704 507.223 152.784L494.723 160.004L494.713 160.014L480.503 168.214H480.493L466.273 160.004L454.363 153.124C452.873 155.704 452.053 158.674 452.053 161.754V168.214L452.193 168.304L466.273 176.434L480.493 184.644Z" fill="#E2B042"/>
<path d="M574.224 90.0443L581.414 85.9043C582.524 85.2643 583.894 85.2643 585.004 85.9043L591.334 89.5643C592.294 90.1143 592.294 91.5043 591.334 92.0543L585.274 95.5443L570.044 104.954L580.054 110.734H580.064L594.274 102.534L606.304 95.5843C604.894 93.1343 602.844 91.0543 600.314 89.5943L594.424 86.1943L594.264 86.1043L585.464 81.0243C582.104 79.0843 577.974 79.0843 574.614 81.0243L565.814 86.1043V94.6443L574.204 90.0443H574.224Z" fill="#F4F0A8"/>
<path d="M480.493 168.214H480.504L494.714 160.014H494.724L507.224 152.784C506.114 150.864 504.514 149.234 502.523 148.084L494.874 143.664L494.724 143.574V149.604L489.113 153.194L489.184 153.234L481.444 157.704C479.874 158.614 477.934 158.614 476.354 157.704L470.104 154.094C469.444 153.714 469.444 152.754 470.104 152.364L477.474 148.114L480.493 146.294V137.784L478.954 136.244L466.264 143.574L460.673 146.804C458.003 148.344 455.844 150.544 454.354 153.124L466.264 160.004L480.484 168.214H480.493Z" fill="#F4F0A8"/>
<path d="M480.504 146.314L477.484 148.134L478.914 147.314L489.124 153.214L494.734 149.624V127.174V114.374C494.734 114.094 494.754 113.814 494.794 113.544C495.054 111.634 496.174 109.924 497.874 108.944L508.964 102.544L523.184 94.3345L523.194 94.3244L537.404 86.1245L537.414 86.1145L548.524 79.7044C549.044 79.4044 549.604 79.3545 550.114 79.5044C550.284 79.5545 550.444 79.6244 550.594 79.7044C551.194 80.0544 551.624 80.7044 551.624 81.4944V94.3244L565.844 102.534L570.054 104.964L585.284 95.5545L583.214 96.7444L572.924 90.8045L574.234 90.0445L565.844 94.6444V76.8444C565.844 72.9644 564.034 69.3444 561.014 67.0244C560.584 66.6944 560.124 66.3844 559.644 66.1044L558.484 65.4345C554.304 63.0245 549.184 62.9944 544.974 65.3244C544.904 65.3644 544.834 65.3945 544.774 65.4345L537.404 69.6845L523.194 77.8944H523.184L508.964 86.1044L494.744 94.3144L487.354 98.5944C485.764 99.5144 484.414 100.714 483.334 102.124C481.534 104.474 480.524 107.374 480.524 110.434V118.954V135.384L478.994 136.264L480.534 137.804V146.314H480.504Z" fill="#A07F57"/>
<path d="M478.904 147.314L477.474 148.134L470.104 152.384C469.444 152.764 469.444 153.724 470.104 154.114L476.354 157.724C477.924 158.634 479.864 158.634 481.444 157.724L489.184 153.254L489.114 153.214L478.904 147.314Z" fill="#77552C"/>
<path d="M591.324 89.5648L584.994 85.9048C583.884 85.2648 582.514 85.2648 581.404 85.9048L574.214 90.0448L572.904 90.8048L583.194 96.7448L585.264 95.5548L591.324 92.0648C592.284 91.5148 592.284 90.1248 591.324 89.5748V89.5648Z" fill="#77552C"/>
</svg>
