<svg width="801" height="801" viewBox="0 0 801 801" fill="none" xmlns="http://www.w3.org/2000/svg">
<g clip-path="url(#clip0_2587_31204)">
<path d="M695.065 570.92L694.995 570.96L687.974 575.01L680.774 579.17L666.565 587.38L652.335 595.59L645.135 599.76L638.104 603.81L623.885 612.02H623.875L609.664 620.23H609.654L602.555 624.33L595.445 628.43L581.224 636.64H581.214L567.005 644.85L559.984 648.9L552.784 653.05L538.575 661.26L538.565 661.27L532.645 664.68C529.345 666.58 525.545 667.25 521.895 666.71L571.705 694.82C577.605 698.15 584.835 698.09 590.685 694.65L763.544 592.92C766.384 591.25 766.375 587.13 763.515 585.48L708.294 553.6C706.384 560.8 701.694 567.07 695.094 570.9L695.065 570.92Z" fill="#DFE9ED"/>
<path d="M595.444 562.75V562.76L581.224 570.97L567.004 579.18L581.224 570.97L595.444 562.76V562.75V562.76L595.454 562.75H595.444Z" fill="#DFE9ED"/>
<path d="M609.654 603.81L609.664 603.82V603.81H609.654Z" fill="#DFE9ED"/>
<path d="M538.565 562.75H538.555L538.545 562.76H538.565V562.75L547.565 557.54L538.565 562.75Z" fill="#DFE9ED"/>
<path d="M524.336 570.959L531.445 566.859L524.336 570.959L510.105 579.169L524.336 570.959Z" fill="#DFE9ED"/>
<path d="M510.105 562.76H510.115L510.105 562.75V562.76Z" fill="#DFE9ED"/>
<path d="M538.565 612.01L538.555 612.02H538.545L538.555 612.03H538.565V612.01Z" fill="#DFE9ED"/>
<path d="M467.445 587.38V587.39H467.455L467.445 587.38Z" fill="#DFE9ED"/>
<path d="M495.875 636.65L495.885 636.66V636.65H495.875Z" fill="#DFE9ED"/>
<path d="M686.855 214.37C684.975 215.45 682.885 216 680.785 216V267.14V283.57V382.1V431.37V447.79V480.64V529.9V546.33L666.565 554.539L652.335 562.75L638.115 570.96L623.895 579.169L609.675 587.38L609.665 587.39L595.445 595.599L581.225 603.81L567.005 612.02L552.785 620.229V636.65V653.07L559.985 648.919L567.005 644.87L581.215 636.66H581.225L595.445 628.45L602.555 624.349L609.655 620.25H609.665L623.875 612.039H623.885L638.105 603.83L645.135 599.78L652.335 595.62L666.565 587.4L680.775 579.19L687.975 575.03L694.995 570.979L695.065 570.94C701.675 567.1 706.365 560.84 708.265 553.64C708.875 551.34 709.205 548.94 709.215 546.5V546.359V497.09V464.24V431.4V398.56V349.29V316.44V209.12C709.185 206.76 708.555 204.5 707.415 202.52L694.995 209.69L686.845 214.39L686.855 214.37ZM609.665 603.82H609.655V603.81H609.665V603.82Z" fill="#77552C"/>
<path d="M652.334 217.89V299.99V332.84V382.1V382.11V431.37V431.38V447.79V464.22V480.64V513.49V529.9V529.91L666.554 538.11L680.774 546.33V529.91V480.65V447.8V431.38V382.11V283.58V267.15V216C678.674 216 676.574 215.46 674.704 214.38L670.144 211.75L666.554 209.68L652.324 201.46V217.88L652.334 217.89ZM666.564 275.35V275.37L666.554 275.36H666.564V275.35Z" fill="#A07F57"/>
<path d="M593.254 153.46C594.664 155.9 595.444 158.71 595.444 161.63V168.62L609.664 176.83H609.674L623.894 185.04L638.114 193.25L652.334 201.46L666.564 209.67L670.154 211.75L674.714 214.38C676.594 215.46 678.684 216 680.784 216C682.884 216 684.974 215.46 686.854 214.37L695.004 209.67L707.424 202.5C706.274 200.5 704.604 198.8 702.544 197.6L695.014 193.26H695.004L687.984 189.2L680.784 185.05L673.684 180.94L666.574 176.84L659.374 172.68L652.354 168.63L645.164 164.47L638.144 160.42H638.134L623.914 152.21L609.694 144L606.834 142.35L602.624 139.92C598.194 137.36 592.744 137.36 588.314 139.92L581.254 144L587.294 147.49C589.824 148.95 591.874 151.03 593.284 153.48L593.254 153.46Z" fill="#C6A76F"/>
<path d="M532.624 664.7L538.544 661.29H538.554V661.28L552.764 653.07V636.66V620.24L538.554 628.45L533.044 631.63C527.654 634.74 521.004 634.74 515.614 631.63L510.104 628.45L495.884 620.24L481.664 612.03L467.434 603.82L453.224 595.61H453.214L438.994 587.4V521.71V456.02V373.91V257.41C437.284 257.41 435.564 256.97 434.034 256.08L424.774 250.73L412.204 243.47C411.144 245.3 410.564 247.41 410.564 249.6V594.77C410.614 600.4 413.634 605.58 418.514 608.4L424.774 612.02L431.974 616.18L439.004 620.23L453.224 628.44L467.444 636.65H467.454L474.554 640.75L481.654 644.85H481.664L495.884 653.06L510.104 661.27V661.28L516.004 664.69C517.834 665.75 519.824 666.42 521.854 666.73C525.504 667.28 529.304 666.6 532.604 664.7H532.624ZM495.884 636.66H495.874V636.65H495.884V636.66Z" fill="#A07F57"/>
<path d="M524.336 209.67L538.556 201.46H538.566L552.776 193.26L566.996 185.05L573.396 181.35L571.646 182.36C568.766 184.02 565.216 184.02 562.346 182.36L552.776 176.84L541.026 170.06C540.266 169.62 539.646 168.99 539.226 168.26L538.576 168.63L524.346 176.85L517.146 181.01L510.126 185.06L495.906 193.27L481.686 201.48L489.486 205.98C491.476 207.13 493.076 208.76 494.186 210.68C495.296 212.6 495.906 214.81 495.906 217.1V226.11L510.126 217.9L524.346 209.69L524.336 209.67Z" fill="#C6A76F"/>
<path d="M439.004 291.79V373.89V456V521.69V587.39L453.224 579.18L467.444 570.97L481.664 562.75H481.674L495.894 554.54L510.114 546.33L524.334 538.12L538.564 529.91L552.784 521.7L567.004 513.49L581.224 505.28L595.444 497.07V464.23V447.8V414.96V398.53V365.69V349.27V300V250.73V201.47V185.04V168.62L581.224 176.82L576.754 179.41L573.404 181.35L567.004 185.05L552.784 193.25V193.26L538.574 201.46V201.48L524.354 209.69L510.134 217.9L495.914 226.11L481.704 234.32H481.694L474.584 238.43L467.484 242.54L453.264 250.75L444.004 256.1C442.464 256.99 440.754 257.43 439.044 257.43V291.82L439.004 291.79ZM581.224 488.85L567.004 497.06L552.784 505.27L538.574 513.48L524.344 521.69L510.124 529.91L495.904 538.12H495.894L481.684 546.33H481.674L467.454 554.54L453.234 562.75V561.79L467.444 553.58L481.664 545.37L495.894 537.16L510.114 528.94L524.334 520.73L538.564 512.52V512.71L552.784 504.5L567.004 496.29L581.234 488.08V488.85H581.224Z" fill="#77552C"/>
<path d="M412.205 243.47L424.775 250.73L434.035 256.08C435.575 256.97 437.285 257.41 438.995 257.41C440.705 257.41 442.425 256.97 443.955 256.08L453.215 250.73L467.435 242.52L453.215 234.31L438.995 226.1L431.975 230.15L424.775 234.3V234.31L416.705 238.96C414.805 240.06 413.265 241.63 412.205 243.47Z" fill="#C6A76F"/>
<path d="M666.566 538.12L652.346 529.91L638.126 521.69L623.906 513.48L622.666 512.76L609.686 505.28L595.466 497.06H595.456L581.236 505.27L567.016 513.49L552.796 521.69L538.576 529.91L524.346 538.12L510.126 546.33L495.906 554.54L481.686 562.75H481.676L467.456 570.97L453.236 579.17L439.016 587.39L453.236 595.6H453.246L467.456 603.81L481.686 612.02L495.906 620.23L510.126 628.44L515.636 631.62C521.026 634.73 527.676 634.73 533.066 631.62L538.576 628.44L552.786 620.23L567.006 612.02L581.226 603.81L595.446 595.6L609.666 587.39H609.676L623.896 579.18L638.116 570.96L652.336 562.75L666.566 554.54L680.786 546.33L666.566 538.12ZM547.566 557.54L538.556 562.75H538.536H538.546L547.556 557.54H547.566ZM467.446 587.38H467.456L467.446 587.39V587.38ZM538.566 612.03V612.02V612.04V612.03Z" fill="#C6A76F"/>
<path d="M595.445 168.62V185.03H595.455L595.445 185.04V201.46V250.72V299.99V349.26V365.68H595.455L595.445 365.69V398.52V414.95H595.465H595.455V447.78H595.465L595.455 447.79V464.21V497.05H595.465L609.685 505.26L622.665 512.75L623.905 513.47L638.125 521.68V505.27V488.85V439.58V373.89V357.47V341.05V242.51V226.09V193.24L623.905 185.03L609.685 176.82H609.675L595.455 168.61L595.445 168.62Z" fill="#A07F57"/>
<path d="M638.105 226.09V226.1V242.51V242.52V258.94V275.36V291.78V308.21V324.63V341.05V341.06V357.47V357.48V373.89V373.9V390.32V406.74V423.16V439.58V439.59V456.01V472.43V488.85V488.86V505.27V505.28V521.69L652.336 529.9V513.49V497.06V480.65V480.64V464.22V447.8V447.79V431.38V431.37V414.95V398.53V382.11V382.1V365.69V349.26V332.85V332.84V316.42V300V299.99V283.57V267.15V250.73V234.3V217.89V217.88V201.46L638.105 193.25V209.67V226.09Z" fill="#77552C"/>
<path d="M538.564 165.78C538.564 166.66 538.794 167.5 539.224 168.24C539.644 168.98 540.264 169.6 541.024 170.04L552.774 176.82H552.784L562.354 182.34C565.234 184 568.784 184 571.654 182.34L573.404 181.33L581.224 176.82L595.444 168.61V161.62C595.444 158.7 594.664 155.9 593.254 153.45L581.224 160.4L567.014 168.6H567.004L556.994 162.82L552.784 160.39L538.564 152.18V165.77V165.78Z" fill="#E2B042"/>
<path d="M467.444 242.52L474.554 238.41L481.664 234.3H481.674L495.884 226.09H495.894V217.08C495.894 214.79 495.284 212.58 494.174 210.66L481.674 217.88L481.664 217.89L467.454 226.09H467.444L453.224 217.88L441.314 211C439.824 213.58 439.004 216.55 439.004 219.63V226.09V226.1L453.224 234.31L467.444 242.52Z" fill="#E2B042"/>
<path d="M561.164 147.92L568.344 143.78C569.454 143.14 570.824 143.14 571.934 143.78L578.264 147.44C579.224 147.99 579.224 149.38 578.264 149.93L572.204 153.42L556.974 162.83L566.984 168.61H566.994L581.204 160.41L593.234 153.46C591.824 151.01 589.774 148.93 587.244 147.47L581.204 143.99H581.194L572.394 138.91C569.034 136.97 564.904 136.97 561.544 138.91L552.744 143.99V152.53L561.134 147.93L561.164 147.92Z" fill="#F4F0A8"/>
<path d="M467.445 226.09H467.455L481.665 217.89H481.675L494.175 210.66C493.065 208.74 491.465 207.11 489.475 205.96L481.675 201.46V207.49L476.065 211.08L476.135 211.12L468.395 215.59C466.825 216.5 464.885 216.5 463.305 215.59L457.055 211.98C456.395 211.6 456.395 210.64 457.055 210.25L464.425 206L467.445 204.18V195.67L465.905 194.13L453.215 201.46L447.625 204.69C444.955 206.23 442.795 208.43 441.305 211.01L453.215 217.89L467.435 226.1L467.445 226.09Z" fill="#F4F0A8"/>
<path d="M467.456 204.189L464.436 206.009L465.866 205.189L476.076 211.089L481.686 207.499V185.049V172.249C481.686 170.009 482.876 167.939 484.816 166.819L495.906 160.419L510.126 152.209L510.136 152.199L524.346 143.999V143.989L535.456 137.579C535.976 137.279 536.536 137.239 537.046 137.379C537.216 137.429 537.376 137.499 537.526 137.579C538.126 137.929 538.566 138.579 538.566 139.369V152.199L552.786 160.409L556.996 162.839L572.226 153.429L570.156 154.619L559.866 148.679L561.176 147.919L552.786 152.519V134.719C552.786 130.839 550.976 127.219 547.956 124.899C547.526 124.569 547.066 124.259 546.586 123.979L545.426 123.309C541.246 120.899 536.126 120.869 531.916 123.199C531.846 123.239 531.776 123.269 531.716 123.309L524.346 127.559L510.136 135.769H510.126L495.906 143.979L481.686 152.189L474.296 156.469C472.856 157.299 471.606 158.379 470.586 159.619C470.296 159.969 470.016 160.339 469.766 160.719C469.436 161.209 469.146 161.719 468.886 162.249C468.236 163.569 467.786 164.999 467.596 166.489C467.516 167.089 467.476 167.689 467.476 168.299V176.819V193.249L465.946 194.129L467.486 195.669V204.179L467.456 204.189Z" fill="#A07F57"/>
<path d="M464.426 206.009L457.056 210.259C456.396 210.639 456.396 211.599 457.056 211.989L463.306 215.599C464.876 216.509 466.816 216.509 468.396 215.599L476.136 211.129L476.066 211.089L465.856 205.189L464.426 206.009Z" fill="#77552C"/>
<path d="M578.275 147.44L571.945 143.78C570.835 143.14 569.465 143.14 568.355 143.78L561.175 147.92L559.865 148.68L570.155 154.62L572.225 153.43L578.285 149.94C579.245 149.39 579.245 148 578.285 147.45L578.275 147.44Z" fill="#77552C"/>
<mask id="mask0_2587_31204" style="mask-type:luminance" maskUnits="userSpaceOnUse" x="104" y="629" width="348" height="151">
<path d="M383.116 629.109L131.796 646.419L104.426 690.269L257.596 776.709C263.496 780.039 270.726 779.979 276.576 776.539L449.436 674.809C452.276 673.139 452.266 669.019 449.406 667.369L383.126 629.109H383.116Z" fill="white"/>
</mask>
<g mask="url(#mask0_2587_31204)">
<path d="M477.015 589.909H435.715V631.209H477.015V589.909Z" fill="#DFE9ED"/>
<path d="M477.015 631.209H435.715V672.509H477.015V631.209Z" fill="#DFE9ED"/>
<path d="M477.015 672.509H435.715V713.809H477.015V672.509Z" fill="#DFE9ED"/>
<path d="M477.015 713.799H435.715V755.099H477.015V713.799Z" fill="#DFE9ED"/>
<path d="M477.015 755.1H435.715V796.4H477.015V755.1Z" fill="#DFE9ED"/>
<path d="M435.714 589.909H394.414V631.209H435.714V589.909Z" fill="#DFE9ED"/>
<path d="M435.714 631.209H394.414V672.509H435.714V631.209Z" fill="#DFE9ED"/>
<path d="M435.714 672.509H394.414V713.809H435.714V672.509Z" fill="#DFE9ED"/>
<path d="M435.714 713.799H394.414V755.099H435.714V713.799Z" fill="#DFE9ED"/>
<path d="M435.714 755.1H394.414V796.4H435.714V755.1Z" fill="#DFE9ED"/>
<path d="M394.425 589.909H353.125V631.209H394.425V589.909Z" fill="#DFE9ED"/>
<path d="M394.425 631.209H353.125V672.509H394.425V631.209Z" fill="#DFE9ED"/>
<path d="M394.425 672.509H353.125V713.809H394.425V672.509Z" fill="#DFE9ED"/>
<path d="M394.425 713.799H353.125V755.099H394.425V713.799Z" fill="#DFE9ED"/>
<path d="M394.425 755.1H353.125V796.4H394.425V755.1Z" fill="#DFE9ED"/>
<path d="M353.124 589.909H311.824V631.209H353.124V589.909Z" fill="#DFE9ED"/>
<path d="M353.124 631.209H311.824V672.509H353.124V631.209Z" fill="#DFE9ED"/>
<path d="M353.124 672.509H311.824V713.809H353.124V672.509Z" fill="#DFE9ED"/>
<path d="M353.124 713.799H311.824V755.099H353.124V713.799Z" fill="#DFE9ED"/>
<path d="M353.124 755.1H311.824V796.4H353.124V755.1Z" fill="#DFE9ED"/>
<path d="M311.835 589.909H270.535V631.209H311.835V589.909Z" fill="#DFE9ED"/>
<path d="M311.835 631.209H270.535V672.509H311.835V631.209Z" fill="#DFE9ED"/>
<path d="M311.835 672.509H270.535V713.809H311.835V672.509Z" fill="#DFE9ED"/>
<path d="M311.835 713.799H270.535V755.099H311.835V713.799Z" fill="#DFE9ED"/>
<path d="M311.835 755.1H270.535V796.4H311.835V755.1Z" fill="#DFE9ED"/>
<path d="M270.534 589.909H229.234V631.209H270.534V589.909Z" fill="#DFE9ED"/>
<path d="M270.534 631.209H229.234V672.509H270.534V631.209Z" fill="#DFE9ED"/>
<path d="M270.534 672.509H229.234V713.809H270.534V672.509Z" fill="#DFE9ED"/>
<path d="M270.534 713.799H229.234V755.099H270.534V713.799Z" fill="#DFE9ED"/>
<path d="M270.534 755.1H229.234V796.4H270.534V755.1Z" fill="#DFE9ED"/>
<path d="M229.236 589.909H187.936V631.209H229.236V589.909Z" fill="#DFE9ED"/>
<path d="M229.236 631.209H187.936V672.509H229.236V631.209Z" fill="#DFE9ED"/>
<path d="M229.236 672.509H187.936V713.809H229.236V672.509Z" fill="#DFE9ED"/>
<path d="M229.236 713.799H187.936V755.099H229.236V713.799Z" fill="#DFE9ED"/>
<path d="M229.236 755.1H187.936V796.4H229.236V755.1Z" fill="#DFE9ED"/>
<path d="M187.945 589.909H146.645V631.209H187.945V589.909Z" fill="#DFE9ED"/>
<path d="M187.945 631.209H146.645V672.509H187.945V631.209Z" fill="#DFE9ED"/>
<path d="M187.945 672.509H146.645V713.809H187.945V672.509Z" fill="#DFE9ED"/>
<path d="M187.945 713.799H146.645V755.099H187.945V713.799Z" fill="#DFE9ED"/>
<path d="M187.945 755.1H146.645V796.4H187.945V755.1Z" fill="#DFE9ED"/>
<path d="M146.646 589.909H105.346V631.209H146.646V589.909Z" fill="#DFE9ED"/>
<path d="M146.646 631.209H105.346V672.509H146.646V631.209Z" fill="#DFE9ED"/>
<path d="M146.646 672.509H105.346V713.809H146.646V672.509Z" fill="#DFE9ED"/>
<path d="M146.646 713.799H105.346V755.099H146.646V713.799Z" fill="#DFE9ED"/>
<path d="M146.646 755.1H105.346V796.4H146.646V755.1Z" fill="#DFE9ED"/>
<path d="M105.345 589.909H64.0449V631.209H105.345V589.909Z" fill="#DFE9ED"/>
<path d="M105.345 631.209H64.0449V672.509H105.345V631.209Z" fill="#DFE9ED"/>
<path d="M105.345 672.509H64.0449V713.809H105.345V672.509Z" fill="#DFE9ED"/>
<path d="M105.345 713.799H64.0449V755.099H105.345V713.799Z" fill="#DFE9ED"/>
<path d="M105.345 755.1H64.0449V796.4H105.345V755.1Z" fill="#DFE9ED"/>
</g>
<path d="M213.985 736.969V716.699C209.675 716.699 205.355 715.589 201.485 713.349L199.755 712.349L185.535 704.139L171.315 695.929L157.095 687.719L157.085 687.709L142.865 679.499L128.645 671.289V589.179V572.759V556.339V488.409C126.155 488.409 123.665 487.769 121.435 486.479L114.425 482.429L102.995 475.829C101.195 478.949 100.205 482.529 100.205 486.249V490.639V507.059V556.329V572.749V589.169V638.439V654.859V675.299C100.205 682.979 104.305 690.069 110.945 693.909L114.425 695.919L128.645 704.129L142.865 712.339H142.875L157.095 720.549L165.755 725.559L171.315 728.769L185.535 736.979H185.545L194.195 741.979L199.755 745.189L204.445 747.899C207.395 749.599 210.685 750.449 213.985 750.449V736.979V736.969Z" fill="#A07F57"/>
<path d="M157.094 654.859L171.304 646.649H171.314L185.534 638.439L199.754 630.229L213.974 622.019H213.984L228.194 613.809H228.204L242.424 605.599L256.634 597.389H256.644L270.864 589.179L285.084 580.959H285.094V564.549V531.699V498.859V449.589V433.169V400.319H285.084L270.874 408.529H270.864L256.644 416.739L242.424 424.949L228.204 433.159L213.984 441.369L199.754 449.589L185.534 457.799L171.314 466.009L157.094 474.219H157.084L142.864 482.429L135.854 486.479C134.184 487.449 132.364 488.049 130.514 488.289C129.894 488.369 129.274 488.409 128.654 488.409V556.329V572.749V589.169V671.289L142.874 663.079L157.094 654.859ZM213.984 605.599L199.754 613.809L185.534 622.019L171.314 630.229L157.094 638.439L157.084 638.449L142.874 646.649H142.864V646.539L157.034 638.359L171.394 630.069L185.764 621.779L200.124 613.479L214.484 605.189L228.854 596.899V597.019L228.204 597.389L213.984 605.599ZM142.864 498.849H142.874L143.744 498.349L157.084 490.649H157.094L171.314 482.429L185.534 474.219L186.414 473.709L199.754 466.009L213.984 457.799L228.204 449.589L229.084 449.079L242.424 441.379L242.434 441.369L256.644 433.169L270.864 424.959V425.059L256.684 433.249L242.334 441.529H242.324L228.854 449.319L227.964 449.829L213.604 458.119L199.234 466.409L185.764 474.189L184.874 474.699L170.514 482.989L156.154 491.279L156.144 491.289L142.864 498.959V498.859V498.849Z" fill="#77552C"/>
<path d="M366.766 446.31C365.966 446.15 365.166 445.94 364.386 445.68C363.996 445.55 363.606 445.4 363.226 445.24C362.456 444.92 361.706 444.55 360.976 444.13L356.206 441.37H356.196L341.986 433.16L313.536 416.73L299.316 408.52L285.096 400.31V433.15V449.57V498.84V531.68V564.53V580.95L299.316 589.16L313.536 597.38L317.826 599.86V485.01V435.74H317.836L317.826 435.73V419.31L332.056 427.53V476.79V608.07L341.986 613.8L356.206 622.01L370.426 630.22V580.96V564.54V531.69V515.27V498.85V466V446.66C370.016 446.66 369.606 446.65 369.206 446.62C368.396 446.57 367.576 446.46 366.776 446.3L366.766 446.31ZM299.316 572.76H299.306L299.316 572.75V572.76ZM341.986 548.13H341.976L341.986 548.11V548.13Z" fill="#A07F57"/>
<path d="M384.644 441.369L379.874 444.139C376.954 445.829 373.684 446.669 370.424 446.669V465.999V498.849V515.269V531.689V564.539V580.959V630.229L356.204 638.449L341.984 646.659L327.764 654.869H327.754L313.544 663.079H313.534L299.314 671.289L285.094 679.499L270.874 687.709H270.864L256.644 695.929L242.434 704.139H242.424L228.204 712.349L226.474 713.349C222.604 715.579 218.294 716.699 213.984 716.699V736.969V750.449C217.274 750.449 220.574 749.599 223.524 747.889L228.194 745.189H228.204L242.424 736.969L256.644 728.759L270.864 720.549H270.874L285.084 712.339H285.094L299.314 704.119L304.864 700.909L313.534 695.899L327.754 687.689L333.304 684.489L341.984 679.479L356.204 671.269L370.424 663.059L384.644 654.849L387.184 653.389L391.324 650.989C395.994 648.289 398.864 643.309 398.864 637.919V613.799V597.369V564.529V531.679V515.259V498.839V482.409V449.569V442.169C398.864 439.379 398.114 436.689 396.764 434.359L384.644 441.349V441.369Z" fill="#77552C"/>
<path d="M156.336 458.06L156.346 458.05H156.336V458.06Z" fill="#C6A76F"/>
<path d="M121.434 486.479C123.664 487.769 126.154 488.409 128.644 488.409C129.264 488.409 129.884 488.369 130.504 488.289C132.354 488.049 134.174 487.449 135.844 486.479L142.854 482.429L157.074 474.219H157.084L171.304 466.009L185.524 457.799L199.744 449.589L213.974 441.369L228.194 433.159L242.414 424.959L256.634 416.739L270.854 408.529H270.864L285.074 400.319H285.084L299.304 408.529L313.524 416.739L327.744 424.949L341.974 433.169L356.184 441.379H356.194L360.964 444.139C361.694 444.559 362.444 444.929 363.214 445.249C363.594 445.409 363.984 445.549 364.374 445.689C365.154 445.949 365.954 446.159 366.754 446.319C367.554 446.479 368.374 446.579 369.184 446.639C369.594 446.669 369.994 446.679 370.404 446.679C373.664 446.679 376.924 445.839 379.854 444.149L384.624 441.389L396.744 434.389C395.394 432.059 393.434 430.079 391.014 428.689L386.404 426.039L384.634 424.959H384.624L370.414 416.749H370.404L356.184 408.539L341.964 400.329L327.744 392.119H327.734L313.524 383.899H313.514L299.294 375.689L292.004 371.479C287.714 368.999 282.434 369.009 278.144 371.479L275.114 373.229L270.264 376.029L276.154 379.429C278.684 380.889 280.734 382.969 282.144 385.419C283.554 387.859 284.334 390.669 284.334 393.589V400.579L270.114 408.779L260.544 414.309C257.664 415.969 254.114 415.969 251.244 414.309L241.674 408.789L229.914 401.999C229.194 401.589 228.614 400.999 228.194 400.319L170.714 433.499L178.364 437.919C180.354 439.069 181.954 440.699 183.064 442.619C184.174 444.539 184.784 446.749 184.784 449.039V458.049H184.774L170.564 466.259H170.554L156.334 474.479L142.114 466.269L128.034 458.139L114.414 465.999H114.404L110.614 468.189C107.394 470.049 104.784 472.699 102.984 475.819L114.414 482.419L121.424 486.469L121.434 486.479Z" fill="#C6A76F"/>
<path d="M327.754 605.609L327.764 605.599L332.054 608.079V509.639V493.219V476.809V476.799V460.379V443.949V427.539L317.824 419.319V435.739H317.834L317.824 435.749V452.169V468.589V485.009V485.019V599.869L327.754 605.599V605.609Z" fill="#77552C"/>
<path d="M341.985 613.809L332.055 608.079L327.765 605.599H327.755L317.825 599.869L313.535 597.389L299.315 589.179L285.095 580.969L285.085 580.959L270.865 589.179L256.645 597.389H256.635L242.425 605.599L228.205 613.809H228.195L213.985 622.019H213.975L199.755 630.229L185.535 638.439L171.315 646.649H171.305L157.095 654.859H157.085L142.865 663.079L128.645 671.289L142.865 679.499L157.085 687.709H157.095L171.315 695.929L185.535 704.129L199.755 712.349L201.485 713.349C205.355 715.579 209.665 716.699 213.985 716.699C218.295 716.699 222.615 715.579 226.475 713.349L228.205 712.349L242.425 704.139H242.435L256.645 695.929L270.865 687.719L270.875 687.709L285.095 679.499L299.315 671.289L313.535 663.079H313.545L327.755 654.869H327.765L341.985 646.659L356.205 638.449L370.425 630.239L356.205 622.019L341.985 613.809Z" fill="#C6A76F"/>
<path d="M255.905 400.569H255.895L245.885 394.789L241.675 392.359L227.455 384.149V397.739C227.455 398.669 227.725 399.559 228.195 400.319C228.615 400.999 229.195 401.579 229.915 401.999L241.675 408.789L251.245 414.309C254.125 415.969 257.675 415.969 260.545 414.309L270.115 408.789L284.335 400.579V393.589C284.335 390.669 283.555 387.869 282.145 385.419L270.115 392.369L255.905 400.569Z" fill="#E2B042"/>
<path d="M156.335 474.479L170.555 466.259H170.565L184.775 458.049H184.785V449.039C184.785 446.749 184.175 444.539 183.065 442.619L170.565 449.839L170.555 449.849L156.345 458.049H156.335L142.115 449.839L130.205 442.959C128.715 445.539 127.895 448.509 127.895 451.589V458.049L128.035 458.139L142.115 466.269L156.335 474.479Z" fill="#E2B042"/>
<path d="M250.064 379.879L257.254 375.739C258.364 375.099 259.734 375.099 260.844 375.739L267.174 379.399C268.134 379.949 268.134 381.339 267.174 381.889L261.114 385.379L245.884 394.789L255.894 400.569H255.904L270.114 392.369L282.144 385.419C280.734 382.969 278.684 380.889 276.154 379.429L270.264 376.029L270.104 375.939L261.304 370.859C257.944 368.919 253.814 368.919 250.454 370.859L241.654 375.939V384.479L250.044 379.879H250.064Z" fill="#F4F0A8"/>
<path d="M156.335 458.049H156.345L170.555 449.849H170.565L183.065 442.619C181.955 440.699 180.355 439.069 178.365 437.919L170.715 433.499L170.565 433.409V439.439L164.955 443.029L165.025 443.069L157.285 447.539C155.715 448.449 153.775 448.449 152.195 447.539L145.945 443.929C145.285 443.549 145.285 442.589 145.945 442.199L153.315 437.949L156.335 436.129V427.619L154.795 426.079L142.105 433.409L136.515 436.639C133.845 438.179 131.685 440.379 130.195 442.959L142.105 449.839L156.325 458.049H156.335Z" fill="#F4F0A8"/>
<path d="M156.344 436.149L153.324 437.969L154.754 437.149L164.964 443.049L170.574 439.459V417.009V404.209C170.574 403.929 170.594 403.649 170.634 403.379C170.894 401.469 172.014 399.759 173.714 398.779L184.804 392.379L199.024 384.169L199.034 384.159L213.244 375.959L213.254 375.949L224.364 369.539C224.884 369.239 225.444 369.189 225.954 369.339C226.124 369.389 226.284 369.459 226.434 369.539C227.034 369.889 227.464 370.539 227.464 371.329V384.159L241.684 392.369L245.894 394.799L261.124 385.389L259.054 386.579L248.764 380.639L250.074 379.879L241.684 384.479V366.679C241.684 362.799 239.874 359.179 236.854 356.859C236.424 356.529 235.964 356.219 235.484 355.939L234.324 355.269C230.144 352.859 225.024 352.829 220.814 355.159C220.744 355.199 220.674 355.229 220.614 355.269L213.244 359.519L199.034 367.729H199.024L184.804 375.939L170.584 384.149L163.194 388.429C161.604 389.349 160.254 390.549 159.174 391.959C157.374 394.309 156.364 397.209 156.364 400.269V408.789V425.219L154.834 426.099L156.374 427.639V436.149H156.344Z" fill="#A07F57"/>
<path d="M154.756 437.149L153.326 437.969L145.956 442.219C145.296 442.599 145.296 443.559 145.956 443.949L152.206 447.559C153.776 448.469 155.716 448.469 157.296 447.559L165.036 443.089L164.966 443.049L154.756 437.149Z" fill="#77552C"/>
<path d="M267.176 379.4L260.846 375.74C259.736 375.1 258.366 375.1 257.256 375.74L250.066 379.88L248.756 380.64L259.046 386.58L261.116 385.39L267.176 381.9C268.136 381.35 268.136 379.96 267.176 379.41V379.4Z" fill="#77552C"/>
<path d="M270.865 398.539L270.875 398.529H270.865V398.539Z" fill="#5FF25F"/>
<path d="M242.426 414.96H242.436L242.426 414.95V414.96Z" fill="#5FF25F"/>
<path d="M199.756 439.59H199.766L199.756 439.58V439.59Z" fill="#5FF25F"/>
<path d="M185.535 431.38H185.545L185.535 431.37V431.38Z" fill="#5FF25F"/>
<path d="M213.985 447.789V427.519C209.675 427.519 205.355 426.409 201.485 424.169L199.755 423.169L185.535 414.959L171.315 406.749L157.095 398.539L157.085 398.529L142.865 390.319L128.645 382.109V299.999V283.579V267.159V199.229C126.155 199.229 123.665 198.589 121.435 197.299L114.425 193.249L102.995 186.649C101.195 189.769 100.205 193.349 100.205 197.069V201.459V217.879V267.149V283.569V299.989V349.259V365.679V386.119C100.205 393.799 104.305 400.889 110.945 404.729L114.425 406.739L128.645 414.949L142.865 423.159H142.875L157.095 431.369L165.755 436.379L171.315 439.589L185.535 447.799H185.545L194.195 452.799L199.755 456.009L204.445 458.719C207.395 460.419 210.685 461.269 213.985 461.269V447.799V447.789Z" fill="#A07F57"/>
<path d="M157.094 365.68L171.304 357.47H171.314L185.534 349.26L199.754 341.05L213.974 332.84H213.984L228.194 324.63H228.204L242.424 316.42L256.634 308.21H256.644L270.864 300L285.084 291.78H285.094V275.37V242.52V209.68V160.41V143.99V111.14H285.084L270.874 119.35H270.864L256.644 127.56L242.424 135.77L228.204 143.98L213.984 152.19L199.754 160.41L185.534 168.62L171.314 176.83L157.094 185.04H157.084L142.864 193.25L135.854 197.3C134.184 198.27 132.364 198.87 130.514 199.11C129.894 199.19 129.274 199.23 128.654 199.23V267.15V283.57V299.99V382.11L142.874 373.9L157.094 365.68ZM213.984 316.42L199.754 324.63L185.534 332.84L171.314 341.05L157.094 349.26L157.084 349.27L142.874 357.47H142.864V357.36L157.034 349.18L171.394 340.89L185.764 332.6L200.124 324.3L214.484 316.01L228.854 307.72V307.84L228.204 308.21L213.984 316.42ZM142.864 209.67H142.874L143.744 209.17L157.084 201.47H157.094L171.314 193.25L185.534 185.04L186.414 184.53L199.754 176.83L213.984 168.62L228.204 160.41L229.084 159.9L242.424 152.2L242.434 152.19L256.644 143.99L270.864 135.78V135.88L256.684 144.07L242.334 152.35H242.324L228.854 160.14L227.964 160.65L213.604 168.94L199.234 177.23L185.764 185.01L184.874 185.52L170.514 193.81L156.154 202.1L156.144 202.11L142.864 209.78V209.68V209.67Z" fill="#77552C"/>
<path d="M366.766 157.13C365.966 156.97 365.166 156.76 364.386 156.5C363.996 156.37 363.606 156.22 363.226 156.06C362.456 155.74 361.706 155.37 360.976 154.95L356.206 152.19H356.196L341.986 143.98L313.536 127.55L299.316 119.34L285.096 111.13V143.97V160.39V209.66V242.5V275.35V291.77L299.316 299.98L313.536 308.2L317.826 310.68V195.83V146.56H317.836L317.826 146.55V130.13L332.056 138.35V187.61V318.89L341.986 324.62L356.206 332.83L370.426 341.04V291.78V275.36V242.51V226.09V209.67V176.82V157.48C370.016 157.48 369.606 157.47 369.206 157.44C368.396 157.39 367.576 157.28 366.776 157.12L366.766 157.13ZM299.316 283.58H299.306L299.316 283.57V283.58ZM341.986 258.95H341.976L341.986 258.93V258.95Z" fill="#A07F57"/>
<path d="M384.644 152.19L379.874 154.96C376.954 156.65 373.684 157.49 370.424 157.49V176.82V209.67V226.09V242.51V275.36V291.78V341.05L356.204 349.27L341.984 357.48L327.764 365.69H327.754L313.544 373.9H313.534L299.314 382.11L285.094 390.32L270.874 398.53H270.864L256.644 406.75L242.434 414.96H242.424L228.204 423.17L226.474 424.17C222.604 426.4 218.294 427.52 213.984 427.52V447.79V461.27C217.274 461.27 220.574 460.42 223.524 458.71L228.194 456.01H228.204L242.424 447.79L256.644 439.58L270.864 431.37H270.874L285.084 423.16H285.094L299.314 414.94L304.864 411.73L313.534 406.72L327.754 398.51L333.304 395.31L341.984 390.3L356.204 382.09L370.424 373.88L384.644 365.67L387.184 364.21L391.324 361.81C395.994 359.11 398.864 354.13 398.864 348.74V324.62V308.19V275.35V242.5V226.08V209.66V193.23V160.39V152.99C398.864 150.2 398.114 147.51 396.764 145.18L384.644 152.17V152.19Z" fill="#77552C"/>
<path d="M156.336 168.88L156.346 168.87H156.336V168.88Z" fill="#C6A76F"/>
<path d="M121.434 197.3C123.664 198.59 126.154 199.23 128.644 199.23C129.264 199.23 129.884 199.19 130.504 199.11C132.354 198.87 134.174 198.27 135.844 197.3L142.854 193.25L157.074 185.04H157.084L171.304 176.83L185.524 168.62L199.744 160.41L213.974 152.19L228.194 143.98L242.414 135.78L256.634 127.56L270.854 119.35H270.864L285.074 111.14H285.084L299.304 119.35L313.524 127.56L327.744 135.77L341.974 143.99L356.184 152.2H356.194L360.964 154.96C361.694 155.38 362.444 155.75 363.214 156.07C363.594 156.23 363.984 156.37 364.374 156.51C365.154 156.77 365.954 156.98 366.754 157.14C367.554 157.3 368.374 157.4 369.184 157.46C369.594 157.49 369.994 157.5 370.404 157.5C373.664 157.5 376.924 156.66 379.854 154.97L384.624 152.21L396.744 145.21C395.394 142.88 393.434 140.9 391.014 139.51L386.404 136.86L384.634 135.78H384.624L370.414 127.57H370.404L356.184 119.36L341.964 111.15L327.744 102.94H327.734L313.524 94.7196H313.514L299.294 86.5096L292.004 82.2996C287.714 79.8196 282.434 79.8296 278.144 82.2996L275.114 84.0496L270.264 86.8496L276.154 90.2496C278.684 91.7096 280.734 93.7896 282.144 96.2396C283.554 98.6796 284.334 101.49 284.334 104.41V111.4L270.114 119.6L260.544 125.13C257.664 126.79 254.114 126.79 251.244 125.13L241.674 119.61L229.914 112.82C229.194 112.41 228.614 111.82 228.194 111.14L170.714 144.32L178.364 148.74C180.354 149.89 181.954 151.52 183.064 153.44C184.174 155.36 184.784 157.57 184.784 159.86V168.87H184.774L170.564 177.08H170.554L156.334 185.3L142.114 177.09L128.034 168.96L114.414 176.82H114.404L110.614 179.01C107.394 180.87 104.784 183.52 102.984 186.64L114.414 193.24L121.424 197.29L121.434 197.3Z" fill="#C6A76F"/>
<path d="M327.754 316.43L327.764 316.42L332.054 318.9V220.46V204.04V187.63V187.62V171.2V154.77V138.36L317.824 130.14V146.56H317.834L317.824 146.57V162.99V179.41V195.83V195.84V310.69L327.754 316.42V316.43Z" fill="#77552C"/>
<path d="M341.985 324.629L332.055 318.899L327.765 316.419H327.755L317.825 310.689L313.535 308.209L299.315 299.999L285.095 291.789L285.085 291.779L270.865 299.999L256.645 308.209H256.635L242.425 316.419L228.205 324.629H228.195L213.985 332.839H213.975L199.755 341.049L185.535 349.259L171.315 357.469H171.305L157.095 365.679H157.085L142.865 373.899L128.645 382.109L142.865 390.319L157.085 398.529H157.095L171.315 406.749L185.535 414.949L199.755 423.169L201.485 424.169C205.355 426.399 209.665 427.519 213.985 427.519C218.295 427.519 222.615 426.399 226.475 424.169L228.205 423.169L242.425 414.959H242.435L256.645 406.749L270.865 398.539L270.875 398.529L285.095 390.319L299.315 382.109L313.535 373.899H313.545L327.755 365.689H327.765L341.985 357.479L356.205 349.269L370.425 341.059L356.205 332.839L341.985 324.629Z" fill="#C6A76F"/>
<path d="M255.905 111.39H255.895L245.885 105.61L241.675 103.18L227.455 94.9697V108.56C227.455 109.49 227.725 110.38 228.195 111.14C228.615 111.82 229.195 112.4 229.915 112.82L241.675 119.61L251.245 125.13C254.125 126.79 257.675 126.79 260.545 125.13L270.115 119.61L284.335 111.4V104.41C284.335 101.49 283.555 98.6897 282.145 96.2397L270.115 103.19L255.905 111.39Z" fill="#E2B042"/>
<path d="M156.335 185.299L170.555 177.079H170.565L184.775 168.869H184.785V159.859C184.785 157.569 184.175 155.359 183.065 153.439L170.565 160.659L170.555 160.669L156.345 168.869H156.335L142.115 160.659L130.205 153.779C128.715 156.359 127.895 159.329 127.895 162.409V168.869L128.035 168.959L142.115 177.089L156.335 185.299Z" fill="#E2B042"/>
<path d="M250.064 90.6996L257.254 86.5596C258.364 85.9196 259.734 85.9196 260.844 86.5596L267.174 90.2196C268.134 90.7696 268.134 92.1596 267.174 92.7096L261.114 96.1996L245.884 105.61L255.894 111.39H255.904L270.114 103.19L282.144 96.2396C280.734 93.7896 278.684 91.7096 276.154 90.2496L270.264 86.8496L270.104 86.7596L261.304 81.6796C257.944 79.7396 253.814 79.7396 250.454 81.6796L241.654 86.7596V95.2996L250.044 90.6996H250.064Z" fill="#F4F0A8"/>
<path d="M156.335 168.869H156.345L170.555 160.669H170.565L183.065 153.439C181.955 151.519 180.355 149.889 178.365 148.739L170.715 144.319L170.565 144.229V150.259L164.955 153.849L165.025 153.889L157.285 158.359C155.715 159.269 153.775 159.269 152.195 158.359L145.945 154.749C145.285 154.369 145.285 153.409 145.945 153.019L153.315 148.769L156.335 146.949V138.439L154.795 136.899L142.105 144.229L136.515 147.459C133.845 148.999 131.685 151.199 130.195 153.779L142.105 160.659L156.325 168.869H156.335Z" fill="#F4F0A8"/>
<path d="M156.344 146.97L153.324 148.79L154.754 147.97L164.964 153.87L170.574 150.28V127.83V115.03C170.574 114.75 170.594 114.47 170.634 114.2C170.894 112.29 172.014 110.58 173.714 109.6L184.804 103.2L199.024 94.9897L199.034 94.9797L213.244 86.7797L213.254 86.7697L224.364 80.3597C224.884 80.0597 225.444 80.0097 225.954 80.1597C226.124 80.2097 226.284 80.2797 226.434 80.3597C227.034 80.7097 227.464 81.3597 227.464 82.1497V94.9797L241.684 103.19L245.894 105.62L261.124 96.2097L259.054 97.3997L248.764 91.4597L250.074 90.6997L241.684 95.2997V77.4997C241.684 73.6197 239.874 69.9997 236.854 67.6797C236.424 67.3497 235.964 67.0397 235.484 66.7597L234.324 66.0897C230.144 63.6797 225.024 63.6497 220.814 65.9797C220.744 66.0197 220.674 66.0497 220.614 66.0897L213.244 70.3397L199.034 78.5497H199.024L184.804 86.7597L170.584 94.9697L163.194 99.2497C161.604 100.17 160.254 101.37 159.174 102.78C157.374 105.13 156.364 108.03 156.364 111.09V119.61V136.04L154.834 136.92L156.374 138.46V146.97H156.344Z" fill="#A07F57"/>
<path d="M154.756 147.97L153.326 148.79L145.956 153.04C145.296 153.42 145.296 154.38 145.956 154.77L152.206 158.38C153.776 159.29 155.716 159.29 157.296 158.38L165.036 153.91L164.966 153.87L154.756 147.97Z" fill="#77552C"/>
<path d="M267.176 90.2201L260.846 86.5601C259.736 85.9201 258.366 85.9201 257.256 86.5601L250.066 90.7001L248.756 91.4601L259.046 97.4001L261.116 96.2101L267.176 92.7201C268.136 92.1701 268.136 90.7801 267.176 90.2301V90.2201Z" fill="#77552C"/>
</g>
<defs>
<clipPath id="clip0_2587_31204">
<rect width="800" height="800" fill="white" transform="translate(0.554688 0.629883)"/>
</clipPath>
</defs>
</svg>
