<svg width="801" height="801" viewBox="0 0 801 801" fill="none" xmlns="http://www.w3.org/2000/svg">
<path d="M763.389 584.985L708.169 553.105C708.169 553.105 708.139 553.185 708.129 553.225C708.099 553.355 708.059 553.475 708.019 553.605C707.899 554.015 707.779 554.426 707.639 554.826C707.579 554.996 707.519 555.165 707.459 555.335C707.319 555.725 707.179 556.105 707.019 556.485C706.959 556.625 706.909 556.766 706.849 556.896C706.639 557.396 706.409 557.895 706.169 558.375C706.119 558.485 706.059 558.595 705.999 558.695C705.799 559.075 705.599 559.455 705.389 559.835C705.299 559.995 705.209 560.145 705.119 560.305C704.919 560.645 704.699 560.986 704.489 561.326C704.399 561.456 704.319 561.595 704.229 561.725C703.929 562.175 703.609 562.625 703.279 563.055C703.219 563.135 703.159 563.205 703.099 563.275C702.819 563.635 702.529 563.995 702.229 564.335C702.119 564.465 701.999 564.595 701.879 564.735C701.609 565.035 701.339 565.335 701.059 565.625C700.949 565.745 700.839 565.855 700.719 565.975C700.329 566.365 699.929 566.745 699.509 567.115C699.469 567.155 699.429 567.185 699.389 567.215C699.009 567.545 698.619 567.865 698.219 568.175C698.079 568.285 697.949 568.385 697.809 568.485C697.479 568.735 697.149 568.976 696.809 569.206C696.669 569.306 696.529 569.395 696.389 569.495C695.919 569.805 695.439 570.116 694.949 570.396L694.879 570.435L687.859 574.485L680.659 578.646L666.449 586.855L652.219 595.065L645.019 599.235L637.989 603.285L623.769 611.495H623.759L609.549 619.706H609.539L602.439 623.805L595.329 627.905L581.109 636.115H581.099L566.889 644.326L559.869 648.375L552.669 652.525L538.459 660.735L538.449 660.745L532.529 664.155C532.149 664.375 531.769 664.565 531.379 664.755C531.269 664.805 531.149 664.855 531.039 664.915C530.749 665.045 530.459 665.165 530.169 665.275C530.049 665.315 529.939 665.365 529.819 665.405C529.469 665.525 529.119 665.645 528.769 665.735C528.719 665.755 528.659 665.765 528.609 665.785C528.179 665.905 527.739 666.005 527.299 666.085C527.279 666.085 527.259 666.085 527.239 666.095C526.829 666.175 526.419 666.225 525.999 666.275C525.939 666.275 525.879 666.285 525.809 666.295C525.399 666.335 524.989 666.355 524.579 666.365C524.559 666.365 524.529 666.365 524.509 666.365C523.599 666.385 522.679 666.325 521.779 666.185L571.589 694.295C577.489 697.625 584.719 697.565 590.569 694.125L763.429 592.396C766.269 590.726 766.259 586.606 763.399 584.956L763.389 584.985Z" fill="#DFE9ED"/>
<path d="M481.568 151.686V118.836L495.788 110.626L510.008 102.416L516.288 98.7955L520.038 96.6255C520.038 96.6255 520.048 96.6255 520.058 96.6255L520.498 96.3655C522.158 95.4055 524.238 96.6055 524.238 98.5255V99.0555V102.236V106.566V110.636V176.326L552.688 159.896V110.626V94.2055V83.8155C552.688 81.9455 552.188 80.1555 551.288 78.5855C550.388 77.0255 549.078 75.6955 547.458 74.7555L538.468 69.5655L530.968 65.2355C526.808 62.8355 521.678 62.8355 517.518 65.2355L510.028 69.5655L495.808 77.7755L481.588 85.9855H481.578L467.358 94.2055L453.138 102.406L444.608 107.336C442.848 108.356 441.428 109.806 440.438 111.506C439.458 113.206 438.908 115.166 438.908 117.196V119.876C438.908 124.306 441.268 128.406 445.108 130.626H445.118L446.688 131.526C450.668 133.826 453.128 138.076 453.128 142.676V168.086V217.376L480.788 201.406L481.578 151.676L481.568 151.686Z" fill="#53576B"/>
<path d="M686.759 213.855C684.879 214.935 682.789 215.485 680.689 215.485V246.435V266.625V283.055V381.585V430.855V447.275V480.125V529.385V545.815L666.469 554.025L652.24 562.235L638.019 570.445L623.799 578.655L609.579 586.865L609.569 586.875L595.349 595.085L581.129 603.295L566.909 611.505L552.689 619.715V636.135V652.555L559.889 648.405L566.909 644.355L581.119 636.145H581.129L595.349 627.935L602.459 623.835L609.559 619.735H609.569L623.779 611.525H623.789L638.009 603.315L645.039 599.265L652.24 595.105L666.469 586.885L680.679 578.675L687.879 574.515L694.899 570.465L694.969 570.425C695.459 570.135 695.939 569.835 696.409 569.525C696.549 569.435 696.689 569.335 696.829 569.235C697.169 569.005 697.499 568.765 697.829 568.515C697.969 568.415 698.109 568.305 698.24 568.205C698.639 567.895 699.029 567.575 699.409 567.245C699.449 567.205 699.489 567.175 699.529 567.145C699.949 566.775 700.35 566.395 700.74 566.005C700.859 565.885 700.969 565.775 701.079 565.655C701.359 565.365 701.639 565.075 701.899 564.765C702.019 564.635 702.129 564.505 702.249 564.365C702.549 564.015 702.839 563.665 703.119 563.305C703.179 563.225 703.24 563.155 703.299 563.085C703.63 562.655 703.949 562.205 704.249 561.755C704.339 561.625 704.419 561.485 704.509 561.355C704.729 561.015 704.939 560.675 705.139 560.335C705.229 560.175 705.319 560.025 705.409 559.865C705.619 559.495 705.829 559.115 706.019 558.725C706.079 558.615 706.129 558.505 706.189 558.405C706.429 557.915 706.659 557.425 706.869 556.925C706.929 556.785 706.979 556.645 707.039 556.515C707.189 556.135 707.339 555.755 707.479 555.365C707.539 555.195 707.599 555.025 707.659 554.855C707.789 554.455 707.919 554.045 708.039 553.635C708.079 553.505 708.119 553.385 708.149 553.255C708.779 550.915 709.119 548.475 709.139 545.985V545.845V496.575V463.725V430.885V398.045V348.775V315.925V208.605C709.109 206.245 708.479 203.985 707.339 202.005L694.919 209.175L686.769 213.875L686.759 213.855ZM609.569 603.305H609.559V603.295H609.569V603.305Z" fill="#CECDAE"/>
<path d="M433.938 255.565C435.478 256.455 437.188 256.895 438.898 256.895C440.608 256.895 442.328 256.455 443.858 255.565L453.118 250.215L467.338 242.005L469.828 240.565L474.438 237.895L481.548 233.785H481.558L495.768 225.575L509.988 217.355L524.208 209.145L538.428 200.935H538.438L552.648 192.735L566.868 184.525L576.618 178.895L580.418 176.705L581.088 176.315L595.248 168.145L595.308 168.105L596.568 168.835L609.518 176.315H609.528L623.748 184.525L637.968 192.735L652.188 200.945L666.418 209.155L670.008 211.235L674.568 213.865C676.448 214.945 678.538 215.485 680.638 215.485C682.738 215.485 684.828 214.945 686.708 213.855L694.858 209.155L707.278 201.985C706.128 199.985 704.458 198.285 702.398 197.085L694.868 192.745H694.858L687.838 188.685L680.638 184.535L673.538 180.425L666.428 176.325L659.228 172.165L645.008 163.955L637.988 159.905H637.978L623.758 151.695L609.538 143.485L606.678 141.835L602.468 139.405C598.038 136.845 592.588 136.845 588.158 139.405L581.098 143.485L552.658 159.915L524.208 176.345L480.758 201.435L453.098 217.405L444.678 222.265L431.848 229.655L424.648 233.805V233.815L416.578 238.465C414.678 239.565 413.138 241.135 412.078 242.975L424.648 250.235L433.908 255.585L433.938 255.565Z" fill="#FFFFF8"/>
<path d="M524.509 666.395C524.509 666.395 524.559 666.395 524.579 666.395C524.989 666.395 525.399 666.365 525.809 666.325C525.869 666.325 525.929 666.315 525.999 666.305C526.409 666.265 526.829 666.205 527.239 666.125C527.259 666.125 527.279 666.125 527.299 666.115C527.739 666.035 528.169 665.935 528.609 665.815C528.659 665.805 528.719 665.785 528.769 665.765C529.119 665.665 529.469 665.555 529.819 665.435C529.939 665.395 530.059 665.345 530.169 665.305C530.459 665.195 530.749 665.075 531.039 664.945C531.149 664.895 531.269 664.845 531.379 664.785C531.769 664.605 532.149 664.405 532.529 664.185L538.449 660.775H538.459V660.765L552.669 652.555V636.145V619.725L538.459 627.935L532.949 631.115C527.559 634.225 520.909 634.225 515.519 631.115L510.009 627.935L495.789 619.725L481.569 611.515L467.339 603.305L453.129 595.095H453.119L438.899 586.885V521.195V455.505V373.395V256.895C437.189 256.895 435.469 256.455 433.939 255.565L424.679 250.215L412.109 242.955C411.049 244.785 410.469 246.895 410.469 249.085V594.255C410.519 599.885 413.539 605.065 418.419 607.885L424.679 611.505L431.879 615.665L438.909 619.715L453.129 627.925L467.349 636.135H467.359L474.459 640.235L481.559 644.335H481.569L495.789 652.545L510.009 660.755V660.765L515.909 664.175C517.739 665.235 519.729 665.905 521.759 666.215C522.669 666.355 523.579 666.415 524.489 666.395H524.509ZM495.789 636.145H495.779V636.135H495.789V636.145Z" fill="#EAEACC"/>
<path d="M453.128 578.655L467.348 570.455L481.568 562.235H481.578L495.798 554.025L510.018 545.815L524.238 537.605L538.468 529.395L552.688 521.185L566.908 512.975L581.128 504.765L595.348 496.555V463.715V447.285V414.445V398.015V365.175V348.755V299.485V250.215V213.615L581.128 221.815L566.908 230.035L552.688 238.235L538.468 246.455L524.238 254.665L510.018 262.875L495.798 271.085L481.578 279.295H481.568L467.348 287.515L453.128 295.715L438.908 303.935V373.375V455.485V521.175V586.875L453.128 578.665V578.655ZM453.128 561.275L467.338 553.065L481.558 544.855L495.788 536.645L510.008 528.425L524.228 520.215L538.458 512.005V512.195L552.678 503.985L566.898 495.775L581.128 487.565V488.335L566.908 496.545L552.688 504.755L538.478 512.965L524.248 521.175L510.028 529.395L495.808 537.605H495.798L481.588 545.815H481.578L467.358 554.025L453.138 562.235V561.275H453.128Z" fill="#CECDAE"/>
<path d="M595.349 197.175V184.525V168.105L595.289 168.135L581.129 176.295L580.459 176.695L576.659 178.885L566.909 184.515L552.689 192.715V192.725L538.479 200.925V200.945L524.259 209.155L510.039 217.365L495.819 225.575L481.609 233.775H481.599L474.489 237.885L469.879 240.555L467.389 241.995L453.169 250.205L443.909 255.555C442.369 256.445 440.659 256.885 438.949 256.885V287.505L595.389 197.185L595.349 197.175Z" fill="#CECDAE"/>
<path d="M595.35 184.515H595.36L595.35 184.525V197.175L680.69 246.435V215.485C678.59 215.485 676.49 214.945 674.62 213.865L670.06 211.235L666.47 209.165L652.24 200.945L638.02 192.735L623.8 184.525L609.58 176.315H609.57L596.62 168.835L595.35 168.105V184.515Z" fill="#EAEACC"/>
<path d="M666.47 254.646L652.25 246.446L638.03 238.226L623.8 230.016L609.58 221.816L595.36 213.596H595.35V250.206V299.476V348.746V365.166H595.36L595.35 365.176V398.006V414.436H595.37H595.36V447.266H595.37L595.36 447.276V463.696V496.536H595.37L609.59 504.746L623.81 512.956L638.04 521.166L652.26 529.376L666.48 537.576L680.7 545.796V529.376V480.116V447.266V430.846V381.576V283.046V266.616V262.846L666.48 254.636L666.47 254.646ZM623.79 299.486H623.78V299.476H623.79V299.486ZM666.47 274.836V274.856L666.46 274.846H666.47V274.836Z" fill="#EAEACC"/>
<path d="M581.128 603.295L595.348 595.085L609.568 586.875H609.578L623.798 578.665L638.018 570.445L652.238 562.235L666.468 554.025L680.688 545.815L666.468 537.605L652.248 529.395L638.028 521.175L623.798 512.965L609.578 504.765L595.358 496.545H595.348L581.128 504.755L566.908 512.975L552.688 521.175L538.468 529.395L524.238 537.605L510.018 545.815L495.798 554.025L481.578 562.235H481.568L467.348 570.455L453.128 578.655L438.908 586.875L453.128 595.085H453.138L467.348 603.295L481.578 611.505L495.798 619.715L510.018 627.925L515.528 631.105C520.918 634.215 527.568 634.215 532.958 631.105L538.468 627.925L552.678 619.715L566.898 611.505L581.118 603.295H581.128ZM595.348 562.235H595.368H595.358H595.348ZM538.468 611.515V611.505V611.525V611.515ZM538.468 562.245H538.448H538.458H538.468Z" fill="#FFFFF8"/>
<path d="M453.128 295.715L467.348 287.515L481.558 279.295H481.568L495.788 271.085L510.008 262.875L524.238 254.665L538.468 246.455L552.678 238.245V238.235L566.908 230.035L581.128 221.825V221.815L595.348 213.615V213.605V213.595H595.358L609.568 221.805V221.815L623.788 230.015V230.025L638.008 238.235L652.238 246.445L666.468 254.645V254.655L680.678 262.865V250.215V246.445V246.435L595.348 197.175V197.185L438.908 287.505V291.275V303.935L453.128 295.725V295.715Z" fill="#B7B592"/>
<path d="M645.039 163.935L638.019 159.885H638.009L623.789 151.675L609.569 143.465L606.709 141.815L602.499 139.385C598.069 136.825 592.619 136.825 588.189 139.385L581.129 143.465L438.909 225.585L431.889 229.635L424.689 233.785V233.795L416.619 238.445C414.719 239.545 413.179 241.115 412.119 242.955C411.059 244.785 410.479 246.895 410.479 249.085V594.255C410.529 599.885 413.549 605.065 418.429 607.885L424.689 611.505L431.889 615.665L438.909 619.715L453.129 627.925L467.349 636.135H467.359L474.459 640.235L481.559 644.335H481.569L495.789 652.545L510.009 660.755V660.765L515.909 664.175C521.049 667.135 527.369 667.145 532.509 664.175L538.428 660.765H538.439V660.755L552.649 652.545L559.849 648.385L566.868 644.335L581.079 636.125H581.089L595.309 627.915L602.419 623.815L609.519 619.705H609.529L623.739 611.495H623.749L637.969 603.285L644.999 599.235L652.199 595.075L666.428 586.855L680.639 578.645L687.839 574.485L694.859 570.435L694.928 570.395C703.648 565.335 709.029 556.035 709.079 545.955V545.815V496.545V463.695V430.855V398.015V348.745V315.895V208.575C709.049 206.215 708.419 203.955 707.279 201.975C706.129 199.975 704.459 198.275 702.399 197.075L694.868 192.735H694.859L687.839 188.675L680.639 184.525L673.539 180.415L666.428 176.315L659.229 172.155L645.009 163.945L645.039 163.935Z" stroke="#C1BF93" stroke-width="3" stroke-miterlimit="10"/>
<path d="M449.29 666.856L383.01 628.596L131.69 645.906L104.32 689.756L257.49 776.196C263.39 779.526 270.62 779.466 276.47 776.026L449.33 674.296C452.17 672.626 452.16 668.506 449.3 666.856H449.29Z" fill="#DFE9ED"/>
<path d="M366.67 445.755C364.66 445.355 362.7 444.635 360.87 443.575L356.1 440.815H356.09L353.61 439.385L341.88 432.605L334.77 428.495L327.66 424.385L315.92 417.605L313.44 416.175L307.43 412.705L299.22 407.965L285 399.755V416.175V424.405L370.33 473.655V490.085L356.11 481.875L341.89 473.665L327.67 465.445L313.44 457.235L299.22 449.035L285 440.815V449.015V465.445V481.865V498.285V531.125V563.975V580.395L299.22 588.605L313.44 596.825L327.66 605.035H327.67L341.89 613.245L356.11 621.455L370.33 629.665V580.405V563.985V531.135V514.715V498.295V465.445V446.105C369.92 446.105 369.51 446.095 369.11 446.065C368.3 446.015 367.48 445.905 366.68 445.745L366.67 445.755ZM327.66 440.825L327.67 440.815H327.66V440.825ZM299.22 572.205H299.21L299.22 572.195V572.205ZM341.89 547.575H341.88L341.89 547.555V547.575Z" fill="#EAEACC"/>
<path d="M168.76 400.735V367.885L182.98 359.675L197.2 351.465L203.48 347.845L207.23 345.675C207.23 345.675 207.24 345.675 207.25 345.675L207.69 345.415C209.35 344.455 211.43 345.655 211.43 347.575V348.105V351.285V355.615L211.42 359.685V409.415L239.87 392.995V359.695V343.275V332.885C239.87 331.015 239.37 329.225 238.47 327.655C237.57 326.085 236.26 324.765 234.64 323.825L225.65 318.635L218.15 314.305C213.99 311.905 208.86 311.905 204.7 314.305L197.21 318.635L182.99 326.845L168.77 335.055H168.76L154.54 343.275L140.32 351.475L131.79 356.405C130.03 357.425 128.61 358.875 127.62 360.575C126.64 362.275 126.09 364.235 126.09 366.265V368.945C126.09 373.375 128.45 377.475 132.29 379.695H132.3L133.87 380.595C137.85 382.895 140.31 387.145 140.31 391.745V417.155V450.465L168.22 434.345L168.76 400.745V400.735Z" fill="#53576B"/>
<path d="M156.989 654.305H156.999L171.209 646.095H171.219L185.439 637.885L199.659 629.675L213.879 621.465H213.889L228.099 613.255H228.109L242.329 605.045L256.539 596.835H256.549L270.769 588.625L284.989 580.405H284.999V563.995V531.145V498.305V481.875V465.455V449.035V440.825H284.989V440.845L270.769 449.045L256.549 457.265L242.329 465.465L228.109 473.685L213.879 481.895L199.659 490.105L185.439 498.315L171.219 506.525H171.209L156.989 514.745L142.769 522.945L128.549 531.165V514.735L284.989 424.415H284.999V416.185V399.765H284.989L270.779 407.975H270.769L256.549 416.185L242.329 424.395L228.109 432.605L213.889 440.815L199.659 449.035L185.439 457.245L171.219 465.455L156.999 473.665H156.989L142.769 481.875L135.759 485.925C134.369 486.725 132.869 487.285 131.339 487.585C130.419 487.765 129.489 487.855 128.549 487.855V555.775V572.195V588.615V670.735L142.769 662.525L156.989 654.305ZM185.439 473.665L186.319 473.155L199.659 465.455L213.889 457.245L228.109 449.035L228.989 448.525L242.329 440.825L242.339 440.815L256.549 432.615L270.769 424.405V424.505L256.589 432.695L242.239 440.975H242.229L228.759 448.765L227.869 449.275L213.509 457.565L199.139 465.855L185.669 473.635L184.779 474.145L170.419 482.435L156.059 490.725L156.049 490.735L142.769 498.405V498.305L142.779 498.295L143.649 497.795L156.989 490.095H156.999L171.219 481.875L185.439 473.665ZM213.889 605.045L199.659 613.255L185.439 621.465L171.219 629.675L156.999 637.885L156.989 637.895L142.779 646.095H142.769V645.985L156.939 637.805L171.299 629.515L185.669 621.225L200.029 612.925L214.389 604.635L228.759 596.345V596.465L228.109 596.835L213.889 605.045Z" fill="#CECDAE"/>
<path d="M384.549 440.815L379.779 443.585C376.859 445.275 373.589 446.115 370.329 446.115V465.445V498.295V514.715V531.135V563.985V580.405V629.675L356.109 637.895L341.889 646.105L327.669 654.315H327.659L313.449 662.525H313.439L299.219 670.735L284.999 678.945L270.779 687.155H270.769L256.549 695.375L242.339 703.585H242.329L228.109 711.795L226.379 712.795C222.509 715.025 218.199 716.145 213.889 716.145V736.415V749.895C217.179 749.895 220.479 749.045 223.429 747.335L228.099 744.635H228.109L242.329 736.415L256.549 728.205L270.769 719.995H270.779L284.989 711.785H284.999L299.219 703.565L304.769 700.355L313.439 695.345L327.659 687.135L333.209 683.935L341.889 678.925L356.109 670.715L370.329 662.505L384.549 654.295L387.089 652.835L391.229 650.435C395.899 647.735 398.769 642.755 398.769 637.365V613.245V596.815V563.975V531.125V514.705V498.285V481.855V449.015V441.615C398.769 438.825 398.019 436.135 396.669 433.805L384.549 440.795V440.815Z" fill="#CECDAE"/>
<path d="M213.889 736.414V716.144C209.579 716.144 205.259 715.034 201.389 712.794L199.659 711.794L185.439 703.584L171.219 695.374L156.999 687.164L156.989 687.154L142.769 678.944L128.549 670.734V588.624V572.204V555.784V487.854C126.059 487.854 123.569 487.214 121.339 485.924L114.329 481.874L102.899 475.274C101.099 478.394 100.109 481.974 100.109 485.694V490.084V506.504V555.774V572.194V588.614V637.884V654.304V674.744C100.109 682.424 104.199 689.514 110.849 693.354L114.329 695.364L128.549 703.574L142.769 711.784H142.779L156.999 719.994L165.659 725.004L171.219 728.214L185.439 736.424H185.449L194.099 741.424L199.659 744.634L204.349 747.344C207.299 749.044 210.589 749.894 213.889 749.894V736.424V736.414Z" fill="#EAEACC"/>
<path d="M121.339 485.925C123.569 487.215 126.059 487.855 128.549 487.855C129.479 487.855 130.419 487.765 131.339 487.585C132.869 487.285 134.369 486.735 135.759 485.925L142.769 481.875L156.989 473.665H156.999L171.219 465.455L185.439 457.245L199.659 449.035L213.889 440.815L228.109 432.605L242.329 424.405L256.549 416.185L270.769 407.975H270.779L284.989 399.765H284.999L299.219 407.975L307.429 412.715L313.439 416.185L315.919 417.615L327.659 424.395L334.769 428.505L341.879 432.615L353.609 439.395L356.089 440.825H356.099L360.869 443.585C362.699 444.635 364.659 445.365 366.669 445.765C367.469 445.925 368.289 446.025 369.099 446.085C369.509 446.115 369.909 446.125 370.319 446.125C373.579 446.125 376.839 445.285 379.769 443.595L384.539 440.835L396.659 433.835C395.309 431.505 393.349 429.525 390.929 428.135L386.319 425.485L384.549 424.405H384.539L370.329 416.195H370.319L356.099 407.985L341.879 399.775L327.659 391.565H327.649L313.439 383.345H313.429L299.209 375.135L291.919 370.925C287.629 368.445 282.349 368.455 278.059 370.925L275.029 372.675L239.859 392.975L211.409 409.395L168.209 434.335L140.299 450.455L128.539 457.245L114.319 465.455H114.309L110.519 467.645C107.299 469.505 104.689 472.155 102.889 475.275L114.319 481.875L121.329 485.925H121.339Z" fill="#FFFFF8"/>
<path d="M341.889 613.255L327.669 605.045H327.659L313.439 596.835L299.219 588.625L284.999 580.415L284.989 580.405L270.769 588.625L256.549 596.835H256.539L242.329 605.045L228.109 613.255H228.099L213.889 621.465H213.879L199.659 629.675L185.439 637.885L171.219 646.095H171.209L156.999 654.305H156.989L142.769 662.525L128.549 670.735L142.769 678.945L156.989 687.155H156.999L171.219 695.375L185.439 703.575L199.659 711.795L201.389 712.795C205.259 715.025 209.569 716.145 213.889 716.145C218.199 716.145 222.519 715.025 226.379 712.795L228.109 711.795L242.329 703.585H242.339L256.549 695.375L270.769 687.165L270.779 687.155L284.999 678.945L299.219 670.735L313.439 662.525H313.449L327.659 654.315H327.669L341.889 646.105L356.109 637.895L370.329 629.685L356.109 621.465L341.889 613.255Z" fill="#FFFFF8"/>
<path d="M284.989 424.415L128.549 514.735V531.165L142.769 522.955V522.945L156.989 514.745L171.209 506.525H171.219L185.439 498.315L199.659 490.105L213.879 481.895L228.109 473.685L242.329 465.475V465.465L256.549 457.265L270.769 449.055V449.045L284.989 440.845V440.835V440.825H284.999L299.219 449.035V449.045L313.439 457.245H313.429L327.659 465.455L341.879 473.665V473.675H341.889L356.109 481.875V481.885L370.329 490.095V473.675V473.665L284.999 424.415L284.989 424.405V424.415Z" fill="#B7B592"/>
<path d="M341.879 424.405V424.415L341.889 424.405H341.879Z" fill="#B7B592"/>
<path d="M278.069 370.925C282.359 368.445 287.639 368.445 291.929 370.915L299.219 375.125L313.439 383.335H313.449L327.659 391.545L327.669 391.555L341.889 399.755L356.109 407.975L370.329 416.185H370.339L384.549 424.395H384.559L386.329 425.475L390.939 428.125C393.359 429.515 395.319 431.495 396.669 433.825C398.019 436.165 398.769 438.845 398.769 441.635V637.385C398.769 642.775 395.899 647.755 391.229 650.455L387.089 652.855L384.549 654.315L370.329 662.525L356.109 670.735L341.889 678.945L333.209 683.955L327.659 687.155L313.439 695.365L304.769 700.365L299.219 703.575L284.999 711.785L284.989 711.795L270.779 720.005H270.769L256.549 728.215L228.109 744.635H228.099L223.429 747.335C220.479 749.045 217.179 749.895 213.889 749.895C210.599 749.895 207.299 749.045 204.349 747.345L199.659 744.635L194.099 741.425L185.449 736.425H185.439L171.219 728.215L165.659 725.005L156.999 720.005L142.779 711.795H142.769L128.549 703.575L114.329 695.365L110.849 693.355C104.209 689.515 100.109 682.425 100.109 674.745V485.695C100.109 481.975 101.099 478.395 102.899 475.275C104.699 472.165 107.309 469.515 110.529 467.645L114.319 465.465H114.329L128.549 457.245L278.069 370.925Z" stroke="#C1BF93" stroke-width="3" stroke-miterlimit="10"/>
<path d="M270.77 398.026L270.78 398.016H270.77V398.026Z" fill="#5FF25F"/>
<path d="M242.33 414.446H242.34L242.33 414.436V414.446Z" fill="#5FF25F"/>
<path d="M199.66 439.075H199.67L199.66 439.065V439.075Z" fill="#5FF25F"/>
<path d="M185.439 430.865H185.449L185.439 430.855V430.865Z" fill="#5FF25F"/>
<path d="M366.67 156.615C365.87 156.455 365.07 156.245 364.29 155.985C363.9 155.855 363.51 155.705 363.13 155.545C362.36 155.225 361.61 154.855 360.88 154.435L356.11 151.675H356.1L353.62 150.245L341.89 143.465L334.78 139.355L327.67 135.245L315.93 128.465L313.45 127.035L307.44 123.565L299.23 118.825L285.01 110.615V127.035V135.265L370.34 184.515V200.945L356.12 192.735L341.9 184.525L327.68 176.305L313.45 168.095L299.23 159.895L285.01 151.675V159.875V176.305V192.725V209.145V241.985V274.835V291.255L299.23 299.465L313.45 307.685L327.67 315.895H327.68L341.9 324.105L356.12 332.315L370.34 340.525V291.265V274.845V241.995V225.575V209.155V176.305V156.965C369.93 156.965 369.52 156.955 369.12 156.925C368.31 156.875 367.49 156.765 366.69 156.605L366.67 156.615ZM327.66 151.685L327.67 151.675H327.66V151.685ZM299.22 283.065H299.21L299.22 283.055V283.065ZM341.89 258.435H341.88L341.89 258.415V258.435Z" fill="#EAEACC"/>
<path d="M168.76 111.595V78.7452L182.98 70.5352L197.2 62.3252L203.48 58.7052L207.23 56.5352C207.23 56.5352 207.24 56.5352 207.25 56.5352L207.69 56.2752C209.35 55.3152 211.43 56.5152 211.43 58.4352V58.9652V62.1452V66.4752L211.42 70.5452V120.275L239.87 103.855V70.5552V54.1352V43.7452C239.87 41.8752 239.37 40.0852 238.47 38.5152C237.57 36.9452 236.26 35.6252 234.64 34.6852L225.65 29.4952L218.15 25.1652C213.99 22.7652 208.86 22.7652 204.7 25.1652L197.21 29.4952L182.99 37.7052L168.77 45.9152H168.76L154.54 54.1352L140.32 62.3352L131.79 67.2652C130.03 68.2852 128.61 69.7352 127.62 71.4352C126.64 73.1352 126.09 75.0952 126.09 77.1252V79.8052C126.09 84.2352 128.45 88.3352 132.29 90.5552H132.3L133.87 91.4552C137.85 93.7552 140.31 98.0052 140.31 102.605V128.015V161.325L168.22 145.205L168.76 111.605V111.595Z" fill="#53576B"/>
<path d="M156.999 365.165L171.209 356.955H171.219L185.439 348.745L199.659 340.535L213.879 332.325H213.889L228.099 324.115H228.109L242.329 315.905L256.539 307.695H256.549L270.769 299.485L284.989 291.265H284.999V274.855V242.005V209.165V192.735V176.315V159.895V151.685H284.989V151.705L270.769 159.905L256.549 168.125L242.329 176.325L228.109 184.545L213.879 192.755L199.659 200.965L185.439 209.175L171.219 217.385H171.209L156.989 225.605L142.769 233.805L128.549 242.025V225.595L284.989 135.275H284.999V127.045V110.625H284.989L270.779 118.835H270.769L256.549 127.045L242.329 135.255L228.109 143.465L213.889 151.675L199.659 159.895L185.439 168.105L171.219 176.315L156.999 184.525H156.989L142.769 192.735L135.759 196.785C134.089 197.755 132.269 198.355 130.419 198.595C129.799 198.675 129.179 198.715 128.559 198.715V266.635V283.055V299.475V381.595L142.779 373.385L156.999 365.165ZM185.439 184.525L186.319 184.015L199.659 176.315L213.889 168.105L228.109 159.895L228.989 159.385L242.329 151.685L242.339 151.675L256.549 143.475L270.769 135.265V135.365L256.589 143.555L242.239 151.835H242.229L228.759 159.625L227.869 160.135L213.509 168.425L199.139 176.715L185.669 184.495L184.779 185.005L170.419 193.295L156.059 201.585L156.049 201.595L142.769 209.265V209.165L142.779 209.155L143.649 208.655L156.989 200.955H156.999L171.219 192.735L185.439 184.525ZM213.889 315.905L199.659 324.115L185.439 332.325L171.219 340.535L156.999 348.745L156.989 348.755L142.779 356.955H142.769V356.845L156.939 348.665L171.299 340.375L185.669 332.085L200.029 323.785L214.389 315.495L228.759 307.205V307.325L228.109 307.695L213.889 315.905Z" fill="#CECDAE"/>
<path d="M384.549 151.675L379.779 154.445C376.859 156.135 373.589 156.975 370.329 156.975V176.305V209.155V225.575V241.995V274.845V291.265V340.535L356.109 348.755L341.889 356.965L327.669 365.175H327.659L313.449 373.385H313.439L299.219 381.595L284.999 389.805L270.779 398.015H270.769L256.549 406.235L242.339 414.445H242.329L228.109 422.655L226.379 423.655C222.509 425.885 218.199 427.005 213.889 427.005V447.275V460.755C217.179 460.755 220.479 459.905 223.429 458.195L228.099 455.495H228.109L242.329 447.275L256.549 439.065L270.769 430.855H270.779L284.989 422.645H284.999L299.219 414.425L304.769 411.215L313.439 406.205L327.659 397.995L333.209 394.795L341.889 389.785L356.109 381.575L370.329 373.365L384.549 365.155L387.089 363.695L391.229 361.295C395.899 358.595 398.769 353.615 398.769 348.225V324.105V307.675V274.835V241.985V225.565V209.145V192.715V159.875V152.475C398.769 149.685 398.019 146.995 396.669 144.665L384.549 151.655V151.675Z" fill="#CECDAE"/>
<path d="M213.889 447.275V427.005C209.579 427.005 205.259 425.895 201.389 423.655L199.659 422.655L185.439 414.445L171.219 406.235L156.999 398.025L156.989 398.015L142.769 389.805L128.549 381.595V299.485V283.065V266.645V198.715C126.059 198.715 123.569 198.075 121.339 196.785L114.329 192.735L102.899 186.135C101.099 189.255 100.109 192.835 100.109 196.555V200.945V217.365V266.635V283.055V299.475V348.745V365.165V385.605C100.109 393.285 104.209 400.375 110.849 404.215L114.329 406.225L128.549 414.435L142.769 422.645H142.779L156.999 430.855L165.659 435.865L171.219 439.075L185.439 447.285H185.449L194.099 452.285L199.659 455.495L204.349 458.205C207.299 459.905 210.589 460.755 213.889 460.755V447.285V447.275Z" fill="#EAEACC"/>
<path d="M121.339 196.785C123.569 198.075 126.059 198.715 128.549 198.715C129.169 198.715 129.789 198.675 130.409 198.595C132.259 198.355 134.079 197.755 135.749 196.785L142.759 192.735L156.979 184.525H156.989L171.209 176.315L185.429 168.105L199.649 159.895L213.879 151.675L228.099 143.465L242.319 135.265L256.539 127.045L270.759 118.835H270.769L284.979 110.625H284.989L299.209 118.835L307.419 123.575L313.429 127.045L315.909 128.475L327.649 135.255L334.759 139.365L341.869 143.475L353.599 150.255L356.079 151.685H356.089L360.859 154.445C361.589 154.865 362.339 155.235 363.109 155.555C363.489 155.715 363.879 155.855 364.269 155.995C365.049 156.255 365.849 156.465 366.649 156.625C367.449 156.785 368.269 156.885 369.079 156.945C369.489 156.975 369.889 156.985 370.299 156.985C373.559 156.985 376.819 156.145 379.749 154.455L384.519 151.695L396.639 144.695C395.289 142.365 393.329 140.385 390.909 138.995L386.299 136.345L384.529 135.265H384.519L370.309 127.055H370.299L356.079 118.845L341.859 110.635L327.639 102.425H327.629L313.419 94.205H313.409L299.189 85.995L291.899 81.785C287.609 79.305 282.329 79.315 278.039 81.785L275.009 83.535L239.839 103.835L211.389 120.255L168.189 145.195L140.279 161.315L128.519 168.105L114.299 176.315H114.289L110.499 178.505C107.279 180.365 104.669 183.015 102.869 186.135L114.299 192.735L121.309 196.785H121.339Z" fill="#FFFFF8"/>
<path d="M341.889 324.116L327.669 315.906H327.659L313.439 307.696L299.219 299.486L284.999 291.276L284.989 291.266L270.769 299.486L256.549 307.696H256.539L242.329 315.906L228.109 324.116H228.099L213.889 332.326H213.879L199.659 340.536L185.439 348.746L171.219 356.956H171.209L156.999 365.166H156.989L142.769 373.386L128.549 381.596L142.769 389.806L156.989 398.016H156.999L171.219 406.236L185.439 414.436L199.659 422.656L201.389 423.656C205.259 425.886 209.569 427.006 213.889 427.006C218.199 427.006 222.519 425.886 226.379 423.656L228.109 422.656L242.329 414.446H242.339L256.549 406.236L270.769 398.026L270.779 398.016L284.999 389.806L299.219 381.596L313.439 373.386H313.449L327.659 365.176H327.669L341.889 356.966L356.109 348.756L370.329 340.546L356.109 332.326L341.889 324.116Z" fill="#FFFFF8"/>
<path d="M284.989 135.276L128.549 225.596V242.026L142.769 233.816V233.806L156.989 225.606L171.209 217.386H171.219L185.439 209.176L199.659 200.966L213.879 192.756L228.109 184.546L242.329 176.336V176.326L256.549 168.126L270.769 159.916V159.906L284.989 151.706V151.696V151.686H284.999L299.219 159.896V159.906L313.439 168.106H313.429L327.659 176.316L341.879 184.526V184.536H341.889L356.109 192.736V192.746L370.329 200.956V184.536V184.526L284.999 135.276L284.989 135.266V135.276Z" fill="#B7B592"/>
<path d="M341.879 135.266V135.276L341.889 135.266H341.879Z" fill="#B7B592"/>
<path d="M278.069 81.7851C282.359 79.3051 287.639 79.3051 291.929 81.7751L299.219 85.9851L313.439 94.1951H313.449L327.659 102.405L327.669 102.415L341.889 110.615L356.109 118.835L370.329 127.045H370.339L384.549 135.255H384.559L386.329 136.335L390.939 138.985C393.359 140.375 395.319 142.355 396.669 144.685C398.019 147.025 398.769 149.705 398.769 152.495V348.245C398.769 353.635 395.899 358.615 391.229 361.315L387.089 363.715L384.549 365.175L370.329 373.385L356.109 381.595L341.889 389.805L333.209 394.815L327.659 398.015L313.439 406.225L304.769 411.225L299.219 414.435L284.999 422.645L284.989 422.655L270.779 430.865H270.769L256.549 439.075L228.109 455.495H228.099L223.429 458.195C220.479 459.905 217.179 460.755 213.889 460.755C210.599 460.755 207.299 459.905 204.349 458.205L199.659 455.495L194.099 452.285L185.449 447.285H185.439L171.219 439.075L165.659 435.865L156.999 430.865L142.779 422.655H142.769L128.549 414.435L114.329 406.225L110.849 404.215C104.209 400.375 100.109 393.285 100.109 385.605V196.555C100.109 192.835 101.099 189.255 102.899 186.135C104.699 183.025 107.309 180.375 110.529 178.505L114.319 176.325H114.329L128.549 168.105L278.069 81.7851Z" stroke="#C1BF93" stroke-width="3" stroke-miterlimit="10"/>
</svg>
