<svg width="801" height="801" viewBox="0 0 801 801" fill="none" xmlns="http://www.w3.org/2000/svg">
<g clip-path="url(#clip0_2587_29250)">
<path d="M721.794 559.374L654.194 520.334C652.964 522.454 651.194 524.264 648.994 525.534L641.894 529.634H641.884L627.664 537.844L613.444 546.054L599.224 554.264L585.004 562.474H584.994L570.774 570.694L556.554 578.894L542.334 587.114L528.114 595.324H528.104L513.894 603.534H513.884L499.664 611.744L485.444 619.954L471.224 628.164L457.004 636.374H456.994L442.774 644.594L428.554 652.804L414.334 661.014L400.114 669.224L385.884 677.434L371.674 685.644H371.664L357.444 693.854L343.224 702.064L343.214 702.074L337.644 705.284C333.484 707.684 328.574 708.204 324.074 706.874L385.594 742.844C394.844 748.254 406.274 748.274 415.544 742.904L721.794 565.584C724.184 564.204 724.184 560.754 721.794 559.374Z" fill="#DFE9ED"/>
<path d="M613.445 513.194L603.965 507.724L613.445 513.194Z" fill="#DFE9ED"/>
<path d="M272.115 661.014V660.994L272.105 661.004L272.115 661.014Z" fill="#DFE9ED"/>
<path d="M243.665 611.733L229.445 619.943L243.665 611.733Z" fill="#DFE9ED"/>
<path d="M229.446 636.373V636.363H229.436L229.446 636.373Z" fill="#DFE9ED"/>
<mask id="mask0_2587_29250" style="mask-type:luminance" maskUnits="userSpaceOnUse" x="635" y="500" width="1" height="1">
<path d="M635.236 500.613L635.196 500.633L635.186 500.643L635.236 500.613Z" fill="white"/>
</mask>
<g mask="url(#mask0_2587_29250)">
<path d="M661.296 466.453H619.996V507.753H661.296V466.453Z" fill="#77552C"/>
</g>
<mask id="mask1_2587_29250" style="mask-type:luminance" maskUnits="userSpaceOnUse" x="584" y="168" width="30" height="329">
<path d="M584.994 184.754V217.594V234.014V250.434V266.864V283.274V299.704V332.544V365.394V414.664V431.084V447.504V480.354L613.444 496.794V463.934V431.094V348.984V316.134V299.714V283.294V250.444V201.184V181.524C609.844 181.524 606.244 180.594 603.014 178.734L599.224 176.544H599.214L584.994 168.334V184.744V184.754Z" fill="white"/>
</mask>
<g mask="url(#mask1_2587_29250)">
<path d="M620.005 136.084H578.705V177.384H620.005V136.084Z" fill="#A07F57"/>
<path d="M620.005 177.384H578.705V218.684H620.005V177.384Z" fill="#A07F57"/>
<path d="M620.005 218.674H578.705V259.974H620.005V218.674Z" fill="#A07F57"/>
<path d="M620.005 259.974H578.705V301.274H620.005V259.974Z" fill="#A07F57"/>
<path d="M620.005 301.274H578.705V342.574H620.005V301.274Z" fill="#A07F57"/>
<path d="M620.005 342.564H578.705V383.864H620.005V342.564Z" fill="#A07F57"/>
<path d="M620.005 383.864H578.705V425.164H620.005V383.864Z" fill="#A07F57"/>
<path d="M620.005 425.154H578.705V466.454H620.005V425.154Z" fill="#A07F57"/>
<path d="M620.005 466.454H578.705V507.754H620.005V466.454Z" fill="#A07F57"/>
<path d="M620.005 342.564H578.705V383.864H620.005V342.564Z" fill="#A07F57"/>
<path d="M620.005 466.454H578.705V507.754H620.005V466.454Z" fill="#A07F57"/>
</g>
<path d="M584.994 496.764V496.773H585.004L589.744 499.514L599.224 504.984V504.993L603.964 507.724L613.444 513.193V496.794L584.994 480.354V496.764Z" fill="#DFE9ED"/>
<mask id="mask2_2587_29250" style="mask-type:luminance" maskUnits="userSpaceOnUse" x="584" y="480" width="30" height="34">
<path d="M584.994 496.764V496.773H585.004L589.744 499.514L599.224 504.984V504.993L603.964 507.724L613.444 513.193V496.794L584.994 480.354V496.764Z" fill="white"/>
</mask>
<g mask="url(#mask2_2587_29250)">
<path d="M620.005 466.453H578.705V507.753H620.005V466.453Z" fill="#A07F57"/>
<path d="M620.005 507.753H578.705V549.053H620.005V507.753Z" fill="#A07F57"/>
</g>
<mask id="mask3_2587_29250" style="mask-type:luminance" maskUnits="userSpaceOnUse" x="513" y="131" width="30" height="342">
<path d="M513.885 143.694V192.954V242.224V258.654V291.494V307.914V357.184V406.454V455.714H513.895L520.995 459.814L528.095 463.914H528.105L537.585 469.394L542.325 472.134V455.714V406.454V373.604V357.184V225.804V192.954V143.694L542.315 143.684L528.105 135.484H528.095L526.315 134.454C522.465 132.234 518.165 131.124 513.875 131.124V143.694H513.885Z" fill="white"/>
</mask>
<g mask="url(#mask3_2587_29250)">
<path d="M578.704 94.7842H537.404V136.084H578.704V94.7842Z" fill="#A07F57"/>
<path d="M578.704 136.084H537.404V177.384H578.704V136.084Z" fill="#A07F57"/>
<path d="M578.704 177.384H537.404V218.684H578.704V177.384Z" fill="#A07F57"/>
<path d="M578.704 218.674H537.404V259.974H578.704V218.674Z" fill="#A07F57"/>
<path d="M578.704 259.975H537.404V301.275H578.704V259.975Z" fill="#A07F57"/>
<path d="M578.704 301.274H537.404V342.574H578.704V301.274Z" fill="#A07F57"/>
<path d="M578.704 342.564H537.404V383.864H578.704V342.564Z" fill="#A07F57"/>
<path d="M578.704 383.864H537.404V425.164H578.704V383.864Z" fill="#A07F57"/>
<path d="M578.704 425.154H537.404V466.454H578.704V425.154Z" fill="#A07F57"/>
<path d="M578.704 466.454H537.404V507.754H578.704V466.454Z" fill="#A07F57"/>
<path d="M537.415 94.7842H496.115V136.084H537.415V94.7842Z" fill="#A07F57"/>
<path d="M537.415 136.084H496.115V177.384H537.415V136.084Z" fill="#A07F57"/>
<path d="M537.415 177.384H496.115V218.684H537.415V177.384Z" fill="#A07F57"/>
<path d="M537.415 218.674H496.115V259.974H537.415V218.674Z" fill="#A07F57"/>
<path d="M537.415 259.975H496.115V301.275H537.415V259.975Z" fill="#A07F57"/>
<path d="M537.415 301.274H496.115V342.574H537.415V301.274Z" fill="#A07F57"/>
<path d="M537.415 342.564H496.115V383.864H537.415V342.564Z" fill="#A07F57"/>
<path d="M537.415 383.864H496.115V425.164H537.415V383.864Z" fill="#A07F57"/>
<path d="M537.415 425.154H496.115V466.454H537.415V425.154Z" fill="#A07F57"/>
<path d="M537.415 466.454H496.115V507.754H537.415V466.454Z" fill="#A07F57"/>
<path d="M537.415 259.975H496.115V301.275H537.415V259.975Z" fill="#A07F57"/>
</g>
<path d="M337.644 705.273L343.214 702.063H343.224L357.444 693.843V661.003H357.434L343.224 669.203L328.994 677.423L314.784 669.213H314.774L305.294 663.743L300.554 661.003L286.334 652.793L286.324 652.783L272.114 644.583L257.884 636.363L243.664 628.153L229.444 619.943V613.273L197.794 626.363C195.054 627.493 194.794 631.283 197.354 632.783L324.074 706.873C328.574 708.203 333.484 707.683 337.644 705.283V705.273ZM229.444 636.373H229.434L229.444 636.363V636.373ZM272.114 661.013H272.104L272.114 660.993V661.013Z" fill="#DFE9ED"/>
<mask id="mask4_2587_29250" style="mask-type:luminance" maskUnits="userSpaceOnUse" x="195" y="613" width="163" height="95">
<path d="M337.644 705.273L343.214 702.063H343.224L357.444 693.843V661.003H357.434L343.224 669.203L328.994 677.423L314.784 669.213H314.774L305.294 663.743L300.554 661.003L286.334 652.793L286.324 652.783L272.114 644.583L257.884 636.363L243.664 628.153L229.444 619.943V613.273L197.794 626.363C195.054 627.493 194.794 631.283 197.354 632.783L324.074 706.873C328.574 708.203 333.484 707.683 337.644 705.283V705.273ZM229.444 636.373H229.434L229.444 636.363V636.373ZM272.114 661.013H272.104L272.114 660.993V661.013Z" fill="white"/>
</mask>
<g mask="url(#mask4_2587_29250)">
<path d="M372.224 590.344H330.924V631.644H372.224V590.344Z" fill="#A07F57"/>
<path d="M372.224 631.644H330.924V672.944H372.224V631.644Z" fill="#A07F57"/>
<path d="M372.224 672.934H330.924V714.234H372.224V672.934Z" fill="#A07F57"/>
<path d="M330.925 590.344H289.625V631.644H330.925V590.344Z" fill="#A07F57"/>
<path d="M330.925 631.644H289.625V672.944H330.925V631.644Z" fill="#A07F57"/>
<path d="M330.925 672.934H289.625V714.234H330.925V672.934Z" fill="#A07F57"/>
<path d="M289.634 590.344H248.334V631.644H289.634V590.344Z" fill="#A07F57"/>
<path d="M289.634 631.644H248.334V672.944H289.634V631.644Z" fill="#A07F57"/>
<path d="M289.634 672.934H248.334V714.234H289.634V672.934Z" fill="#A07F57"/>
<path d="M248.333 590.344H207.033V631.644H248.333V590.344Z" fill="#A07F57"/>
<path d="M248.333 631.644H207.033V672.944H248.333V631.644Z" fill="#A07F57"/>
<path d="M248.333 672.934H207.033V714.234H248.333V672.934Z" fill="#A07F57"/>
<path d="M207.044 590.344H165.744V631.644H207.044V590.344Z" fill="#A07F57"/>
<path d="M207.044 631.644H165.744V672.944H207.044V631.644Z" fill="#A07F57"/>
<path d="M207.044 672.934H165.744V714.234H207.044V672.934Z" fill="#A07F57"/>
<path d="M248.333 631.644H207.033V672.944H248.333V631.644Z" fill="#A07F57"/>
<path d="M289.634 631.644H248.334V672.944H289.634V631.644Z" fill="#A07F57"/>
</g>
<mask id="mask5_2587_29250" style="mask-type:luminance" maskUnits="userSpaceOnUse" x="328" y="151" width="107" height="75">
<path d="M343.224 225.804L357.444 217.594L371.664 209.384H371.674L385.884 201.174L400.114 192.964L414.334 184.754L429.604 175.944L434.954 172.854L434.364 173.194C432.564 174.234 430.554 174.754 428.554 174.754C426.554 174.754 424.544 174.234 422.744 173.194L414.334 168.344H414.324L400.114 160.134L389.814 154.184C388.594 153.484 387.614 152.484 386.934 151.304L371.674 160.124H371.664L357.444 168.334L343.224 176.544L343.214 176.554L329.004 184.764H328.994V201.184H329.004L329.564 201.504L334.104 204.124L334.864 204.564C337.454 206.054 339.544 208.184 340.984 210.684C342.424 213.184 343.224 216.064 343.224 219.054V225.814V225.804Z" fill="white"/>
</mask>
<g mask="url(#mask5_2587_29250)">
<path d="M454.816 136.084H413.516V177.384H454.816V136.084Z" fill="#C6A76F"/>
<path d="M454.816 177.384H413.516V218.684H454.816V177.384Z" fill="#C6A76F"/>
<path d="M454.816 218.674H413.516V259.974H454.816V218.674Z" fill="#C6A76F"/>
<path d="M413.525 136.084H372.225V177.384H413.525V136.084Z" fill="#C6A76F"/>
<path d="M413.525 177.384H372.225V218.684H413.525V177.384Z" fill="#C6A76F"/>
<path d="M413.525 218.674H372.225V259.974H413.525V218.674Z" fill="#C6A76F"/>
<path d="M372.226 136.084H330.926V177.384H372.226V136.084Z" fill="#C6A76F"/>
<path d="M372.226 177.384H330.926V218.684H372.226V177.384Z" fill="#C6A76F"/>
<path d="M372.226 218.674H330.926V259.974H372.226V218.674Z" fill="#C6A76F"/>
<path d="M330.925 136.084H289.625V177.384H330.925V136.084Z" fill="#C6A76F"/>
<path d="M330.925 177.384H289.625V218.684H330.925V177.384Z" fill="#C6A76F"/>
<path d="M330.925 218.674H289.625V259.974H330.925V218.674Z" fill="#C6A76F"/>
<path d="M413.525 136.084H372.225V177.384H413.525V136.084Z" fill="#C6A76F"/>
</g>
<mask id="mask6_2587_29250" style="mask-type:luminance" maskUnits="userSpaceOnUse" x="229" y="131" width="285" height="483">
<path d="M272.116 595.314L286.336 587.104L300.556 578.894L305.296 576.154L314.776 570.684L328.996 562.474H329.006L338.486 557.004L343.226 554.264L357.446 546.054L371.666 537.844H371.676L385.886 529.634H385.896L400.116 521.424L404.856 518.684L414.336 513.214L428.556 505.004L438.036 499.524L442.776 496.794L456.996 488.584L457.006 488.574L471.226 480.364L485.446 472.154L490.186 469.414L499.666 463.944L513.886 455.734V406.474V357.204V307.934V291.514V258.674V242.244V192.974V143.714V131.134C509.586 131.134 505.296 132.244 501.446 134.464L501.256 134.574L499.666 135.494L485.446 143.704L471.226 151.914L457.006 160.124H456.996L442.776 168.334L434.956 172.864L429.596 175.954L428.546 176.554L414.326 184.754L400.106 192.974L385.876 201.184L371.666 209.394H371.656L357.436 217.604L343.216 225.814L328.986 234.034L314.766 242.234L300.546 250.454L298.116 251.854L298.066 251.884L286.326 258.664H286.316L272.106 266.874L257.876 275.084L243.656 283.294L239.316 285.804C236.256 287.564 232.846 288.444 229.436 288.444V324.334V373.604V537.834V587.094V613.274L270.176 596.434L272.106 595.324L272.116 595.314ZM400.116 275.064V275.084H400.106L400.116 275.064ZM243.666 299.714L243.676 299.704H243.666V299.714ZM257.886 406.464L257.896 406.454H257.886V406.464Z" fill="white"/>
</mask>
<g mask="url(#mask6_2587_29250)">
<path d="M537.415 94.7842H496.115V136.084H537.415V94.7842Z" fill="#77552C"/>
<path d="M537.415 136.084H496.115V177.384H537.415V136.084Z" fill="#77552C"/>
<path d="M537.415 177.384H496.115V218.684H537.415V177.384Z" fill="#77552C"/>
<path d="M537.415 218.674H496.115V259.974H537.415V218.674Z" fill="#77552C"/>
<path d="M537.415 259.975H496.115V301.275H537.415V259.975Z" fill="#77552C"/>
<path d="M537.415 301.274H496.115V342.574H537.415V301.274Z" fill="#77552C"/>
<path d="M537.415 342.564H496.115V383.864H537.415V342.564Z" fill="#77552C"/>
<path d="M537.415 383.864H496.115V425.164H537.415V383.864Z" fill="#77552C"/>
<path d="M537.415 425.154H496.115V466.454H537.415V425.154Z" fill="#77552C"/>
<path d="M537.415 466.454H496.115V507.754H537.415V466.454Z" fill="#77552C"/>
<path d="M537.415 507.754H496.115V549.054H537.415V507.754Z" fill="#77552C"/>
<path d="M537.415 549.044H496.115V590.344H537.415V549.044Z" fill="#77552C"/>
<path d="M537.415 590.344H496.115V631.644H537.415V590.344Z" fill="#77552C"/>
<path d="M496.114 94.7842H454.814V136.084H496.114V94.7842Z" fill="#77552C"/>
<path d="M496.114 136.084H454.814V177.384H496.114V136.084Z" fill="#77552C"/>
<path d="M496.114 177.384H454.814V218.684H496.114V177.384Z" fill="#77552C"/>
<path d="M496.114 218.674H454.814V259.974H496.114V218.674Z" fill="#77552C"/>
<path d="M496.114 259.975H454.814V301.275H496.114V259.975Z" fill="#77552C"/>
<path d="M496.114 301.274H454.814V342.574H496.114V301.274Z" fill="#77552C"/>
<path d="M496.114 342.564H454.814V383.864H496.114V342.564Z" fill="#77552C"/>
<path d="M496.114 383.864H454.814V425.164H496.114V383.864Z" fill="#77552C"/>
<path d="M496.114 425.154H454.814V466.454H496.114V425.154Z" fill="#77552C"/>
<path d="M496.114 466.454H454.814V507.754H496.114V466.454Z" fill="#77552C"/>
<path d="M496.114 507.754H454.814V549.054H496.114V507.754Z" fill="#77552C"/>
<path d="M496.114 549.044H454.814V590.344H496.114V549.044Z" fill="#77552C"/>
<path d="M496.114 590.344H454.814V631.644H496.114V590.344Z" fill="#77552C"/>
<path d="M454.816 94.7842H413.516V136.084H454.816V94.7842Z" fill="#77552C"/>
<path d="M454.816 136.084H413.516V177.384H454.816V136.084Z" fill="#77552C"/>
<path d="M454.816 177.384H413.516V218.684H454.816V177.384Z" fill="#77552C"/>
<path d="M454.816 218.674H413.516V259.974H454.816V218.674Z" fill="#77552C"/>
<path d="M454.816 259.975H413.516V301.275H454.816V259.975Z" fill="#77552C"/>
<path d="M454.816 301.274H413.516V342.574H454.816V301.274Z" fill="#77552C"/>
<path d="M454.816 342.564H413.516V383.864H454.816V342.564Z" fill="#77552C"/>
<path d="M454.816 383.864H413.516V425.164H454.816V383.864Z" fill="#77552C"/>
<path d="M454.816 425.154H413.516V466.454H454.816V425.154Z" fill="#77552C"/>
<path d="M454.816 466.454H413.516V507.754H454.816V466.454Z" fill="#77552C"/>
<path d="M454.816 507.754H413.516V549.054H454.816V507.754Z" fill="#77552C"/>
<path d="M454.816 549.044H413.516V590.344H454.816V549.044Z" fill="#77552C"/>
<path d="M454.816 590.344H413.516V631.644H454.816V590.344Z" fill="#77552C"/>
<path d="M413.525 94.7842H372.225V136.084H413.525V94.7842Z" fill="#77552C"/>
<path d="M413.525 136.084H372.225V177.384H413.525V136.084Z" fill="#77552C"/>
<path d="M413.525 177.384H372.225V218.684H413.525V177.384Z" fill="#77552C"/>
<path d="M413.525 218.674H372.225V259.974H413.525V218.674Z" fill="#77552C"/>
<path d="M413.525 259.975H372.225V301.275H413.525V259.975Z" fill="#77552C"/>
<path d="M413.525 301.274H372.225V342.574H413.525V301.274Z" fill="#77552C"/>
<path d="M413.525 342.564H372.225V383.864H413.525V342.564Z" fill="#77552C"/>
<path d="M413.525 383.864H372.225V425.164H413.525V383.864Z" fill="#77552C"/>
<path d="M413.525 425.154H372.225V466.454H413.525V425.154Z" fill="#77552C"/>
<path d="M413.525 466.454H372.225V507.754H413.525V466.454Z" fill="#77552C"/>
<path d="M413.525 507.754H372.225V549.054H413.525V507.754Z" fill="#77552C"/>
<path d="M413.525 549.044H372.225V590.344H413.525V549.044Z" fill="#77552C"/>
<path d="M413.525 590.344H372.225V631.644H413.525V590.344Z" fill="#77552C"/>
<path d="M372.226 94.7842H330.926V136.084H372.226V94.7842Z" fill="#77552C"/>
<path d="M372.226 136.084H330.926V177.384H372.226V136.084Z" fill="#77552C"/>
<path d="M372.226 177.384H330.926V218.684H372.226V177.384Z" fill="#77552C"/>
<path d="M372.226 218.674H330.926V259.974H372.226V218.674Z" fill="#77552C"/>
<path d="M372.226 259.975H330.926V301.275H372.226V259.975Z" fill="#77552C"/>
<path d="M372.226 301.274H330.926V342.574H372.226V301.274Z" fill="#77552C"/>
<path d="M372.226 342.564H330.926V383.864H372.226V342.564Z" fill="#77552C"/>
<path d="M372.226 383.864H330.926V425.164H372.226V383.864Z" fill="#77552C"/>
<path d="M372.226 425.154H330.926V466.454H372.226V425.154Z" fill="#77552C"/>
<path d="M372.226 466.454H330.926V507.754H372.226V466.454Z" fill="#77552C"/>
<path d="M372.226 507.754H330.926V549.054H372.226V507.754Z" fill="#77552C"/>
<path d="M372.226 549.044H330.926V590.344H372.226V549.044Z" fill="#77552C"/>
<path d="M372.226 590.344H330.926V631.644H372.226V590.344Z" fill="#77552C"/>
<path d="M330.925 94.7842H289.625V136.084H330.925V94.7842Z" fill="#77552C"/>
<path d="M330.925 136.084H289.625V177.384H330.925V136.084Z" fill="#77552C"/>
<path d="M330.925 177.384H289.625V218.684H330.925V177.384Z" fill="#77552C"/>
<path d="M330.925 218.674H289.625V259.974H330.925V218.674Z" fill="#77552C"/>
<path d="M330.925 259.975H289.625V301.275H330.925V259.975Z" fill="#77552C"/>
<path d="M330.925 301.274H289.625V342.574H330.925V301.274Z" fill="#77552C"/>
<path d="M330.925 342.564H289.625V383.864H330.925V342.564Z" fill="#77552C"/>
<path d="M330.925 383.864H289.625V425.164H330.925V383.864Z" fill="#77552C"/>
<path d="M330.925 425.154H289.625V466.454H330.925V425.154Z" fill="#77552C"/>
<path d="M330.925 466.454H289.625V507.754H330.925V466.454Z" fill="#77552C"/>
<path d="M330.925 507.754H289.625V549.054H330.925V507.754Z" fill="#77552C"/>
<path d="M330.925 549.044H289.625V590.344H330.925V549.044Z" fill="#77552C"/>
<path d="M330.925 590.344H289.625V631.644H330.925V590.344Z" fill="#77552C"/>
<path d="M289.636 94.7842H248.336V136.084H289.636V94.7842Z" fill="#77552C"/>
<path d="M289.636 136.084H248.336V177.384H289.636V136.084Z" fill="#77552C"/>
<path d="M289.636 177.384H248.336V218.684H289.636V177.384Z" fill="#77552C"/>
<path d="M289.636 218.674H248.336V259.974H289.636V218.674Z" fill="#77552C"/>
<path d="M289.636 259.975H248.336V301.275H289.636V259.975Z" fill="#77552C"/>
<path d="M289.636 301.274H248.336V342.574H289.636V301.274Z" fill="#77552C"/>
<path d="M289.636 342.564H248.336V383.864H289.636V342.564Z" fill="#77552C"/>
<path d="M289.636 383.864H248.336V425.164H289.636V383.864Z" fill="#77552C"/>
<path d="M289.636 425.154H248.336V466.454H289.636V425.154Z" fill="#77552C"/>
<path d="M289.636 466.454H248.336V507.754H289.636V466.454Z" fill="#77552C"/>
<path d="M289.636 507.754H248.336V549.054H289.636V507.754Z" fill="#77552C"/>
<path d="M289.636 549.044H248.336V590.344H289.636V549.044Z" fill="#77552C"/>
<path d="M289.636 590.344H248.336V631.644H289.636V590.344Z" fill="#77552C"/>
<path d="M248.335 94.7842H207.035V136.084H248.335V94.7842Z" fill="#77552C"/>
<path d="M248.335 136.084H207.035V177.384H248.335V136.084Z" fill="#77552C"/>
<path d="M248.335 177.384H207.035V218.684H248.335V177.384Z" fill="#77552C"/>
<path d="M248.335 218.674H207.035V259.974H248.335V218.674Z" fill="#77552C"/>
<path d="M248.335 259.975H207.035V301.275H248.335V259.975Z" fill="#77552C"/>
<path d="M248.335 301.274H207.035V342.574H248.335V301.274Z" fill="#77552C"/>
<path d="M248.335 342.564H207.035V383.864H248.335V342.564Z" fill="#77552C"/>
<path d="M248.335 383.864H207.035V425.164H248.335V383.864Z" fill="#77552C"/>
<path d="M248.335 425.154H207.035V466.454H248.335V425.154Z" fill="#77552C"/>
<path d="M248.335 466.454H207.035V507.754H248.335V466.454Z" fill="#77552C"/>
<path d="M248.335 507.754H207.035V549.054H248.335V507.754Z" fill="#77552C"/>
<path d="M248.335 549.044H207.035V590.344H248.335V549.044Z" fill="#77552C"/>
<path d="M248.335 590.344H207.035V631.644H248.335V590.344Z" fill="#77552C"/>
<path d="M413.525 259.975H372.225V301.275H413.525V259.975Z" fill="#77552C"/>
<path d="M413.525 301.274H372.225V342.574H413.525V301.274Z" fill="#77552C"/>
<path d="M413.525 466.454H372.225V507.754H413.525V466.454Z" fill="#77552C"/>
<path d="M372.226 259.975H330.926V301.275H372.226V259.975Z" fill="#77552C"/>
<path d="M330.925 383.864H289.625V425.164H330.925V383.864Z" fill="#77552C"/>
<path d="M289.636 259.975H248.336V301.275H289.636V259.975Z" fill="#77552C"/>
<path d="M248.335 259.975H207.035V301.275H248.335V259.975Z" fill="#77552C"/>
<path d="M289.636 383.864H248.336V425.164H289.636V383.864Z" fill="#77552C"/>
</g>
<path d="M243.675 611.734L253.145 606.264L257.885 603.524L270.185 596.424L229.445 613.274V619.944L243.665 611.734H243.675Z" fill="#DFE9ED"/>
<mask id="mask7_2587_29250" style="mask-type:luminance" maskUnits="userSpaceOnUse" x="229" y="596" width="42" height="24">
<path d="M243.675 611.734L253.145 606.264L257.885 603.524L270.185 596.424L229.445 613.274V619.944L243.665 611.734H243.675Z" fill="white"/>
</mask>
<g mask="url(#mask7_2587_29250)">
<path d="M289.636 590.344H248.336V631.644H289.636V590.344Z" fill="#77552C"/>
<path d="M248.335 590.344H207.035V631.644H248.335V590.344Z" fill="#77552C"/>
</g>
<mask id="mask8_2587_29250" style="mask-type:luminance" maskUnits="userSpaceOnUse" x="429" y="172" width="6" height="4">
<path d="M434.955 172.854L429.605 175.944L434.955 172.854Z" fill="white"/>
</mask>
<g mask="url(#mask8_2587_29250)">
<path d="M454.816 136.084H413.516V177.384H454.816V136.084Z" fill="#C6A76F"/>
</g>
<mask id="mask9_2587_29250" style="mask-type:luminance" maskUnits="userSpaceOnUse" x="429" y="172" width="6" height="4">
<path d="M434.955 172.854L429.605 175.944L434.955 172.854Z" fill="white"/>
</mask>
<g mask="url(#mask9_2587_29250)">
<path d="M454.816 136.084H413.516V177.384H454.816V136.084Z" fill="#77552C"/>
</g>
<mask id="mask10_2587_29250" style="mask-type:luminance" maskUnits="userSpaceOnUse" x="186" y="316" width="139" height="391">
<path d="M197.795 626.354L229.445 613.264V587.094V537.834V373.604H229.435L229.445 373.594V340.754L224.075 339.644C209.205 336.574 195.955 328.224 186.775 316.124V431.074V463.914V496.764V513.184V546.034V562.454V578.874V614.894C186.775 623.094 191.145 630.664 198.245 634.764L200.995 636.354H201.005L215.215 644.564H215.225L229.445 652.774L243.665 660.984L243.675 660.994L257.885 669.194L272.115 677.414L286.335 685.624L300.555 693.834L314.775 702.044L320.345 705.264C321.535 705.954 322.785 706.474 324.075 706.854L197.355 632.764C194.795 631.264 195.055 627.484 197.795 626.344V626.354Z" fill="white"/>
</mask>
<g mask="url(#mask10_2587_29250)">
<path d="M330.927 301.274H289.627V342.574H330.927V301.274Z" fill="#A07F57"/>
<path d="M330.927 342.564H289.627V383.864H330.927V342.564Z" fill="#A07F57"/>
<path d="M330.927 383.864H289.627V425.164H330.927V383.864Z" fill="#A07F57"/>
<path d="M330.927 425.154H289.627V466.454H330.927V425.154Z" fill="#A07F57"/>
<path d="M330.927 466.454H289.627V507.754H330.927V466.454Z" fill="#A07F57"/>
<path d="M330.927 507.755H289.627V549.055H330.927V507.755Z" fill="#A07F57"/>
<path d="M330.927 549.045H289.627V590.345H330.927V549.045Z" fill="#A07F57"/>
<path d="M330.927 590.345H289.627V631.645H330.927V590.345Z" fill="#A07F57"/>
<path d="M330.927 631.645H289.627V672.945H330.927V631.645Z" fill="#A07F57"/>
<path d="M330.927 672.935H289.627V714.235H330.927V672.935Z" fill="#A07F57"/>
<path d="M289.636 301.274H248.336V342.574H289.636V301.274Z" fill="#A07F57"/>
<path d="M289.636 342.564H248.336V383.864H289.636V342.564Z" fill="#A07F57"/>
<path d="M289.636 383.864H248.336V425.164H289.636V383.864Z" fill="#A07F57"/>
<path d="M289.636 425.154H248.336V466.454H289.636V425.154Z" fill="#A07F57"/>
<path d="M289.636 466.454H248.336V507.754H289.636V466.454Z" fill="#A07F57"/>
<path d="M289.636 507.755H248.336V549.055H289.636V507.755Z" fill="#A07F57"/>
<path d="M289.636 549.045H248.336V590.345H289.636V549.045Z" fill="#A07F57"/>
<path d="M289.636 590.345H248.336V631.645H289.636V590.345Z" fill="#A07F57"/>
<path d="M289.636 631.645H248.336V672.945H289.636V631.645Z" fill="#A07F57"/>
<path d="M289.636 672.935H248.336V714.235H289.636V672.935Z" fill="#A07F57"/>
<path d="M248.335 301.274H207.035V342.574H248.335V301.274Z" fill="#A07F57"/>
<path d="M248.335 342.564H207.035V383.864H248.335V342.564Z" fill="#A07F57"/>
<path d="M248.335 383.864H207.035V425.164H248.335V383.864Z" fill="#A07F57"/>
<path d="M248.335 425.154H207.035V466.454H248.335V425.154Z" fill="#A07F57"/>
<path d="M248.335 466.454H207.035V507.754H248.335V466.454Z" fill="#A07F57"/>
<path d="M248.335 507.755H207.035V549.055H248.335V507.755Z" fill="#A07F57"/>
<path d="M248.335 549.045H207.035V590.345H248.335V549.045Z" fill="#A07F57"/>
<path d="M248.335 590.345H207.035V631.645H248.335V590.345Z" fill="#A07F57"/>
<path d="M248.335 631.645H207.035V672.945H248.335V631.645Z" fill="#A07F57"/>
<path d="M248.335 672.935H207.035V714.235H248.335V672.935Z" fill="#A07F57"/>
<path d="M207.046 301.274H165.746V342.574H207.046V301.274Z" fill="#A07F57"/>
<path d="M207.046 342.564H165.746V383.864H207.046V342.564Z" fill="#A07F57"/>
<path d="M207.046 383.864H165.746V425.164H207.046V383.864Z" fill="#A07F57"/>
<path d="M207.046 425.154H165.746V466.454H207.046V425.154Z" fill="#A07F57"/>
<path d="M207.046 466.454H165.746V507.754H207.046V466.454Z" fill="#A07F57"/>
<path d="M207.046 507.755H165.746V549.055H207.046V507.755Z" fill="#A07F57"/>
<path d="M207.046 549.045H165.746V590.345H207.046V549.045Z" fill="#A07F57"/>
<path d="M207.046 590.345H165.746V631.645H207.046V590.345Z" fill="#A07F57"/>
<path d="M207.046 631.645H165.746V672.945H207.046V631.645Z" fill="#A07F57"/>
<path d="M207.046 672.935H165.746V714.235H207.046V672.935Z" fill="#A07F57"/>
<path d="M207.046 342.564H165.746V383.864H207.046V342.564Z" fill="#A07F57"/>
<path d="M207.046 466.454H165.746V507.754H207.046V466.454Z" fill="#A07F57"/>
</g>
<mask id="mask11_2587_29250" style="mask-type:luminance" maskUnits="userSpaceOnUse" x="190" y="234" width="100" height="53">
<path d="M201.004 275.074L215.224 283.284L229.444 286.304L243.664 283.294L257.884 275.074L272.114 266.864L289.084 256.994C288.214 257.364 287.294 257.544 286.364 257.554C285.124 257.554 283.884 257.244 282.764 256.604L272.104 250.444H272.094L257.874 242.234L243.664 234.034L229.444 242.244L215.224 250.454H215.214L200.994 258.664C196.594 261.204 193.044 264.824 190.584 269.074L200.994 275.084H201.004V275.074Z" fill="white"/>
</mask>
<g mask="url(#mask11_2587_29250)">
<path d="M289.634 218.674H248.334V259.974H289.634V218.674Z" fill="#C6A76F"/>
<path d="M289.634 259.974H248.334V301.274H289.634V259.974Z" fill="#C6A76F"/>
<path d="M248.333 218.674H207.033V259.974H248.333V218.674Z" fill="#C6A76F"/>
<path d="M248.333 259.974H207.033V301.274H248.333V259.974Z" fill="#C6A76F"/>
<path d="M207.044 218.674H165.744V259.974H207.044V218.674Z" fill="#C6A76F"/>
<path d="M207.044 259.974H165.744V301.274H207.044V259.974Z" fill="#C6A76F"/>
</g>
<mask id="mask12_2587_29250" style="mask-type:luminance" maskUnits="userSpaceOnUse" x="229" y="283" width="15" height="6">
<path d="M243.665 283.294L229.445 286.304V288.434C232.855 288.434 236.265 287.554 239.325 285.794L243.665 283.294Z" fill="white"/>
</mask>
<g mask="url(#mask12_2587_29250)">
<path d="M248.335 259.974H207.035V301.274H248.335V259.974Z" fill="#77552C"/>
</g>
<mask id="mask13_2587_29250" style="mask-type:luminance" maskUnits="userSpaceOnUse" x="229" y="283" width="15" height="6">
<path d="M243.665 283.294L229.445 286.304V288.434C232.855 288.434 236.265 287.554 239.325 285.794L243.665 283.294Z" fill="white"/>
</mask>
<g mask="url(#mask13_2587_29250)">
<path d="M248.335 259.974H207.035V301.274H248.335V259.974Z" fill="#C6A76F"/>
</g>
<mask id="mask14_2587_29250" style="mask-type:luminance" maskUnits="userSpaceOnUse" x="186" y="269" width="44" height="72">
<path d="M224.075 339.653L229.445 340.763V324.343V288.443C226.035 288.443 222.625 287.563 219.565 285.793L215.225 283.283L201.005 275.073H200.995L190.585 269.063C188.125 273.313 186.775 278.203 186.775 283.283V299.703V316.123C195.945 328.233 209.205 336.593 224.075 339.653Z" fill="white"/>
</mask>
<g mask="url(#mask14_2587_29250)">
<path d="M248.335 259.974H207.035V301.274H248.335V259.974Z" fill="#A07F57"/>
<path d="M248.335 301.273H207.035V342.573H248.335V301.273Z" fill="#A07F57"/>
<path d="M207.046 259.974H165.746V301.274H207.046V259.974Z" fill="#A07F57"/>
<path d="M207.046 301.273H165.746V342.573H207.046V301.273Z" fill="#A07F57"/>
</g>
<mask id="mask15_2587_29250" style="mask-type:luminance" maskUnits="userSpaceOnUse" x="186" y="269" width="44" height="72">
<path d="M224.075 339.653L229.445 340.763V324.343V288.443C226.035 288.443 222.625 287.563 219.565 285.793L215.225 283.283L201.005 275.073H200.995L190.585 269.063C188.125 273.313 186.775 278.203 186.775 283.283V299.703V316.123C195.945 328.233 209.205 336.593 224.075 339.653Z" fill="white"/>
</mask>
<g mask="url(#mask15_2587_29250)">
<path d="M248.335 259.974H207.035V301.274H248.335V259.974Z" fill="#C6A76F"/>
<path d="M248.335 301.273H207.035V342.573H248.335V301.273Z" fill="#C6A76F"/>
<path d="M207.046 259.974H165.746V301.274H207.046V259.974Z" fill="#C6A76F"/>
<path d="M207.046 301.273H165.746V342.573H207.046V301.273Z" fill="#C6A76F"/>
</g>
<mask id="mask16_2587_29250" style="mask-type:luminance" maskUnits="userSpaceOnUse" x="215" y="283" width="15" height="6">
<path d="M215.225 283.284L219.565 285.794C222.625 287.554 226.035 288.444 229.445 288.444V286.314L215.225 283.294V283.284Z" fill="white"/>
</mask>
<g mask="url(#mask16_2587_29250)">
<path d="M248.335 259.975H207.035V301.275H248.335V259.975Z" fill="#A07F57"/>
</g>
<mask id="mask17_2587_29250" style="mask-type:luminance" maskUnits="userSpaceOnUse" x="215" y="283" width="15" height="6">
<path d="M215.225 283.284L219.565 285.794C222.625 287.554 226.035 288.444 229.445 288.444V286.314L215.225 283.294V283.284Z" fill="white"/>
</mask>
<g mask="url(#mask17_2587_29250)">
<path d="M248.335 259.975H207.035V301.275H248.335V259.975Z" fill="#C6A76F"/>
</g>
<mask id="mask18_2587_29250" style="mask-type:luminance" maskUnits="userSpaceOnUse" x="215" y="283" width="15" height="6">
<path d="M215.225 283.284L219.565 285.794C222.625 287.554 226.035 288.444 229.445 288.444V286.314L215.225 283.294V283.284Z" fill="white"/>
</mask>
<g mask="url(#mask18_2587_29250)">
<path d="M248.335 259.975H207.035V301.275H248.335V259.975Z" fill="#C6A76F"/>
</g>
<mask id="mask19_2587_29250" style="mask-type:luminance" maskUnits="userSpaceOnUse" x="632" y="500" width="4" height="2">
<path d="M632.844 501.994C632.844 501.994 632.844 501.994 632.834 501.994L635.184 500.634L632.844 501.984V501.994Z" fill="white"/>
</mask>
<g mask="url(#mask19_2587_29250)">
<path d="M661.294 466.454H619.994V507.754H661.294V466.454Z" fill="#77552C"/>
</g>
<path d="M627.665 521.404V510.984C627.665 509.134 628.155 507.354 629.045 505.804L613.445 496.794V513.204L599.225 521.414L599.215 521.424L584.995 529.634L570.775 537.844L556.555 546.054L542.335 554.264H542.325L537.585 557.004L528.115 562.474H528.105L513.885 570.684L499.665 578.894L485.445 587.104L471.225 595.314L456.995 603.534L452.255 606.274L442.775 611.744L428.555 619.954L414.335 628.164H414.325L400.115 636.374L400.105 636.384L385.885 644.584L371.665 652.794L357.445 661.004V693.854L371.665 685.644H371.675L385.885 677.434L400.115 669.224L414.335 661.014L428.555 652.804L442.775 644.594L456.995 636.384L457.005 636.374L471.225 628.164L485.445 619.954L499.665 611.744L513.885 603.534H513.895L528.105 595.324H528.115L542.335 587.114L556.555 578.904L570.775 570.694L584.995 562.484H585.005L599.225 554.274L613.445 546.064L627.665 537.854L641.885 529.644H641.895L648.995 525.544C651.195 524.274 652.965 522.474 654.195 520.344L632.595 507.874L627.665 521.424V521.404Z" fill="#DFE9ED"/>
<mask id="mask20_2587_29250" style="mask-type:luminance" maskUnits="userSpaceOnUse" x="357" y="496" width="298" height="198">
<path d="M627.665 521.404V510.984C627.665 509.134 628.155 507.354 629.045 505.804L613.445 496.794V513.204L599.225 521.414L599.215 521.424L584.995 529.634L570.775 537.844L556.555 546.054L542.335 554.264H542.325L537.585 557.004L528.115 562.474H528.105L513.885 570.684L499.665 578.894L485.445 587.104L471.225 595.314L456.995 603.534L452.255 606.274L442.775 611.744L428.555 619.954L414.335 628.164H414.325L400.115 636.374L400.105 636.384L385.885 644.584L371.665 652.794L357.445 661.004V693.854L371.665 685.644H371.675L385.885 677.434L400.115 669.224L414.335 661.014L428.555 652.804L442.775 644.594L456.995 636.384L457.005 636.374L471.225 628.164L485.445 619.954L499.665 611.744L513.885 603.534H513.895L528.105 595.324H528.115L542.335 587.114L556.555 578.904L570.775 570.694L584.995 562.484H585.005L599.225 554.274L613.445 546.064L627.665 537.854L641.885 529.644H641.895L648.995 525.544C651.195 524.274 652.965 522.474 654.195 520.344L632.595 507.874L627.665 521.424V521.404Z" fill="white"/>
</mask>
<g mask="url(#mask20_2587_29250)">
<path d="M661.296 466.454H619.996V507.754H661.296V466.454Z" fill="#77552C"/>
<path d="M661.296 507.754H619.996V549.054H661.296V507.754Z" fill="#77552C"/>
<path d="M661.296 549.044H619.996V590.344H661.296V549.044Z" fill="#77552C"/>
<path d="M661.296 590.344H619.996V631.644H661.296V590.344Z" fill="#77552C"/>
<path d="M661.296 631.645H619.996V672.945H661.296V631.645Z" fill="#77552C"/>
<path d="M661.296 672.935H619.996V714.235H661.296V672.935Z" fill="#77552C"/>
<path d="M620.005 466.454H578.705V507.754H620.005V466.454Z" fill="#77552C"/>
<path d="M620.005 507.754H578.705V549.054H620.005V507.754Z" fill="#77552C"/>
<path d="M620.005 549.044H578.705V590.344H620.005V549.044Z" fill="#77552C"/>
<path d="M620.005 590.344H578.705V631.644H620.005V590.344Z" fill="#77552C"/>
<path d="M620.005 631.645H578.705V672.945H620.005V631.645Z" fill="#77552C"/>
<path d="M620.005 672.935H578.705V714.235H620.005V672.935Z" fill="#77552C"/>
<path d="M578.706 466.454H537.406V507.754H578.706V466.454Z" fill="#77552C"/>
<path d="M578.706 507.754H537.406V549.054H578.706V507.754Z" fill="#77552C"/>
<path d="M578.706 549.044H537.406V590.344H578.706V549.044Z" fill="#77552C"/>
<path d="M578.706 590.344H537.406V631.644H578.706V590.344Z" fill="#77552C"/>
<path d="M578.706 631.645H537.406V672.945H578.706V631.645Z" fill="#77552C"/>
<path d="M578.706 672.935H537.406V714.235H578.706V672.935Z" fill="#77552C"/>
<path d="M537.415 466.454H496.115V507.754H537.415V466.454Z" fill="#77552C"/>
<path d="M537.415 507.754H496.115V549.054H537.415V507.754Z" fill="#77552C"/>
<path d="M537.415 549.044H496.115V590.344H537.415V549.044Z" fill="#77552C"/>
<path d="M537.415 590.344H496.115V631.644H537.415V590.344Z" fill="#77552C"/>
<path d="M537.415 631.645H496.115V672.945H537.415V631.645Z" fill="#77552C"/>
<path d="M537.415 672.935H496.115V714.235H537.415V672.935Z" fill="#77552C"/>
<path d="M496.116 466.454H454.816V507.754H496.116V466.454Z" fill="#77552C"/>
<path d="M496.116 507.754H454.816V549.054H496.116V507.754Z" fill="#77552C"/>
<path d="M496.116 549.044H454.816V590.344H496.116V549.044Z" fill="#77552C"/>
<path d="M496.116 590.344H454.816V631.644H496.116V590.344Z" fill="#77552C"/>
<path d="M496.116 631.645H454.816V672.945H496.116V631.645Z" fill="#77552C"/>
<path d="M496.116 672.935H454.816V714.235H496.116V672.935Z" fill="#77552C"/>
<path d="M454.816 466.454H413.516V507.754H454.816V466.454Z" fill="#77552C"/>
<path d="M454.816 507.754H413.516V549.054H454.816V507.754Z" fill="#77552C"/>
<path d="M454.816 549.044H413.516V590.344H454.816V549.044Z" fill="#77552C"/>
<path d="M454.816 590.344H413.516V631.644H454.816V590.344Z" fill="#77552C"/>
<path d="M454.816 631.645H413.516V672.945H454.816V631.645Z" fill="#77552C"/>
<path d="M454.816 672.935H413.516V714.235H454.816V672.935Z" fill="#77552C"/>
<path d="M413.527 466.454H372.227V507.754H413.527V466.454Z" fill="#77552C"/>
<path d="M413.527 507.754H372.227V549.054H413.527V507.754Z" fill="#77552C"/>
<path d="M413.527 549.044H372.227V590.344H413.527V549.044Z" fill="#77552C"/>
<path d="M413.527 590.344H372.227V631.644H413.527V590.344Z" fill="#77552C"/>
<path d="M413.527 631.645H372.227V672.945H413.527V631.645Z" fill="#77552C"/>
<path d="M413.527 672.935H372.227V714.235H413.527V672.935Z" fill="#77552C"/>
<path d="M372.226 466.454H330.926V507.754H372.226V466.454Z" fill="#77552C"/>
<path d="M372.226 507.754H330.926V549.054H372.226V507.754Z" fill="#77552C"/>
<path d="M372.226 549.044H330.926V590.344H372.226V549.044Z" fill="#77552C"/>
<path d="M372.226 590.344H330.926V631.644H372.226V590.344Z" fill="#77552C"/>
<path d="M372.226 631.645H330.926V672.945H372.226V631.645Z" fill="#77552C"/>
<path d="M372.226 672.935H330.926V714.235H372.226V672.935Z" fill="#77552C"/>
</g>
<mask id="mask21_2587_29250" style="mask-type:luminance" maskUnits="userSpaceOnUse" x="629" y="500" width="7" height="8">
<path d="M635.235 500.613L635.185 500.643L632.835 502.003C631.235 502.933 629.945 504.253 629.055 505.803L632.605 507.853L635.235 500.613Z" fill="white"/>
</mask>
<g mask="url(#mask21_2587_29250)">
<path d="M661.294 466.453H619.994V507.753H661.294V466.453Z" fill="#77552C"/>
<path d="M661.294 507.753H619.994V549.053H661.294V507.753Z" fill="#77552C"/>
</g>
<mask id="mask22_2587_29250" style="mask-type:luminance" maskUnits="userSpaceOnUse" x="629" y="500" width="7" height="8">
<path d="M635.235 500.613L635.185 500.643L632.835 502.003C631.235 502.933 629.945 504.253 629.055 505.803L632.605 507.853L635.235 500.613Z" fill="white"/>
</mask>
<g mask="url(#mask22_2587_29250)">
<path d="M661.294 466.453H619.994V507.753H661.294V466.453Z" fill="#77552C"/>
<path d="M661.294 507.753H619.994V549.053H661.294V507.753Z" fill="#77552C"/>
</g>
<path d="M627.664 521.404L632.594 507.854L629.044 505.804C628.154 507.354 627.664 509.134 627.664 510.984V521.404Z" fill="#DFE9ED"/>
<mask id="mask23_2587_29250" style="mask-type:luminance" maskUnits="userSpaceOnUse" x="627" y="505" width="6" height="17">
<path d="M627.664 521.404L632.594 507.854L629.044 505.804C628.154 507.354 627.664 509.134 627.664 510.984V521.404Z" fill="white"/>
</mask>
<g mask="url(#mask23_2587_29250)">
<path d="M661.294 466.454H619.994V507.754H661.294V466.454Z" fill="#77552C"/>
<path d="M661.294 507.754H619.994V549.054H661.294V507.754Z" fill="#77552C"/>
</g>
<mask id="mask24_2587_29250" style="mask-type:luminance" maskUnits="userSpaceOnUse" x="627" y="505" width="6" height="17">
<path d="M627.664 521.404L632.594 507.854L629.044 505.804C628.154 507.354 627.664 509.134 627.664 510.984V521.404Z" fill="white"/>
</mask>
<g mask="url(#mask24_2587_29250)">
<path d="M661.294 466.454H619.994V507.754H661.294V466.454Z" fill="#77552C"/>
<path d="M661.294 507.754H619.994V549.054H661.294V507.754Z" fill="#77552C"/>
</g>
<mask id="mask25_2587_29250" style="mask-type:luminance" maskUnits="userSpaceOnUse" x="613" y="278" width="44" height="243">
<path d="M617.285 302.444L613.445 303.194V316.124V348.974V431.084V463.924V496.784L629.045 505.804C629.935 504.254 631.225 502.934 632.825 502.004L627.655 504.984L635.185 500.624L635.225 500.604L632.595 507.844L654.195 520.314C655.425 518.184 656.115 515.734 656.115 513.194V504.984V472.144V455.714V439.294V422.874V390.024H656.105L656.115 390.014V373.604V357.184H656.105L656.115 357.174V307.914V291.494V278.554H656.105C646.485 290.954 632.695 299.444 617.285 302.434V302.444ZM641.885 316.134L641.895 316.124H641.885V316.134Z" fill="white"/>
</mask>
<g mask="url(#mask25_2587_29250)">
<path d="M661.294 259.974H619.994V301.274H661.294V259.974Z" fill="#77552C"/>
<path d="M661.294 301.273H619.994V342.573H661.294V301.273Z" fill="#77552C"/>
<path d="M661.294 342.563H619.994V383.863H661.294V342.563Z" fill="#77552C"/>
<path d="M661.294 383.863H619.994V425.163H661.294V383.863Z" fill="#77552C"/>
<path d="M661.294 425.153H619.994V466.453H661.294V425.153Z" fill="#77552C"/>
<path d="M661.294 466.453H619.994V507.753H661.294V466.453Z" fill="#77552C"/>
<path d="M661.294 507.754H619.994V549.054H661.294V507.754Z" fill="#77552C"/>
<path d="M620.005 259.974H578.705V301.274H620.005V259.974Z" fill="#77552C"/>
<path d="M620.005 301.273H578.705V342.573H620.005V301.273Z" fill="#77552C"/>
<path d="M620.005 342.563H578.705V383.863H620.005V342.563Z" fill="#77552C"/>
<path d="M620.005 383.863H578.705V425.163H620.005V383.863Z" fill="#77552C"/>
<path d="M620.005 425.153H578.705V466.453H620.005V425.153Z" fill="#77552C"/>
<path d="M620.005 466.453H578.705V507.753H620.005V466.453Z" fill="#77552C"/>
<path d="M620.005 507.754H578.705V549.054H620.005V507.754Z" fill="#77552C"/>
<path d="M661.294 301.273H619.994V342.573H661.294V301.273Z" fill="#77552C"/>
</g>
<mask id="mask26_2587_29250" style="mask-type:luminance" maskUnits="userSpaceOnUse" x="627" y="504" width="1" height="1">
<path d="M627.664 504.993V504.983L627.654 504.993H627.664Z" fill="white"/>
</mask>
<g mask="url(#mask26_2587_29250)">
<path d="M661.294 466.453H619.994V507.753H661.294V466.453Z" fill="#77552C"/>
</g>
<mask id="mask27_2587_29250" style="mask-type:luminance" maskUnits="userSpaceOnUse" x="627" y="504" width="1" height="1">
<path d="M627.664 504.993V504.983L627.654 504.993H627.664Z" fill="white"/>
</mask>
<g mask="url(#mask27_2587_29250)">
<path d="M661.294 466.453H619.994V507.753H661.294V466.453Z" fill="#77552C"/>
</g>
<path d="M641.885 168.334L627.665 176.544L623.875 178.734C620.645 180.594 617.045 181.524 613.445 181.524V201.174V250.434V283.284V299.704V303.194L617.285 302.444C632.695 299.454 646.485 290.964 656.105 278.564H656.115V262.154V242.234H656.105L656.115 242.224V225.814V209.394H656.105L656.115 209.384V176.504C656.115 176.104 656.115 172.824 656.115 169.304C656.115 166.464 655.355 163.734 653.985 161.354L641.905 168.324H641.895L641.885 168.334ZM641.885 283.294L641.895 283.284H641.885V283.294Z" fill="#896F3A"/>
<mask id="mask28_2587_29250" style="mask-type:luminance" maskUnits="userSpaceOnUse" x="456" y="82" width="198" height="95">
<path d="M481.634 129.474C484.094 133.724 485.444 138.614 485.444 143.694L499.664 135.484L501.254 134.564L501.444 134.454L513.884 127.274L526.324 134.454L528.104 135.484H528.114L542.324 143.694H542.334L556.544 151.904H556.554L570.774 160.124L584.994 168.324L599.214 176.544H599.224L613.444 164.224V175.794L627.664 176.554L641.884 168.344L641.894 168.334L653.974 161.364C652.604 158.984 650.614 156.964 648.154 155.544L641.874 151.914L627.654 143.704H627.644L613.434 135.504L599.214 127.294L599.204 127.284L584.984 119.074L570.764 110.864L556.544 102.654L542.324 94.4437H542.314L528.104 86.2337H528.094C519.294 81.1537 508.454 81.1437 499.644 86.2337L485.434 94.4337L471.214 102.644L471.204 102.654L456.994 110.864L471.214 119.074C475.614 121.614 479.164 125.234 481.624 129.484L481.634 129.474Z" fill="white"/>
</mask>
<g mask="url(#mask28_2587_29250)">
<path d="M661.294 53.4941H619.994V94.7941H661.294V53.4941Z" fill="#C6A76F"/>
<path d="M661.294 94.7842H619.994V136.084H661.294V94.7842Z" fill="#C6A76F"/>
<path d="M661.294 136.084H619.994V177.384H661.294V136.084Z" fill="#C6A76F"/>
<path d="M620.005 53.4941H578.705V94.7941H620.005V53.4941Z" fill="#C6A76F"/>
<path d="M620.005 94.7842H578.705V136.084H620.005V94.7842Z" fill="#C6A76F"/>
<path d="M620.005 136.084H578.705V177.384H620.005V136.084Z" fill="#C6A76F"/>
<path d="M578.704 53.4941H537.404V94.7941H578.704V53.4941Z" fill="#C6A76F"/>
<path d="M578.704 94.7842H537.404V136.084H578.704V94.7842Z" fill="#C6A76F"/>
<path d="M578.704 136.084H537.404V177.384H578.704V136.084Z" fill="#C6A76F"/>
<path d="M537.415 53.4941H496.115V94.7941H537.415V53.4941Z" fill="#C6A76F"/>
<path d="M537.415 94.7842H496.115V136.084H537.415V94.7842Z" fill="#C6A76F"/>
<path d="M537.415 136.084H496.115V177.384H537.415V136.084Z" fill="#C6A76F"/>
<path d="M496.114 53.4941H454.814V94.7941H496.114V53.4941Z" fill="#C6A76F"/>
<path d="M496.114 94.7842H454.814V136.084H496.114V94.7842Z" fill="#C6A76F"/>
<path d="M496.114 136.084H454.814V177.384H496.114V136.084Z" fill="#C6A76F"/>
<path d="M620.005 136.084H578.705V177.384H620.005V136.084Z" fill="#C6A76F"/>
<path d="M537.415 53.4941H496.115V94.7941H537.415V53.4941Z" fill="#C6A76F"/>
</g>
<mask id="mask29_2587_29250" style="mask-type:luminance" maskUnits="userSpaceOnUse" x="499" y="134" width="3" height="2">
<path d="M501.254 134.563L499.664 135.483L501.254 134.563Z" fill="white"/>
</mask>
<g mask="url(#mask29_2587_29250)">
<path d="M537.413 94.7832H496.113V136.083H537.413V94.7832Z" fill="#77552C"/>
</g>
<mask id="mask30_2587_29250" style="mask-type:luminance" maskUnits="userSpaceOnUse" x="499" y="134" width="3" height="2">
<path d="M501.254 134.563L499.664 135.483L501.254 134.563Z" fill="white"/>
</mask>
<g mask="url(#mask30_2587_29250)">
<path d="M537.413 94.7832H496.113V136.083H537.413V94.7832Z" fill="#C6A76F"/>
</g>
<mask id="mask31_2587_29250" style="mask-type:luminance" maskUnits="userSpaceOnUse" x="599" y="164" width="15" height="18">
<path d="M613.445 181.524V164.214L599.225 176.534L603.015 178.724C606.245 180.584 609.845 181.514 613.445 181.514V181.524Z" fill="white"/>
</mask>
<g mask="url(#mask31_2587_29250)">
<path d="M620.005 136.084H578.705V177.384H620.005V136.084Z" fill="#A07F57"/>
<path d="M620.005 177.384H578.705V218.684H620.005V177.384Z" fill="#A07F57"/>
</g>
<mask id="mask32_2587_29250" style="mask-type:luminance" maskUnits="userSpaceOnUse" x="599" y="164" width="15" height="18">
<path d="M613.445 181.524V164.214L599.225 176.534L603.015 178.724C606.245 180.584 609.845 181.514 613.445 181.514V181.524Z" fill="white"/>
</mask>
<g mask="url(#mask32_2587_29250)">
<path d="M620.005 136.084H578.705V177.384H620.005V136.084Z" fill="#C6A76F"/>
<path d="M620.005 177.384H578.705V218.684H620.005V177.384Z" fill="#C6A76F"/>
</g>
<mask id="mask33_2587_29250" style="mask-type:luminance" maskUnits="userSpaceOnUse" x="513" y="127" width="14" height="8">
<path d="M526.325 134.453L513.885 127.273V131.123C518.185 131.123 522.475 132.233 526.325 134.453Z" fill="white"/>
</mask>
<g mask="url(#mask33_2587_29250)">
<path d="M537.415 94.7832H496.115V136.083H537.415V94.7832Z" fill="#A07F57"/>
</g>
<mask id="mask34_2587_29250" style="mask-type:luminance" maskUnits="userSpaceOnUse" x="513" y="127" width="14" height="8">
<path d="M526.325 134.453L513.885 127.273V131.123C518.185 131.123 522.475 132.233 526.325 134.453Z" fill="white"/>
</mask>
<g mask="url(#mask34_2587_29250)">
<path d="M537.415 94.7832H496.115V136.083H537.415V94.7832Z" fill="#C6A76F"/>
</g>
<mask id="mask35_2587_29250" style="mask-type:luminance" maskUnits="userSpaceOnUse" x="526" y="134" width="3" height="2">
<path d="M526.324 134.454L528.104 135.484L526.324 134.454Z" fill="white"/>
</mask>
<g mask="url(#mask35_2587_29250)">
<path d="M537.413 94.7842H496.113V136.084H537.413V94.7842Z" fill="#A07F57"/>
</g>
<mask id="mask36_2587_29250" style="mask-type:luminance" maskUnits="userSpaceOnUse" x="526" y="134" width="3" height="2">
<path d="M526.324 134.454L528.104 135.484L526.324 134.454Z" fill="white"/>
</mask>
<g mask="url(#mask36_2587_29250)">
<path d="M537.413 94.7842H496.113V136.084H537.413V94.7842Z" fill="#C6A76F"/>
</g>
<mask id="mask37_2587_29250" style="mask-type:luminance" maskUnits="userSpaceOnUse" x="526" y="134" width="3" height="2">
<path d="M526.324 134.454L528.104 135.484L526.324 134.454Z" fill="white"/>
</mask>
<g mask="url(#mask37_2587_29250)">
<path d="M537.413 94.7842H496.113V136.084H537.413V94.7842Z" fill="#A07F57"/>
</g>
<mask id="mask38_2587_29250" style="mask-type:luminance" maskUnits="userSpaceOnUse" x="526" y="134" width="3" height="2">
<path d="M526.324 134.454L528.104 135.484L526.324 134.454Z" fill="white"/>
</mask>
<g mask="url(#mask38_2587_29250)">
<path d="M537.413 94.7842H496.113V136.084H537.413V94.7842Z" fill="#C6A76F"/>
</g>
<mask id="mask39_2587_29250" style="mask-type:luminance" maskUnits="userSpaceOnUse" x="501" y="127" width="13" height="8">
<path d="M513.885 127.273L501.445 134.453C505.295 132.233 509.595 131.123 513.885 131.123V127.273Z" fill="white"/>
</mask>
<g mask="url(#mask39_2587_29250)">
<path d="M537.415 94.7832H496.115V136.083H537.415V94.7832Z" fill="#77552C"/>
</g>
<mask id="mask40_2587_29250" style="mask-type:luminance" maskUnits="userSpaceOnUse" x="501" y="127" width="13" height="8">
<path d="M513.885 127.273L501.445 134.453C505.295 132.233 509.595 131.123 513.885 131.123V127.273Z" fill="white"/>
</mask>
<g mask="url(#mask40_2587_29250)">
<path d="M537.415 94.7832H496.115V136.083H537.415V94.7832Z" fill="#C6A76F"/>
</g>
<path d="M623.875 178.734L627.665 176.544L613.445 175.784V181.524C617.045 181.524 620.645 180.594 623.875 178.734Z" fill="#896F3A"/>
<mask id="mask41_2587_29250" style="mask-type:luminance" maskUnits="userSpaceOnUse" x="613" y="175" width="15" height="7">
<path d="M623.875 178.734L627.665 176.544L613.445 175.784V181.524C617.045 181.524 620.645 180.594 623.875 178.734Z" fill="white"/>
</mask>
<g mask="url(#mask41_2587_29250)">
<path d="M661.294 136.084H619.994V177.384H661.294V136.084Z" fill="#C6A76F"/>
<path d="M661.294 177.384H619.994V218.684H661.294V177.384Z" fill="#C6A76F"/>
<path d="M620.005 136.084H578.705V177.384H620.005V136.084Z" fill="#C6A76F"/>
<path d="M620.005 177.384H578.705V218.684H620.005V177.384Z" fill="#C6A76F"/>
</g>
<path d="M434.365 173.184L434.955 172.844L442.775 168.324L456.995 160.114L457.005 160.104L471.225 151.894L485.445 143.684C485.445 138.604 484.085 133.714 481.635 129.464L478.445 131.304L471.225 135.474L456.995 143.684L442.785 151.894H442.775L438.385 154.434C435.345 156.194 431.955 157.064 428.555 157.064V174.734C430.565 174.734 432.565 174.214 434.365 173.174V173.184Z" fill="#E2B042"/>
<path d="M386.935 151.293C387.615 152.473 388.595 153.473 389.815 154.173L400.115 160.123L414.325 168.333H414.335L422.745 173.183C424.545 174.223 426.555 174.743 428.555 174.743V157.073C425.165 157.073 421.765 156.193 418.725 154.443L418.075 154.063L414.335 151.903L400.115 143.693L385.885 135.483V147.363C385.885 148.773 386.255 150.123 386.935 151.293Z" fill="#EFD35E"/>
<path d="M257.884 242.234L272.104 250.444H272.114L282.774 256.604C283.884 257.244 285.124 257.564 286.374 257.554C286.554 252.874 287.864 248.384 290.144 244.444L286.344 242.254H286.324L272.114 234.034L257.884 225.824L247.474 219.804C245.014 224.054 243.664 228.944 243.664 234.024C243.664 234.024 243.664 234.034 243.664 234.044L257.874 242.244L257.884 242.234Z" fill="#EFD35E"/>
<path d="M257.885 225.814L272.115 234.024L286.345 242.244L290.145 244.434C292.595 240.174 296.155 236.554 300.555 234.014L314.775 225.814L328.995 217.594L340.985 210.674C339.545 208.174 337.445 206.044 334.865 204.554L334.105 204.114L329.565 201.494L329.405 201.574L316.355 208.464L314.775 209.374L300.555 217.584L290.335 223.484C287.855 224.914 284.815 224.914 282.335 223.484L273.945 218.644C273.125 218.174 273.125 216.994 273.945 216.524L286.335 209.374L300.555 201.164L303.085 199.694L302.525 199.324L314.785 192.954L307.135 188.534C303.065 186.184 298.055 186.184 293.985 188.534L286.335 192.944L286.325 192.954L272.115 201.154V201.174H272.105L257.885 209.374C253.485 211.914 249.935 215.534 247.475 219.784L257.885 225.794V225.814Z" fill="#F4F0A8"/>
<path d="M418.074 123.494V133.594L428.994 127.284L441.104 120.294C442.404 119.544 444.014 119.544 445.314 120.294L454.354 125.514C455.724 126.304 455.724 128.284 454.354 129.074L443.214 135.504L428.994 143.714L418.074 137.404V154.064L418.724 154.444C421.764 156.204 425.154 157.074 428.554 157.074C431.954 157.074 435.344 156.194 438.384 154.444L442.774 151.904H442.784L456.994 143.694L471.224 135.484L478.444 131.314L481.634 129.474C479.174 125.224 475.624 121.604 471.224 119.064L457.004 110.854H456.994V110.844C448.194 105.764 437.354 105.764 428.554 110.844L414.334 119.054L414.324 119.064L413.084 118.354C416.824 120.814 418.074 123.494 418.074 123.494Z" fill="#F4F0A8"/>
<mask id="mask42_2587_29250" style="mask-type:luminance" maskUnits="userSpaceOnUse" x="302" y="114" width="117" height="95">
<path d="M303.085 199.704L303.725 199.334L317.955 207.544L316.345 208.474L329.395 201.584L328.995 201.174H328.985V184.754V184.704C328.985 174.654 334.305 165.374 342.945 160.274C343.025 160.224 343.105 160.164 343.195 160.124H343.205H343.215L357.435 151.914L371.655 143.704L385.875 135.494L399.845 127.944C399.845 127.944 404.585 128.534 403.995 145.874L414.385 151.924L418.065 152.754V123.494C418.065 123.494 416.815 120.814 413.075 118.354L410.995 117.154C409.635 116.364 408.205 115.744 406.745 115.274C405.075 114.744 403.365 114.404 401.635 114.284C401.125 114.244 400.615 114.224 400.105 114.224C396.345 114.224 392.585 115.194 389.205 117.144L385.885 119.064H385.875L371.655 127.274L357.435 135.484L343.215 143.694L328.995 151.904H328.985V151.914C328.695 152.074 328.425 152.264 328.145 152.434C327.885 152.594 327.615 152.754 327.365 152.924C327.085 153.114 326.815 153.314 326.545 153.514C326.315 153.684 326.075 153.844 325.845 154.024C325.585 154.224 325.335 154.444 325.075 154.654C324.855 154.844 324.615 155.014 324.405 155.214C324.175 155.414 323.955 155.634 323.735 155.844C323.505 156.054 323.275 156.264 323.055 156.484C322.825 156.714 322.615 156.954 322.395 157.194C322.195 157.404 321.985 157.614 321.795 157.834C321.575 158.094 321.365 158.354 321.155 158.624C320.985 158.834 320.795 159.044 320.635 159.264C320.445 159.514 320.265 159.784 320.085 160.044C319.915 160.284 319.735 160.524 319.565 160.764C319.395 161.014 319.255 161.274 319.095 161.524C318.925 161.794 318.755 162.054 318.595 162.324C318.435 162.594 318.305 162.874 318.155 163.144C318.015 163.414 317.865 163.674 317.725 163.944C317.575 164.244 317.445 164.544 317.315 164.854C317.195 165.114 317.075 165.364 316.965 165.624C316.835 165.944 316.715 166.274 316.595 166.594C316.505 166.844 316.395 167.094 316.305 167.354C316.185 167.694 316.085 168.054 315.985 168.404C315.915 168.644 315.835 168.884 315.765 169.124C315.675 169.464 315.605 169.814 315.525 170.154C315.465 170.414 315.395 170.674 315.345 170.934C315.285 171.254 315.235 171.584 315.185 171.914C315.135 172.204 315.075 172.494 315.045 172.784C314.995 173.174 314.965 173.564 314.925 173.954C314.905 174.184 314.875 174.414 314.855 174.654C314.815 175.284 314.795 175.914 314.795 176.544V192.974L302.535 199.344L303.095 199.714L303.085 199.704Z" fill="white"/>
</mask>
<g mask="url(#mask42_2587_29250)">
<path d="M454.816 94.7832H413.516V136.083H454.816V94.7832Z" fill="#A07F57"/>
<path d="M454.816 136.083H413.516V177.383H454.816V136.083Z" fill="#A07F57"/>
<path d="M454.816 177.383H413.516V218.683H454.816V177.383Z" fill="#A07F57"/>
<path d="M413.525 94.7832H372.225V136.083H413.525V94.7832Z" fill="#A07F57"/>
<path d="M413.525 136.083H372.225V177.383H413.525V136.083Z" fill="#A07F57"/>
<path d="M413.525 177.383H372.225V218.683H413.525V177.383Z" fill="#A07F57"/>
<path d="M372.226 94.7832H330.926V136.083H372.226V94.7832Z" fill="#A07F57"/>
<path d="M372.226 136.083H330.926V177.383H372.226V136.083Z" fill="#A07F57"/>
<path d="M372.226 177.383H330.926V218.683H372.226V177.383Z" fill="#A07F57"/>
<path d="M330.925 94.7832H289.625V136.083H330.925V94.7832Z" fill="#A07F57"/>
<path d="M330.925 136.083H289.625V177.383H330.925V136.083Z" fill="#A07F57"/>
<path d="M330.925 177.383H289.625V218.683H330.925V177.383Z" fill="#A07F57"/>
</g>
<mask id="mask43_2587_29250" style="mask-type:luminance" maskUnits="userSpaceOnUse" x="329" y="201" width="1" height="1">
<path d="M329.404 201.584L329.564 201.494L329.004 201.174L329.404 201.584Z" fill="white"/>
</mask>
<g mask="url(#mask43_2587_29250)">
<path d="M330.923 177.384H289.623V218.684H330.923V177.384Z" fill="#C6A76F"/>
</g>
<mask id="mask44_2587_29250" style="mask-type:luminance" maskUnits="userSpaceOnUse" x="329" y="201" width="1" height="1">
<path d="M329.404 201.584L329.564 201.494L329.004 201.174L329.404 201.584Z" fill="white"/>
</mask>
<g mask="url(#mask44_2587_29250)">
<path d="M330.923 177.384H289.623V218.684H330.923V177.384Z" fill="#A07F57"/>
</g>
<path d="M418.075 154.064V152.754L414.395 151.914L418.075 154.064Z" fill="#EFD35E"/>
<mask id="mask45_2587_29250" style="mask-type:luminance" maskUnits="userSpaceOnUse" x="414" y="151" width="5" height="4">
<path d="M418.075 154.064V152.754L414.395 151.914L418.075 154.064Z" fill="white"/>
</mask>
<g mask="url(#mask45_2587_29250)">
<path d="M454.814 136.084H413.514V177.384H454.814V136.084Z" fill="#A07F57"/>
</g>
<path d="M414.335 151.904L418.075 154.064L414.395 151.914L404.005 145.864C404.595 128.534 399.855 127.934 399.855 127.934L385.885 135.484L400.115 143.694L414.335 151.904Z" fill="#F4F0A8"/>
<path d="M298.075 251.874L298.125 251.844L300.555 250.444L314.775 242.234L328.995 234.024L343.225 225.814V219.044C343.225 216.054 342.425 213.184 340.985 210.674L328.995 217.594L314.775 225.804L300.555 234.014C296.155 236.564 292.595 240.184 290.145 244.434C287.875 248.374 286.555 252.864 286.375 257.544C287.305 257.544 288.225 257.354 289.095 256.984C289.365 256.874 289.625 256.744 289.885 256.594L298.085 251.864L298.075 251.874Z" fill="#E2B042"/>
<path d="M303.085 199.704L300.555 201.174L286.335 209.384L273.945 216.534C273.125 217.004 273.125 218.184 273.945 218.654L282.335 223.494C284.815 224.924 287.855 224.924 290.335 223.494L300.555 217.594L314.775 209.384L316.355 208.474L303.085 199.714V199.704Z" fill="#F4F0A8"/>
<mask id="mask46_2587_29250" style="mask-type:luminance" maskUnits="userSpaceOnUse" x="273" y="199" width="44" height="26">
<path d="M303.085 199.704L300.555 201.174L286.335 209.384L273.945 216.534C273.125 217.004 273.125 218.184 273.945 218.654L282.335 223.494C284.815 224.924 287.855 224.924 290.335 223.494L300.555 217.594L314.775 209.384L316.355 208.474L303.085 199.714V199.704Z" fill="white"/>
</mask>
<g mask="url(#mask46_2587_29250)">
<path d="M330.925 177.384H289.625V218.684H330.925V177.384Z" fill="#77552C"/>
<path d="M330.925 218.674H289.625V259.974H330.925V218.674Z" fill="#77552C"/>
<path d="M289.636 177.384H248.336V218.684H289.636V177.384Z" fill="#77552C"/>
<path d="M289.636 218.674H248.336V259.974H289.636V218.674Z" fill="#77552C"/>
</g>
<mask id="mask47_2587_29250" style="mask-type:luminance" maskUnits="userSpaceOnUse" x="303" y="199" width="15" height="10">
<path d="M303.724 199.334L303.084 199.704L316.344 208.474L317.954 207.544L303.724 199.334Z" fill="white"/>
</mask>
<g mask="url(#mask47_2587_29250)">
<path d="M330.923 177.384H289.623V218.684H330.923V177.384Z" fill="#A07F57"/>
</g>
<mask id="mask48_2587_29250" style="mask-type:luminance" maskUnits="userSpaceOnUse" x="303" y="199" width="15" height="10">
<path d="M303.724 199.334L303.084 199.704L316.344 208.474L317.954 207.544L303.724 199.334Z" fill="white"/>
</mask>
<g mask="url(#mask48_2587_29250)">
<path d="M330.923 177.384H289.623V218.684H330.923V177.384Z" fill="#77552C"/>
</g>
<path d="M443.214 135.494L454.354 129.064C455.724 128.274 455.724 126.294 454.354 125.504L445.314 120.284C444.014 119.534 442.404 119.534 441.104 120.284L428.994 127.274L418.074 133.584V137.394L428.994 143.704L443.214 135.494Z" fill="#F4F0A8"/>
<mask id="mask49_2587_29250" style="mask-type:luminance" maskUnits="userSpaceOnUse" x="418" y="119" width="38" height="25">
<path d="M443.214 135.494L454.354 129.064C455.724 128.274 455.724 126.294 454.354 125.504L445.314 120.284C444.014 119.534 442.404 119.534 441.104 120.284L428.994 127.274L418.074 133.584V137.394L428.994 143.704L443.214 135.494Z" fill="white"/>
</mask>
<g mask="url(#mask49_2587_29250)">
<path d="M496.114 94.7842H454.814V136.084H496.114V94.7842Z" fill="#77552C"/>
<path d="M496.114 136.084H454.814V177.384H496.114V136.084Z" fill="#77552C"/>
<path d="M454.814 94.7842H413.514V136.084H454.814V94.7842Z" fill="#77552C"/>
<path d="M454.814 136.084H413.514V177.384H454.814V136.084Z" fill="#77552C"/>
</g>
<mask id="mask50_2587_29250" style="mask-type:luminance" maskUnits="userSpaceOnUse" x="542" y="143" width="15" height="336">
<path d="M542.334 176.544V192.954V192.964V209.384V225.804V225.814V242.234V258.654V275.074V291.504V307.914V324.344V340.764V357.184V357.194V373.604V373.614V390.034V406.454V406.464V422.874V439.304V455.714V455.724V472.144L554.204 478.994L556.554 478.024V463.934V447.514V447.504V431.094V431.084V414.674V414.664V398.244V381.824V365.404V365.394V348.974V332.554V316.134V316.124V299.714V299.704V283.294V283.284V266.864V266.854V250.444V234.024V217.594V201.174V184.754V184.744V168.334V168.324V151.914V151.904H556.544L542.334 143.704V160.114V176.544Z" fill="white"/>
</mask>
<g mask="url(#mask50_2587_29250)">
<path d="M578.704 136.084H537.404V177.384H578.704V136.084Z" fill="#77552C"/>
<path d="M578.704 177.384H537.404V218.684H578.704V177.384Z" fill="#77552C"/>
<path d="M578.704 218.674H537.404V259.974H578.704V218.674Z" fill="#77552C"/>
<path d="M578.704 259.974H537.404V301.274H578.704V259.974Z" fill="#77552C"/>
<path d="M578.704 301.274H537.404V342.574H578.704V301.274Z" fill="#77552C"/>
<path d="M578.704 342.564H537.404V383.864H578.704V342.564Z" fill="#77552C"/>
<path d="M578.704 383.864H537.404V425.164H578.704V383.864Z" fill="#77552C"/>
<path d="M578.704 425.154H537.404V466.454H578.704V425.154Z" fill="#77552C"/>
<path d="M578.704 466.454H537.404V507.754H578.704V466.454Z" fill="#77552C"/>
</g>
<path d="M554.205 478.993L556.555 480.353V478.023L554.205 478.993Z" fill="#DFE9ED"/>
<mask id="mask51_2587_29250" style="mask-type:luminance" maskUnits="userSpaceOnUse" x="554" y="478" width="3" height="3">
<path d="M554.205 478.993L556.555 480.353V478.023L554.205 478.993Z" fill="white"/>
</mask>
<g mask="url(#mask51_2587_29250)">
<path d="M578.704 466.453H537.404V507.753H578.704V466.453Z" fill="#77552C"/>
</g>
<mask id="mask52_2587_29250" style="mask-type:luminance" maskUnits="userSpaceOnUse" x="556" y="151" width="15" height="328">
<path d="M556.555 168.334V184.744V266.854V283.284V299.704V316.124V365.394V414.664V431.084V447.504V478.024L569.145 472.824C569.665 472.604 570.225 472.524 570.775 472.564V324.344V242.234V225.814V160.124L556.555 151.914V168.324V168.334Z" fill="white"/>
</mask>
<g mask="url(#mask52_2587_29250)">
<path d="M578.704 136.084H537.404V177.384H578.704V136.084Z" fill="#A07F57"/>
<path d="M578.704 177.384H537.404V218.684H578.704V177.384Z" fill="#A07F57"/>
<path d="M578.704 218.674H537.404V259.974H578.704V218.674Z" fill="#A07F57"/>
<path d="M578.704 259.974H537.404V301.274H578.704V259.974Z" fill="#A07F57"/>
<path d="M578.704 301.274H537.404V342.574H578.704V301.274Z" fill="#A07F57"/>
<path d="M578.704 342.564H537.404V383.864H578.704V342.564Z" fill="#A07F57"/>
<path d="M578.704 383.864H537.404V425.164H578.704V383.864Z" fill="#A07F57"/>
<path d="M578.704 425.154H537.404V466.454H578.704V425.154Z" fill="#A07F57"/>
<path d="M578.704 466.454H537.404V507.754H578.704V466.454Z" fill="#A07F57"/>
</g>
<path d="M569.145 472.824L556.555 478.024V480.354L570.775 488.564V472.564C570.225 472.524 569.665 472.604 569.145 472.824Z" fill="#DFE9ED"/>
<mask id="mask53_2587_29250" style="mask-type:luminance" maskUnits="userSpaceOnUse" x="556" y="472" width="15" height="17">
<path d="M569.145 472.824L556.555 478.024V480.354L570.775 488.564V472.564C570.225 472.524 569.665 472.604 569.145 472.824Z" fill="white"/>
</mask>
<g mask="url(#mask53_2587_29250)">
<path d="M578.704 466.453H537.404V507.753H578.704V466.453Z" fill="#A07F57"/>
</g>
<mask id="mask54_2587_29250" style="mask-type:luminance" maskUnits="userSpaceOnUse" x="570" y="160" width="15" height="321">
<path d="M570.775 192.964V225.804V242.224V275.064H570.785L570.775 275.084V324.334V472.564C571.305 472.604 571.835 472.754 572.305 473.034L584.995 480.364V447.524V431.104V414.684V365.414V332.564V299.724V283.294V266.884V250.454V234.034V217.614V184.764V168.344L570.775 160.134V192.974V192.964Z" fill="white"/>
</mask>
<g mask="url(#mask54_2587_29250)">
<path d="M620.007 136.084H578.707V177.384H620.007V136.084Z" fill="#77552C"/>
<path d="M620.007 177.384H578.707V218.684H620.007V177.384Z" fill="#77552C"/>
<path d="M620.007 218.674H578.707V259.974H620.007V218.674Z" fill="#77552C"/>
<path d="M620.007 259.974H578.707V301.274H620.007V259.974Z" fill="#77552C"/>
<path d="M620.007 301.274H578.707V342.574H620.007V301.274Z" fill="#77552C"/>
<path d="M620.007 342.564H578.707V383.864H620.007V342.564Z" fill="#77552C"/>
<path d="M620.007 383.864H578.707V425.164H620.007V383.864Z" fill="#77552C"/>
<path d="M620.007 425.154H578.707V466.454H620.007V425.154Z" fill="#77552C"/>
<path d="M620.007 466.454H578.707V507.754H620.007V466.454Z" fill="#77552C"/>
<path d="M578.706 136.084H537.406V177.384H578.706V136.084Z" fill="#77552C"/>
<path d="M578.706 177.384H537.406V218.684H578.706V177.384Z" fill="#77552C"/>
<path d="M578.706 218.674H537.406V259.974H578.706V218.674Z" fill="#77552C"/>
<path d="M578.706 259.974H537.406V301.274H578.706V259.974Z" fill="#77552C"/>
<path d="M578.706 301.274H537.406V342.574H578.706V301.274Z" fill="#77552C"/>
<path d="M578.706 342.564H537.406V383.864H578.706V342.564Z" fill="#77552C"/>
<path d="M578.706 383.864H537.406V425.164H578.706V383.864Z" fill="#77552C"/>
<path d="M578.706 425.154H537.406V466.454H578.706V425.154Z" fill="#77552C"/>
<path d="M578.706 466.454H537.406V507.754H578.706V466.454Z" fill="#77552C"/>
</g>
<path d="M572.305 473.024C571.835 472.754 571.305 472.594 570.775 472.554V488.554L584.995 496.764V480.354L572.305 473.024Z" fill="#DFE9ED"/>
<mask id="mask55_2587_29250" style="mask-type:luminance" maskUnits="userSpaceOnUse" x="570" y="472" width="15" height="25">
<path d="M572.305 473.024C571.835 472.754 571.305 472.594 570.775 472.554V488.554L584.995 496.764V480.354L572.305 473.024Z" fill="white"/>
</mask>
<g mask="url(#mask55_2587_29250)">
<path d="M620.007 466.454H578.707V507.754H620.007V466.454Z" fill="#77552C"/>
<path d="M578.706 466.454H537.406V507.754H578.706V466.454Z" fill="#77552C"/>
</g>
<mask id="mask56_2587_29250" style="mask-type:luminance" maskUnits="userSpaceOnUse" x="270" y="455" width="285" height="142">
<path d="M542.336 472.144L537.596 469.404L528.116 463.934L528.106 463.924L521.006 459.824L513.896 455.724H513.886L499.666 463.934L490.186 469.404L485.446 472.144L471.226 480.354L457.006 488.564H456.996V488.574L442.776 496.774V496.784L438.036 499.514L428.556 504.984V504.994L414.336 513.204L404.856 518.674L400.116 521.414L385.896 529.624H385.886L371.676 537.834H371.666L357.446 546.044L343.226 554.254L338.486 556.994L329.006 562.464L328.996 562.474L314.776 570.684L305.296 576.154L300.556 578.894L286.336 587.104L272.116 595.314L270.186 596.424L554.206 478.994L542.336 472.144Z" fill="white"/>
</mask>
<g mask="url(#mask56_2587_29250)">
<path d="M578.706 425.153H537.406V466.453H578.706V425.153Z" fill="#C6A76F"/>
<path d="M578.706 466.453H537.406V507.753H578.706V466.453Z" fill="#C6A76F"/>
<path d="M578.706 507.753H537.406V549.053H578.706V507.753Z" fill="#C6A76F"/>
<path d="M578.706 549.043H537.406V590.343H578.706V549.043Z" fill="#C6A76F"/>
<path d="M578.706 590.344H537.406V631.644H578.706V590.344Z" fill="#C6A76F"/>
<path d="M537.415 425.153H496.115V466.453H537.415V425.153Z" fill="#C6A76F"/>
<path d="M537.415 466.453H496.115V507.753H537.415V466.453Z" fill="#C6A76F"/>
<path d="M537.415 507.753H496.115V549.053H537.415V507.753Z" fill="#C6A76F"/>
<path d="M537.415 549.043H496.115V590.343H537.415V549.043Z" fill="#C6A76F"/>
<path d="M537.415 590.344H496.115V631.644H537.415V590.344Z" fill="#C6A76F"/>
<path d="M496.116 425.153H454.816V466.453H496.116V425.153Z" fill="#C6A76F"/>
<path d="M496.116 466.453H454.816V507.753H496.116V466.453Z" fill="#C6A76F"/>
<path d="M496.116 507.753H454.816V549.053H496.116V507.753Z" fill="#C6A76F"/>
<path d="M496.116 549.043H454.816V590.343H496.116V549.043Z" fill="#C6A76F"/>
<path d="M496.116 590.344H454.816V631.644H496.116V590.344Z" fill="#C6A76F"/>
<path d="M454.816 425.153H413.516V466.453H454.816V425.153Z" fill="#C6A76F"/>
<path d="M454.816 466.453H413.516V507.753H454.816V466.453Z" fill="#C6A76F"/>
<path d="M454.816 507.753H413.516V549.053H454.816V507.753Z" fill="#C6A76F"/>
<path d="M454.816 549.043H413.516V590.343H454.816V549.043Z" fill="#C6A76F"/>
<path d="M454.816 590.344H413.516V631.644H454.816V590.344Z" fill="#C6A76F"/>
<path d="M413.527 425.153H372.227V466.453H413.527V425.153Z" fill="#C6A76F"/>
<path d="M413.527 466.453H372.227V507.753H413.527V466.453Z" fill="#C6A76F"/>
<path d="M413.527 507.753H372.227V549.053H413.527V507.753Z" fill="#C6A76F"/>
<path d="M413.527 549.043H372.227V590.343H413.527V549.043Z" fill="#C6A76F"/>
<path d="M413.527 590.344H372.227V631.644H413.527V590.344Z" fill="#C6A76F"/>
<path d="M372.226 425.153H330.926V466.453H372.226V425.153Z" fill="#C6A76F"/>
<path d="M372.226 466.453H330.926V507.753H372.226V466.453Z" fill="#C6A76F"/>
<path d="M372.226 507.753H330.926V549.053H372.226V507.753Z" fill="#C6A76F"/>
<path d="M372.226 549.043H330.926V590.343H372.226V549.043Z" fill="#C6A76F"/>
<path d="M372.226 590.344H330.926V631.644H372.226V590.344Z" fill="#C6A76F"/>
<path d="M330.925 425.153H289.625V466.453H330.925V425.153Z" fill="#C6A76F"/>
<path d="M330.925 466.453H289.625V507.753H330.925V466.453Z" fill="#C6A76F"/>
<path d="M330.925 507.753H289.625V549.053H330.925V507.753Z" fill="#C6A76F"/>
<path d="M330.925 549.043H289.625V590.343H330.925V549.043Z" fill="#C6A76F"/>
<path d="M330.925 590.344H289.625V631.644H330.925V590.344Z" fill="#C6A76F"/>
<path d="M289.636 425.153H248.336V466.453H289.636V425.153Z" fill="#C6A76F"/>
<path d="M289.636 466.453H248.336V507.753H289.636V466.453Z" fill="#C6A76F"/>
<path d="M289.636 507.753H248.336V549.053H289.636V507.753Z" fill="#C6A76F"/>
<path d="M289.636 549.043H248.336V590.343H289.636V549.043Z" fill="#C6A76F"/>
<path d="M289.636 590.344H248.336V631.644H289.636V590.344Z" fill="#C6A76F"/>
</g>
<path d="M371.665 652.794L385.885 644.574L400.105 636.374H400.115L414.325 628.154H414.335L428.555 619.944L442.775 611.734L452.255 606.264L456.995 603.524L471.225 595.314L485.445 587.094L499.665 578.894L513.885 570.674L528.105 562.464H528.115L537.585 556.994L542.325 554.254H542.335L556.555 546.044L570.775 537.834L584.995 529.624L599.215 521.414H599.225L613.445 513.194L603.965 507.724L599.225 504.994L589.745 499.514L585.005 496.774H584.995L570.775 488.564L556.555 480.354L554.205 478.994L270.185 596.424L257.885 603.524L253.145 606.264L243.675 611.734H243.665L229.445 619.944L243.665 628.154L257.885 636.364L272.115 644.584L286.325 652.784H286.335L300.555 661.004L305.295 663.744L314.775 669.214H314.785C323.575 674.294 334.415 674.294 343.205 669.214H343.225V669.194L357.435 660.994H357.445L371.665 652.784V652.794Z" fill="#DFE9ED"/>
<mask id="mask57_2587_29250" style="mask-type:luminance" maskUnits="userSpaceOnUse" x="229" y="478" width="385" height="196">
<path d="M371.665 652.794L385.885 644.574L400.105 636.374H400.115L414.325 628.154H414.335L428.555 619.944L442.775 611.734L452.255 606.264L456.995 603.524L471.225 595.314L485.445 587.094L499.665 578.894L513.885 570.674L528.105 562.464H528.115L537.585 556.994L542.325 554.254H542.335L556.555 546.044L570.775 537.834L584.995 529.624L599.215 521.414H599.225L613.445 513.194L603.965 507.724L599.225 504.994L589.745 499.514L585.005 496.774H584.995L570.775 488.564L556.555 480.354L554.205 478.994L270.185 596.424L257.885 603.524L253.145 606.264L243.675 611.734H243.665L229.445 619.944L243.665 628.154L257.885 636.364L272.115 644.584L286.325 652.784H286.335L300.555 661.004L305.295 663.744L314.775 669.214H314.785C323.575 674.294 334.415 674.294 343.205 669.214H343.225V669.194L357.435 660.994H357.445L371.665 652.784V652.794Z" fill="white"/>
</mask>
<g mask="url(#mask57_2587_29250)">
<path d="M620.005 466.454H578.705V507.754H620.005V466.454Z" fill="#C6A76F"/>
<path d="M620.005 507.754H578.705V549.054H620.005V507.754Z" fill="#C6A76F"/>
<path d="M620.005 549.044H578.705V590.344H620.005V549.044Z" fill="#C6A76F"/>
<path d="M620.005 590.344H578.705V631.644H620.005V590.344Z" fill="#C6A76F"/>
<path d="M620.005 631.645H578.705V672.945H620.005V631.645Z" fill="#C6A76F"/>
<path d="M620.005 672.935H578.705V714.235H620.005V672.935Z" fill="#C6A76F"/>
<path d="M578.704 466.454H537.404V507.754H578.704V466.454Z" fill="#C6A76F"/>
<path d="M578.704 507.754H537.404V549.054H578.704V507.754Z" fill="#C6A76F"/>
<path d="M578.704 549.044H537.404V590.344H578.704V549.044Z" fill="#C6A76F"/>
<path d="M578.704 590.344H537.404V631.644H578.704V590.344Z" fill="#C6A76F"/>
<path d="M578.704 631.645H537.404V672.945H578.704V631.645Z" fill="#C6A76F"/>
<path d="M578.704 672.935H537.404V714.235H578.704V672.935Z" fill="#C6A76F"/>
<path d="M537.415 466.454H496.115V507.754H537.415V466.454Z" fill="#C6A76F"/>
<path d="M537.415 507.754H496.115V549.054H537.415V507.754Z" fill="#C6A76F"/>
<path d="M537.415 549.044H496.115V590.344H537.415V549.044Z" fill="#C6A76F"/>
<path d="M537.415 590.344H496.115V631.644H537.415V590.344Z" fill="#C6A76F"/>
<path d="M537.415 631.645H496.115V672.945H537.415V631.645Z" fill="#C6A76F"/>
<path d="M537.415 672.935H496.115V714.235H537.415V672.935Z" fill="#C6A76F"/>
<path d="M496.114 466.454H454.814V507.754H496.114V466.454Z" fill="#C6A76F"/>
<path d="M496.114 507.754H454.814V549.054H496.114V507.754Z" fill="#C6A76F"/>
<path d="M496.114 549.044H454.814V590.344H496.114V549.044Z" fill="#C6A76F"/>
<path d="M496.114 590.344H454.814V631.644H496.114V590.344Z" fill="#C6A76F"/>
<path d="M496.114 631.645H454.814V672.945H496.114V631.645Z" fill="#C6A76F"/>
<path d="M496.114 672.935H454.814V714.235H496.114V672.935Z" fill="#C6A76F"/>
<path d="M454.816 466.454H413.516V507.754H454.816V466.454Z" fill="#C6A76F"/>
<path d="M454.816 507.754H413.516V549.054H454.816V507.754Z" fill="#C6A76F"/>
<path d="M454.816 549.044H413.516V590.344H454.816V549.044Z" fill="#C6A76F"/>
<path d="M454.816 590.344H413.516V631.644H454.816V590.344Z" fill="#C6A76F"/>
<path d="M454.816 631.645H413.516V672.945H454.816V631.645Z" fill="#C6A76F"/>
<path d="M454.816 672.935H413.516V714.235H454.816V672.935Z" fill="#C6A76F"/>
<path d="M413.525 466.454H372.225V507.754H413.525V466.454Z" fill="#C6A76F"/>
<path d="M413.525 507.754H372.225V549.054H413.525V507.754Z" fill="#C6A76F"/>
<path d="M413.525 549.044H372.225V590.344H413.525V549.044Z" fill="#C6A76F"/>
<path d="M413.525 590.344H372.225V631.644H413.525V590.344Z" fill="#C6A76F"/>
<path d="M413.525 631.645H372.225V672.945H413.525V631.645Z" fill="#C6A76F"/>
<path d="M413.525 672.935H372.225V714.235H413.525V672.935Z" fill="#C6A76F"/>
<path d="M372.226 466.454H330.926V507.754H372.226V466.454Z" fill="#C6A76F"/>
<path d="M372.226 507.754H330.926V549.054H372.226V507.754Z" fill="#C6A76F"/>
<path d="M372.226 549.044H330.926V590.344H372.226V549.044Z" fill="#C6A76F"/>
<path d="M372.226 590.344H330.926V631.644H372.226V590.344Z" fill="#C6A76F"/>
<path d="M372.226 631.645H330.926V672.945H372.226V631.645Z" fill="#C6A76F"/>
<path d="M372.226 672.935H330.926V714.235H372.226V672.935Z" fill="#C6A76F"/>
<path d="M330.925 466.454H289.625V507.754H330.925V466.454Z" fill="#C6A76F"/>
<path d="M330.925 507.754H289.625V549.054H330.925V507.754Z" fill="#C6A76F"/>
<path d="M330.925 549.044H289.625V590.344H330.925V549.044Z" fill="#C6A76F"/>
<path d="M330.925 590.344H289.625V631.644H330.925V590.344Z" fill="#C6A76F"/>
<path d="M330.925 631.645H289.625V672.945H330.925V631.645Z" fill="#C6A76F"/>
<path d="M330.925 672.935H289.625V714.235H330.925V672.935Z" fill="#C6A76F"/>
<path d="M289.636 466.454H248.336V507.754H289.636V466.454Z" fill="#C6A76F"/>
<path d="M289.636 507.754H248.336V549.054H289.636V507.754Z" fill="#C6A76F"/>
<path d="M289.636 549.044H248.336V590.344H289.636V549.044Z" fill="#C6A76F"/>
<path d="M289.636 590.344H248.336V631.644H289.636V590.344Z" fill="#C6A76F"/>
<path d="M289.636 631.645H248.336V672.945H289.636V631.645Z" fill="#C6A76F"/>
<path d="M289.636 672.935H248.336V714.235H289.636V672.935Z" fill="#C6A76F"/>
<path d="M248.335 466.454H207.035V507.754H248.335V466.454Z" fill="#C6A76F"/>
<path d="M248.335 507.754H207.035V549.054H248.335V507.754Z" fill="#C6A76F"/>
<path d="M248.335 549.044H207.035V590.344H248.335V549.044Z" fill="#C6A76F"/>
<path d="M248.335 590.344H207.035V631.644H248.335V590.344Z" fill="#C6A76F"/>
<path d="M248.335 631.645H207.035V672.945H248.335V631.645Z" fill="#C6A76F"/>
<path d="M248.335 672.935H207.035V714.235H248.335V672.935Z" fill="#C6A76F"/>
</g>
<path d="M599.225 521.414H599.215L584.995 529.624L570.775 537.834" stroke="#DFE9ED" stroke-linecap="round" stroke-linejoin="round"/>
<path d="M599.225 521.403L613.445 513.193L599.225 521.403Z" fill="#DFE9ED"/>
<mask id="mask58_2587_29250" style="mask-type:luminance" maskUnits="userSpaceOnUse" x="599" y="513" width="15" height="9">
<path d="M599.225 521.403L613.445 513.193L599.225 521.403Z" fill="white"/>
</mask>
<g mask="url(#mask58_2587_29250)">
<path d="M620.005 507.753H578.705V549.053H620.005V507.753Z" fill="#77552C"/>
</g>
<mask id="mask59_2587_29250" style="mask-type:luminance" maskUnits="userSpaceOnUse" x="599" y="513" width="15" height="9">
<path d="M599.225 521.403L613.445 513.193L599.225 521.403Z" fill="white"/>
</mask>
<g mask="url(#mask59_2587_29250)">
<path d="M620.005 507.753H578.705V549.053H620.005V507.753Z" fill="#C6A76F"/>
</g>
<path d="M499.664 578.884L513.884 570.674L528.104 562.464H528.114L537.584 556.994" stroke="#DFE9ED" stroke-linecap="round" stroke-linejoin="round"/>
<path d="M485.445 587.094L499.665 578.894" stroke="#DFE9ED" stroke-linecap="round" stroke-linejoin="round"/>
<path d="M400.115 636.364L414.325 628.154H414.335L428.555 619.944L442.775 611.734L452.255 606.264" stroke="#DFE9ED" stroke-linecap="round" stroke-linejoin="round"/>
<path d="M385.885 644.574L400.105 636.374H400.115" stroke="#DFE9ED" stroke-linecap="round" stroke-linejoin="round"/>
<path d="M589.744 499.513L585.004 496.773H584.994" stroke="#DFE9ED" stroke-linecap="round" stroke-linejoin="round"/>
<path d="M599.225 504.994L603.965 507.724" stroke="#DFE9ED" stroke-linecap="round" stroke-linejoin="round"/>
<path d="M314.785 669.214L328.995 677.424L343.225 669.214H343.205C334.405 674.294 323.575 674.294 314.785 669.214Z" fill="#DFE9ED"/>
<mask id="mask60_2587_29250" style="mask-type:luminance" maskUnits="userSpaceOnUse" x="314" y="669" width="30" height="9">
<path d="M314.785 669.214L328.995 677.424L343.225 669.214H343.205C334.405 674.294 323.575 674.294 314.785 669.214Z" fill="white"/>
</mask>
<g mask="url(#mask60_2587_29250)">
<path d="M372.226 631.644H330.926V672.944H372.226V631.644Z" fill="#A07F57"/>
<path d="M372.226 672.934H330.926V714.234H372.226V672.934Z" fill="#A07F57"/>
<path d="M330.925 631.644H289.625V672.944H330.925V631.644Z" fill="#A07F57"/>
<path d="M330.925 672.934H289.625V714.234H330.925V672.934Z" fill="#A07F57"/>
</g>
<mask id="mask61_2587_29250" style="mask-type:luminance" maskUnits="userSpaceOnUse" x="314" y="669" width="30" height="9">
<path d="M314.785 669.214L328.995 677.424L343.225 669.214H343.205C334.405 674.294 323.575 674.294 314.785 669.214Z" fill="white"/>
</mask>
<g mask="url(#mask61_2587_29250)">
<path d="M372.226 631.644H330.926V672.944H372.226V631.644Z" fill="#C6A76F"/>
<path d="M372.226 672.934H330.926V714.234H372.226V672.934Z" fill="#C6A76F"/>
<path d="M330.925 631.644H289.625V672.944H330.925V631.644Z" fill="#C6A76F"/>
<path d="M330.925 672.934H289.625V714.234H330.925V672.934Z" fill="#C6A76F"/>
</g>
<path d="M305.295 663.744L314.775 669.214H314.785" stroke="#DFE9ED" stroke-linecap="round" stroke-linejoin="round"/>
<path d="M229.445 619.943L243.665 628.153L229.445 619.943Z" fill="#DFE9ED"/>
<mask id="mask62_2587_29250" style="mask-type:luminance" maskUnits="userSpaceOnUse" x="229" y="619" width="15" height="10">
<path d="M229.445 619.943L243.665 628.153L229.445 619.943Z" fill="white"/>
</mask>
<g mask="url(#mask62_2587_29250)">
<path d="M248.335 590.344H207.035V631.644H248.335V590.344Z" fill="#A07F57"/>
</g>
<mask id="mask63_2587_29250" style="mask-type:luminance" maskUnits="userSpaceOnUse" x="229" y="619" width="15" height="10">
<path d="M229.445 619.943L243.665 628.153L229.445 619.943Z" fill="white"/>
</mask>
<g mask="url(#mask63_2587_29250)">
<path d="M248.335 590.344H207.035V631.644H248.335V590.344Z" fill="#C6A76F"/>
</g>
<path d="M243.664 628.153L257.884 636.363L272.114 644.583" stroke="#DFE9ED" stroke-linecap="round" stroke-linejoin="round"/>
<path d="M253.145 606.264L257.885 603.524L270.185 596.424" stroke="#DFE9ED" stroke-linecap="round" stroke-linejoin="round"/>
</g>
<defs>
<clipPath id="clip0_2587_29250">
<rect width="800" height="800" fill="white" transform="translate(0.554688 0.34375)"/>
</clipPath>
</defs>
</svg>
