<svg width="801" height="801" viewBox="0 0 801 801" fill="none" xmlns="http://www.w3.org/2000/svg">
<mask id="mask0_2587_17939" style="mask-type:luminance" maskUnits="userSpaceOnUse" x="110" y="537" width="283" height="178">
<path d="M300.437 537.517L110.957 659.527L218.707 714.097L392.357 615.317L300.437 537.517Z" fill="white"/>
</mask>
<g mask="url(#mask0_2587_17939)">
<path d="M409.288 501.507H367.988V542.807H409.288V501.507Z" fill="#DFE9ED"/>
<path d="M409.288 542.807H367.988V584.107H409.288V542.807Z" fill="#DFE9ED"/>
<path d="M409.288 584.097H367.988V625.397H409.288V584.097Z" fill="#DFE9ED"/>
<path d="M409.288 625.396H367.988V666.696H409.288V625.396Z" fill="#DFE9ED"/>
<path d="M409.288 666.697H367.988V707.997H409.288V666.697Z" fill="#DFE9ED"/>
<path d="M409.288 707.987H367.988V749.287H409.288V707.987Z" fill="#DFE9ED"/>
<path d="M367.987 501.507H326.688V542.807H367.987V501.507Z" fill="#DFE9ED"/>
<path d="M367.987 542.807H326.688V584.107H367.987V542.807Z" fill="#DFE9ED"/>
<path d="M367.987 584.097H326.688V625.397H367.987V584.097Z" fill="#DFE9ED"/>
<path d="M367.987 625.396H326.688V666.696H367.987V625.396Z" fill="#DFE9ED"/>
<path d="M367.987 666.697H326.688V707.997H367.987V666.697Z" fill="#DFE9ED"/>
<path d="M367.987 707.987H326.688V749.287H367.987V707.987Z" fill="#DFE9ED"/>
<path d="M326.698 501.507H285.398V542.807H326.698V501.507Z" fill="#DFE9ED"/>
<path d="M326.698 542.807H285.398V584.107H326.698V542.807Z" fill="#DFE9ED"/>
<path d="M326.698 584.097H285.398V625.397H326.698V584.097Z" fill="#DFE9ED"/>
<path d="M326.698 625.396H285.398V666.696H326.698V625.396Z" fill="#DFE9ED"/>
<path d="M326.698 666.697H285.398V707.997H326.698V666.697Z" fill="#DFE9ED"/>
<path d="M326.698 707.987H285.398V749.287H326.698V707.987Z" fill="#DFE9ED"/>
<path d="M285.398 501.507H244.098V542.807H285.398V501.507Z" fill="#DFE9ED"/>
<path d="M285.398 542.807H244.098V584.107H285.398V542.807Z" fill="#DFE9ED"/>
<path d="M285.398 584.097H244.098V625.397H285.398V584.097Z" fill="#DFE9ED"/>
<path d="M285.398 625.396H244.098V666.696H285.398V625.396Z" fill="#DFE9ED"/>
<path d="M285.398 666.697H244.098V707.997H285.398V666.697Z" fill="#DFE9ED"/>
<path d="M285.398 707.987H244.098V749.287H285.398V707.987Z" fill="#DFE9ED"/>
<path d="M244.099 501.507H202.799V542.807H244.099V501.507Z" fill="#DFE9ED"/>
<path d="M244.099 542.807H202.799V584.107H244.099V542.807Z" fill="#DFE9ED"/>
<path d="M244.099 584.097H202.799V625.397H244.099V584.097Z" fill="#DFE9ED"/>
<path d="M244.099 625.396H202.799V666.696H244.099V625.396Z" fill="#DFE9ED"/>
<path d="M244.099 666.697H202.799V707.997H244.099V666.697Z" fill="#DFE9ED"/>
<path d="M244.099 707.987H202.799V749.287H244.099V707.987Z" fill="#DFE9ED"/>
<path d="M202.808 501.507H161.508V542.807H202.808V501.507Z" fill="#DFE9ED"/>
<path d="M202.808 542.807H161.508V584.107H202.808V542.807Z" fill="#DFE9ED"/>
<path d="M202.808 584.097H161.508V625.397H202.808V584.097Z" fill="#DFE9ED"/>
<path d="M202.808 625.396H161.508V666.696H202.808V625.396Z" fill="#DFE9ED"/>
<path d="M202.808 666.697H161.508V707.997H202.808V666.697Z" fill="#DFE9ED"/>
<path d="M202.808 707.987H161.508V749.287H202.808V707.987Z" fill="#DFE9ED"/>
<path d="M161.507 501.507H120.207V542.807H161.507V501.507Z" fill="#DFE9ED"/>
<path d="M161.507 542.807H120.207V584.107H161.507V542.807Z" fill="#DFE9ED"/>
<path d="M161.507 584.097H120.207V625.397H161.507V584.097Z" fill="#DFE9ED"/>
<path d="M161.507 625.396H120.207V666.696H161.507V625.396Z" fill="#DFE9ED"/>
<path d="M161.507 666.697H120.207V707.997H161.507V666.697Z" fill="#DFE9ED"/>
<path d="M161.507 707.987H120.207V749.287H161.507V707.987Z" fill="#DFE9ED"/>
<path d="M120.218 501.507H78.918V542.807H120.218V501.507Z" fill="#DFE9ED"/>
<path d="M120.218 542.807H78.918V584.107H120.218V542.807Z" fill="#DFE9ED"/>
<path d="M120.218 584.097H78.918V625.397H120.218V584.097Z" fill="#DFE9ED"/>
<path d="M120.218 625.396H78.918V666.696H120.218V625.396Z" fill="#DFE9ED"/>
<path d="M120.218 666.697H78.918V707.997H120.218V666.697Z" fill="#DFE9ED"/>
<path d="M120.218 707.987H78.918V749.287H120.218V707.987Z" fill="#DFE9ED"/>
</g>
<path d="M236.457 664.616L211.707 652.026C202.607 647.786 184.377 655.136 179.357 666.046C172.827 680.256 174.967 694.616 180.667 698.686C181.177 699.056 184.367 701.186 184.967 701.356L207.897 714.086L236.457 664.616Z" fill="url(#paint0_linear_2587_17939)"/>
<path d="M238.061 698.53C245.948 684.87 245.23 669.691 236.459 664.626C227.687 659.562 214.182 666.53 206.296 680.19C198.409 693.85 199.127 709.029 207.899 714.094C216.67 719.158 230.175 712.19 238.061 698.53Z" fill="#353644"/>
<path d="M229.106 677.556C227.826 676.816 226.326 676.616 224.756 676.876C226.016 680.256 225.386 685.146 222.766 689.686C220.146 694.226 216.226 697.216 212.666 697.816C213.226 699.306 214.146 700.506 215.426 701.246C219.626 703.676 226.096 700.336 229.876 693.786C233.656 687.236 233.306 679.976 229.106 677.546V677.556Z" fill="#A5B1C4"/>
<path d="M222.758 689.697C225.378 685.157 226.008 680.267 224.748 676.887C221.188 677.487 217.268 680.477 214.648 685.017C212.028 689.557 211.398 694.447 212.658 697.827C216.218 697.227 220.138 694.237 222.758 689.697Z" fill="#DFE9ED"/>
<path d="M407.127 565.847L382.377 553.257C373.277 549.017 355.047 556.367 350.027 567.277C343.497 581.487 345.637 595.847 351.337 599.917C351.847 600.287 355.037 602.417 355.637 602.587L378.567 615.317L407.127 565.847Z" fill="url(#paint1_linear_2587_17939)"/>
<path d="M408.729 599.751C416.616 586.091 415.898 570.912 407.127 565.847C398.355 560.783 384.85 567.751 376.964 581.411C369.077 595.071 369.795 610.25 378.567 615.315C387.338 620.379 400.843 613.411 408.729 599.751Z" fill="#353644"/>
<path d="M399.766 578.787C398.486 578.047 396.986 577.847 395.416 578.107C396.676 581.487 396.046 586.377 393.426 590.917C390.806 595.457 386.886 598.447 383.326 599.047C383.886 600.537 384.806 601.737 386.086 602.477C390.286 604.907 396.756 601.566 400.536 595.016C404.316 588.466 403.966 581.207 399.766 578.777V578.787Z" fill="#A5B1C4"/>
<path d="M393.428 590.917C396.048 586.377 396.678 581.487 395.418 578.107C391.858 578.707 387.938 581.697 385.318 586.237C382.698 590.777 382.068 595.667 383.328 599.047C386.888 598.447 390.808 595.457 393.428 590.917Z" fill="#DFE9ED"/>
<path d="M150.367 616.067L125.617 603.477C116.517 599.237 98.2869 606.587 93.2669 617.497C86.7369 631.707 88.8769 646.067 94.5769 650.137C95.0869 650.507 98.2769 652.637 98.8769 652.807L121.807 665.537L150.367 616.067Z" fill="url(#paint2_linear_2587_17939)"/>
<path d="M151.972 649.972C159.858 636.312 159.141 621.132 150.369 616.068C141.597 611.003 128.092 617.972 120.206 631.632C112.319 645.292 113.037 660.471 121.809 665.535C130.581 670.6 144.085 663.632 151.972 649.972Z" fill="#353644"/>
<path d="M143.006 629.006C141.726 628.266 140.226 628.066 138.656 628.326C139.916 631.706 139.286 636.596 136.666 641.136C134.046 645.676 130.126 648.666 126.566 649.266C127.126 650.756 128.046 651.956 129.326 652.696C133.526 655.126 139.996 651.786 143.776 645.236C147.556 638.686 147.206 631.426 143.006 628.996V629.006Z" fill="#A5B1C4"/>
<path d="M136.668 641.136C139.288 636.596 139.918 631.706 138.658 628.326C135.098 628.926 131.178 631.916 128.558 636.456C125.938 640.996 125.308 645.886 126.568 649.266C130.128 648.666 134.048 645.676 136.668 641.136Z" fill="#DFE9ED"/>
<mask id="mask1_2587_17939" style="mask-type:luminance" maskUnits="userSpaceOnUse" x="101" y="137" width="299" height="532">
<path d="M385.776 192.647H385.766L371.536 184.437L357.326 176.217L343.096 168.007L328.876 159.797H328.866L314.646 151.587L300.426 143.377L297.566 141.727L293.356 139.297C288.926 136.737 283.476 136.737 279.046 139.297L271.986 143.377L282.256 153.917L282.376 154.587L286.206 168.017L271.986 176.217L264.166 180.737L243.536 176.227L232.426 166.247L229.326 168.007L215.096 176.227L200.866 184.437L186.646 192.647L172.426 200.857L183.406 210.937L186.646 225.487H186.636L172.426 233.697H172.416L158.206 241.917L143.986 233.707L129.766 225.497L115.536 233.697L107.466 238.357C103.666 240.547 101.326 244.607 101.326 248.997V603.207L115.536 611.417L129.766 619.627L143.986 627.837L158.206 636.047H158.216L172.416 644.257H172.426L186.646 652.467L200.866 660.677L200.876 660.687L215.096 668.887L229.306 660.687H229.326L243.536 652.467L257.766 644.257L271.976 636.047H271.986L286.206 627.837L300.416 619.627H300.426L314.636 611.417H314.646L328.866 603.207L343.096 594.997L357.326 586.777L371.536 578.567L385.766 570.357C394.566 565.277 399.986 555.887 399.986 545.727V208.637C399.986 203.817 397.416 199.357 393.236 196.947L385.776 192.637V192.647ZM186.646 636.057H186.636L186.646 636.047V636.057ZM229.326 611.427H229.306L229.326 611.407V611.427ZM229.326 200.867H229.306L229.326 200.847V200.867ZM286.206 562.157L286.216 562.147H286.206V562.157ZM300.426 603.217H300.416L300.426 603.207V603.217ZM314.646 299.397H314.636L314.646 299.387V299.397ZM357.326 274.767H357.306L357.326 274.747V274.767Z" fill="white"/>
</mask>
<g mask="url(#mask1_2587_17939)">
<path d="M270.416 193.556L257.766 200.856L243.546 209.066H243.536L242.056 209.916L229.326 217.276H229.316L215.096 225.486V225.496L200.876 233.706L186.656 241.916H186.646L172.436 250.126H172.426L158.206 258.336L143.986 266.546V282.966V282.977V299.386V299.396V315.436V315.806V315.816V332.236V348.656V364.526V365.076V381.507V397.926V413.746V414.346V430.766V430.776V447.197V462.826V463.606V463.616V480.036V496.456V496.466V511.917V512.876V512.886V529.307V545.727V545.737V561.186L158.196 552.977L172.416 544.766L186.646 536.557V536.547L200.866 528.336L215.086 520.126L229.316 511.917V512.107L243.536 503.896L257.756 495.686L271.986 487.477V471.836V471.826V455.406V438.977V438.206V422.566V422.556V406.136V389.716V389.706V389.126V373.296V356.876V356.866V340.447V340.036V324.026V307.606V291.176V290.816V274.757V258.336V241.916V241.906V241.736V225.496V225.486V209.076V209.066V192.646L270.416 193.556Z" fill="#CECDAE"/>
<path d="M371.547 545.727V562.147V562.157V578.567L385.767 570.357L399.987 562.147V545.737V545.727V529.307L385.767 537.517L371.547 545.727Z" fill="#353644"/>
<path d="M371.547 215.136V218.956V233.696V250.126V266.536V266.546V282.966V282.976V299.386V315.816V332.236V348.656V365.086V381.496V381.506V397.926V414.346V430.766V430.776V447.186V447.196V463.616V480.036V480.046V496.456V512.886V529.296V529.306V545.726L385.767 537.516L399.987 529.306V512.876V496.466V496.456V480.036V463.616V463.606V447.196V430.776V430.766V414.346V397.936V397.926V381.506V365.076V348.666V348.656V332.236V315.816V315.806V299.396V282.966V266.546V250.116V233.706V217.276V200.856L385.767 209.066L371.547 215.136Z" fill="#CECDAE"/>
<path d="M371.546 529.296V480.046V447.196V430.776V381.506V282.976V266.546V214.586L357.326 209.076L343.096 200.856V217.276V299.386V332.236V381.496V381.506V430.766V430.776V447.186V480.036V529.296V529.306L357.316 537.506L371.536 545.726V529.306L371.546 529.296ZM357.326 274.746V274.766H357.316L357.326 274.746Z" fill="#EAEACC"/>
<path d="M357.327 586.777L371.537 578.567V562.157V545.727L357.317 553.937L343.087 562.147L328.867 570.357L314.647 578.567L300.427 586.777L300.417 586.787L286.197 594.997L271.977 603.207L257.757 611.417L243.537 619.627V636.047V652.467L257.757 644.257L271.967 636.047H271.977L286.197 627.837L300.417 619.627H300.427L314.637 611.417H314.647L328.867 603.207L343.087 594.997L357.317 586.777H357.327Z" fill="#CECDAE"/>
<path d="M282.376 154.587L286.206 168.017L300.426 176.227H300.436L314.656 184.437L328.876 192.647L343.096 200.857L357.326 209.067L360.916 211.147L365.476 213.777C369.236 215.947 373.866 215.947 377.616 213.777L385.766 209.077L399.986 200.867L385.776 192.657H385.766L371.546 184.447L357.326 176.227L343.106 168.017L328.896 159.807H328.886L314.666 151.597L300.446 143.387L286.226 135.177H286.216L271.996 143.387L282.276 153.927L282.386 154.597L282.376 154.587Z" fill="#FFFFF8"/>
<path d="M286.217 184.437H286.207V200.857V250.117V299.387V348.657V365.077H286.217L286.207 365.087V397.917V414.347V447.187H286.217L286.207 447.197V463.617V496.457H286.217L300.437 504.667L314.657 512.877V315.817V299.397H314.647L314.657 299.387V250.127V184.437L300.437 176.227H300.427L286.207 168.017V184.427H286.217V184.437Z" fill="#EAEACC"/>
<path d="M243.546 636.047V619.637V619.627L229.336 627.837L215.106 630.027L200.886 627.837L186.666 619.627V636.047V652.467L200.886 660.677L200.896 660.687L206.796 664.097C211.936 667.067 218.266 667.067 223.406 664.097L229.316 660.687H229.326L243.536 652.467V636.057L243.546 636.047Z" fill="#353644"/>
<path d="M200.886 611.417L215.096 603.206L229.326 594.996L243.546 586.786L257.766 578.576L271.986 570.367L286.206 562.156V562.146H286.216L300.436 553.936L314.656 545.727L328.876 537.516H328.886L343.096 529.307V529.297V512.886V496.456V480.046V480.036V463.616V447.197V447.186V430.776V430.766V414.346V397.926V381.507V381.496V365.086V348.656V332.246V332.236V315.816V299.396V299.386V282.966V266.546V250.126V233.696V217.286V217.276V200.856L328.876 192.646V209.066V225.486V225.496V241.906V241.916V258.336V274.757V291.176V307.606V324.026V340.447V340.456V356.866V356.876V373.286V373.296V389.716V406.136V422.556V438.977V438.986V455.406V471.826V488.246V488.257V504.667V504.676V521.086V521.096L314.656 529.307L300.436 537.516L286.216 545.727H286.206L271.986 553.936L257.766 562.146L243.546 570.357V570.367H243.536L229.326 578.566V578.576L215.096 586.786L200.876 594.996L186.656 603.206L172.436 611.417L186.656 619.626L200.876 611.417H200.886Z" fill="#53576B"/>
<path d="M215.096 209.067L229.316 200.857L229.326 200.847L243.536 192.647H243.546V192.637L264.176 180.747L243.546 176.227L232.426 166.247L229.326 168.007L215.096 176.227L200.876 184.437L186.656 192.647L172.436 200.857L183.416 210.937L186.656 225.487L200.876 217.277L215.096 209.067Z" fill="#FFFFF8"/>
<path d="M200.877 594.996L215.097 586.787L229.327 578.577V578.566L243.537 570.367H243.547V570.357L257.767 562.147L271.987 553.936L286.207 545.727H286.217L300.437 537.517L314.657 529.307L328.877 521.097V521.087V504.677V504.667V488.257V488.247V471.827V455.407V438.987V438.977V422.557V406.137V389.717V373.297V373.287V356.877V356.867V340.457V340.447V324.027V307.607V291.177V274.757V258.337V241.917V241.907V225.497V225.487V209.067V192.647L314.657 184.437V200.857V217.277V233.707V250.117V250.127V266.547V282.967V299.387V299.397V315.807V315.817V332.237V348.667V365.077V381.507V397.927V414.347V430.767V447.197V463.617V480.037V496.467V512.876L300.437 521.087V521.097L286.207 529.307L271.987 537.517L257.767 545.727L243.547 553.936H243.537L229.327 562.147V562.157H229.317L215.097 570.357L200.877 578.566V578.577L186.657 586.777V586.787H186.647L172.437 594.987V594.996L158.207 603.207L172.437 611.417L186.657 603.207L200.877 594.996Z" fill="#A5B1C4"/>
<path d="M186.646 636.047H186.656V619.627L172.436 611.417L158.206 603.207L143.996 594.997H143.986L129.766 586.787V603.207V619.627L143.986 627.837L158.206 636.047H158.216L172.426 644.257H172.436L186.656 652.467V636.057L186.646 636.047Z" fill="#EAEACC"/>
<path d="M172.436 594.987L186.646 586.787H186.656L200.876 578.577L215.096 570.357L229.316 562.157H229.326L243.536 553.937L257.756 545.727L271.976 537.517L286.196 529.307L300.426 521.097L314.646 512.877L300.426 504.677L286.206 496.457H286.196L271.976 504.667L257.756 512.887L243.536 521.087L229.316 529.307L215.086 537.517L200.866 545.727L186.646 553.937L172.426 562.147H172.416L158.196 570.367L143.976 578.567L129.756 586.787L143.976 594.997H143.986L158.196 603.207L172.426 594.997L172.436 594.987Z" fill="#FFFFF8"/>
<path d="M143.985 578.567L158.205 570.367L172.425 562.147H172.435L186.655 553.937L200.875 545.727L215.095 537.517L229.325 529.307L243.545 521.097L257.765 512.887L271.985 504.677L286.205 496.467V463.627V447.197V414.357V397.927V365.087V348.667V299.397V250.127V200.867V184.437V168.017L271.985 176.217L257.765 184.437L243.545 192.637V192.647L229.335 200.847V200.867H229.325L215.105 209.067L200.885 217.277L186.665 225.487H186.655L172.445 233.697H172.435L158.215 241.917L143.995 250.127L129.775 255.917V373.287V455.397V521.087V586.787L143.995 578.577L143.985 578.567ZM143.985 561.187V545.737V512.887V496.467V463.617V430.777V315.817V299.397V282.977V266.547L158.205 258.337L172.425 250.127H172.435L186.645 241.917L200.865 233.707L215.085 225.497L229.305 217.277L242.035 209.917L243.515 209.067L257.735 200.857L270.385 193.557L271.955 192.647V209.067V225.487V241.907V356.867V389.707V422.557V471.827V488.247L257.735 496.457L243.515 504.667L229.305 512.877L215.075 521.087L200.855 529.307L186.635 537.517H186.625L172.415 545.727H172.405L158.185 553.937L143.965 562.147V561.187H143.985Z" fill="#CECDAE"/>
<path d="M129.766 619.627V586.787L115.546 578.577L101.326 570.367V586.777V594.017C101.326 599.707 104.356 604.957 109.286 607.797L115.546 611.417L129.766 619.627Z" fill="#353644"/>
<path d="M115.546 578.577L129.766 586.787V570.357V553.947V537.517V521.097V521.087V504.677V488.247V471.827V455.407V455.397V438.987V422.557V406.137V389.717V373.297V373.287V356.867V340.447V324.027V307.597V291.187V274.757V254.507L115.546 250.127L101.326 241.917V258.337V274.757V274.767V291.177V307.607V324.017V324.027V340.447V356.867V356.877V373.287V373.297V389.707V389.717V406.137V422.557V422.567V438.977V455.407V471.827V488.247V488.257V504.667V504.677V521.097V537.507V537.527V553.937V570.367L115.546 578.567V578.577Z" fill="#EAEACC"/>
<path d="M124.806 255.477C127.876 257.247 131.656 257.247 134.726 255.477L143.986 250.127L158.206 241.917L143.986 233.707L129.766 225.497L115.546 233.697V233.707L101.336 241.907L115.556 250.127L124.816 255.477H124.806Z" fill="#FFFFF8"/>
<path d="M321.766 231.276V247.696V264.116L332.986 270.606C334.316 271.376 335.986 270.416 335.986 268.876V255.916V240.636C335.986 239.926 335.606 239.266 334.986 238.906L321.766 231.276Z" fill="#A5B1C4"/>
<path d="M321.766 322.827V339.247V355.667L332.986 362.157C334.316 362.927 335.986 361.967 335.986 360.427V347.467V332.187C335.986 331.477 335.606 330.817 334.986 330.457L321.766 322.827Z" fill="#A5B1C4"/>
<path d="M321.766 414.387V430.807V447.227L332.986 453.717C334.316 454.487 335.986 453.527 335.986 451.987V439.027V423.747C335.986 423.037 335.606 422.377 334.986 422.017L321.766 414.387Z" fill="#A5B1C4"/>
<path d="M264.096 548.997L249.876 557.207L235.656 565.417L221.436 573.627L234.656 581.257C235.276 581.617 236.036 581.617 236.656 581.257L249.876 573.627L264.096 565.417L275.326 558.937C276.656 558.167 276.656 556.237 275.326 555.477L264.096 548.997Z" fill="#A5B1C4"/>
<path d="M357.326 537.507L343.106 529.307L328.896 537.517H328.886L314.666 545.727L300.446 553.937L286.226 562.147H286.216L271.996 570.367L257.776 578.577L243.556 586.787L229.336 594.997L215.106 603.207L200.896 611.417H200.886L186.666 619.627L200.886 627.837L206.396 631.017C211.786 634.127 218.436 634.127 223.826 631.017L229.336 627.837L243.546 619.627L257.766 611.417L271.986 603.207L286.206 594.997L300.426 586.787H300.436L314.656 578.577L328.876 570.357L343.096 562.147L357.326 553.937L371.546 545.727L357.326 537.517V537.507Z" fill="#FFFFF8"/>
</g>
<path d="M243.548 145.247V110.537L229.328 114.727L229.358 135.837L243.548 145.247Z" fill="#A5B1C4"/>
<path d="M215.098 126.957L229.328 125.837V113.547L215.098 110.537V126.957Z" fill="#DFE9ED"/>
<path d="M215.098 176.227L229.328 168.007V151.587V135.177L215.108 143.377H215.098V143.387V159.797V176.227Z" fill="#DFE9ED"/>
<path d="M171.337 166.366V149.946L157.117 153.086V175.136L171.337 166.366Z" fill="#A5B1C4"/>
<path d="M158.206 176.226V176.216V150.696L156.876 151.086L143.986 151.586V168.006V168.016V184.436V200.856L158.206 192.646V176.226Z" fill="#DFE9ED"/>
<mask id="mask2_2587_17939" style="mask-type:luminance" maskUnits="userSpaceOnUse" x="129" y="63" width="115" height="97">
<path d="M229.327 69.4767L221.827 65.1467C217.667 62.7467 212.537 62.7467 208.377 65.1467L200.887 69.4767L186.667 77.6867L172.447 85.8967H172.437L158.217 94.1167L143.997 102.317L135.467 107.247C131.947 109.277 129.777 113.037 129.777 117.107V119.787C129.777 124.217 132.147 128.317 135.977 130.537H135.987C140.937 133.407 143.997 138.687 143.997 144.407V146.687V151.577L158.217 159.787L172.447 151.587V118.737L186.667 110.527L200.887 102.317L207.167 98.6967L210.917 96.5267C212.777 95.4467 215.107 96.7867 215.117 98.9467V102.137V106.467V110.537L229.347 118.747L243.567 110.537V94.1167V83.7267C243.567 79.9867 241.577 76.5367 238.337 74.6667L229.347 69.4767H229.327ZM158.207 126.967V126.947H158.217L158.207 126.967Z" fill="white"/>
</mask>
<g mask="url(#mask2_2587_17939)">
<path d="M229.327 83.4165L219.777 80.3965C216.877 78.7265 213.317 78.7265 210.417 80.3965L200.887 85.8965H200.877L186.657 94.1065L172.437 102.317L172.427 102.327L158.217 110.537L172.437 118.747L186.657 110.537L200.877 102.327L207.157 98.7065L211.367 96.2665C213.027 95.3065 215.107 96.5065 215.107 98.4265V106.467V110.537L222.437 114.767C226.707 117.227 231.967 117.227 236.237 114.767L243.557 110.537V94.1165V77.6865L229.337 83.4165H229.327Z" fill="#353644"/>
<path d="M158.218 123.616V126.966L158.208 123.616L143.988 118.746L129.768 110.536V126.956L137.548 131.446C141.528 133.746 143.988 137.996 143.988 142.596V151.586L149.438 154.356L151.258 155.486C155.538 158.146 160.938 158.226 165.298 155.716L172.438 151.596V118.746L158.218 123.616Z" fill="#353644"/>
<path d="M229.328 69.4766L215.098 61.2666L200.878 69.4766L186.658 77.6866L172.438 85.8966H172.428L158.208 94.1166L143.988 102.317L129.768 110.537L143.988 118.747L149.578 122.137L155.088 125.207C157.028 126.287 159.398 126.277 161.318 125.157L172.438 118.737L165.678 114.827L163.638 113.657L160.988 112.117C159.768 111.417 159.788 109.647 161.028 108.977L167.878 105.227L172.438 102.317H172.448L186.668 94.1066L200.888 85.8966L200.898 85.8866L210.328 80.4466C213.288 78.7366 216.938 78.7366 219.898 80.4466L226.488 84.2466C228.248 85.2666 230.428 85.2666 232.188 84.2466L241.468 78.8866L243.558 77.6766L229.338 69.4666L229.328 69.4766Z" fill="#53576B"/>
</g>
<path d="M232.428 166.247L230.868 167.137L229.327 168.007L215.098 176.227L207.898 180.387L200.878 184.437L186.658 192.647L172.438 200.857" stroke="#C1BF93" stroke-width="3" stroke-miterlimit="10"/>
<path d="M129.766 225.497L122.746 229.547L115.546 233.697V233.707L107.476 238.357C105.576 239.457 104.036 241.027 102.976 242.867C101.916 244.697 101.336 246.807 101.336 248.997V594.167C101.386 599.797 104.406 604.977 109.286 607.797L115.546 611.417L122.746 615.577L129.766 619.627L143.986 627.837L158.206 636.047H158.216L165.316 640.147L172.416 644.247H172.426L186.646 652.457L200.866 660.667V660.677L206.766 664.087C211.906 667.047 218.226 667.057 223.366 664.087L229.286 660.677H229.296V660.667L243.506 652.457L250.706 648.297L257.726 644.247L271.936 636.037H271.946L286.166 627.827L293.276 623.727L300.376 619.617H300.386L314.596 611.407H314.606L328.826 603.197L335.856 599.147L343.056 594.987L357.286 586.767L371.496 578.557L378.696 574.397L385.716 570.347L385.786 570.307C394.506 565.247 399.886 555.947 399.936 545.867V545.727V496.457V463.607V430.767V397.927V348.657V315.807V208.487C399.906 206.127 399.276 203.867 398.136 201.887C396.986 199.887 395.316 198.187 393.256 196.987L385.726 192.647H385.716L378.696 188.587L371.496 184.437L364.396 180.327L357.286 176.227L350.086 172.067L343.066 168.017L335.876 163.857L328.856 159.807H328.846L314.626 151.597L300.406 143.387L297.546 141.737L293.336 139.307C288.906 136.747 283.456 136.747 279.026 139.307L271.966 143.387" stroke="#C1BF93" stroke-width="3" stroke-miterlimit="10"/>
<mask id="mask3_2587_17939" style="mask-type:luminance" maskUnits="userSpaceOnUse" x="129" y="120" width="158" height="122">
<path d="M271.988 143.377L263.188 138.297C259.828 136.357 255.698 136.357 252.338 138.297L243.538 143.377V134.117C243.538 129.687 241.178 125.597 237.338 123.377L236.178 122.707C231.938 120.257 226.708 120.257 222.468 122.707L215.098 126.957L200.888 135.167H200.878L186.658 143.377L172.438 151.587L165.048 155.867C160.818 158.307 158.208 162.817 158.208 167.707V176.227V192.657L143.988 200.867L138.398 204.097C133.058 207.177 129.768 212.877 129.768 219.037V225.497L143.988 233.717L158.208 241.927L172.428 233.707H172.438L186.648 225.497H186.658V216.487C186.658 211.897 184.208 207.657 180.238 205.367L172.438 200.867V184.447V171.647C172.438 169.407 173.628 167.337 175.568 166.217L186.658 159.817L200.878 151.607L200.888 151.597L215.098 143.397V143.387L226.208 136.977C227.588 136.177 229.318 137.177 229.318 138.767V165.187C229.318 166.947 230.258 168.567 231.778 169.447L243.538 176.237L253.108 181.757C255.988 183.417 259.538 183.417 262.408 181.757L271.978 176.237L286.198 168.027V161.037C286.198 155.197 283.078 149.797 278.018 146.877L271.978 143.387L271.988 143.377ZM158.208 225.497L158.218 225.487H158.208V225.497Z" fill="white"/>
</mask>
<g mask="url(#mask3_2587_17939)">
<path d="M229.328 168.017L243.548 176.227L257.768 184.437L271.988 176.227V176.217L286.208 168.017V151.597L271.988 159.807L257.778 168.007H257.768L243.548 159.797L229.328 151.587V168.007V168.017Z" fill="#353644"/>
<path d="M158.208 241.916L172.428 233.696H172.438L186.648 225.486H186.658V209.066L172.438 217.276V217.286H172.428L158.218 225.486L158.208 225.496V225.486L143.988 217.276L129.768 209.066V225.486V225.496L143.988 233.706L158.208 241.916Z" fill="#353644"/>
<path d="M158.208 225.487H158.218L172.428 217.287H172.438L186.658 209.067L172.438 200.857V184.437V171.637C172.438 169.397 173.628 167.327 175.568 166.207L186.658 159.807L200.878 151.597L200.888 151.587L215.098 143.387V143.377L226.208 136.967C227.588 136.167 229.318 137.167 229.318 138.757V151.587L243.538 159.797L257.758 168.007H257.768L271.978 159.807L286.198 151.597L271.978 143.377L257.758 135.167L243.538 143.377V134.117C243.538 129.687 241.178 125.597 237.338 123.377L236.178 122.707C231.938 120.257 226.708 120.257 222.468 122.707L215.098 126.957L200.888 135.167H200.878L186.658 143.377L172.438 151.587L165.048 155.867C160.818 158.307 158.208 162.817 158.208 167.707V176.227V192.657L143.988 200.867L129.768 209.077L143.988 217.287L158.208 225.497V225.487Z" fill="#53576B"/>
</g>
<path d="M156.617 204.587L147.817 209.657C147.157 210.037 147.157 210.997 147.817 211.387L154.067 214.997C155.637 215.907 157.577 215.907 159.157 214.997L166.897 210.527L156.617 204.587Z" fill="#A5B1C4"/>
<path d="M259.117 143.176L250.627 148.076L260.917 154.016L269.037 149.326C269.997 148.776 269.997 147.386 269.037 146.836L262.707 143.176C261.597 142.536 260.227 142.536 259.117 143.176Z" fill="#A5B1C4"/>
<mask id="mask4_2587_17939" style="mask-type:luminance" maskUnits="userSpaceOnUse" x="410" y="537" width="282" height="178">
<path d="M599.538 537.517L410.068 659.527L517.818 714.097L691.458 615.317L599.538 537.517Z" fill="white"/>
</mask>
<g mask="url(#mask4_2587_17939)">
<path d="M708.398 501.507H667.098V542.807H708.398V501.507Z" fill="#DFE9ED"/>
<path d="M708.398 542.807H667.098V584.107H708.398V542.807Z" fill="#DFE9ED"/>
<path d="M708.398 584.097H667.098V625.397H708.398V584.097Z" fill="#DFE9ED"/>
<path d="M708.398 625.396H667.098V666.696H708.398V625.396Z" fill="#DFE9ED"/>
<path d="M708.398 666.697H667.098V707.997H708.398V666.697Z" fill="#DFE9ED"/>
<path d="M708.398 707.987H667.098V749.287H708.398V707.987Z" fill="#DFE9ED"/>
<path d="M667.097 501.507H625.797V542.807H667.097V501.507Z" fill="#DFE9ED"/>
<path d="M667.097 542.807H625.797V584.107H667.097V542.807Z" fill="#DFE9ED"/>
<path d="M667.097 584.097H625.797V625.397H667.097V584.097Z" fill="#DFE9ED"/>
<path d="M667.097 625.396H625.797V666.696H667.097V625.396Z" fill="#DFE9ED"/>
<path d="M667.097 666.697H625.797V707.997H667.097V666.697Z" fill="#DFE9ED"/>
<path d="M667.097 707.987H625.797V749.287H667.097V707.987Z" fill="#DFE9ED"/>
<path d="M625.798 501.507H584.498V542.807H625.798V501.507Z" fill="#DFE9ED"/>
<path d="M625.798 542.807H584.498V584.107H625.798V542.807Z" fill="#DFE9ED"/>
<path d="M625.798 584.097H584.498V625.397H625.798V584.097Z" fill="#DFE9ED"/>
<path d="M625.798 625.396H584.498V666.696H625.798V625.396Z" fill="#DFE9ED"/>
<path d="M625.798 666.697H584.498V707.997H625.798V666.697Z" fill="#DFE9ED"/>
<path d="M625.798 707.987H584.498V749.287H625.798V707.987Z" fill="#DFE9ED"/>
<path d="M584.507 501.507H543.207V542.807H584.507V501.507Z" fill="#DFE9ED"/>
<path d="M584.507 542.807H543.207V584.107H584.507V542.807Z" fill="#DFE9ED"/>
<path d="M584.507 584.097H543.207V625.397H584.507V584.097Z" fill="#DFE9ED"/>
<path d="M584.507 625.396H543.207V666.696H584.507V625.396Z" fill="#DFE9ED"/>
<path d="M584.507 666.697H543.207V707.997H584.507V666.697Z" fill="#DFE9ED"/>
<path d="M584.507 707.987H543.207V749.287H584.507V707.987Z" fill="#DFE9ED"/>
<path d="M543.208 501.507H501.908V542.807H543.208V501.507Z" fill="#DFE9ED"/>
<path d="M543.208 542.807H501.908V584.107H543.208V542.807Z" fill="#DFE9ED"/>
<path d="M543.208 584.097H501.908V625.397H543.208V584.097Z" fill="#DFE9ED"/>
<path d="M543.208 625.396H501.908V666.696H543.208V625.396Z" fill="#DFE9ED"/>
<path d="M543.208 666.697H501.908V707.997H543.208V666.697Z" fill="#DFE9ED"/>
<path d="M543.208 707.987H501.908V749.287H543.208V707.987Z" fill="#DFE9ED"/>
<path d="M501.917 501.507H460.617V542.807H501.917V501.507Z" fill="#DFE9ED"/>
<path d="M501.917 542.807H460.617V584.107H501.917V542.807Z" fill="#DFE9ED"/>
<path d="M501.917 584.097H460.617V625.397H501.917V584.097Z" fill="#DFE9ED"/>
<path d="M501.917 625.396H460.617V666.696H501.917V625.396Z" fill="#DFE9ED"/>
<path d="M501.917 666.697H460.617V707.997H501.917V666.697Z" fill="#DFE9ED"/>
<path d="M501.917 707.987H460.617V749.287H501.917V707.987Z" fill="#DFE9ED"/>
<path d="M460.618 501.507H419.318V542.807H460.618V501.507Z" fill="#DFE9ED"/>
<path d="M460.618 542.807H419.318V584.107H460.618V542.807Z" fill="#DFE9ED"/>
<path d="M460.618 584.097H419.318V625.397H460.618V584.097Z" fill="#DFE9ED"/>
<path d="M460.618 625.396H419.318V666.696H460.618V625.396Z" fill="#DFE9ED"/>
<path d="M460.618 666.697H419.318V707.997H460.618V666.697Z" fill="#DFE9ED"/>
<path d="M460.618 707.987H419.318V749.287H460.618V707.987Z" fill="#DFE9ED"/>
<path d="M419.318 501.507H378.018V542.807H419.318V501.507Z" fill="#DFE9ED"/>
<path d="M419.318 542.807H378.018V584.107H419.318V542.807Z" fill="#DFE9ED"/>
<path d="M419.318 584.097H378.018V625.397H419.318V584.097Z" fill="#DFE9ED"/>
<path d="M419.318 625.396H378.018V666.696H419.318V625.396Z" fill="#DFE9ED"/>
<path d="M419.318 666.697H378.018V707.997H419.318V666.697Z" fill="#DFE9ED"/>
<path d="M419.318 707.987H378.018V749.287H419.318V707.987Z" fill="#DFE9ED"/>
</g>
<path d="M535.568 664.616L510.818 652.026C501.718 647.786 483.488 655.136 478.468 666.046C471.938 680.256 474.078 694.616 479.778 698.686C480.288 699.056 483.478 701.186 484.078 701.356L507.008 714.086L535.568 664.616Z" fill="url(#paint3_linear_2587_17939)"/>
<path d="M537.169 698.523C545.055 684.863 544.338 669.684 535.566 664.62C526.794 659.555 513.29 666.523 505.403 680.183C497.516 693.843 498.234 709.023 507.006 714.087C515.778 719.151 529.282 712.183 537.169 698.523Z" fill="#353644"/>
<path d="M528.208 677.556C526.928 676.816 525.428 676.616 523.858 676.876C525.118 680.256 524.488 685.146 521.868 689.686C519.248 694.226 515.328 697.216 511.768 697.816C512.328 699.306 513.248 700.506 514.528 701.246C518.728 703.676 525.198 700.336 528.978 693.786C532.758 687.236 532.408 679.976 528.208 677.546V677.556Z" fill="#A5B1C4"/>
<path d="M521.869 689.697C524.489 685.157 525.119 680.267 523.859 676.887C520.299 677.487 516.379 680.477 513.759 685.017C511.139 689.557 510.509 694.447 511.769 697.827C515.329 697.227 519.249 694.237 521.869 689.697Z" fill="#DFE9ED"/>
<path d="M706.238 565.847L681.488 553.257C672.388 549.017 654.158 556.367 649.138 567.277C642.608 581.487 644.748 595.847 650.448 599.917C650.958 600.287 654.148 602.417 654.748 602.587L677.678 615.317L706.238 565.847Z" fill="url(#paint4_linear_2587_17939)"/>
<path d="M707.841 599.763C715.727 586.103 715.01 570.923 706.238 565.859C697.466 560.794 683.962 567.763 676.075 581.423C668.188 595.083 668.906 610.262 677.678 615.326C686.45 620.391 699.954 613.423 707.841 599.763Z" fill="#353644"/>
<path d="M698.878 578.787C697.598 578.047 696.097 577.847 694.527 578.107C695.787 581.487 695.157 586.377 692.537 590.917C689.917 595.457 685.997 598.447 682.438 599.047C682.998 600.537 683.918 601.737 685.198 602.477C689.398 604.907 695.867 601.566 699.647 595.016C703.427 588.466 703.078 581.207 698.878 578.777V578.787Z" fill="#A5B1C4"/>
<path d="M692.539 590.917C695.159 586.377 695.789 581.487 694.529 578.107C690.969 578.707 687.049 581.697 684.429 586.237C681.809 590.777 681.179 595.667 682.439 599.047C685.999 598.447 689.919 595.457 692.539 590.917Z" fill="#DFE9ED"/>
<path d="M449.478 616.067L424.728 603.477C415.628 599.237 397.398 606.587 392.378 617.497C385.848 631.707 387.988 646.067 393.688 650.137C394.198 650.507 397.388 652.637 397.988 652.807L420.918 665.537L449.478 616.067Z" fill="url(#paint5_linear_2587_17939)"/>
<path d="M451.073 649.983C458.96 636.323 458.242 621.144 449.47 616.08C440.698 611.015 427.194 617.983 419.307 631.643C411.421 645.303 412.138 660.483 420.91 665.547C429.682 670.611 443.187 663.643 451.073 649.983Z" fill="#353644"/>
<path d="M442.118 629.006C440.838 628.266 439.338 628.066 437.768 628.326C439.028 631.706 438.398 636.596 435.778 641.136C433.158 645.676 429.238 648.666 425.678 649.266C426.238 650.756 427.158 651.956 428.438 652.696C432.638 655.126 439.108 651.786 442.888 645.236C446.668 638.686 446.318 631.426 442.118 628.996V629.006Z" fill="#A5B1C4"/>
<path d="M435.767 641.136C438.387 636.596 439.017 631.706 437.757 628.326C434.197 628.926 430.277 631.916 427.657 636.456C425.037 640.996 424.407 645.886 425.667 649.266C429.227 648.666 433.147 645.676 435.767 641.136Z" fill="#DFE9ED"/>
<mask id="mask5_2587_17939" style="mask-type:luminance" maskUnits="userSpaceOnUse" x="400" y="137" width="300" height="532">
<path d="M684.888 192.647H684.878L670.647 184.437L656.438 176.217L642.208 168.007L627.987 159.797H627.977L613.758 151.587L599.537 143.377L596.677 141.727L592.467 139.297C588.037 136.737 582.587 136.737 578.157 139.297L571.097 143.377L581.367 153.917L581.487 154.587L585.318 168.017L571.097 176.217L563.277 180.737L542.647 176.227L531.537 166.247L528.438 168.007L514.208 176.227L499.977 184.437L485.757 192.647L471.537 200.857L482.517 210.937L485.757 225.487H485.747L471.537 233.697H471.527L457.318 241.917L443.098 233.707L428.878 225.497L414.647 233.697L406.577 238.357C402.777 240.547 400.438 244.607 400.438 248.997V603.207L414.647 611.417L428.878 619.627L443.098 627.837L457.318 636.047H457.327L471.527 644.257H471.537L485.757 652.467L499.977 660.677L499.987 660.687L514.208 668.887L528.417 660.687H528.438L542.647 652.467L556.878 644.257L571.087 636.047H571.097L585.318 627.837L599.527 619.627H599.537L613.747 611.417H613.758L627.977 603.207L642.208 594.997L656.438 586.777L670.647 578.567L684.878 570.357C693.677 565.277 699.097 555.887 699.097 545.727V208.637C699.097 203.817 696.527 199.357 692.347 196.947L684.888 192.637V192.647ZM485.757 636.057H485.747L485.757 636.047V636.057ZM528.438 611.427H528.417L528.438 611.407V611.427ZM528.438 200.867H528.417L528.438 200.847V200.867ZM585.318 562.157L585.328 562.147H585.318V562.157ZM599.537 603.217H599.527L599.537 603.207V603.217ZM613.758 299.397H613.747L613.758 299.387V299.397ZM656.438 274.767H656.417L656.438 274.747V274.767Z" fill="white"/>
</mask>
<g mask="url(#mask5_2587_17939)">
<path d="M569.518 193.556L556.878 200.856L542.648 209.066L541.168 209.916L528.438 217.276H528.428L514.208 225.486V225.496L499.978 233.706L485.758 241.916L471.538 250.126H471.528L457.318 258.336L443.098 266.546V282.966V282.977V299.386V299.396V315.436V315.806V315.816V332.236V348.656V364.526V365.076V381.507V397.926V413.746V414.346V430.766V430.776V447.197V462.826V463.606V463.616V480.036V496.456V496.466V511.917V512.876V512.886V529.307V545.727V545.737V561.186L457.308 552.977L471.528 544.766L485.758 536.557V536.547L499.978 528.336L514.198 520.126L528.428 511.917V512.107L542.648 503.896L556.868 495.686L571.098 487.477V471.836V471.826V455.406V438.977V438.206V422.566V422.556V406.136V389.716V389.706V389.126V373.296V356.876V356.866V340.447V340.036V324.026V307.606V291.176V290.816V274.757V258.336V241.916V241.906V241.736V225.496V225.486V209.076V209.066V192.646L569.518 193.556Z" fill="#CECDAE"/>
<path d="M670.648 545.727V562.147V562.157V578.567L684.878 570.357L699.098 562.147V545.737V545.727V529.307L684.878 537.517L670.648 545.727Z" fill="#353644"/>
<path d="M670.648 215.136V218.956V233.696V250.126V266.536V266.546V282.966V282.976V299.386V315.816V332.236V348.656V365.086V381.496V381.506V397.926V414.346V430.766V430.776V447.186V447.196V463.616V480.036V480.046V496.456V512.886V529.296V529.306V545.726L684.878 537.516L699.098 529.306V512.876V496.466V496.456V480.036V463.616V463.606V447.196V430.776V430.766V414.346V397.936V397.926V381.506V365.076V348.666V348.656V332.236V315.816V315.806V299.396V282.966V266.546V250.116V233.706V217.276V200.856L684.878 209.066L670.648 215.136Z" fill="#CECDAE"/>
<path d="M670.647 529.296V480.046V447.196V430.776V381.506V282.976V266.546V214.586L656.427 209.076L642.197 200.856V217.276V299.386V332.236V381.496V381.506V430.766V430.776V447.186V480.036V529.296V529.306L656.417 537.506L670.637 545.726V529.306L670.647 529.296ZM656.437 274.746V274.766H656.427L656.437 274.746Z" fill="#EAEACC"/>
<path d="M656.438 586.777L670.648 578.567V562.157V545.727L656.428 553.937L642.198 562.147L627.978 570.357L613.758 578.567L599.538 586.777L599.528 586.787L585.308 594.997L571.088 603.207L556.868 611.417L542.648 619.627V636.047V652.467L556.868 644.257L571.078 636.047H571.088L585.308 627.837L599.528 619.627H599.538L613.748 611.417H613.758L627.978 603.207L642.198 594.997L656.428 586.777H656.438Z" fill="#CECDAE"/>
<path d="M581.487 154.587L585.317 168.017L599.537 176.227H599.547L613.767 184.437L627.987 192.647L642.207 200.857L656.437 209.067L660.027 211.147L664.587 213.777C668.347 215.947 672.977 215.947 676.727 213.777L684.877 209.077L699.097 200.867L684.887 192.657H684.877L670.657 184.447L656.437 176.227L642.217 168.017L628.007 159.807H627.997L613.777 151.597L599.557 143.387L585.337 135.177H585.327L571.107 143.387L581.387 153.927L581.497 154.597L581.487 154.587Z" fill="#FFFFF8"/>
<path d="M585.328 184.437H585.318V200.857V250.117V299.387V348.657V365.077H585.328L585.318 365.087V397.917V414.347V447.187H585.328L585.318 447.197V463.617V496.457H585.328L599.548 504.667L613.768 512.877V315.817V299.397H613.758L613.768 299.387V250.127V184.437L599.548 176.227H599.538L585.318 168.017V184.427H585.328V184.437Z" fill="#EAEACC"/>
<path d="M542.648 636.047V619.637V619.627L528.438 627.837L514.208 630.027L499.988 627.837L485.768 619.627V636.047V652.467L499.988 660.677L499.998 660.687L505.898 664.097C511.038 667.067 517.368 667.067 522.508 664.097L528.418 660.687H528.428L542.638 652.467V636.057L542.648 636.047Z" fill="#353644"/>
<path d="M499.987 611.417L514.207 603.206L528.437 594.996L542.647 586.786L556.877 578.576L571.097 570.367L585.317 562.156V562.146H585.327L599.537 553.936L613.757 545.727L627.977 537.516H627.987L642.207 529.307V529.297V512.886V496.456V480.046V480.036V463.616V447.197V447.186V430.776V430.766V414.346V397.926V381.507V381.496V365.086V348.656V332.246V332.236V315.816V299.396V299.386V282.966V266.546V250.126V233.696V217.286V217.276V200.856L627.977 192.646V209.066V225.486V225.496V241.906V241.916V258.336V274.757V291.176V307.606V324.026V340.447V340.456V356.866V356.876V373.286V373.296V389.716V406.136V422.556V438.977V438.986V455.406V471.826V488.246V488.257V504.667V504.676V521.086V521.096L613.757 529.307L599.537 537.516L585.327 545.727H585.317L571.097 553.936L556.877 562.146L542.647 570.357V570.367L528.437 578.566V578.576L514.207 586.786L499.977 594.996L485.757 603.206L471.537 611.417L485.757 619.626L499.977 611.417H499.987Z" fill="#53576B"/>
<path d="M514.207 209.067L528.417 200.857L528.437 200.847L542.647 192.647V192.637L563.277 180.747L542.647 176.227L531.537 166.247L528.437 168.007L514.207 176.227L499.977 184.437L485.757 192.647L471.537 200.857L482.517 210.937L485.757 225.487L499.977 217.277L514.207 209.067Z" fill="#FFFFF8"/>
<path d="M499.978 594.996L514.208 586.787L528.438 578.577V578.566L542.648 570.367V570.357L556.878 562.147L571.098 553.936L585.318 545.727H585.328L599.538 537.517L613.758 529.307L627.978 521.097V521.087V504.677V504.667V488.257V488.247V471.827V455.407V438.987V438.977V422.557V406.137V389.717V373.297V373.287V356.877V356.867V340.457V340.447V324.027V307.607V291.177V274.757V258.337V241.917V241.907V225.497V225.487V209.067V192.647L613.758 184.437V200.857V217.277V233.707V250.117V250.127V266.547V282.967V299.387V299.397V315.807V315.817V332.237V348.667V365.077V381.507V397.927V414.347V430.767V447.197V463.617V480.037V496.467V512.876L599.538 521.087V521.097L585.318 529.307L571.098 537.517L556.878 545.727L542.648 553.936L528.438 562.147V562.157H528.418L514.208 570.357L499.978 578.566V578.577L485.758 586.777V586.787H485.748L471.538 594.987V594.996L457.318 603.207L471.538 611.417L485.758 603.207L499.978 594.996Z" fill="#A5B1C4"/>
<path d="M485.747 636.047H485.757V619.627L471.537 611.417L457.317 603.207L443.107 594.997H443.097L428.877 586.787V603.207V619.627L443.097 627.837L457.317 636.047H457.327L471.527 644.257H471.537L485.757 652.467V636.057L485.747 636.047Z" fill="#EAEACC"/>
<path d="M471.537 594.987L485.747 586.787H485.757L499.977 578.577L514.197 570.357L528.417 562.157H528.427L542.637 553.937L556.857 545.727L571.077 537.517L585.297 529.307L599.527 521.097L613.747 512.877L599.527 504.677L585.307 496.457H585.297L571.077 504.667L556.857 512.887L542.637 521.087L528.417 529.307L514.187 537.517L499.967 545.727L485.747 553.937L471.527 562.147H471.517L457.297 570.367L443.077 578.567L428.857 586.787L443.077 594.997H443.087L457.297 603.207L471.527 594.997L471.537 594.987Z" fill="#FFFFF8"/>
<path d="M443.097 578.567L457.317 570.367L471.537 562.147H471.547L485.767 553.937L499.987 545.727L514.207 537.517L528.437 529.307L542.657 521.097L556.877 512.887L571.097 504.677L585.317 496.467V463.627V447.197V414.357V397.927V365.087V348.667V299.397V250.127V200.867V184.437V168.017L571.097 176.217L556.877 184.437L542.657 192.637V192.647L528.447 200.847V200.867H528.437L514.217 209.067L499.997 217.277L485.777 225.487H485.767L471.557 233.697H471.547L457.327 241.917L443.107 250.127L428.887 255.917V373.287V455.397V521.087V586.787L443.107 578.577L443.097 578.567ZM443.097 561.187V545.737V512.887V496.467V463.617V430.777V315.817V299.397V282.977V266.547L457.317 258.337L471.537 250.127H471.547L485.757 241.917L499.977 233.707L514.197 225.497L528.417 217.277L541.147 209.917L542.627 209.067L556.847 200.857L569.497 193.557L571.067 192.647V209.067V225.487V241.907V356.867V389.707V422.557V471.827V488.247L556.847 496.457L542.627 504.667L528.417 512.877L514.187 521.087L499.967 529.307L485.747 537.517H485.737L471.527 545.727H471.517L457.297 553.937L443.077 562.147V561.187H443.097Z" fill="#CECDAE"/>
<path d="M428.878 619.627V586.787L414.658 578.577L400.438 570.367V586.777V594.017C400.438 599.707 403.467 604.957 408.397 607.797L414.658 611.417L428.878 619.627Z" fill="#353644"/>
<path d="M414.647 578.577L428.878 586.787V570.357V553.947V537.517V521.097V521.087V504.677V488.247V471.827V455.407V455.397V438.987V422.557V406.137V389.717V373.297V373.287V356.867V340.447V324.027V307.597V291.187V274.757V254.507L414.647 250.127L400.438 241.917V258.337V274.757V274.767V291.177V307.607V324.017V324.027V340.447V356.867V356.877V373.287V373.297V389.707V389.717V406.137V422.557V422.567V438.977V455.407V471.827V488.247V488.257V504.667V504.677V521.097V537.507V537.527V553.937V570.367L414.647 578.567V578.577Z" fill="#EAEACC"/>
<path d="M423.908 255.477C426.978 257.247 430.757 257.247 433.827 255.477L443.087 250.127L457.307 241.917L443.087 233.707L428.867 225.497L414.647 233.697V233.707L400.438 241.907L414.658 250.127L423.917 255.477H423.908Z" fill="#FFFFF8"/>
<path d="M620.867 231.276V247.696V264.116L632.087 270.606C633.417 271.376 635.087 270.416 635.087 268.876V255.916V240.636C635.087 239.926 634.707 239.266 634.087 238.906L620.867 231.276Z" fill="#A5B1C4"/>
<path d="M620.867 322.827V339.247V355.667L632.087 362.157C633.417 362.927 635.087 361.967 635.087 360.427V347.467V332.187C635.087 331.477 634.707 330.817 634.087 330.457L620.867 322.827Z" fill="#A5B1C4"/>
<path d="M620.867 414.387V430.807V447.227L632.087 453.717C633.417 454.487 635.087 453.527 635.087 451.987V439.027V423.747C635.087 423.037 634.707 422.377 634.087 422.017L620.867 414.387Z" fill="#A5B1C4"/>
<path d="M563.207 548.997L548.987 557.207L534.767 565.417L520.547 573.627L533.767 581.257C534.387 581.617 535.147 581.617 535.767 581.257L548.987 573.627L563.207 565.417L574.437 558.937C575.767 558.167 575.767 556.237 574.437 555.477L563.207 548.997Z" fill="#A5B1C4"/>
<path d="M656.437 537.507L642.217 529.307L628.007 537.517H627.997L613.777 545.727L599.557 553.937L585.337 562.147H585.327L571.107 570.367L556.887 578.577L542.667 586.787L528.447 594.997L514.217 603.207L500.007 611.417H499.997L485.777 619.627L499.997 627.837L505.507 631.017C510.897 634.127 517.547 634.127 522.937 631.017L528.447 627.837L542.657 619.627L556.877 611.417L571.097 603.207L585.317 594.997L599.537 586.787H599.547L613.767 578.577L627.987 570.357L642.207 562.147L656.437 553.937L670.657 545.727L656.437 537.517V537.507Z" fill="#FFFFF8"/>
</g>
<path d="M542.649 145.247V110.537L528.439 114.727L528.469 135.837L542.649 145.247Z" fill="#A5B1C4"/>
<path d="M514.209 126.957L528.439 125.837V113.547L514.209 110.537V126.957Z" fill="#DFE9ED"/>
<path d="M514.209 176.227L528.439 168.007V151.587V135.177L514.209 143.377V143.387V159.797V176.227Z" fill="#DFE9ED"/>
<path d="M470.437 166.366V149.946L456.217 153.086V175.136L470.437 166.366Z" fill="#A5B1C4"/>
<path d="M457.318 176.226V176.216V150.696L455.988 151.086L443.098 151.586V168.006V168.016V184.436V200.856L457.318 192.646V176.226Z" fill="#DFE9ED"/>
<mask id="mask6_2587_17939" style="mask-type:luminance" maskUnits="userSpaceOnUse" x="428" y="63" width="115" height="97">
<path d="M528.439 69.4767L520.939 65.1467C516.779 62.7467 511.649 62.7467 507.489 65.1467L499.999 69.4767L485.779 77.6867L471.559 85.8967H471.549L457.329 94.1167L443.109 102.317L434.579 107.247C431.059 109.277 428.889 113.037 428.889 117.107V119.787C428.889 124.217 431.259 128.317 435.089 130.537H435.099C440.049 133.407 443.109 138.687 443.109 144.407V146.687V151.577L457.329 159.787L471.559 151.587V118.737L485.779 110.527L499.999 102.317L506.279 98.6967L510.029 96.5267C511.889 95.4467 514.219 96.7867 514.229 98.9467V102.137V106.467V110.537L528.459 118.747L542.679 110.537V94.1167V83.7267C542.679 79.9867 540.689 76.5367 537.449 74.6667L528.459 69.4767H528.439ZM457.319 126.967V126.947H457.329L457.319 126.967Z" fill="white"/>
</mask>
<g mask="url(#mask6_2587_17939)">
<path d="M528.438 83.4165L518.888 80.3965C515.988 78.7265 512.428 78.7265 509.528 80.3965L499.998 85.8965H499.988L485.768 94.1065L471.548 102.317L471.538 102.327L457.328 110.537L471.548 118.747L485.768 110.537L499.988 102.327L506.268 98.7065L510.478 96.2665C512.138 95.3065 514.218 96.5065 514.218 98.4265V106.467V110.537L521.548 114.767C525.818 117.227 531.078 117.227 535.348 114.767L542.668 110.537V94.1165V77.6865L528.448 83.4165H528.438Z" fill="#353644"/>
<path d="M457.329 123.616V126.966L457.319 123.616L443.099 118.746L428.879 110.536V126.956L436.659 131.446C440.639 133.746 443.099 137.996 443.099 142.596V151.586L448.549 154.356L450.369 155.486C454.649 158.146 460.049 158.226 464.409 155.716L471.549 151.596V118.746L457.329 123.616Z" fill="#353644"/>
<path d="M528.439 69.4766L514.209 61.2666L499.989 69.4766L485.769 77.6866L471.549 85.8966H471.539L457.319 94.1166L443.099 102.317L428.879 110.537L443.099 118.747L448.689 122.137L454.199 125.207C456.139 126.287 458.509 126.277 460.429 125.157L471.549 118.737L464.789 114.827L462.749 113.657L460.099 112.117C458.879 111.417 458.899 109.647 460.139 108.977L466.989 105.227L471.549 102.317H471.559L485.779 94.1066L499.999 85.8966L500.009 85.8866L509.439 80.4466C512.399 78.7366 516.049 78.7366 519.009 80.4466L525.599 84.2466C527.359 85.2666 529.539 85.2666 531.299 84.2466L540.579 78.8866L542.669 77.6766L528.449 69.4666L528.439 69.4766Z" fill="#53576B"/>
</g>
<path d="M531.539 166.247L529.979 167.137L528.439 168.007L514.209 176.227L507.009 180.387L499.979 184.437L485.759 192.647L471.539 200.857" stroke="#C1BF93" stroke-width="3" stroke-miterlimit="10"/>
<path d="M428.877 225.497L421.857 229.547L414.657 233.697V233.707L406.587 238.357C404.687 239.457 403.147 241.027 402.087 242.867C401.027 244.697 400.447 246.807 400.447 248.997V594.167C400.497 599.797 403.517 604.977 408.397 607.797L414.657 611.417L421.857 615.577L428.877 619.627L443.097 627.837L457.317 636.047H457.327L464.427 640.147L471.527 644.247H471.537L485.757 652.457L499.977 660.667V660.677L505.877 664.087C511.017 667.047 517.337 667.057 522.477 664.087L528.397 660.677H528.407V660.667L542.617 652.457L549.817 648.297L556.837 644.247L571.047 636.037H571.057L585.277 627.827L592.387 623.727L599.487 619.617H599.497L613.707 611.407H613.717L627.937 603.197L634.967 599.147L642.167 594.987L656.397 586.767L670.607 578.557L677.807 574.397L684.827 570.347L684.897 570.307C693.617 565.247 698.997 555.947 699.047 545.867V545.727V496.457V463.607V430.767V397.927V348.657V315.807V208.487C699.017 206.127 698.387 203.867 697.247 201.887C696.097 199.887 694.427 198.187 692.367 196.987L684.837 192.647H684.827L677.807 188.587L670.607 184.437L663.507 180.327L656.397 176.227L649.197 172.067L642.177 168.017L634.987 163.857L627.967 159.807H627.957L613.737 151.597L599.517 143.387L596.657 141.737L592.447 139.307C588.017 136.747 582.567 136.747 578.137 139.307L571.077 143.387" stroke="#C1BF93" stroke-width="3" stroke-miterlimit="10"/>
<mask id="mask7_2587_17939" style="mask-type:luminance" maskUnits="userSpaceOnUse" x="428" y="120" width="158" height="122">
<path d="M571.099 143.377L562.299 138.297C558.939 136.357 554.809 136.357 551.449 138.297L542.649 143.377V134.117C542.649 129.687 540.289 125.597 536.449 123.377L535.289 122.707C531.049 120.257 525.819 120.257 521.579 122.707L514.209 126.957L499.999 135.167H499.989L485.769 143.377L471.549 151.587L464.159 155.867C459.929 158.307 457.319 162.817 457.319 167.707V176.227V192.657L443.099 200.867L437.509 204.097C432.169 207.177 428.879 212.877 428.879 219.037V225.497L443.099 233.717L457.319 241.927L471.539 233.707H471.549L485.759 225.497H485.769V216.487C485.769 211.897 483.319 207.657 479.349 205.367L471.549 200.867V184.447V171.647C471.549 169.407 472.739 167.337 474.679 166.217L485.769 159.817L499.989 151.607L499.999 151.597L514.209 143.397V143.387L525.319 136.977C526.699 136.177 528.429 137.177 528.429 138.767V165.187C528.429 166.947 529.369 168.567 530.889 169.447L542.649 176.237L552.219 181.757C555.099 183.417 558.649 183.417 561.519 181.757L571.089 176.237L585.309 168.027V161.037C585.309 155.197 582.189 149.797 577.129 146.877L571.089 143.387L571.099 143.377ZM457.319 225.497L457.329 225.487H457.319V225.497Z" fill="white"/>
</mask>
<g mask="url(#mask7_2587_17939)">
<path d="M528.439 168.017L542.649 176.227L556.879 184.437L571.099 176.227V176.217L585.319 168.017V151.597L571.099 159.807L556.889 168.007H556.879L542.649 159.797L528.439 151.587V168.007V168.017Z" fill="#353644"/>
<path d="M457.319 241.916L471.529 233.696H471.539L485.749 225.486H485.759V209.066L471.539 217.276V217.286H471.529L457.329 225.486L457.319 225.496V225.486L443.099 217.276L428.879 209.066V225.486V225.496L443.099 233.706L457.319 241.916Z" fill="#353644"/>
<path d="M457.319 225.487H457.329L471.539 217.287H471.549L485.769 209.067L471.549 200.857V184.437V171.637C471.549 169.397 472.739 167.327 474.679 166.207L485.769 159.807L499.989 151.597L499.999 151.587L514.209 143.387V143.377L525.319 136.967C526.699 136.167 528.429 137.167 528.429 138.757V151.587L542.649 159.797L556.869 168.007H556.879L571.089 159.807L585.309 151.597L571.089 143.377L556.869 135.167L542.649 143.377V134.117C542.649 129.687 540.289 125.597 536.449 123.377L535.289 122.707C531.049 120.257 525.819 120.257 521.579 122.707L514.209 126.957L499.999 135.167H499.989L485.769 143.377L471.549 151.587L464.159 155.867C459.929 158.307 457.319 162.817 457.319 167.707V176.227V192.657L443.099 200.867L428.879 209.077L443.099 217.287L457.319 225.497V225.487Z" fill="#53576B"/>
</g>
<path d="M455.729 204.587L446.929 209.657C446.269 210.037 446.269 210.997 446.929 211.387L453.179 214.997C454.749 215.907 456.689 215.907 458.269 214.997L466.009 210.527L455.729 204.587Z" fill="#A5B1C4"/>
<path d="M558.228 143.176L549.738 148.076L560.028 154.016L568.148 149.326C569.108 148.776 569.108 147.386 568.148 146.836L561.818 143.176C560.708 142.536 559.338 142.536 558.228 143.176Z" fill="#A5B1C4"/>
<defs>
<linearGradient id="paint0_linear_2587_17939" x1="175.337" y1="682.456" x2="236.457" y2="682.456" gradientUnits="userSpaceOnUse">
<stop stop-color="#53576B"/>
<stop offset="1" stop-color="#777D99"/>
</linearGradient>
<linearGradient id="paint1_linear_2587_17939" x1="346.007" y1="583.677" x2="407.127" y2="583.677" gradientUnits="userSpaceOnUse">
<stop stop-color="#53576B"/>
<stop offset="1" stop-color="#777D99"/>
</linearGradient>
<linearGradient id="paint2_linear_2587_17939" x1="89.2469" y1="633.897" x2="150.367" y2="633.897" gradientUnits="userSpaceOnUse">
<stop stop-color="#53576B"/>
<stop offset="1" stop-color="#777D99"/>
</linearGradient>
<linearGradient id="paint3_linear_2587_17939" x1="474.448" y1="0.0264825" x2="535.568" y2="0.0264825" gradientUnits="userSpaceOnUse">
<stop stop-color="#53576B"/>
<stop offset="1" stop-color="#777D99"/>
</linearGradient>
<linearGradient id="paint4_linear_2587_17939" x1="645.118" y1="583.677" x2="706.238" y2="583.677" gradientUnits="userSpaceOnUse">
<stop stop-color="#53576B"/>
<stop offset="1" stop-color="#777D99"/>
</linearGradient>
<linearGradient id="paint5_linear_2587_17939" x1="388.358" y1="633.897" x2="449.478" y2="633.897" gradientUnits="userSpaceOnUse">
<stop stop-color="#53576B"/>
<stop offset="1" stop-color="#777D99"/>
</linearGradient>
</defs>
</svg>
