<svg width="801" height="801" viewBox="0 0 801 801" fill="none" xmlns="http://www.w3.org/2000/svg">
<g clip-path="url(#clip0_2587_19019)">
<mask id="mask0_2587_19019" style="mask-type:luminance" maskUnits="userSpaceOnUse" x="420" y="537" width="282" height="178">
<path d="M609.538 537.517L420.068 659.527L527.818 714.097L701.458 615.317L609.538 537.517Z" fill="white"/>
</mask>
<g mask="url(#mask0_2587_19019)">
<path d="M718.398 501.507H677.098V542.807H718.398V501.507Z" fill="#DFE9ED"/>
<path d="M718.398 542.807H677.098V584.107H718.398V542.807Z" fill="#DFE9ED"/>
<path d="M718.398 584.097H677.098V625.397H718.398V584.097Z" fill="#DFE9ED"/>
<path d="M718.398 625.396H677.098V666.696H718.398V625.396Z" fill="#DFE9ED"/>
<path d="M718.398 666.697H677.098V707.997H718.398V666.697Z" fill="#DFE9ED"/>
<path d="M718.398 707.987H677.098V749.287H718.398V707.987Z" fill="#DFE9ED"/>
<path d="M677.097 501.507H635.797V542.807H677.097V501.507Z" fill="#DFE9ED"/>
<path d="M677.097 542.807H635.797V584.107H677.097V542.807Z" fill="#DFE9ED"/>
<path d="M677.097 584.097H635.797V625.397H677.097V584.097Z" fill="#DFE9ED"/>
<path d="M677.097 625.396H635.797V666.696H677.097V625.396Z" fill="#DFE9ED"/>
<path d="M677.097 666.697H635.797V707.997H677.097V666.697Z" fill="#DFE9ED"/>
<path d="M677.097 707.987H635.797V749.287H677.097V707.987Z" fill="#DFE9ED"/>
<path d="M635.798 501.507H594.498V542.807H635.798V501.507Z" fill="#DFE9ED"/>
<path d="M635.798 542.807H594.498V584.107H635.798V542.807Z" fill="#DFE9ED"/>
<path d="M635.798 584.097H594.498V625.397H635.798V584.097Z" fill="#DFE9ED"/>
<path d="M635.798 625.396H594.498V666.696H635.798V625.396Z" fill="#DFE9ED"/>
<path d="M635.798 666.697H594.498V707.997H635.798V666.697Z" fill="#DFE9ED"/>
<path d="M635.798 707.987H594.498V749.287H635.798V707.987Z" fill="#DFE9ED"/>
<path d="M594.507 501.507H553.207V542.807H594.507V501.507Z" fill="#DFE9ED"/>
<path d="M594.507 542.807H553.207V584.107H594.507V542.807Z" fill="#DFE9ED"/>
<path d="M594.507 584.097H553.207V625.397H594.507V584.097Z" fill="#DFE9ED"/>
<path d="M594.507 625.396H553.207V666.696H594.507V625.396Z" fill="#DFE9ED"/>
<path d="M594.507 666.697H553.207V707.997H594.507V666.697Z" fill="#DFE9ED"/>
<path d="M594.507 707.987H553.207V749.287H594.507V707.987Z" fill="#DFE9ED"/>
<path d="M553.208 501.507H511.908V542.807H553.208V501.507Z" fill="#DFE9ED"/>
<path d="M553.208 542.807H511.908V584.107H553.208V542.807Z" fill="#DFE9ED"/>
<path d="M553.208 584.097H511.908V625.397H553.208V584.097Z" fill="#DFE9ED"/>
<path d="M553.208 625.396H511.908V666.696H553.208V625.396Z" fill="#DFE9ED"/>
<path d="M553.208 666.697H511.908V707.997H553.208V666.697Z" fill="#DFE9ED"/>
<path d="M553.208 707.987H511.908V749.287H553.208V707.987Z" fill="#DFE9ED"/>
<path d="M511.917 501.507H470.617V542.807H511.917V501.507Z" fill="#DFE9ED"/>
<path d="M511.917 542.807H470.617V584.107H511.917V542.807Z" fill="#DFE9ED"/>
<path d="M511.917 584.097H470.617V625.397H511.917V584.097Z" fill="#DFE9ED"/>
<path d="M511.917 625.396H470.617V666.696H511.917V625.396Z" fill="#DFE9ED"/>
<path d="M511.917 666.697H470.617V707.997H511.917V666.697Z" fill="#DFE9ED"/>
<path d="M511.917 707.987H470.617V749.287H511.917V707.987Z" fill="#DFE9ED"/>
<path d="M470.618 501.507H429.318V542.807H470.618V501.507Z" fill="#DFE9ED"/>
<path d="M470.618 542.807H429.318V584.107H470.618V542.807Z" fill="#DFE9ED"/>
<path d="M470.618 584.097H429.318V625.397H470.618V584.097Z" fill="#DFE9ED"/>
<path d="M470.618 625.396H429.318V666.696H470.618V625.396Z" fill="#DFE9ED"/>
<path d="M470.618 666.697H429.318V707.997H470.618V666.697Z" fill="#DFE9ED"/>
<path d="M470.618 707.987H429.318V749.287H470.618V707.987Z" fill="#DFE9ED"/>
<path d="M429.318 501.507H388.018V542.807H429.318V501.507Z" fill="#DFE9ED"/>
<path d="M429.318 542.807H388.018V584.107H429.318V542.807Z" fill="#DFE9ED"/>
<path d="M429.318 584.097H388.018V625.397H429.318V584.097Z" fill="#DFE9ED"/>
<path d="M429.318 625.396H388.018V666.696H429.318V625.396Z" fill="#DFE9ED"/>
<path d="M429.318 666.697H388.018V707.997H429.318V666.697Z" fill="#DFE9ED"/>
<path d="M429.318 707.987H388.018V749.287H429.318V707.987Z" fill="#DFE9ED"/>
</g>
<path d="M545.568 664.616L520.818 652.026C511.718 647.786 493.488 655.136 488.468 666.046C481.938 680.256 484.078 694.616 489.778 698.686C490.288 699.056 493.478 701.186 494.078 701.356L517.008 714.086L545.568 664.616Z" fill="url(#paint0_linear_2587_19019)"/>
<path d="M547.169 698.523C555.055 684.863 554.338 669.684 545.566 664.62C536.794 659.555 523.29 666.523 515.403 680.183C507.516 693.843 508.234 709.023 517.006 714.087C525.778 719.151 539.282 712.183 547.169 698.523Z" fill="#353644"/>
<path d="M538.208 677.556C536.928 676.816 535.428 676.616 533.858 676.876C535.118 680.256 534.488 685.146 531.868 689.686C529.248 694.226 525.328 697.216 521.768 697.816C522.328 699.306 523.248 700.506 524.528 701.246C528.728 703.676 535.198 700.336 538.978 693.786C542.758 687.236 542.408 679.976 538.208 677.546V677.556Z" fill="#A5B1C4"/>
<path d="M531.869 689.697C534.489 685.157 535.119 680.267 533.859 676.887C530.299 677.487 526.379 680.477 523.759 685.017C521.139 689.557 520.509 694.447 521.769 697.827C525.329 697.227 529.249 694.237 531.869 689.697Z" fill="#DFE9ED"/>
<path d="M716.238 565.847L691.488 553.257C682.388 549.017 664.158 556.367 659.138 567.277C652.608 581.487 654.748 595.847 660.448 599.917C660.958 600.287 664.148 602.417 664.748 602.587L687.678 615.317L716.238 565.847Z" fill="url(#paint1_linear_2587_19019)"/>
<path d="M717.841 599.763C725.727 586.103 725.01 570.923 716.238 565.859C707.466 560.794 693.962 567.763 686.075 581.423C678.188 595.083 678.906 610.262 687.678 615.326C696.45 620.391 709.954 613.423 717.841 599.763Z" fill="#353644"/>
<path d="M708.878 578.787C707.598 578.047 706.097 577.847 704.527 578.107C705.787 581.487 705.157 586.377 702.537 590.917C699.917 595.457 695.997 598.447 692.438 599.047C692.998 600.537 693.918 601.737 695.198 602.477C699.398 604.907 705.867 601.566 709.647 595.016C713.427 588.466 713.078 581.207 708.878 578.777V578.787Z" fill="#A5B1C4"/>
<path d="M702.539 590.917C705.159 586.377 705.789 581.487 704.529 578.107C700.969 578.707 697.049 581.697 694.429 586.237C691.809 590.777 691.179 595.667 692.439 599.047C695.999 598.447 699.919 595.457 702.539 590.917Z" fill="#DFE9ED"/>
<path d="M459.478 616.067L434.728 603.477C425.628 599.237 407.398 606.587 402.378 617.497C395.848 631.707 397.988 646.067 403.688 650.137C404.198 650.507 407.388 652.637 407.988 652.807L430.918 665.537L459.478 616.067Z" fill="url(#paint2_linear_2587_19019)"/>
<path d="M461.073 649.983C468.96 636.323 468.242 621.144 459.47 616.08C450.698 611.015 437.194 617.983 429.307 631.643C421.421 645.303 422.138 660.483 430.91 665.547C439.682 670.611 453.187 663.643 461.073 649.983Z" fill="#353644"/>
<path d="M452.118 629.006C450.838 628.266 449.338 628.066 447.768 628.326C449.028 631.706 448.398 636.596 445.778 641.136C443.158 645.676 439.238 648.666 435.678 649.266C436.238 650.756 437.158 651.956 438.438 652.696C442.638 655.126 449.108 651.786 452.888 645.236C456.668 638.686 456.318 631.426 452.118 628.996V629.006Z" fill="#A5B1C4"/>
<path d="M445.767 641.136C448.387 636.596 449.017 631.706 447.757 628.326C444.197 628.926 440.277 631.916 437.657 636.456C435.037 640.996 434.407 645.886 435.667 649.266C439.227 648.666 443.147 645.676 445.767 641.136Z" fill="#DFE9ED"/>
<mask id="mask1_2587_19019" style="mask-type:luminance" maskUnits="userSpaceOnUse" x="410" y="137" width="300" height="532">
<path d="M694.888 192.647H694.878L680.647 184.437L666.438 176.217L652.208 168.007L637.987 159.797H637.977L623.758 151.587L609.537 143.377L606.677 141.727L602.467 139.297C598.037 136.737 592.587 136.737 588.157 139.297L581.097 143.377L591.367 153.917L591.487 154.587L595.318 168.017L581.097 176.217L573.277 180.737L552.647 176.227L541.537 166.247L538.438 168.007L524.208 176.227L509.977 184.437L495.757 192.647L481.537 200.857L492.517 210.937L495.757 225.487H495.747L481.537 233.697H481.527L467.318 241.917L453.098 233.707L438.878 225.497L424.647 233.697L416.577 238.357C412.777 240.547 410.438 244.607 410.438 248.997V603.207L424.647 611.417L438.878 619.627L453.098 627.837L467.318 636.047H467.327L481.527 644.257H481.537L495.757 652.467L509.977 660.677L509.987 660.687L524.208 668.887L538.417 660.687H538.438L552.647 652.467L566.878 644.257L581.087 636.047H581.097L595.318 627.837L609.527 619.627H609.537L623.747 611.417H623.758L637.977 603.207L652.208 594.997L666.438 586.777L680.647 578.567L694.878 570.357C703.677 565.277 709.097 555.887 709.097 545.727V208.637C709.097 203.817 706.527 199.357 702.347 196.947L694.888 192.637V192.647ZM495.757 636.057H495.747L495.757 636.047V636.057ZM538.438 611.427H538.417L538.438 611.407V611.427ZM538.438 200.867H538.417L538.438 200.847V200.867ZM595.318 562.157L595.328 562.147H595.318V562.157ZM609.537 603.217H609.527L609.537 603.207V603.217ZM623.758 299.397H623.747L623.758 299.387V299.397ZM666.438 274.767H666.417L666.438 274.747V274.767Z" fill="white"/>
</mask>
<g mask="url(#mask1_2587_19019)">
<path d="M579.518 193.556L566.878 200.856L552.648 209.066L551.168 209.916L538.438 217.276H538.428L524.208 225.486V225.496L509.978 233.706L495.758 241.916L481.538 250.126H481.528L467.318 258.336L453.098 266.546V282.966V282.977V299.386V299.396V315.436V315.806V315.816V332.236V348.656V364.526V365.076V381.507V397.926V413.746V414.346V430.766V430.776V447.197V462.826V463.606V463.616V480.036V496.456V496.466V511.917V512.876V512.886V529.307V545.727V545.737V561.186L467.308 552.977L481.528 544.766L495.758 536.557V536.547L509.978 528.336L524.198 520.126L538.428 511.917V512.107L552.648 503.896L566.868 495.686L581.098 487.477V471.836V471.826V455.406V438.977V438.206V422.566V422.556V406.136V389.716V389.706V389.126V373.296V356.876V356.866V340.447V340.036V324.026V307.606V291.176V290.816V274.757V258.336V241.916V241.906V241.736V225.496V225.486V209.076V209.066V192.646L579.518 193.556Z" fill="#CECDAE"/>
<path d="M680.648 545.727V562.147V562.157V578.567L694.878 570.357L709.098 562.147V545.737V545.727V529.307L694.878 537.517L680.648 545.727Z" fill="#353644"/>
<path d="M680.648 215.136V218.956V233.696V250.126V266.536V266.546V282.966V282.976V299.386V315.816V332.236V348.656V365.086V381.496V381.506V397.926V414.346V430.766V430.776V447.186V447.196V463.616V480.036V480.046V496.456V512.886V529.296V529.306V545.726L694.878 537.516L709.098 529.306V512.876V496.466V496.456V480.036V463.616V463.606V447.196V430.776V430.766V414.346V397.936V397.926V381.506V365.076V348.666V348.656V332.236V315.816V315.806V299.396V282.966V266.546V250.116V233.706V217.276V200.856L694.878 209.066L680.648 215.136Z" fill="#CECDAE"/>
<path d="M680.647 529.296V480.046V447.196V430.776V381.506V282.976V266.546V214.586L666.427 209.076L652.197 200.856V217.276V299.386V332.236V381.496V381.506V430.766V430.776V447.186V480.036V529.296V529.306L666.417 537.506L680.637 545.726V529.306L680.647 529.296ZM666.437 274.746V274.766H666.427L666.437 274.746Z" fill="#EAEACC"/>
<path d="M666.438 586.777L680.648 578.567V562.157V545.727L666.428 553.937L652.198 562.147L637.978 570.357L623.758 578.567L609.538 586.777L609.528 586.787L595.308 594.997L581.088 603.207L566.868 611.417L552.648 619.627V636.047V652.467L566.868 644.257L581.078 636.047H581.088L595.308 627.837L609.528 619.627H609.538L623.748 611.417H623.758L637.978 603.207L652.198 594.997L666.428 586.777H666.438Z" fill="#CECDAE"/>
<path d="M591.487 154.587L595.317 168.017L609.537 176.227H609.547L623.767 184.437L637.987 192.647L652.207 200.857L666.437 209.067L670.027 211.147L674.587 213.777C678.347 215.947 682.977 215.947 686.727 213.777L694.877 209.077L709.097 200.867L694.887 192.657H694.877L680.657 184.447L666.437 176.227L652.217 168.017L638.007 159.807H637.997L623.777 151.597L609.557 143.387L595.337 135.177H595.327L581.107 143.387L591.387 153.927L591.497 154.597L591.487 154.587Z" fill="#FFFFF8"/>
<path d="M595.328 184.437H595.318V200.857V250.117V299.387V348.657V365.077H595.328L595.318 365.087V397.917V414.347V447.187H595.328L595.318 447.197V463.617V496.457H595.328L609.548 504.667L623.768 512.877V315.817V299.397H623.758L623.768 299.387V250.127V184.437L609.548 176.227H609.538L595.318 168.017V184.427H595.328V184.437Z" fill="#EAEACC"/>
<path d="M552.648 636.047V619.637V619.627L538.438 627.837L524.208 630.027L509.988 627.837L495.768 619.627V636.047V652.467L509.988 660.677L509.998 660.687L515.898 664.097C521.038 667.067 527.368 667.067 532.508 664.097L538.418 660.687H538.428L552.638 652.467V636.057L552.648 636.047Z" fill="#353644"/>
<path d="M509.987 611.417L524.207 603.206L538.437 594.996L552.647 586.786L566.877 578.576L581.097 570.367L595.317 562.156V562.146H595.327L609.537 553.936L623.757 545.727L637.977 537.516H637.987L652.207 529.307V529.297V512.886V496.456V480.046V480.036V463.616V447.197V447.186V430.776V430.766V414.346V397.926V381.507V381.496V365.086V348.656V332.246V332.236V315.816V299.396V299.386V282.966V266.546V250.126V233.696V217.286V217.276V200.856L637.977 192.646V209.066V225.486V225.496V241.906V241.916V258.336V274.757V291.176V307.606V324.026V340.447V340.456V356.866V356.876V373.286V373.296V389.716V406.136V422.556V438.977V438.986V455.406V471.826V488.246V488.257V504.667V504.676V521.086V521.096L623.757 529.307L609.537 537.516L595.327 545.727H595.317L581.097 553.936L566.877 562.146L552.647 570.357V570.367L538.437 578.566V578.576L524.207 586.786L509.977 594.996L495.757 603.206L481.537 611.417L495.757 619.626L509.977 611.417H509.987Z" fill="#53576B"/>
<path d="M524.207 209.067L538.417 200.857L538.437 200.847L552.647 192.647V192.637L573.277 180.747L552.647 176.227L541.537 166.247L538.437 168.007L524.207 176.227L509.977 184.437L495.757 192.647L481.537 200.857L492.517 210.937L495.757 225.487L509.977 217.277L524.207 209.067Z" fill="#FFFFF8"/>
<path d="M509.978 594.996L524.208 586.787L538.438 578.577V578.566L552.648 570.367V570.357L566.878 562.147L581.098 553.936L595.318 545.727H595.328L609.538 537.517L623.758 529.307L637.978 521.097V521.087V504.677V504.667V488.257V488.247V471.827V455.407V438.987V438.977V422.557V406.137V389.717V373.297V373.287V356.877V356.867V340.457V340.447V324.027V307.607V291.177V274.757V258.337V241.917V241.907V225.497V225.487V209.067V192.647L623.758 184.437V200.857V217.277V233.707V250.117V250.127V266.547V282.967V299.387V299.397V315.807V315.817V332.237V348.667V365.077V381.507V397.927V414.347V430.767V447.197V463.617V480.037V496.467V512.876L609.538 521.087V521.097L595.318 529.307L581.098 537.517L566.878 545.727L552.648 553.936L538.438 562.147V562.157H538.418L524.208 570.357L509.978 578.566V578.577L495.758 586.777V586.787H495.748L481.538 594.987V594.996L467.318 603.207L481.538 611.417L495.758 603.207L509.978 594.996Z" fill="#A5B1C4"/>
<path d="M495.747 636.047H495.757V619.627L481.537 611.417L467.317 603.207L453.107 594.997H453.097L438.877 586.787V603.207V619.627L453.097 627.837L467.317 636.047H467.327L481.527 644.257H481.537L495.757 652.467V636.057L495.747 636.047Z" fill="#EAEACC"/>
<path d="M481.537 594.987L495.747 586.787H495.757L509.977 578.577L524.197 570.357L538.417 562.157H538.427L552.637 553.937L566.857 545.727L581.077 537.517L595.297 529.307L609.527 521.097L623.747 512.877L609.527 504.677L595.307 496.457H595.297L581.077 504.667L566.857 512.887L552.637 521.087L538.417 529.307L524.187 537.517L509.967 545.727L495.747 553.937L481.527 562.147H481.517L467.297 570.367L453.077 578.567L438.857 586.787L453.077 594.997H453.087L467.297 603.207L481.527 594.997L481.537 594.987Z" fill="#FFFFF8"/>
<path d="M453.097 578.567L467.317 570.367L481.537 562.147H481.547L495.767 553.937L509.987 545.727L524.207 537.517L538.437 529.307L552.657 521.097L566.877 512.887L581.097 504.677L595.317 496.467V463.627V447.197V414.357V397.927V365.087V348.667V299.397V250.127V200.867V184.437V168.017L581.097 176.217L566.877 184.437L552.657 192.637V192.647L538.447 200.847V200.867H538.437L524.217 209.067L509.997 217.277L495.777 225.487H495.767L481.557 233.697H481.547L467.327 241.917L453.107 250.127L438.887 255.917V373.287V455.397V521.087V586.787L453.107 578.577L453.097 578.567ZM453.097 561.187V545.737V512.887V496.467V463.617V430.777V315.817V299.397V282.977V266.547L467.317 258.337L481.537 250.127H481.547L495.757 241.917L509.977 233.707L524.197 225.497L538.417 217.277L551.147 209.917L552.627 209.067L566.847 200.857L579.497 193.557L581.067 192.647V209.067V225.487V241.907V356.867V389.707V422.557V471.827V488.247L566.847 496.457L552.627 504.667L538.417 512.877L524.187 521.087L509.967 529.307L495.747 537.517H495.737L481.527 545.727H481.517L467.297 553.937L453.077 562.147V561.187H453.097Z" fill="#CECDAE"/>
<path d="M438.878 619.627V586.787L424.658 578.577L410.438 570.367V586.777V594.017C410.438 599.707 413.467 604.957 418.397 607.797L424.658 611.417L438.878 619.627Z" fill="#353644"/>
<path d="M424.647 578.577L438.878 586.787V570.357V553.947V537.517V521.097V521.087V504.677V488.247V471.827V455.407V455.397V438.987V422.557V406.137V389.717V373.297V373.287V356.867V340.447V324.027V307.597V291.187V274.757V254.507L424.647 250.127L410.438 241.917V258.337V274.757V274.767V291.177V307.607V324.017V324.027V340.447V356.867V356.877V373.287V373.297V389.707V389.717V406.137V422.557V422.567V438.977V455.407V471.827V488.247V488.257V504.667V504.677V521.097V537.507V537.527V553.937V570.367L424.647 578.567V578.577Z" fill="#EAEACC"/>
<path d="M433.908 255.477C436.978 257.247 440.757 257.247 443.827 255.477L453.087 250.127L467.307 241.917L453.087 233.707L438.867 225.497L424.647 233.697V233.707L410.438 241.907L424.658 250.127L433.917 255.477H433.908Z" fill="#FFFFF8"/>
<path d="M630.867 231.276V247.696V264.116L642.087 270.606C643.417 271.376 645.087 270.416 645.087 268.876V255.916V240.636C645.087 239.926 644.707 239.266 644.087 238.906L630.867 231.276Z" fill="#A5B1C4"/>
<path d="M630.867 322.827V339.247V355.667L642.087 362.157C643.417 362.927 645.087 361.967 645.087 360.427V347.467V332.187C645.087 331.477 644.707 330.817 644.087 330.457L630.867 322.827Z" fill="#A5B1C4"/>
<path d="M630.867 414.387V430.807V447.227L642.087 453.717C643.417 454.487 645.087 453.527 645.087 451.987V439.027V423.747C645.087 423.037 644.707 422.377 644.087 422.017L630.867 414.387Z" fill="#A5B1C4"/>
<path d="M573.207 548.997L558.987 557.207L544.767 565.417L530.547 573.627L543.767 581.257C544.387 581.617 545.147 581.617 545.767 581.257L558.987 573.627L573.207 565.417L584.437 558.937C585.767 558.167 585.767 556.237 584.437 555.477L573.207 548.997Z" fill="#A5B1C4"/>
<path d="M666.437 537.507L652.217 529.307L638.007 537.517H637.997L623.777 545.727L609.557 553.937L595.337 562.147H595.327L581.107 570.367L566.887 578.577L552.667 586.787L538.447 594.997L524.217 603.207L510.007 611.417H509.997L495.777 619.627L509.997 627.837L515.507 631.017C520.897 634.127 527.547 634.127 532.937 631.017L538.447 627.837L552.657 619.627L566.877 611.417L581.097 603.207L595.317 594.997L609.537 586.787H609.547L623.767 578.577L637.987 570.357L652.207 562.147L666.437 553.937L680.657 545.727L666.437 537.517V537.507Z" fill="#FFFFF8"/>
</g>
<path d="M552.649 145.247V110.537L538.439 114.727L538.469 135.837L552.649 145.247Z" fill="#A5B1C4"/>
<path d="M524.209 126.957L538.439 125.837V113.547L524.209 110.537V126.957Z" fill="#DFE9ED"/>
<path d="M524.209 176.227L538.439 168.007V151.587V135.177L524.209 143.377V143.387V159.797V176.227Z" fill="#DFE9ED"/>
<path d="M480.437 166.366V149.946L466.217 153.086V175.136L480.437 166.366Z" fill="#A5B1C4"/>
<path d="M467.318 176.226V176.216V150.696L465.988 151.086L453.098 151.586V168.006V168.016V184.436V200.856L467.318 192.646V176.226Z" fill="#DFE9ED"/>
<mask id="mask2_2587_19019" style="mask-type:luminance" maskUnits="userSpaceOnUse" x="438" y="63" width="115" height="97">
<path d="M538.439 69.4767L530.939 65.1467C526.779 62.7467 521.649 62.7467 517.489 65.1467L509.999 69.4767L495.779 77.6867L481.559 85.8967H481.549L467.329 94.1167L453.109 102.317L444.579 107.247C441.059 109.277 438.889 113.037 438.889 117.107V119.787C438.889 124.217 441.259 128.317 445.089 130.537H445.099C450.049 133.407 453.109 138.687 453.109 144.407V146.687V151.577L467.329 159.787L481.559 151.587V118.737L495.779 110.527L509.999 102.317L516.279 98.6967L520.029 96.5267C521.889 95.4467 524.219 96.7867 524.229 98.9467V102.137V106.467V110.537L538.459 118.747L552.679 110.537V94.1167V83.7267C552.679 79.9867 550.689 76.5367 547.449 74.6667L538.459 69.4767H538.439ZM467.319 126.967V126.947H467.329L467.319 126.967Z" fill="white"/>
</mask>
<g mask="url(#mask2_2587_19019)">
<path d="M538.438 83.4165L528.888 80.3965C525.988 78.7265 522.428 78.7265 519.528 80.3965L509.998 85.8965H509.988L495.768 94.1065L481.548 102.317L481.538 102.327L467.328 110.537L481.548 118.747L495.768 110.537L509.988 102.327L516.268 98.7065L520.478 96.2665C522.138 95.3065 524.218 96.5065 524.218 98.4265V106.467V110.537L531.548 114.767C535.818 117.227 541.078 117.227 545.348 114.767L552.668 110.537V94.1165V77.6865L538.448 83.4165H538.438Z" fill="#353644"/>
<path d="M467.329 123.616V126.966L467.319 123.616L453.099 118.746L438.879 110.536V126.956L446.659 131.446C450.639 133.746 453.099 137.996 453.099 142.596V151.586L458.549 154.356L460.369 155.486C464.649 158.146 470.049 158.226 474.409 155.716L481.549 151.596V118.746L467.329 123.616Z" fill="#353644"/>
<path d="M538.439 69.4766L524.209 61.2666L509.989 69.4766L495.769 77.6866L481.549 85.8966H481.539L467.319 94.1166L453.099 102.317L438.879 110.537L453.099 118.747L458.689 122.137L464.199 125.207C466.139 126.287 468.509 126.277 470.429 125.157L481.549 118.737L474.789 114.827L472.749 113.657L470.099 112.117C468.879 111.417 468.899 109.647 470.139 108.977L476.989 105.227L481.549 102.317H481.559L495.779 94.1066L509.999 85.8966L510.009 85.8866L519.439 80.4466C522.399 78.7366 526.049 78.7366 529.009 80.4466L535.599 84.2466C537.359 85.2666 539.539 85.2666 541.299 84.2466L550.579 78.8866L552.669 77.6766L538.449 69.4666L538.439 69.4766Z" fill="#53576B"/>
</g>
<path d="M541.539 166.247L539.979 167.137L538.439 168.007L524.209 176.227L517.009 180.387L509.979 184.437L495.759 192.647L481.539 200.857" stroke="#C1BF93" stroke-width="3" stroke-miterlimit="10"/>
<path d="M438.877 225.497L431.857 229.547L424.657 233.697V233.707L416.587 238.357C414.687 239.457 413.147 241.027 412.087 242.867C411.027 244.697 410.447 246.807 410.447 248.997V594.167C410.497 599.797 413.517 604.977 418.397 607.797L424.657 611.417L431.857 615.577L438.877 619.627L453.097 627.837L467.317 636.047H467.327L474.427 640.147L481.527 644.247H481.537L495.757 652.457L509.977 660.667V660.677L515.877 664.087C521.017 667.047 527.337 667.057 532.477 664.087L538.397 660.677H538.407V660.667L552.617 652.457L559.817 648.297L566.837 644.247L581.047 636.037H581.057L595.277 627.827L602.387 623.727L609.487 619.617H609.497L623.707 611.407H623.717L637.937 603.197L644.967 599.147L652.167 594.987L666.397 586.767L680.607 578.557L687.807 574.397L694.827 570.347L694.897 570.307C703.617 565.247 708.997 555.947 709.047 545.867V545.727V496.457V463.607V430.767V397.927V348.657V315.807V208.487C709.017 206.127 708.387 203.867 707.247 201.887C706.097 199.887 704.427 198.187 702.367 196.987L694.837 192.647H694.827L687.807 188.587L680.607 184.437L673.507 180.327L666.397 176.227L659.197 172.067L652.177 168.017L644.987 163.857L637.967 159.807H637.957L623.737 151.597L609.517 143.387L606.657 141.737L602.447 139.307C598.017 136.747 592.567 136.747 588.137 139.307L581.077 143.387" stroke="#C1BF93" stroke-width="3" stroke-miterlimit="10"/>
<mask id="mask3_2587_19019" style="mask-type:luminance" maskUnits="userSpaceOnUse" x="438" y="120" width="158" height="122">
<path d="M581.099 143.377L572.299 138.297C568.939 136.357 564.809 136.357 561.449 138.297L552.649 143.377V134.117C552.649 129.687 550.289 125.597 546.449 123.377L545.289 122.707C541.049 120.257 535.819 120.257 531.579 122.707L524.209 126.957L509.999 135.167H509.989L495.769 143.377L481.549 151.587L474.159 155.867C469.929 158.307 467.319 162.817 467.319 167.707V176.227V192.657L453.099 200.867L447.509 204.097C442.169 207.177 438.879 212.877 438.879 219.037V225.497L453.099 233.717L467.319 241.927L481.539 233.707H481.549L495.759 225.497H495.769V216.487C495.769 211.897 493.319 207.657 489.349 205.367L481.549 200.867V184.447V171.647C481.549 169.407 482.739 167.337 484.679 166.217L495.769 159.817L509.989 151.607L509.999 151.597L524.209 143.397V143.387L535.319 136.977C536.699 136.177 538.429 137.177 538.429 138.767V165.187C538.429 166.947 539.369 168.567 540.889 169.447L552.649 176.237L562.219 181.757C565.099 183.417 568.649 183.417 571.519 181.757L581.089 176.237L595.309 168.027V161.037C595.309 155.197 592.189 149.797 587.129 146.877L581.089 143.387L581.099 143.377ZM467.319 225.497L467.329 225.487H467.319V225.497Z" fill="white"/>
</mask>
<g mask="url(#mask3_2587_19019)">
<path d="M538.439 168.017L552.649 176.227L566.879 184.437L581.099 176.227V176.217L595.319 168.017V151.597L581.099 159.807L566.889 168.007H566.879L552.649 159.797L538.439 151.587V168.007V168.017Z" fill="#353644"/>
<path d="M467.319 241.916L481.529 233.696H481.539L495.749 225.486H495.759V209.066L481.539 217.276V217.286H481.529L467.329 225.486L467.319 225.496V225.486L453.099 217.276L438.879 209.066V225.486V225.496L453.099 233.706L467.319 241.916Z" fill="#353644"/>
<path d="M467.319 225.487H467.329L481.539 217.287H481.549L495.769 209.067L481.549 200.857V184.437V171.637C481.549 169.397 482.739 167.327 484.679 166.207L495.769 159.807L509.989 151.597L509.999 151.587L524.209 143.387V143.377L535.319 136.967C536.699 136.167 538.429 137.167 538.429 138.757V151.587L552.649 159.797L566.869 168.007H566.879L581.089 159.807L595.309 151.597L581.089 143.377L566.869 135.167L552.649 143.377V134.117C552.649 129.687 550.289 125.597 546.449 123.377L545.289 122.707C541.049 120.257 535.819 120.257 531.579 122.707L524.209 126.957L509.999 135.167H509.989L495.769 143.377L481.549 151.587L474.159 155.867C469.929 158.307 467.319 162.817 467.319 167.707V176.227V192.657L453.099 200.867L438.879 209.077L453.099 217.287L467.319 225.497V225.487Z" fill="#53576B"/>
</g>
<path d="M465.729 204.587L456.929 209.657C456.269 210.037 456.269 210.997 456.929 211.387L463.179 214.997C464.749 215.907 466.689 215.907 468.269 214.997L476.009 210.527L465.729 204.587Z" fill="#A5B1C4"/>
<path d="M568.228 143.176L559.738 148.076L570.028 154.016L578.148 149.326C579.108 148.776 579.108 147.386 578.148 146.836L571.818 143.176C570.708 142.536 569.338 142.536 568.228 143.176Z" fill="#A5B1C4"/>
<path d="M142.539 241.157V257.547L156.899 249.257L171.259 240.967L185.629 232.677V232.847V232.867V249.257V249.267V265.837V265.847V282.227L199.989 273.937L214.349 265.647L228.719 257.357V241.157V240.967V224.567V224.387V224.377V208.167V207.977L243.079 199.687L257.439 191.397L270.919 183.627V168.337H270.929L270.919 168.327V151.757V135.177L256.559 143.467L242.209 151.747H242.199V151.757L228.719 159.537V174.807V174.817V175.007V191.397V191.587V207.797L214.349 216.087L199.989 224.377L185.629 232.667V216.277V216.267V199.697V199.687V184.407L184.749 184.917L170.389 193.207L156.029 201.507V201.517H156.019L142.539 209.287V224.567V241.157Z" fill="#C6A76F"/>
<path d="M185.629 199.697V216.267V216.277V232.667L199.989 224.377L214.349 216.087L228.719 207.797V191.587V191.397V175.007V174.817V174.807V159.537L227.839 160.047L213.479 168.337L199.109 176.627L185.629 184.407V199.687V199.697Z" fill="#C6A76F"/>
<path d="M243.079 199.687L228.719 207.977V208.167V224.377V224.387V224.567V240.967V241.157V257.357L214.349 265.647L199.989 273.937L185.629 282.227V265.847V265.837V249.267V249.257V232.867V232.847V232.677L171.259 240.967L156.899 249.257L142.539 257.547V257.737V274.137V290.717V307.117L156.899 298.827L171.259 290.527L185.629 282.237V282.417V282.427V298.827V298.837V315.407V315.417V331.987L199.989 323.697L214.349 315.407L228.719 307.117V307.107V290.717V290.527V274.137V273.947V273.937V257.737V257.547L243.079 249.257L257.439 240.967L270.919 233.187V218.097V201.507V184.927V184.917V183.627L257.439 191.397L243.079 199.687Z" fill="#C6A76F"/>
<path d="M185.629 315.406V298.836V298.826V282.426V282.416V282.236L171.259 290.526L156.899 298.826L142.539 307.116V307.296V323.706V340.286V356.866L156.899 348.576L171.259 340.286L185.629 331.996V331.986V315.416V315.406Z" fill="#C6A76F"/>
<path d="M243.079 249.257L228.719 257.547V257.737V273.937V273.947V274.137V290.527V290.717V307.107V307.117V307.297L243.079 299.007L257.439 290.717L270.919 282.947V267.837V251.257V234.677V234.667V233.187L257.439 240.967L243.079 249.257Z" fill="#C6A76F"/>
<path d="M128.518 233.706V266.546V282.966V299.386V381.506L142.738 373.296L156.958 365.076H156.968L171.178 356.866H171.188L185.408 348.656L199.628 340.446L213.848 332.236H213.858L228.068 324.026H228.078L242.298 315.816L256.508 307.606L270.728 299.396L284.948 291.176H284.958V274.766V241.916V209.076V159.806V143.386V110.536H284.948L270.738 118.746H270.728L256.508 126.956L242.288 135.166L228.068 143.376L213.848 151.586L199.618 159.806L185.398 168.016L171.178 176.226L156.958 184.436H156.948L142.728 192.646L128.508 196.586V233.706H128.518ZM142.738 209.076L142.748 209.066L143.618 208.566L156.958 200.866H156.968L171.188 192.646L185.408 184.436L186.288 183.926L199.628 176.226L213.858 168.016L228.078 159.806L228.958 159.296L242.298 151.596L242.308 151.586L256.518 143.386L270.738 135.176V168.006H270.748L270.738 168.016V184.436V233.696V282.966L256.518 291.186L242.298 299.396L228.078 307.606L213.858 315.816L199.628 324.026L185.408 332.236L171.188 340.446L156.968 348.656L156.958 348.666L142.748 356.866H142.738V307.606V258.346V209.076Z" fill="#C6A76F"/>
<path d="M284.969 143.376V159.796V209.066V241.906V274.756V291.176L299.189 299.386L313.409 307.606L327.629 315.816H327.639L341.859 324.026L356.079 332.236L370.299 340.446V291.186V274.766V241.916V225.496V209.076V176.226V154.806L356.079 151.596H356.069L341.859 143.386V192.646V225.486L338.339 236.136L327.629 233.706L315.519 223.696L315.299 221.546L313.409 209.076V126.956L299.189 118.746L284.969 110.536V143.376ZM341.859 258.346H341.849L341.859 258.326V258.346Z" fill="#E8CEA0"/>
<mask id="mask4_2587_19019" style="mask-type:luminance" maskUnits="userSpaceOnUse" x="118" y="613" width="277" height="187">
<path d="M262.038 613.217L118.398 750.397L213.848 799.037L394.478 697.427L262.038 613.217Z" fill="white"/>
</mask>
<g mask="url(#mask4_2587_19019)">
<path d="M429.628 584.097H388.328V625.397H429.628V584.097Z" fill="#DFE9ED"/>
<path d="M429.628 625.396H388.328V666.696H429.628V625.396Z" fill="#DFE9ED"/>
<path d="M429.628 666.696H388.328V707.996H429.628V666.696Z" fill="#DFE9ED"/>
<path d="M429.628 707.986H388.328V749.286H429.628V707.986Z" fill="#DFE9ED"/>
<path d="M429.628 749.287H388.328V790.587H429.628V749.287Z" fill="#DFE9ED"/>
<path d="M429.628 790.587H388.328V831.887H429.628V790.587Z" fill="#DFE9ED"/>
<path d="M388.337 584.097H347.037V625.397H388.337V584.097Z" fill="#DFE9ED"/>
<path d="M388.337 625.396H347.037V666.696H388.337V625.396Z" fill="#DFE9ED"/>
<path d="M388.337 666.696H347.037V707.996H388.337V666.696Z" fill="#DFE9ED"/>
<path d="M388.337 707.986H347.037V749.286H388.337V707.986Z" fill="#DFE9ED"/>
<path d="M388.337 749.287H347.037V790.587H388.337V749.287Z" fill="#DFE9ED"/>
<path d="M388.337 790.587H347.037V831.887H388.337V790.587Z" fill="#DFE9ED"/>
<path d="M347.038 584.097H305.738V625.397H347.038V584.097Z" fill="#DFE9ED"/>
<path d="M347.038 625.396H305.738V666.696H347.038V625.396Z" fill="#DFE9ED"/>
<path d="M347.038 666.696H305.738V707.996H347.038V666.696Z" fill="#DFE9ED"/>
<path d="M347.038 707.986H305.738V749.286H347.038V707.986Z" fill="#DFE9ED"/>
<path d="M347.038 749.287H305.738V790.587H347.038V749.287Z" fill="#DFE9ED"/>
<path d="M347.038 790.587H305.738V831.887H347.038V790.587Z" fill="#DFE9ED"/>
<path d="M305.737 584.097H264.438V625.397H305.737V584.097Z" fill="#DFE9ED"/>
<path d="M305.737 625.396H264.438V666.696H305.737V625.396Z" fill="#DFE9ED"/>
<path d="M305.737 666.696H264.438V707.996H305.737V666.696Z" fill="#DFE9ED"/>
<path d="M305.737 707.986H264.438V749.286H305.737V707.986Z" fill="#DFE9ED"/>
<path d="M305.737 749.287H264.438V790.587H305.737V749.287Z" fill="#DFE9ED"/>
<path d="M305.737 790.587H264.438V831.887H305.737V790.587Z" fill="#DFE9ED"/>
<path d="M264.448 584.097H223.148V625.397H264.448V584.097Z" fill="#DFE9ED"/>
<path d="M264.448 625.396H223.148V666.696H264.448V625.396Z" fill="#DFE9ED"/>
<path d="M264.448 666.696H223.148V707.996H264.448V666.696Z" fill="#DFE9ED"/>
<path d="M264.448 707.986H223.148V749.286H264.448V707.986Z" fill="#DFE9ED"/>
<path d="M264.448 749.287H223.148V790.587H264.448V749.287Z" fill="#DFE9ED"/>
<path d="M264.448 790.587H223.148V831.887H264.448V790.587Z" fill="#DFE9ED"/>
<path d="M223.148 584.097H181.848V625.397H223.148V584.097Z" fill="#DFE9ED"/>
<path d="M223.148 625.396H181.848V666.696H223.148V625.396Z" fill="#DFE9ED"/>
<path d="M223.148 666.696H181.848V707.996H223.148V666.696Z" fill="#DFE9ED"/>
<path d="M223.148 707.986H181.848V749.286H223.148V707.986Z" fill="#DFE9ED"/>
<path d="M223.148 749.287H181.848V790.587H223.148V749.287Z" fill="#DFE9ED"/>
<path d="M223.148 790.587H181.848V831.887H223.148V790.587Z" fill="#DFE9ED"/>
<path d="M181.847 584.097H140.547V625.397H181.847V584.097Z" fill="#DFE9ED"/>
<path d="M181.847 625.396H140.547V666.696H181.847V625.396Z" fill="#DFE9ED"/>
<path d="M181.847 666.696H140.547V707.996H181.847V666.696Z" fill="#DFE9ED"/>
<path d="M181.847 707.986H140.547V749.286H181.847V707.986Z" fill="#DFE9ED"/>
<path d="M181.847 749.287H140.547V790.587H181.847V749.287Z" fill="#DFE9ED"/>
<path d="M181.847 790.587H140.547V831.887H181.847V790.587Z" fill="#DFE9ED"/>
<path d="M140.558 584.097H99.2578V625.397H140.558V584.097Z" fill="#DFE9ED"/>
<path d="M140.558 625.396H99.2578V666.696H140.558V625.396Z" fill="#DFE9ED"/>
<path d="M140.558 666.696H99.2578V707.996H140.558V666.696Z" fill="#DFE9ED"/>
<path d="M140.558 707.986H99.2578V749.286H140.558V707.986Z" fill="#DFE9ED"/>
<path d="M140.558 749.287H99.2578V790.587H140.558V749.287Z" fill="#DFE9ED"/>
<path d="M140.558 790.587H99.2578V831.887H140.558V790.587Z" fill="#DFE9ED"/>
</g>
<path d="M231.699 422.877V388.157L217.479 392.357L217.509 413.467L231.699 422.877Z" fill="#A5B1C4"/>
<path d="M203.248 404.577L217.478 403.467V391.167L203.248 388.157V404.577Z" fill="#DFE9ED"/>
<path d="M203.248 453.847L217.478 445.627V429.207V412.797L203.258 420.997H203.248V421.007V437.417V453.847Z" fill="#DFE9ED"/>
<path d="M159.49 443.986V427.566L145.27 430.706V452.766L159.49 443.986Z" fill="#A5B1C4"/>
<path d="M146.359 453.846V453.836V428.316L145.029 428.706L132.139 429.206V445.626V445.636V462.056V478.476L146.359 470.266V453.846Z" fill="#DFE9ED"/>
<mask id="mask5_2587_19019" style="mask-type:luminance" maskUnits="userSpaceOnUse" x="117" y="340" width="115" height="98">
<path d="M217.478 347.097L209.978 342.767C205.818 340.367 200.688 340.367 196.528 342.767L189.038 347.097L174.818 355.307L160.598 363.517H160.588L146.368 371.737L132.148 379.937L123.618 384.867C120.098 386.897 117.928 390.657 117.928 394.727V397.407C117.928 401.837 120.298 405.937 124.128 408.157H124.138C129.088 411.027 132.148 416.307 132.148 422.027V424.307V429.197L146.368 437.407L160.598 429.207V396.357L174.818 388.147L189.038 379.937L195.318 376.317L199.068 374.147C200.928 373.067 203.258 374.407 203.268 376.567V379.757V384.087V388.157L217.498 396.367L231.718 388.157V371.737V361.347C231.718 357.607 229.728 354.157 226.488 352.287L217.498 347.097H217.478ZM146.358 404.587V404.567H146.368L146.358 404.587Z" fill="white"/>
</mask>
<g mask="url(#mask5_2587_19019)">
<path d="M217.477 361.037L207.927 358.017C205.027 356.347 201.467 356.347 198.567 358.017L189.037 363.517H189.027L174.807 371.727L160.587 379.937L160.577 379.947L146.367 388.157L160.587 396.367L174.807 388.157L189.027 379.947L195.307 376.327L199.517 373.887C201.177 372.927 203.257 374.127 203.257 376.047V384.087V388.157L210.587 392.387C214.857 394.847 220.117 394.847 224.387 392.387L231.707 388.157V371.737V355.307L217.487 361.037H217.477Z" fill="#353644"/>
<path d="M146.368 401.247V404.597L146.358 401.247L132.138 396.377L117.918 388.167V404.587L125.698 409.077C129.678 411.377 132.138 415.627 132.138 420.227V429.217L137.588 431.987L139.408 433.117C143.688 435.777 149.088 435.857 153.448 433.347L160.588 429.227V396.377L146.368 401.247Z" fill="#353644"/>
<path d="M217.478 347.097L203.248 338.887L189.028 347.097L174.808 355.307L160.588 363.517H160.578L146.358 371.737L132.138 379.937L117.918 388.157L132.138 396.367L137.728 399.757L143.238 402.827C145.178 403.907 147.548 403.897 149.468 402.777L160.588 396.357L153.828 392.447L151.788 391.277L149.138 389.737C147.918 389.037 147.938 387.267 149.178 386.597L156.028 382.847L160.588 379.937H160.598L174.818 371.727L189.038 363.517L189.048 363.507L198.478 358.067C201.438 356.357 205.088 356.357 208.048 358.067L214.638 361.867C216.398 362.887 218.578 362.887 220.338 361.867L229.618 356.507L231.708 355.297L217.488 347.087L217.478 347.097Z" fill="#53576B"/>
</g>
<path d="M146.968 700.927L122.218 688.337C113.118 684.097 94.8884 691.447 89.8684 702.357C83.3384 716.567 85.4784 730.927 91.1784 734.997C91.6884 735.367 94.8784 737.497 95.4784 737.667L118.408 750.397L146.968 700.927Z" fill="url(#paint3_linear_2587_19019)"/>
<path d="M148.559 734.83C156.446 721.17 155.728 705.991 146.957 700.926C138.185 695.862 124.68 702.83 116.794 716.49C108.907 730.15 109.625 745.329 118.397 750.394C127.168 755.458 140.673 748.49 148.559 734.83Z" fill="#353644"/>
<path d="M139.608 713.857C138.328 713.117 136.828 712.917 135.258 713.177C136.518 716.557 135.888 721.447 133.268 725.987C130.648 730.527 126.728 733.517 123.168 734.117C123.728 735.607 124.648 736.807 125.928 737.547C130.128 739.977 136.598 736.637 140.378 730.087C144.158 723.537 143.808 716.277 139.608 713.847V713.857Z" fill="#A5B1C4"/>
<path d="M133.269 725.997C135.889 721.457 136.519 716.567 135.259 713.187C131.699 713.787 127.779 716.777 125.159 721.317C122.539 725.857 121.909 730.747 123.169 734.127C126.729 733.527 130.649 730.537 133.269 725.997Z" fill="#DFE9ED"/>
<path d="M235.218 747.937L210.468 735.347C201.368 731.107 183.138 738.457 178.118 749.367C171.588 763.577 173.728 777.937 179.428 782.007C179.938 782.377 183.128 784.507 183.728 784.677L206.658 797.407L235.218 747.937Z" fill="url(#paint4_linear_2587_19019)"/>
<path d="M236.808 781.838C244.694 768.178 243.977 752.999 235.205 747.934C226.433 742.87 212.928 749.838 205.042 763.498C197.155 777.158 197.873 792.337 206.645 797.401C215.417 802.466 228.921 795.498 236.808 781.838Z" fill="#353644"/>
<path d="M227.858 760.867C226.578 760.127 225.078 759.927 223.508 760.187C224.768 763.567 224.138 768.457 221.518 772.997C218.898 777.537 214.978 780.527 211.418 781.127C211.978 782.617 212.898 783.817 214.178 784.557C218.378 786.987 224.848 783.647 228.628 777.097C232.408 770.547 232.058 763.287 227.858 760.857V760.867Z" fill="#A5B1C4"/>
<path d="M221.519 773.006C224.139 768.466 224.769 763.576 223.509 760.196C219.949 760.796 216.029 763.786 213.409 768.326C210.789 772.866 210.159 777.756 211.419 781.136C214.979 780.536 218.899 777.546 221.519 773.006Z" fill="#DFE9ED"/>
<path d="M405.558 649.897L380.808 637.307C371.708 633.067 353.478 640.417 348.458 651.327C341.928 665.537 344.068 679.897 349.768 683.967C350.278 684.337 353.468 686.467 354.068 686.637L376.998 699.367L405.558 649.897Z" fill="url(#paint5_linear_2587_19019)"/>
<path d="M407.157 683.801C415.044 670.141 414.326 654.961 405.554 649.897C396.782 644.833 383.278 651.801 375.391 665.461C367.505 679.121 368.222 694.3 376.994 699.364C385.766 704.429 399.271 697.461 407.157 683.801Z" fill="#353644"/>
<path d="M398.198 662.827C396.918 662.087 395.418 661.887 393.848 662.147C395.108 665.527 394.478 670.417 391.858 674.957C389.238 679.497 385.318 682.487 381.758 683.087C382.318 684.577 383.238 685.777 384.518 686.517C388.718 688.947 395.188 685.607 398.968 679.057C402.748 672.507 402.398 665.247 398.198 662.817V662.827Z" fill="#A5B1C4"/>
<path d="M391.859 674.966C394.479 670.426 395.109 665.536 393.849 662.156C390.289 662.756 386.369 665.746 383.749 670.286C381.129 674.826 380.499 679.716 381.759 683.096C385.319 682.496 389.239 679.506 391.859 674.966Z" fill="#DFE9ED"/>
<mask id="mask6_2587_19019" style="mask-type:luminance" maskUnits="userSpaceOnUse" x="100" y="77" width="299" height="384">
<path d="M384.528 135.167H384.518L370.308 126.957H370.298L356.078 118.747L341.858 110.537L327.638 102.327H327.628L313.418 94.1065H313.408L299.188 85.8965L284.968 77.6865L278.038 81.6965L275.008 83.4465L282.188 93.3965L279.748 94.8065L270.748 102.327L257.238 105.547L245.308 100.507L242.308 102.327L228.088 110.537L213.868 118.747L199.648 126.957H199.638L185.428 135.167H185.418L171.198 143.387L169.868 157.137L167.978 158.577L167.538 160.507L156.988 168.007L156.978 168.017L142.648 172.917L128.538 168.017L114.318 176.227H114.308L110.518 178.417C104.068 182.137 100.098 189.017 100.098 196.467V200.857V217.277V266.547V282.967V299.387V348.657V365.077V385.517C100.098 393.197 104.198 400.287 110.838 404.127L114.318 406.137L128.538 414.347L142.758 422.557H142.768L156.988 430.767L165.648 435.777L171.208 438.987L185.428 447.197H185.438L194.088 452.197L199.648 455.407L201.358 456.397L204.338 458.117C210.238 461.527 217.518 461.527 223.418 458.117L228.088 455.417H228.098L242.318 447.197L256.538 438.987L270.758 430.777H270.768L284.978 422.567H284.988L299.208 414.347L304.758 411.137L313.428 406.127L327.648 397.917L333.198 394.717L341.878 389.707L356.098 381.497L370.318 373.287L384.538 365.077L387.058 363.617L391.218 361.207C395.888 358.507 398.758 353.527 398.758 348.137V324.017V307.587V274.747V241.897V225.477V209.057V192.627V159.787V152.387C398.758 146.807 395.768 141.647 390.928 138.877L386.318 136.227L384.548 135.147L384.528 135.167ZM370.298 176.217V209.067V225.487V241.907V274.757V291.177V340.447L356.078 348.667L341.858 356.877L327.638 365.087H327.628L313.418 373.297H313.408L299.188 381.507L284.968 389.717L270.748 397.927H270.738L256.518 406.147L242.308 414.357H242.298L228.078 422.567L213.858 424.317L199.628 422.567L185.408 414.357L171.188 406.147L156.968 397.937L156.958 397.927L142.738 389.717L128.518 381.507V299.397V282.977V266.557V198.627C131.008 198.627 133.498 197.987 135.728 196.697L142.738 192.647L156.958 184.437H156.968L171.188 176.227L185.408 168.017L199.628 159.807L213.858 151.587L228.078 143.377L242.298 135.177L256.518 126.957L270.738 118.747H270.748L284.958 110.537H284.968L299.188 118.747L313.408 126.957L327.628 135.167L341.858 143.387L356.068 151.597H356.078L360.848 154.357C363.768 156.047 367.028 156.887 370.298 156.887V176.217Z" fill="white"/>
</mask>
<g mask="url(#mask6_2587_19019)">
<path d="M384.517 151.597L370.297 155.697V176.217V176.227V192.647V209.067V209.077V225.487V225.497V241.907V241.917V258.337V274.757V274.767V291.177V291.187V307.607V324.027V340.447V340.457L356.077 348.667L341.857 356.877L327.637 365.087H327.627L313.417 373.297H313.407L299.187 381.507L284.967 389.717L270.747 397.927L270.737 397.937L256.517 406.147L242.307 414.357H242.297L228.077 422.567L213.857 424.317V447.187V447.197V463.617L228.057 455.417L228.077 455.407L242.297 447.197L256.517 438.987L270.727 430.777H270.737V430.767L270.747 430.777L284.957 422.567H284.967V422.557L299.187 414.347L304.737 411.137L313.407 406.137L327.627 397.927L333.177 394.727L341.857 389.717L356.077 381.507L370.297 373.297L384.517 365.087L398.737 356.877V356.867V340.447V324.037V324.027V307.607V307.597V291.187V274.767V274.757V258.337V241.917V241.907V225.497V225.487V209.077V209.067V192.647V192.637V176.227V159.807V159.797V143.387L384.517 151.587V151.597Z" fill="#C6A76F"/>
<path d="M100.078 381.507V397.927L114.298 406.137L128.518 414.347L142.738 422.557H142.748L156.968 430.767L165.628 435.777L171.188 438.987L185.408 447.197H185.418L194.068 452.197L199.628 455.407L208.298 460.407L213.858 463.617V447.197V424.317L199.628 422.567L185.408 414.357L171.188 406.147L156.968 397.937L156.958 397.927L142.738 389.717L128.518 381.507V299.397V282.977V266.557V195.027L114.298 192.647L100.078 184.437V200.857V217.277V266.547V282.967V299.387V348.657V365.077V381.507Z" fill="#E8CEA0"/>
<path d="M114.298 192.646L121.308 196.696C125.768 199.266 131.258 199.266 135.718 196.696L142.728 192.646L156.948 184.436H156.958L171.178 176.226L185.398 168.016L199.618 159.806L213.848 151.586L228.068 143.376L242.288 135.176L256.508 126.956L270.728 118.746H270.738L284.948 110.536H284.958L299.178 118.746L313.398 126.956L327.618 135.166L341.848 143.386L356.058 151.596H356.068L360.838 154.356C366.688 157.736 373.888 157.736 379.728 154.356L384.498 151.596L398.718 143.386L384.508 135.166H384.498L370.288 126.956H370.278L356.058 118.746L341.838 110.536L327.618 102.326H327.608L313.398 94.1063H313.388L299.168 85.8963L291.878 81.6863C287.588 79.2063 282.308 79.2163 278.018 81.6863L274.988 83.4363L282.168 93.3863L279.728 94.7963L270.728 102.316L257.218 105.536L245.288 100.496L242.288 102.316L228.068 110.526L213.848 118.736L199.628 126.946H199.618L185.408 135.156H185.398L171.178 143.376L169.848 157.126L167.958 158.566L167.518 160.496L156.968 167.996L156.958 168.006L142.628 172.906L128.518 168.006L114.298 176.216H114.288L100.078 184.426L114.298 192.636V192.646Z" fill="#F2E8C4"/>
</g>
<path d="M199.629 465.966L185.409 474.176H185.399L185.389 474.186V490.416V490.426V506.836V506.846V523.066L199.609 514.856L213.829 506.646L228.059 498.436V482.386V482.206V465.966V465.786V465.776V455.966L213.859 464.166L208.299 460.966L199.629 465.966Z" fill="#DFE9ED"/>
<path d="M228.058 465.786V465.966V482.206V482.386V498.436L213.828 506.646L199.608 514.856L185.388 523.066V506.846V506.836V490.426V490.416V474.186L171.188 482.386L156.968 490.596H156.958L142.738 498.806V515.226V515.236V531.656V547.706L156.938 539.496L171.158 531.286L185.388 523.076V523.256V523.266V539.496V539.506V555.916V555.926V572.156L199.608 563.946L213.828 555.736L228.058 547.526V531.476V531.286V515.056V514.866V514.856V498.806V498.626L242.278 490.416L256.498 482.206L270.728 473.996V457.756V441.336V441.326V431.336L256.518 439.536L242.298 447.746L228.078 455.956L228.058 455.966V465.776V465.786Z" fill="#DFE9ED"/>
<path d="M171.158 629.646L185.388 621.436V621.426V605.016V605.006V588.596V588.586V572.346V572.336V572.166L171.158 580.376L156.938 588.586L142.738 596.786V597.346V613.756V613.766V630.186V630.196V646.056L156.938 637.856L171.158 629.646Z" fill="#DFE9ED"/>
<path d="M242.279 539.496L228.059 547.706V547.896V563.946V563.956V564.136V580.376V580.556V596.786V596.796V596.976L242.279 588.766L256.499 580.556L270.729 572.346V572.336V555.926V539.506V539.496V523.266V523.256V523.076L256.499 531.286L242.279 539.496Z" fill="#DFE9ED"/>
<path d="M171.158 580.376L185.388 572.166V572.336V572.346V588.586V588.596V605.006V605.016V621.426L199.608 613.216L213.828 605.006L228.058 596.796V596.786V580.556V580.376V564.136V563.956V563.946V547.896V547.706L242.278 539.496L256.498 531.286L270.728 523.076V506.846V490.426V490.416V474.176V474.166V473.996L256.498 482.206L242.278 490.416L228.058 498.626V498.806V514.856V514.866V515.056V531.286V531.476V547.526L213.828 555.736L199.608 563.946L185.388 572.156V555.926V555.916V539.506V539.496V523.266V523.256V523.076L171.158 531.286L156.938 539.496L142.738 547.706V548.076V564.496V564.506V580.916V596.786L156.938 588.586L171.158 580.376Z" fill="#DFE9ED"/>
<path d="M284.969 432.577V448.987V465.407V481.837V514.677V580.367L299.189 588.587L313.409 596.797V580.377V514.687V498.267V448.997V416.147L304.739 411.137L299.189 414.347L284.969 422.557V432.567V432.577ZM299.189 440.787H299.179L299.189 440.777V440.787Z" fill="#DFE9ED"/>
<path d="M356.078 440.776L341.848 432.566V448.986V498.256V531.096V563.946V596.786V613.216H341.858L356.068 621.426H356.078L370.298 629.636V596.796V514.686V498.266V443.916L356.078 440.786V440.776Z" fill="#DFE9ED"/>
<path d="M356.068 621.427L341.858 613.217H341.848L327.638 621.427H327.628L313.408 629.637L299.188 637.857L284.968 646.057L270.748 654.277H270.738L256.518 662.487L242.308 670.697H242.298L228.078 678.907L213.858 687.117H213.848L199.638 695.327H199.628L185.418 703.537L199.628 711.747L204.788 714.727C210.398 717.967 217.298 717.967 222.908 714.727L224.358 713.897L228.078 711.747L242.298 703.537L256.518 695.327L270.738 687.117H270.748L284.958 678.907H284.968L299.188 670.697L313.408 662.487L327.628 654.277L341.848 646.067L356.078 637.847L370.298 629.637L356.078 621.427H356.068Z" fill="#FFFFF8"/>
<path d="M270.738 397.937L270.748 397.927H270.738V397.937Z" fill="#5FF25F"/>
<path d="M242.299 414.357H242.309L242.299 414.347V414.357Z" fill="#5FF25F"/>
<path d="M199.629 438.987H199.639L199.629 438.977V438.987Z" fill="#5FF25F"/>
<path d="M199.628 695.326H199.638L213.848 687.126V687.116H213.857L228.077 678.906L242.298 670.696H242.308L256.518 662.486L270.738 654.276H270.748L284.968 646.066V646.056L299.188 637.856L313.408 629.646V629.636L327.628 621.436V621.426H327.637L341.848 613.226V613.216V596.796V596.786V580.366V563.956V563.946V547.526V531.106V531.096V514.686V498.266V498.256V481.836V465.416V448.996V448.986V432.566L327.628 424.356V440.776V457.206V473.626V490.046V506.476V522.886V522.896V539.316V555.736V572.156H327.637L327.628 572.166V588.576V605.006L313.408 613.216L299.188 621.426L284.968 629.636L270.748 637.846H270.738V637.856L256.518 646.056V646.066L242.298 654.276L228.077 662.476V662.486L213.857 670.696H213.848L199.628 678.906L185.418 687.116H185.408L171.188 695.326L185.408 703.536H185.418L199.628 695.336V695.326Z" fill="#353644"/>
<path d="M185.408 430.777H185.418L185.408 430.767V430.777Z" fill="#5FF25F"/>
<path d="M185.419 687.117L199.629 678.906L213.849 670.696H213.859L228.079 662.487V662.477L242.299 654.276L256.519 646.066V646.057L270.739 637.857V637.846H270.749L284.969 629.636L299.189 621.427L313.409 613.216L327.629 605.006V588.576V572.167V572.156V555.737V539.316V522.896V522.886V506.477V490.046V473.626V457.206V440.776V424.356L313.409 416.146V432.566V448.986V448.996V465.417V481.836V498.257V498.266V514.677V514.686V531.107V547.526V563.946V580.367V580.376V596.786V596.797L299.189 604.996V605.006L284.969 613.206V613.216H284.959L270.739 621.427L256.519 629.636L242.299 637.846L228.079 646.057V646.066L228.069 646.057L213.859 654.266H213.849V654.276L199.629 662.477V662.487L185.409 670.686V670.696L171.189 678.896V678.906L156.969 687.107V687.117L171.189 695.326L185.409 687.117H185.419Z" fill="#A5B1C4"/>
<path d="M171.188 678.906L185.408 670.696L199.628 662.486L213.848 654.276L213.858 654.266L228.068 646.056H228.078L242.298 637.846L256.518 629.636L270.738 621.426L284.958 613.216H284.968L299.188 605.006L313.408 596.796L299.188 588.586L284.968 580.376L270.748 588.586H270.738L256.518 596.796L242.298 605.006L228.078 613.216L213.858 621.426H213.848L199.628 629.636L185.418 637.846H185.408L171.188 646.056L156.968 654.266L142.748 662.486H142.738L128.518 670.696L142.738 678.906H142.748L156.958 687.116H156.968L171.188 678.906Z" fill="#FFFFF8"/>
<path d="M142.738 662.476L142.748 662.486L156.968 654.276V654.266L171.188 646.056L185.408 637.856V637.846H185.418L199.628 629.646V629.636L213.848 621.436V621.426H213.858L228.078 613.216L242.298 605.006L256.518 596.796L270.738 588.586V588.576L270.748 588.586L284.968 580.376V580.366V563.946V547.526V531.106V514.686H284.958L284.968 514.676V498.256V481.846V481.836V465.416V465.406V448.996V448.986V432.576V432.566V422.566H284.958L270.748 430.776L270.738 430.766V430.776V440.776L270.748 440.786H270.738V457.196V457.206V473.626V490.046V490.056V506.466V522.896V539.306V539.316V555.736V555.746V572.156L256.518 580.366L242.298 588.576L228.078 596.786V596.796H228.068L213.848 604.996V605.006L199.628 613.216L185.408 621.426H185.398L171.188 629.636L156.968 637.846H156.958L142.738 646.056V645.506V629.646V629.636V613.216V613.206V596.796V596.236V580.366V563.956V563.946V547.526V547.146V531.106V514.686V514.676V498.256L156.958 490.046H156.968L171.188 481.836L185.388 473.626H185.398H185.408L199.628 465.416L208.298 460.406L199.628 455.406L194.068 452.196L185.408 457.196V457.206H185.398L171.188 465.406V465.416H171.178L156.968 473.616V473.626L156.958 473.616L142.738 481.836L128.518 485.916V506.466V522.896V539.316V555.736V572.156V572.166V588.576V588.586V604.996V605.006V621.426V637.846V637.856V654.266V654.276V670.696L142.738 662.486V662.476Z" fill="#DFE9ED"/>
<path d="M327.629 151.586V200.856V233.706L334.189 237.486C337.599 239.456 341.859 236.996 341.859 233.056V225.496V192.656V143.386L327.629 135.166V151.586Z" fill="#353644"/>
<path d="M313.408 159.806V209.066V221.146C313.408 223.836 314.848 226.326 317.178 227.676L327.628 233.706V200.866V151.596V135.166L313.408 126.956V159.806Z" fill="#A5B1C4"/>
<path d="M320.527 164.636V181.056V197.476L331.747 203.966C333.077 204.736 334.747 203.776 334.747 202.236V189.276V173.996C334.747 173.286 334.367 172.626 333.747 172.266L320.527 164.636Z" fill="#A5B1C4"/>
<path d="M320.529 458.687V475.107V491.527L331.749 498.017C333.079 498.787 334.749 497.827 334.749 496.287V483.327V468.047C334.749 467.337 334.369 466.677 333.749 466.317L320.529 458.687Z" fill="#A5B1C4"/>
<path d="M320.529 535.937V552.357V568.777L331.749 575.267C333.079 576.037 334.749 575.077 334.749 573.537V560.577V545.297C334.749 544.587 334.369 543.927 333.749 543.567L320.529 535.937Z" fill="#A5B1C4"/>
<path d="M271.728 629.797L257.508 638.007L243.288 646.217L229.068 654.427L242.288 662.057C242.908 662.417 243.668 662.417 244.288 662.057L257.508 654.427L271.728 646.217L282.958 639.737C284.288 638.967 284.288 637.037 282.958 636.277L271.728 629.797Z" fill="#A5B1C4"/>
<mask id="mask7_2587_19019" style="mask-type:luminance" maskUnits="userSpaceOnUse" x="100" y="394" width="299" height="356">
<path d="M384.518 424.367L370.298 416.147H370.288L356.078 407.937H356.068L341.848 399.727L333.178 394.727L327.628 397.927L313.408 406.137L304.738 411.147L313.408 416.157L327.628 424.367L341.848 432.577L356.078 440.787L360.538 443.367C363.558 445.107 366.928 445.977 370.298 445.977V498.267V514.687V596.797V629.647L356.078 637.857L341.848 646.067L327.628 654.287L313.408 662.487L299.188 670.707L284.968 678.917H284.958L270.748 687.127H270.738L256.518 695.337L242.298 703.547L228.078 711.757L213.858 714.447V719.967L213.848 714.447L199.628 711.757L185.418 703.547H185.408L171.188 695.337L156.968 687.127H156.958L142.748 678.917H142.738L128.518 670.707V654.287V637.867V605.017V588.597V572.177V488.147C130.658 488.147 132.788 487.597 134.698 486.487L142.738 481.847L156.958 473.627H156.968L171.178 465.427H171.188L185.398 457.217H185.408L194.068 452.207L185.418 447.207H185.408L171.188 438.997L165.628 435.787L156.968 440.787L156.958 440.797L142.738 449.007L128.518 457.207L114.298 465.427H114.288L108.638 468.697C103.338 471.757 100.078 477.407 100.078 483.517V506.477V522.897V555.737V572.167V588.587V605.007V670.697V673.987C100.078 682.117 104.408 689.627 111.448 693.697L111.788 693.897L114.298 695.347L128.508 703.547L142.728 711.767L156.948 719.977H156.958L171.168 728.187H171.178L185.388 736.397H185.398L199.618 744.607L204.258 747.287C210.178 750.707 217.468 750.717 223.398 747.297L226.948 745.247L228.048 744.597H228.058L242.278 736.387L256.498 728.167L270.718 719.957L284.938 711.747H284.948L299.168 703.537L313.378 695.327H313.388L327.608 687.117L341.828 678.907L356.048 670.697H356.058L370.278 662.477L384.498 654.267L388.848 651.757C394.958 648.227 398.718 641.707 398.718 634.657V629.647V613.217V580.377V563.957V514.687V481.847V465.417V448.997V443.497C398.718 436.727 395.108 430.477 389.248 427.097L384.498 424.357L384.518 424.367Z" fill="white"/>
</mask>
<g mask="url(#mask7_2587_19019)">
<path d="M199.628 744.597L213.838 752.807H213.848V736.387V719.967V714.437L199.628 711.747L185.418 703.537H185.408L171.188 695.327L156.968 687.117H156.958L142.748 678.907H142.738L128.518 670.697V654.277V654.267V637.857V637.847V621.427V605.007V604.997V588.587V588.577V572.167V572.157V555.737V539.317V522.897V506.467V484.587L114.298 481.837L100.078 473.627V490.047V506.467V506.477V522.887V522.897V539.317V555.727V555.737V572.157V572.167V588.577V588.587V604.997V605.007V621.427V637.847V654.257V654.277V670.687V670.697V687.117V687.127L114.298 695.337L128.508 703.537H128.518V703.547L142.738 711.757L156.958 719.967H156.968L171.178 728.177H171.188L185.398 736.387H185.408L199.628 744.597Z" fill="#353644"/>
<path d="M356.068 670.696L356.078 670.686L370.298 662.476L384.518 654.266L398.738 646.056V629.646V629.636V613.216V613.206V596.796V580.376V580.366V563.956V563.946V547.526V531.106V514.686V514.676V498.256V481.846V481.836V465.416V465.406V448.996V448.986V432.566L384.518 440.776L370.298 443.916V465.416V481.836V498.256V498.266V514.676V514.686V531.106V547.526V563.946V580.376V596.786V596.796V613.216V629.636L356.078 637.846L341.848 646.056V646.066L327.628 654.276L313.408 662.476V662.486L299.188 670.696L284.968 678.906H284.958L270.748 687.116H270.738L256.518 695.326L242.298 703.536L228.078 711.746L213.858 714.436L213.848 719.956V719.966V736.386V752.806L228.068 744.596L228.078 744.586L242.298 736.386V736.376L256.518 728.166L270.738 719.956L284.958 711.746H284.968L299.188 703.536L313.398 695.326H313.408L327.628 687.116L341.848 678.906V678.896L356.068 670.696Z" fill="#353644"/>
<path d="M384.518 424.367L370.298 416.147H370.288L356.078 407.937H356.068L341.848 399.727L333.178 394.727L327.628 397.927L313.408 406.137L304.738 411.147L313.408 416.157L327.628 424.367L341.848 432.577L356.078 440.787L360.538 443.367C366.578 446.847 374.018 446.847 380.068 443.367L384.528 440.797L398.748 432.587L384.528 424.387L384.518 424.367Z" fill="#53576B"/>
<path d="M156.968 473.616L171.178 465.416H171.188L185.398 457.206H185.408L194.068 452.196L185.418 447.196H185.408L171.188 438.986L165.628 435.776L156.968 440.776L156.958 440.786L142.738 448.996L128.518 457.196L114.298 465.416H114.288L100.078 473.626L114.298 481.836L122.338 486.476C126.168 488.686 130.878 488.686 134.708 486.476L142.748 481.836L156.968 473.616Z" fill="#53576B"/>
</g>
<path d="M341.859 324.027L327.639 315.817H327.629L313.409 307.607L299.189 299.397L284.969 291.187L284.959 291.177L270.739 299.397L256.519 307.607L242.309 315.817L228.089 324.027H228.079L213.869 332.237H213.859L199.639 340.447L185.419 348.657L171.199 356.867H171.189L156.979 365.077H156.969L142.749 373.297L128.529 381.507L142.749 389.717L156.969 397.927H156.979L171.199 406.147L185.419 414.347L199.639 422.567L201.369 423.567C209.099 428.027 218.629 428.027 226.359 423.567L228.089 422.567L242.309 414.357H242.319L256.529 406.147L270.749 397.937L270.759 397.927L284.979 389.717L299.199 381.507L313.419 373.297H313.429L327.639 365.087H327.649L341.869 356.877L356.089 348.667L370.309 340.457L356.089 332.237L341.869 324.027H341.859ZM185.409 397.927H185.419L185.409 397.937V397.927Z" fill="#F2E8C4"/>
<path d="M171.188 143.386L185.408 135.176V135.166H185.418L199.628 126.966V126.956H199.638L213.857 118.756V118.746L228.077 110.536L242.298 102.326L245.298 100.506" stroke="#C6AF8F" stroke-width="3" stroke-miterlimit="10"/>
<path d="M278.038 81.6962C282.328 79.2162 287.608 79.2162 291.898 81.6862L299.188 85.8962L313.408 94.1062H313.418L327.628 102.316L327.638 102.326L341.858 110.526L356.078 118.746L370.298 126.956H370.308L384.518 135.166H384.528L386.298 136.246L390.908 138.896C393.328 140.286 395.288 142.266 396.638 144.596C397.988 146.936 398.738 149.616 398.738 152.406V348.156C398.738 353.546 395.868 358.526 391.198 361.226L387.058 363.626L384.518 365.086L370.298 373.296L356.078 381.506L341.858 389.716L333.178 394.726L327.628 397.926L313.408 406.136L304.738 411.136L299.188 414.346L284.968 422.556L284.958 422.566L270.748 430.776H270.738L256.518 438.986L228.078 455.406H228.068L223.398 458.106C220.448 459.816 217.148 460.666 213.858 460.666C210.568 460.666 207.268 459.816 204.318 458.116L199.628 455.406L194.068 452.196L185.418 447.196H185.408L171.188 438.986L165.628 435.776L156.968 430.776L142.748 422.566H142.738L128.518 414.346L114.298 406.136L110.818 404.126C104.178 400.286 100.078 393.196 100.078 385.516V196.466C100.078 192.746 101.068 189.166 102.868 186.046C104.668 182.936 107.278 180.286 110.498 178.416L114.288 176.236H114.298L128.518 168.016" stroke="#C6AF8F" stroke-width="3" stroke-miterlimit="10"/>
<mask id="mask8_2587_19019" style="mask-type:luminance" maskUnits="userSpaceOnUse" x="128" y="16" width="157" height="159">
<path d="M270.748 69.4764H270.738V21.4064C270.738 20.6764 270.338 19.9964 269.688 19.6564C261.118 15.1064 250.808 15.2864 242.408 20.1464L242.298 20.2064L228.078 28.4164H228.068L213.858 36.6164L199.628 44.8364L185.408 53.0464L171.188 61.2564L156.968 69.4664H156.958L150.608 73.1364C145.738 75.9564 142.738 81.1564 142.738 86.7764V94.0964H142.748L142.738 94.1064V110.516H142.748L142.738 110.536V143.366L135.268 147.686C131.088 150.096 128.518 154.556 128.518 159.376V162.746C128.518 165.996 130.258 169.006 133.068 170.636L137.598 173.246C140.778 175.086 144.698 175.086 147.878 173.246L156.958 168.006H156.968L164.448 163.676L167.438 161.946C169.758 160.606 171.188 158.136 171.188 155.456V105.916C171.188 98.5964 175.088 91.8364 181.428 88.1764L185.408 85.8764L199.628 77.6664L199.638 77.6564L213.858 69.4564L228.078 61.2364L235.258 57.0964C238.388 55.2864 242.298 57.5464 242.298 61.1664V97.0464C242.298 100.296 244.038 103.306 246.848 104.926L251.788 107.776C254.708 109.466 258.308 109.466 261.228 107.776L270.728 102.296L280.068 96.9064C283.088 95.1564 284.958 91.9364 284.958 88.4464V87.8864V85.8764C284.958 80.7864 282.248 76.0864 277.838 73.5464L270.738 69.4464L270.748 69.4764ZM158.848 87.0564C158.848 87.0564 158.848 87.0764 158.838 87.0764L156.958 85.9064L158.858 87.0564H158.848Z" fill="white"/>
</mask>
<g mask="url(#mask8_2587_19019)">
<path d="M270.738 85.8966V85.9066H270.748L284.968 77.6966V77.6866L270.748 69.4766H270.738V69.4866V85.8966Z" fill="#A07F57"/>
<path d="M156.968 135.176V135.166V118.746V102.326L162.928 89.6163L156.958 85.9063L142.738 77.6963V94.1063L142.748 94.1163H142.738V110.526L142.748 110.536L142.738 110.546V126.956V143.376V143.386L156.968 151.596V135.176Z" fill="#77552C"/>
<path d="M158.928 87.0967L161.968 88.8767L171.188 77.6967L185.408 69.4867H185.418L199.628 61.2867L213.858 53.0667L228.078 44.8567L242.298 36.6467L256.518 28.4367L270.738 20.2267L270.628 20.1567C259.368 12.1467 251.138 15.1167 242.408 20.1567L242.298 20.2167L228.078 28.4267H228.068L213.858 36.6267L199.628 44.8467L185.408 53.0567L171.188 61.2667L156.968 69.4767H156.958L142.738 77.6967L156.958 85.9067L158.928 87.0967Z" fill="#A07F57"/>
<path d="M270.748 85.9068H270.738V69.4868V20.2168L256.518 28.4268L242.298 36.6368L228.078 44.8468L213.858 53.0568L199.628 61.2668L185.418 69.4768H185.408L171.188 77.6868L164.108 81.7768C159.688 84.3268 156.968 89.0368 156.968 94.1468V135.167V151.597L144.258 156.067L143.958 153.807L142.728 156.367L128.508 151.607V168.027L142.728 176.237L156.948 168.027H156.958L164.438 163.697L167.428 161.967C169.748 160.627 171.178 158.157 171.178 155.477V102.897C171.178 97.4568 174.078 92.4368 178.788 89.7168L185.398 85.8968L199.618 77.6868L199.628 77.6768L213.848 69.4768L228.068 61.2568L236.198 56.5668C238.908 55.0068 242.288 56.9568 242.288 60.0868V97.0668C242.288 100.317 244.028 103.327 246.838 104.947L251.778 107.797L256.498 110.517L270.718 102.317L284.938 94.1068H284.948V77.6868L270.728 85.8968L270.748 85.9068Z" fill="#77552C"/>
<path d="M152.178 154.357L154.848 152.817L156.958 151.597L142.728 143.387L128.508 151.597L137.498 156.777C140.738 158.647 144.728 158.647 147.968 156.777L152.178 154.357Z" fill="#A07F57"/>
</g>
</g>
<defs>
<linearGradient id="paint0_linear_2587_19019" x1="484.448" y1="682.456" x2="545.568" y2="682.456" gradientUnits="userSpaceOnUse">
<stop stop-color="#53576B"/>
<stop offset="1" stop-color="#777D99"/>
</linearGradient>
<linearGradient id="paint1_linear_2587_19019" x1="655.118" y1="583.677" x2="716.238" y2="583.677" gradientUnits="userSpaceOnUse">
<stop stop-color="#53576B"/>
<stop offset="1" stop-color="#777D99"/>
</linearGradient>
<linearGradient id="paint2_linear_2587_19019" x1="398.358" y1="633.897" x2="459.478" y2="633.897" gradientUnits="userSpaceOnUse">
<stop stop-color="#53576B"/>
<stop offset="1" stop-color="#777D99"/>
</linearGradient>
<linearGradient id="paint3_linear_2587_19019" x1="85.8484" y1="718.757" x2="146.968" y2="718.757" gradientUnits="userSpaceOnUse">
<stop stop-color="#53576B"/>
<stop offset="1" stop-color="#777D99"/>
</linearGradient>
<linearGradient id="paint4_linear_2587_19019" x1="174.098" y1="765.767" x2="235.218" y2="765.767" gradientUnits="userSpaceOnUse">
<stop stop-color="#53576B"/>
<stop offset="1" stop-color="#777D99"/>
</linearGradient>
<linearGradient id="paint5_linear_2587_19019" x1="344.438" y1="667.727" x2="405.558" y2="667.727" gradientUnits="userSpaceOnUse">
<stop stop-color="#53576B"/>
<stop offset="1" stop-color="#777D99"/>
</linearGradient>
<clipPath id="clip0_2587_19019">
<rect width="800" height="800" fill="white" transform="translate(0.427734 0.0263672)"/>
</clipPath>
</defs>
</svg>
