<svg width="801" height="801" viewBox="0 0 801 801" fill="none" xmlns="http://www.w3.org/2000/svg">
<path d="M469.73 666.856L403.45 628.596L152.13 645.906L124.76 689.756L277.93 776.196C283.83 779.526 291.06 779.466 296.91 776.026L469.77 674.296C472.61 672.626 472.6 668.506 469.74 666.856H469.73Z" fill="#DFE9ED"/>
<path d="M387.109 445.755C385.099 445.355 383.139 444.635 381.309 443.575L376.539 440.815H376.529L374.049 439.385L362.319 432.605L355.209 428.495L348.099 424.385L336.359 417.605L333.879 416.175L327.869 412.705L319.659 407.965L305.439 399.755V416.175V424.405L390.769 473.655V490.085L376.549 481.875L362.329 473.665L348.109 465.445L333.879 457.235L319.659 449.035L305.439 440.815V449.015V465.445V481.865V498.285V531.125V563.975V580.395L319.659 588.605L333.879 596.825L348.099 605.035H348.109L362.329 613.245L376.549 621.455L390.769 629.665V580.405V563.985V531.135V514.715V498.295V465.445V446.105C390.359 446.105 389.949 446.095 389.549 446.065C388.739 446.015 387.919 445.905 387.119 445.745L387.109 445.755ZM348.089 440.825L348.099 440.815H348.089V440.825ZM319.649 572.205H319.639L319.649 572.195V572.205ZM362.319 547.575H362.309L362.319 547.555V547.575Z" fill="#EAEACC"/>
<path d="M189.199 400.735V367.885L203.419 359.675L217.639 351.465L223.919 347.845L227.669 345.675C227.669 345.675 227.679 345.675 227.689 345.675L228.129 345.415C229.789 344.455 231.869 345.655 231.869 347.575V348.105V351.285V355.615L231.859 359.685V409.415L260.309 392.995V359.695V343.275V332.885C260.309 331.015 259.809 329.225 258.909 327.655C258.009 326.085 256.699 324.765 255.079 323.825L246.089 318.635L238.589 314.305C234.429 311.905 229.299 311.905 225.139 314.305L217.649 318.635L203.429 326.845L189.209 335.055H189.199L174.979 343.275L160.759 351.475L152.229 356.405C150.469 357.425 149.049 358.875 148.059 360.575C147.079 362.275 146.529 364.235 146.529 366.265V368.945C146.529 373.375 148.889 377.475 152.729 379.695H152.739L154.309 380.595C158.289 382.895 160.749 387.145 160.749 391.745V417.155V450.465L188.659 434.345L189.199 400.745V400.735Z" fill="#53576B"/>
<path d="M177.419 654.305H177.429L191.639 646.095H191.649L205.869 637.885L220.089 629.675L234.309 621.465H234.319L248.529 613.255H248.539L262.758 605.045L276.969 596.835H276.979L291.199 588.625L305.419 580.405H305.429V563.995V531.145V498.305V481.875V465.455V449.035V440.825H305.419V440.845L291.199 449.045L276.979 457.265L262.758 465.465L248.539 473.685L234.309 481.895L220.089 490.105L205.869 498.315L191.649 506.525H191.639L177.419 514.745L163.199 522.945L148.979 531.165V514.735L305.419 424.415H305.429V416.185V399.765H305.419L291.209 407.975H291.199L276.979 416.185L262.758 424.395L248.539 432.605L234.319 440.815L220.089 449.035L205.869 457.245L191.649 465.455L177.429 473.665H177.419L163.199 481.875L156.189 485.925C154.799 486.725 153.299 487.285 151.769 487.585C150.849 487.765 149.919 487.855 148.979 487.855V555.775V572.195V588.615V670.735L163.199 662.525L177.419 654.305ZM205.869 473.665L206.749 473.155L220.089 465.455L234.319 457.245L248.539 449.035L249.419 448.525L262.758 440.825L262.769 440.815L276.979 432.615L291.199 424.405V424.505L277.019 432.695L262.669 440.975H262.659L249.189 448.765L248.299 449.275L233.939 457.565L219.569 465.855L206.099 473.635L205.209 474.145L190.849 482.435L176.489 490.725L176.479 490.735L163.199 498.405V498.305L163.209 498.295L164.079 497.795L177.419 490.095H177.429L191.649 481.875L205.869 473.665ZM234.319 605.045L220.089 613.255L205.869 621.465L191.649 629.675L177.429 637.885L177.419 637.895L163.209 646.095H163.199V645.985L177.369 637.805L191.729 629.515L206.099 621.225L220.459 612.925L234.819 604.635L249.189 596.345V596.465L248.539 596.835L234.319 605.045Z" fill="#CECDAE"/>
<path d="M404.978 440.815L400.208 443.585C397.288 445.275 394.018 446.115 390.758 446.115V465.445V498.295V514.715V531.135V563.985V580.405V629.675L376.538 637.895L362.318 646.105L348.098 654.315H348.088L333.878 662.525H333.868L319.648 670.735L305.428 678.945L291.208 687.155H291.198L276.978 695.375L262.768 703.585H262.758L248.538 711.795L246.808 712.795C242.938 715.025 238.628 716.145 234.318 716.145V736.415V749.895C237.608 749.895 240.908 749.045 243.858 747.335L248.528 744.635H248.538L262.758 736.415L276.978 728.205L291.198 719.995H291.208L305.418 711.785H305.428L319.648 703.565L325.198 700.355L333.868 695.345L348.088 687.135L353.638 683.935L362.318 678.925L376.538 670.715L390.758 662.505L404.978 654.295L407.518 652.835L411.658 650.435C416.328 647.735 419.198 642.755 419.198 637.365V613.245V596.815V563.975V531.125V514.705V498.285V481.855V449.015V441.615C419.198 438.825 418.448 436.135 417.098 433.805L404.978 440.795V440.815Z" fill="#CECDAE"/>
<path d="M234.319 736.414V716.144C230.009 716.144 225.689 715.034 221.819 712.794L220.089 711.794L205.869 703.584L191.649 695.374L177.429 687.164L177.419 687.154L163.199 678.944L148.979 670.734V588.624V572.204V555.784V487.854C146.489 487.854 143.999 487.214 141.769 485.924L134.759 481.874L123.329 475.274C121.529 478.394 120.539 481.974 120.539 485.694V490.084V506.504V555.774V572.194V588.614V637.884V654.304V674.744C120.539 682.424 124.629 689.514 131.279 693.354L134.759 695.364L148.979 703.574L163.199 711.784H163.209L177.429 719.994L186.089 725.004L191.649 728.214L205.869 736.424H205.879L214.529 741.424L220.089 744.634L224.779 747.344C227.729 749.044 231.019 749.894 234.319 749.894V736.424V736.414Z" fill="#EAEACC"/>
<path d="M141.778 485.925C144.008 487.215 146.498 487.855 148.988 487.855C149.918 487.855 150.858 487.765 151.778 487.585C153.308 487.285 154.808 486.735 156.198 485.925L163.208 481.875L177.428 473.665H177.438L191.658 465.455L205.878 457.245L220.098 449.035L234.328 440.815L248.548 432.605L262.768 424.405L276.988 416.185L291.208 407.975H291.218L305.428 399.765H305.438L319.658 407.975L327.868 412.715L333.878 416.185L336.358 417.615L348.098 424.395L355.208 428.505L362.318 432.615L374.048 439.395L376.528 440.825H376.538L381.308 443.585C383.138 444.635 385.098 445.365 387.108 445.765C387.908 445.925 388.728 446.025 389.538 446.085C389.948 446.115 390.348 446.125 390.758 446.125C394.018 446.125 397.278 445.285 400.208 443.595L404.978 440.835L417.098 433.835C415.748 431.505 413.788 429.525 411.368 428.135L406.758 425.485L404.988 424.405H404.978L390.768 416.195H390.758L376.538 407.985L362.318 399.775L348.098 391.565H348.088L333.878 383.345H333.868L319.648 375.135L312.358 370.925C308.068 368.445 302.788 368.455 298.498 370.925L295.468 372.675L260.298 392.975L231.848 409.395L188.648 434.335L160.738 450.455L148.978 457.245L134.758 465.455H134.748L130.958 467.645C127.738 469.505 125.128 472.155 123.328 475.275L134.758 481.875L141.768 485.925H141.778Z" fill="#FFFFF8"/>
<path d="M362.318 613.255L348.099 605.045H348.089L333.869 596.835L319.649 588.625L305.429 580.415L305.419 580.405L291.199 588.625L276.979 596.835H276.969L262.758 605.045L248.539 613.255H248.529L234.319 621.465H234.309L220.089 629.675L205.869 637.885L191.649 646.095H191.639L177.429 654.305H177.419L163.199 662.525L148.979 670.735L163.199 678.945L177.419 687.155H177.429L191.649 695.375L205.869 703.575L220.089 711.795L221.819 712.795C225.689 715.025 229.999 716.145 234.319 716.145C238.629 716.145 242.949 715.025 246.809 712.795L248.539 711.795L262.758 703.585H262.769L276.979 695.375L291.199 687.165L291.209 687.155L305.429 678.945L319.649 670.735L333.869 662.525H333.879L348.089 654.315H348.099L362.318 646.105L376.538 637.895L390.758 629.685L376.538 621.465L362.318 613.255Z" fill="#FFFFF8"/>
<path d="M305.419 424.415L148.979 514.735V531.165L163.199 522.955V522.945L177.419 514.745L191.639 506.525H191.649L205.869 498.315L220.089 490.105L234.309 481.895L248.539 473.685L262.758 465.475V465.465L276.979 457.265L291.199 449.055V449.045L305.419 440.845V440.835V440.825H305.429L319.649 449.035V449.045L333.869 457.245L348.089 465.455L362.309 473.665V473.675H362.318L376.538 481.875V481.885L390.758 490.095V473.675V473.665L305.429 424.415L305.419 424.405V424.415Z" fill="#B7B592"/>
<path d="M362.309 424.405V424.415L362.319 424.405H362.309Z" fill="#B7B592"/>
<path d="M298.499 370.925C302.789 368.445 308.069 368.445 312.359 370.915L319.649 375.125L333.869 383.335H333.879L348.089 391.545L348.099 391.555L362.319 399.755L376.539 407.975L390.759 416.185H390.769L404.979 424.395H404.989L406.759 425.475L411.369 428.125C413.789 429.515 415.749 431.495 417.099 433.825C418.449 436.165 419.199 438.845 419.199 441.635V637.385C419.199 642.775 416.329 647.755 411.659 650.455L407.519 652.855L404.979 654.315L390.759 662.525L376.539 670.735L362.319 678.945L353.639 683.955L348.089 687.155L333.869 695.365L325.199 700.365L319.649 703.575L305.429 711.785L305.419 711.795L291.209 720.005H291.199L276.979 728.215L248.539 744.635H248.529L243.859 747.335C240.909 749.045 237.609 749.895 234.319 749.895C231.029 749.895 227.729 749.045 224.779 747.345L220.089 744.635L214.529 741.425L205.879 736.425H205.869L191.649 728.215L186.089 725.005L177.429 720.005L163.209 711.795H163.199L148.979 703.575L134.759 695.365L131.279 693.355C124.639 689.515 120.539 682.425 120.539 674.745V485.695C120.539 481.975 121.529 478.395 123.329 475.275C125.129 472.165 127.739 469.515 130.959 467.645L134.749 465.465H134.759L148.979 457.245L298.499 370.925Z" stroke="#C1BF93" stroke-width="3" stroke-miterlimit="10"/>
<path d="M291.199 398.026L291.209 398.016H291.199V398.026Z" fill="#5FF25F"/>
<path d="M262.76 414.446H262.77L262.76 414.436V414.446Z" fill="#5FF25F"/>
<path d="M220.09 439.075H220.1L220.09 439.065V439.075Z" fill="#5FF25F"/>
<path d="M205.869 430.865H205.879L205.869 430.855V430.865Z" fill="#5FF25F"/>
<path d="M387.109 156.615C386.309 156.455 385.509 156.245 384.729 155.985C384.339 155.855 383.949 155.705 383.569 155.545C382.799 155.225 382.049 154.855 381.319 154.435L376.549 151.675H376.539L374.059 150.245L362.329 143.465L355.219 139.355L348.109 135.245L336.369 128.465L333.889 127.035L327.879 123.565L319.669 118.825L305.449 110.615V127.035V135.265L390.779 184.515V200.945L376.559 192.735L362.339 184.525L348.119 176.305L333.889 168.095L319.669 159.895L305.449 151.675V159.875V176.305V192.725V209.145V241.985V274.835V291.255L319.669 299.465L333.889 307.685L348.109 315.895H348.119L362.339 324.105L376.559 332.315L390.779 340.525V291.265V274.845V241.995V225.575V209.155V176.305V156.965C390.369 156.965 389.959 156.955 389.559 156.925C388.749 156.875 387.929 156.765 387.129 156.605L387.109 156.615ZM348.089 151.685L348.099 151.675H348.089V151.685ZM319.649 283.065H319.639L319.649 283.055V283.065ZM362.319 258.435H362.309L362.319 258.415V258.435Z" fill="#EAEACC"/>
<path d="M189.199 111.595V78.7452L203.419 70.5352L217.639 62.3252L223.919 58.7052L227.669 56.5352C227.669 56.5352 227.679 56.5352 227.689 56.5352L228.129 56.2752C229.789 55.3152 231.869 56.5152 231.869 58.4352V58.9652V62.1452V66.4752L231.859 70.5452V120.275L260.309 103.855V70.5552V54.1352V43.7452C260.309 41.8752 259.809 40.0852 258.909 38.5152C258.009 36.9452 256.699 35.6252 255.079 34.6852L246.089 29.4952L238.589 25.1652C234.429 22.7652 229.299 22.7652 225.139 25.1652L217.649 29.4952L203.429 37.7052L189.209 45.9152H189.199L174.979 54.1352L160.759 62.3352L152.229 67.2652C150.469 68.2852 149.049 69.7352 148.059 71.4352C147.079 73.1352 146.529 75.0952 146.529 77.1252V79.8052C146.529 84.2352 148.889 88.3352 152.729 90.5552H152.739L154.309 91.4552C158.289 93.7552 160.749 98.0052 160.749 102.605V128.015V161.325L188.659 145.205L189.199 111.605V111.595Z" fill="#53576B"/>
<path d="M177.429 365.165L191.639 356.955H191.649L205.869 348.745L220.089 340.535L234.309 332.325H234.319L248.529 324.115H248.539L262.758 315.905L276.969 307.695H276.979L291.199 299.485L305.419 291.265H305.429V274.855V242.005V209.165V192.735V176.315V159.895V151.685H305.419V151.705L291.199 159.905L276.979 168.125L262.758 176.325L248.539 184.545L234.309 192.755L220.089 200.965L205.869 209.175L191.649 217.385H191.639L177.419 225.605L163.199 233.805L148.979 242.025V225.595L305.419 135.275H305.429V127.045V110.625H305.419L291.209 118.835H291.199L276.979 127.045L262.758 135.255L248.539 143.465L234.319 151.675L220.089 159.895L205.869 168.105L191.649 176.315L177.429 184.525H177.419L163.199 192.735L156.189 196.785C154.519 197.755 152.699 198.355 150.849 198.595C150.229 198.675 149.609 198.715 148.989 198.715V266.635V283.055V299.475V381.595L163.209 373.385L177.429 365.165ZM205.869 184.525L206.749 184.015L220.089 176.315L234.319 168.105L248.539 159.895L249.419 159.385L262.758 151.685L262.769 151.675L276.979 143.475L291.199 135.265V135.365L277.019 143.555L262.669 151.835H262.659L249.189 159.625L248.299 160.135L233.939 168.425L219.569 176.715L206.099 184.495L205.209 185.005L190.849 193.295L176.489 201.585L176.479 201.595L163.199 209.265V209.165L163.209 209.155L164.079 208.655L177.419 200.955H177.429L191.649 192.735L205.869 184.525ZM234.319 315.905L220.089 324.115L205.869 332.325L191.649 340.535L177.429 348.745L177.419 348.755L163.209 356.955H163.199V356.845L177.369 348.665L191.729 340.375L206.099 332.085L220.459 323.785L234.819 315.495L249.189 307.205V307.325L248.539 307.695L234.319 315.905Z" fill="#CECDAE"/>
<path d="M404.978 151.675L400.208 154.445C397.288 156.135 394.018 156.975 390.758 156.975V176.305V209.155V225.575V241.995V274.845V291.265V340.535L376.538 348.755L362.318 356.965L348.098 365.175H348.088L333.878 373.385H333.868L319.648 381.595L305.428 389.805L291.208 398.015H291.198L276.978 406.235L262.768 414.445H262.758L248.538 422.655L246.808 423.655C242.938 425.885 238.628 427.005 234.318 427.005V447.275V460.755C237.608 460.755 240.908 459.905 243.858 458.195L248.528 455.495H248.538L262.758 447.275L276.978 439.065L291.198 430.855H291.208L305.418 422.645H305.428L319.648 414.425L325.198 411.215L333.868 406.205L348.088 397.995L353.638 394.795L362.318 389.785L376.538 381.575L390.758 373.365L404.978 365.155L407.518 363.695L411.658 361.295C416.328 358.595 419.198 353.615 419.198 348.225V324.105V307.675V274.835V241.985V225.565V209.145V192.715V159.875V152.475C419.198 149.685 418.448 146.995 417.098 144.665L404.978 151.655V151.675Z" fill="#CECDAE"/>
<path d="M234.319 447.275V427.005C230.009 427.005 225.689 425.895 221.819 423.655L220.089 422.655L205.869 414.445L191.649 406.235L177.429 398.025L177.419 398.015L163.199 389.805L148.979 381.595V299.485V283.065V266.645V198.715C146.489 198.715 143.999 198.075 141.769 196.785L134.759 192.735L123.329 186.135C121.529 189.255 120.539 192.835 120.539 196.555V200.945V217.365V266.635V283.055V299.475V348.745V365.165V385.605C120.539 393.285 124.639 400.375 131.279 404.215L134.759 406.225L148.979 414.435L163.199 422.645H163.209L177.429 430.855L186.089 435.865L191.649 439.075L205.869 447.285H205.879L214.529 452.285L220.089 455.495L224.779 458.205C227.729 459.905 231.019 460.755 234.319 460.755V447.285V447.275Z" fill="#EAEACC"/>
<path d="M141.779 196.785C144.009 198.075 146.499 198.715 148.989 198.715C149.609 198.715 150.229 198.675 150.849 198.595C152.699 198.355 154.519 197.755 156.189 196.785L163.199 192.735L177.419 184.525H177.429L191.649 176.315L205.869 168.105L220.089 159.895L234.319 151.675L248.539 143.465L262.759 135.265L276.979 127.045L291.199 118.835H291.209L305.419 110.625H305.429L319.649 118.835L327.859 123.575L333.869 127.045L336.349 128.475L348.089 135.255L355.199 139.365L362.309 143.475L374.039 150.255L376.519 151.685H376.529L381.299 154.445C382.029 154.865 382.779 155.235 383.549 155.555C383.929 155.715 384.319 155.855 384.709 155.995C385.489 156.255 386.289 156.465 387.089 156.625C387.889 156.785 388.709 156.885 389.519 156.945C389.929 156.975 390.329 156.985 390.739 156.985C393.999 156.985 397.259 156.145 400.189 154.455L404.959 151.695L417.079 144.695C415.729 142.365 413.769 140.385 411.349 138.995L406.739 136.345L404.969 135.265H404.959L390.749 127.055H390.739L376.519 118.845L362.299 110.635L348.079 102.425H348.069L333.859 94.205H333.849L319.629 85.995L312.339 81.785C308.049 79.305 302.769 79.315 298.479 81.785L295.449 83.535L260.279 103.835L231.829 120.255L188.629 145.195L160.719 161.315L148.959 168.105L134.739 176.315H134.729L130.939 178.505C127.719 180.365 125.109 183.015 123.309 186.135L134.739 192.735L141.749 196.785H141.779Z" fill="#FFFFF8"/>
<path d="M362.318 324.116L348.099 315.906H348.089L333.869 307.696L319.649 299.486L305.429 291.276L305.419 291.266L291.199 299.486L276.979 307.696H276.969L262.758 315.906L248.539 324.116H248.529L234.319 332.326H234.309L220.089 340.536L205.869 348.746L191.649 356.956H191.639L177.429 365.166H177.419L163.199 373.386L148.979 381.596L163.199 389.806L177.419 398.016H177.429L191.649 406.236L205.869 414.436L220.089 422.656L221.819 423.656C225.689 425.886 229.999 427.006 234.319 427.006C238.629 427.006 242.949 425.886 246.809 423.656L248.539 422.656L262.758 414.446H262.769L276.979 406.236L291.199 398.026L291.209 398.016L305.429 389.806L319.649 381.596L333.869 373.386H333.879L348.089 365.176H348.099L362.318 356.966L376.538 348.756L390.758 340.546L376.538 332.326L362.318 324.116Z" fill="#FFFFF8"/>
<path d="M305.419 135.276L148.979 225.596V242.026L163.199 233.816V233.806L177.419 225.606L191.639 217.386H191.649L205.869 209.176L220.089 200.966L234.309 192.756L248.539 184.546L262.758 176.336V176.326L276.979 168.126L291.199 159.916V159.906L305.419 151.706V151.696V151.686H305.429L319.649 159.896V159.906L333.869 168.106L348.089 176.316L362.309 184.526V184.536H362.318L376.538 192.736V192.746L390.758 200.956V184.536V184.526L305.429 135.276L305.419 135.266V135.276Z" fill="#B7B592"/>
<path d="M362.309 135.266V135.276L362.319 135.266H362.309Z" fill="#B7B592"/>
<path d="M298.499 81.7851C302.789 79.3051 308.069 79.3051 312.359 81.7751L319.649 85.9851L333.869 94.1951H333.879L348.089 102.405L348.099 102.415L362.319 110.615L376.539 118.835L390.759 127.045H390.769L404.979 135.255H404.989L406.759 136.335L411.369 138.985C413.789 140.375 415.749 142.355 417.099 144.685C418.449 147.025 419.199 149.705 419.199 152.495V348.245C419.199 353.635 416.329 358.615 411.659 361.315L407.519 363.715L404.979 365.175L390.759 373.385L376.539 381.595L362.319 389.805L353.639 394.815L348.089 398.015L333.869 406.225L325.199 411.225L319.649 414.435L305.429 422.645L305.419 422.655L291.209 430.865H291.199L276.979 439.075L248.539 455.495H248.529L243.859 458.195C240.909 459.905 237.609 460.755 234.319 460.755C231.029 460.755 227.729 459.905 224.779 458.205L220.089 455.495L214.529 452.285L205.879 447.285H205.869L191.649 439.075L186.089 435.865L177.429 430.865L163.209 422.655H163.199L148.979 414.435L134.759 406.225L131.279 404.215C124.639 400.375 120.539 393.285 120.539 385.605V196.555C120.539 192.835 121.529 189.255 123.329 186.135C125.129 183.025 127.739 180.375 130.959 178.505L134.749 176.325H134.759L148.979 168.105L298.499 81.7851Z" stroke="#C1BF93" stroke-width="3" stroke-miterlimit="10"/>
<path d="M773.439 666.856L707.159 628.596L455.839 645.906L428.469 689.756L581.639 776.196C587.539 779.526 594.769 779.466 600.619 776.026L773.479 674.296C776.319 672.626 776.309 668.506 773.449 666.856H773.439Z" fill="#DFE9ED"/>
<path d="M690.818 445.755C688.808 445.355 686.848 444.635 685.018 443.575L680.248 440.815H680.238L677.758 439.385L666.028 432.605L658.918 428.495L651.808 424.385L640.068 417.605L637.588 416.175L631.578 412.705L623.368 407.965L609.148 399.755V416.175V424.405L694.478 473.655V490.085L680.258 481.875L666.038 473.665L651.818 465.445L637.588 457.235L623.368 449.035L609.148 440.815V449.015V465.445V481.865V498.285V531.125V563.975V580.395L623.368 588.605L637.588 596.825L651.808 605.035H651.818L666.038 613.245L680.258 621.455L694.478 629.665V580.405V563.985V531.135V514.715V498.295V465.445V446.105C694.068 446.105 693.658 446.095 693.258 446.065C692.448 446.015 691.628 445.905 690.828 445.745L690.818 445.755ZM651.798 440.825L651.808 440.815H651.798V440.825ZM623.358 572.205H623.348L623.358 572.195V572.205ZM666.028 547.575H666.018L666.028 547.555V547.575Z" fill="#EAEACC"/>
<path d="M492.899 400.735V367.885L507.119 359.675L521.339 351.465L527.618 347.845L531.368 345.675C531.368 345.675 531.379 345.675 531.389 345.675L531.829 345.415C533.489 344.455 535.569 345.655 535.569 347.575V348.105V351.285V355.615L535.559 359.685V409.415L564.009 392.995V359.695V343.275V332.885C564.009 331.015 563.509 329.225 562.609 327.655C561.709 326.085 560.399 324.765 558.779 323.825L549.789 318.635L542.289 314.305C538.129 311.905 532.999 311.905 528.839 314.305L521.349 318.635L507.129 326.845L492.909 335.055H492.899L478.679 343.275L464.459 351.475L455.929 356.405C454.169 357.425 452.749 358.875 451.759 360.575C450.779 362.275 450.229 364.235 450.229 366.265V368.945C450.229 373.375 452.589 377.475 456.429 379.695H456.439L458.009 380.595C461.989 382.895 464.449 387.145 464.449 391.745V417.155V450.465L492.359 434.345L492.899 400.745V400.735Z" fill="#53576B"/>
<path d="M481.128 654.305H481.137L495.348 646.095H495.357L509.577 637.885L523.798 629.675L538.017 621.465H538.027L552.238 613.255H552.247L566.467 605.045L580.677 596.835H580.687L594.908 588.625L609.127 580.405H609.137V563.995V531.145V498.305V481.875V465.455V449.035V440.825H609.127V440.845L594.908 449.045L580.687 457.265L566.467 465.465L552.247 473.685L538.017 481.895L523.798 490.105L509.577 498.315L495.357 506.525H495.348L481.128 514.745L466.908 522.945L452.688 531.165V514.735L609.127 424.415H609.137V416.185V399.765H609.127L594.918 407.975H594.908L580.687 416.185L566.467 424.395L552.247 432.605L538.027 440.815L523.798 449.035L509.577 457.245L495.357 465.455L481.137 473.665H481.128L466.908 481.875L459.897 485.925C458.507 486.725 457.007 487.285 455.477 487.585C454.557 487.765 453.627 487.855 452.688 487.855V555.775V572.195V588.615V670.735L466.908 662.525L481.128 654.305ZM509.577 473.665L510.457 473.155L523.798 465.455L538.027 457.245L552.247 449.035L553.127 448.525L566.467 440.825L566.478 440.815L580.687 432.615L594.908 424.405V424.505L580.728 432.695L566.377 440.975H566.367L552.897 448.765L552.007 449.275L537.647 457.565L523.277 465.855L509.807 473.635L508.917 474.145L494.557 482.435L480.197 490.725L480.188 490.735L466.908 498.405V498.305L466.917 498.295L467.787 497.795L481.128 490.095H481.137L495.357 481.875L509.577 473.665ZM538.027 605.045L523.798 613.255L509.577 621.465L495.357 629.675L481.137 637.885L481.128 637.895L466.917 646.095H466.908V645.985L481.077 637.805L495.438 629.515L509.807 621.225L524.168 612.925L538.527 604.635L552.897 596.345V596.465L552.247 596.835L538.027 605.045Z" fill="#CECDAE"/>
<path d="M708.687 440.815L703.917 443.585C700.997 445.275 697.727 446.115 694.467 446.115V465.445V498.295V514.715V531.135V563.985V580.405V629.675L680.247 637.895L666.027 646.105L651.807 654.315H651.797L637.587 662.525H637.577L623.357 670.735L609.137 678.945L594.917 687.155H594.907L580.687 695.375L566.477 703.585H566.467L552.247 711.795L550.517 712.795C546.647 715.025 542.337 716.145 538.027 716.145V736.415V749.895C541.317 749.895 544.617 749.045 547.567 747.335L552.237 744.635H552.247L566.467 736.415L580.687 728.205L594.907 719.995H594.917L609.127 711.785H609.137L623.357 703.565L628.907 700.355L637.577 695.345L651.797 687.135L657.347 683.935L666.027 678.925L680.247 670.715L694.467 662.505L708.687 654.295L711.227 652.835L715.367 650.435C720.037 647.735 722.907 642.755 722.907 637.365V613.245V596.815V563.975V531.125V514.705V498.285V481.855V449.015V441.615C722.907 438.825 722.157 436.135 720.807 433.805L708.687 440.795V440.815Z" fill="#CECDAE"/>
<path d="M538.028 736.414V716.144C533.718 716.144 529.398 715.034 525.528 712.794L523.798 711.794L509.578 703.584L495.358 695.374L481.138 687.164L481.128 687.154L466.908 678.944L452.688 670.734V588.624V572.204V555.784V487.854C450.198 487.854 447.708 487.214 445.478 485.924L438.468 481.874L427.038 475.274C425.238 478.394 424.248 481.974 424.248 485.694V490.084V506.504V555.774V572.194V588.614V637.884V654.304V674.744C424.248 682.424 428.338 689.514 434.988 693.354L438.468 695.364L452.688 703.574L466.908 711.784H466.918L481.138 719.994L489.798 725.004L495.358 728.214L509.578 736.424H509.588L518.238 741.424L523.798 744.634L528.488 747.344C531.438 749.044 534.728 749.894 538.028 749.894V736.424V736.414Z" fill="#EAEACC"/>
<path d="M445.477 485.925C447.707 487.215 450.197 487.855 452.687 487.855C453.617 487.855 454.557 487.765 455.477 487.585C457.007 487.285 458.507 486.735 459.897 485.925L466.907 481.875L481.127 473.665H481.137L495.357 465.455L509.577 457.245L523.797 449.035L538.027 440.815L552.247 432.605L566.467 424.405L580.687 416.185L594.907 407.975H594.917L609.127 399.765H609.137L623.357 407.975L631.567 412.715L637.577 416.185L640.057 417.615L651.797 424.395L658.907 428.505L666.017 432.615L677.747 439.395L680.227 440.825H680.237L685.007 443.585C686.837 444.635 688.797 445.365 690.807 445.765C691.607 445.925 692.427 446.025 693.237 446.085C693.647 446.115 694.047 446.125 694.457 446.125C697.717 446.125 700.977 445.285 703.907 443.595L708.677 440.835L720.797 433.835C719.447 431.505 717.487 429.525 715.067 428.135L710.457 425.485L708.687 424.405H708.677L694.467 416.195H694.457L680.237 407.985L666.017 399.775L651.797 391.565H651.787L637.577 383.345H637.567L623.347 375.135L616.057 370.925C611.767 368.445 606.487 368.455 602.197 370.925L599.167 372.675L563.997 392.975L535.547 409.395L492.347 434.335L464.437 450.455L452.677 457.245L438.457 465.455H438.447L434.657 467.645C431.437 469.505 428.827 472.155 427.027 475.275L438.457 481.875L445.467 485.925H445.477Z" fill="#FFFFF8"/>
<path d="M666.027 613.255L651.807 605.045H651.798L637.577 596.835L623.358 588.625L609.137 580.415L609.127 580.405L594.908 588.625L580.687 596.835H580.677L566.467 605.045L552.247 613.255H552.238L538.027 621.465H538.017L523.798 629.675L509.577 637.885L495.357 646.095H495.348L481.137 654.305H481.128L466.908 662.525L452.688 670.735L466.908 678.945L481.128 687.155H481.137L495.357 695.375L509.577 703.575L523.798 711.795L525.527 712.795C529.397 715.025 533.707 716.145 538.027 716.145C542.337 716.145 546.657 715.025 550.517 712.795L552.247 711.795L566.467 703.585H566.478L580.687 695.375L594.908 687.165L594.918 687.155L609.137 678.945L623.358 670.735L637.577 662.525H637.587L651.798 654.315H651.807L666.027 646.105L680.247 637.895L694.467 629.685L680.247 621.465L666.027 613.255Z" fill="#FFFFF8"/>
<path d="M609.127 424.415L452.688 514.735V531.165L466.908 522.955V522.945L481.128 514.745L495.348 506.525H495.357L509.577 498.315L523.798 490.105L538.017 481.895L552.247 473.685L566.467 465.475V465.465L580.687 457.265L594.908 449.055V449.045L609.127 440.845V440.835V440.825H609.137L623.358 449.035V449.045L637.577 457.245H637.567L651.798 465.455L666.017 473.665V473.675H666.027L680.247 481.875V481.885L694.467 490.095V473.675V473.665L609.137 424.415L609.127 424.405V424.415Z" fill="#B7B592"/>
<path d="M666.018 424.405V424.415L666.028 424.405H666.018Z" fill="#B7B592"/>
<path d="M602.208 370.925C606.498 368.445 611.778 368.445 616.068 370.915L623.358 375.125L637.578 383.335H637.588L651.798 391.545L651.808 391.555L666.028 399.755L680.248 407.975L694.468 416.185H694.478L708.688 424.395H708.698L710.468 425.475L715.078 428.125C717.498 429.515 719.458 431.495 720.808 433.825C722.158 436.165 722.908 438.845 722.908 441.635V637.385C722.908 642.775 720.038 647.755 715.368 650.455L711.228 652.855L708.688 654.315L694.468 662.525L680.248 670.735L666.028 678.945L657.348 683.955L651.798 687.155L637.578 695.365L628.908 700.365L623.358 703.575L609.138 711.785L609.128 711.795L594.918 720.005H594.908L580.688 728.215L552.248 744.635H552.238L547.568 747.335C544.618 749.045 541.318 749.895 538.028 749.895C534.738 749.895 531.438 749.045 528.488 747.345L523.798 744.635L518.238 741.425L509.588 736.425H509.578L495.358 728.215L489.798 725.005L481.138 720.005L466.918 711.795H466.908L452.688 703.575L438.468 695.365L434.988 693.355C428.348 689.515 424.248 682.425 424.248 674.745V485.695C424.248 481.975 425.238 478.395 427.038 475.275C428.838 472.165 431.448 469.515 434.668 467.645L438.458 465.465H438.468L452.688 457.245L602.208 370.925Z" stroke="#C1BF93" stroke-width="3" stroke-miterlimit="10"/>
<path d="M594.908 398.026L594.918 398.016H594.908V398.026Z" fill="#5FF25F"/>
<path d="M566.469 414.446H566.479L566.469 414.436V414.446Z" fill="#5FF25F"/>
<path d="M523.799 439.075H523.809L523.799 439.065V439.075Z" fill="#5FF25F"/>
<path d="M509.578 430.865H509.588L509.578 430.855V430.865Z" fill="#5FF25F"/>
<path d="M690.818 156.615C690.018 156.455 689.218 156.245 688.438 155.985C688.048 155.855 687.658 155.705 687.278 155.545C686.508 155.225 685.758 154.855 685.028 154.435L680.258 151.675H680.248L677.768 150.245L666.038 143.465L658.928 139.355L651.818 135.245L640.078 128.465L637.598 127.035L631.588 123.565L623.378 118.825L609.158 110.615V127.035V135.265L694.488 184.515V200.945L680.268 192.735L666.048 184.525L651.828 176.305L637.598 168.095L623.378 159.895L609.158 151.675V159.875V176.305V192.725V209.145V241.985V274.835V291.255L623.378 299.465L637.598 307.685L651.818 315.895H651.828L666.048 324.105L680.268 332.315L694.488 340.525V291.265V274.845V241.995V225.575V209.155V176.305V156.965C694.078 156.965 693.668 156.955 693.268 156.925C692.458 156.875 691.638 156.765 690.838 156.605L690.818 156.615ZM651.798 151.685L651.808 151.675H651.798V151.685ZM623.358 283.065H623.348L623.358 283.055V283.065ZM666.028 258.435H666.018L666.028 258.415V258.435Z" fill="#EAEACC"/>
<path d="M492.899 111.595V78.7452L507.119 70.5352L521.339 62.3252L527.618 58.7052L531.368 56.5352C531.368 56.5352 531.379 56.5352 531.389 56.5352L531.829 56.2752C533.489 55.3152 535.569 56.5152 535.569 58.4352V58.9652V62.1452V66.4752L535.559 70.5452V120.275L564.009 103.855V70.5552V54.1352V43.7452C564.009 41.8752 563.509 40.0852 562.609 38.5152C561.709 36.9452 560.399 35.6252 558.779 34.6852L549.789 29.4952L542.289 25.1652C538.129 22.7652 532.999 22.7652 528.839 25.1652L521.349 29.4952L507.129 37.7052L492.909 45.9152H492.899L478.679 54.1352L464.459 62.3352L455.929 67.2652C454.169 68.2852 452.749 69.7352 451.759 71.4352C450.779 73.1352 450.229 75.0952 450.229 77.1252V79.8052C450.229 84.2352 452.589 88.3352 456.429 90.5552H456.439L458.009 91.4552C461.989 93.7552 464.449 98.0052 464.449 102.605V128.015V161.325L492.359 145.205L492.899 111.605V111.595Z" fill="#53576B"/>
<path d="M481.137 365.165L495.348 356.955H495.357L509.577 348.745L523.798 340.535L538.017 332.325H538.027L552.238 324.115H552.247L566.467 315.905L580.677 307.695H580.687L594.908 299.485L609.127 291.265H609.137V274.855V242.005V209.165V192.735V176.315V159.895V151.685H609.127V151.705L594.908 159.905L580.687 168.125L566.467 176.325L552.247 184.545L538.017 192.755L523.798 200.965L509.577 209.175L495.357 217.385H495.348L481.128 225.605L466.908 233.805L452.688 242.025V225.595L609.127 135.275H609.137V127.045V110.625H609.127L594.918 118.835H594.908L580.687 127.045L566.467 135.255L552.247 143.465L538.027 151.675L523.798 159.895L509.577 168.105L495.357 176.315L481.137 184.525H481.128L466.908 192.735L459.897 196.785C458.227 197.755 456.407 198.355 454.557 198.595C453.937 198.675 453.317 198.715 452.697 198.715V266.635V283.055V299.475V381.595L466.917 373.385L481.137 365.165ZM509.577 184.525L510.457 184.015L523.798 176.315L538.027 168.105L552.247 159.895L553.127 159.385L566.467 151.685L566.478 151.675L580.687 143.475L594.908 135.265V135.365L580.728 143.555L566.377 151.835H566.367L552.897 159.625L552.007 160.135L537.647 168.425L523.277 176.715L509.807 184.495L508.917 185.005L494.557 193.295L480.197 201.585L480.188 201.595L466.908 209.265V209.165L466.917 209.155L467.787 208.655L481.128 200.955H481.137L495.357 192.735L509.577 184.525ZM538.027 315.905L523.798 324.115L509.577 332.325L495.357 340.535L481.137 348.745L481.128 348.755L466.917 356.955H466.908V356.845L481.077 348.665L495.438 340.375L509.807 332.085L524.168 323.785L538.527 315.495L552.897 307.205V307.325L552.247 307.695L538.027 315.905Z" fill="#CECDAE"/>
<path d="M708.687 151.675L703.917 154.445C700.997 156.135 697.727 156.975 694.467 156.975V176.305V209.155V225.575V241.995V274.845V291.265V340.535L680.247 348.755L666.027 356.965L651.807 365.175H651.797L637.587 373.385H637.577L623.357 381.595L609.137 389.805L594.917 398.015H594.907L580.687 406.235L566.477 414.445H566.467L552.247 422.655L550.517 423.655C546.647 425.885 542.337 427.005 538.027 427.005V447.275V460.755C541.317 460.755 544.617 459.905 547.567 458.195L552.237 455.495H552.247L566.467 447.275L580.687 439.065L594.907 430.855H594.917L609.127 422.645H609.137L623.357 414.425L628.907 411.215L637.577 406.205L651.797 397.995L657.347 394.795L666.027 389.785L680.247 381.575L694.467 373.365L708.687 365.155L711.227 363.695L715.367 361.295C720.037 358.595 722.907 353.615 722.907 348.225V324.105V307.675V274.835V241.985V225.565V209.145V192.715V159.875V152.475C722.907 149.685 722.157 146.995 720.807 144.665L708.687 151.655V151.675Z" fill="#CECDAE"/>
<path d="M538.028 447.275V427.005C533.718 427.005 529.398 425.895 525.528 423.655L523.798 422.655L509.578 414.445L495.358 406.235L481.138 398.025L481.128 398.015L466.908 389.805L452.688 381.595V299.485V283.065V266.645V198.715C450.198 198.715 447.708 198.075 445.478 196.785L438.468 192.735L427.038 186.135C425.238 189.255 424.248 192.835 424.248 196.555V200.945V217.365V266.635V283.055V299.475V348.745V365.165V385.605C424.248 393.285 428.348 400.375 434.988 404.215L438.468 406.225L452.688 414.435L466.908 422.645H466.918L481.138 430.855L489.798 435.865L495.358 439.075L509.578 447.285H509.588L518.238 452.285L523.798 455.495L528.488 458.205C531.438 459.905 534.728 460.755 538.028 460.755V447.285V447.275Z" fill="#EAEACC"/>
<path d="M445.478 196.785C447.708 198.075 450.198 198.715 452.688 198.715C453.308 198.715 453.928 198.675 454.548 198.595C456.398 198.355 458.218 197.755 459.888 196.785L466.898 192.735L481.118 184.525H481.128L495.348 176.315L509.568 168.105L523.788 159.895L538.018 151.675L552.238 143.465L566.458 135.265L580.678 127.045L594.898 118.835H594.908L609.118 110.625H609.128L623.348 118.835L631.558 123.575L637.568 127.045L640.048 128.475L651.788 135.255L658.898 139.365L666.008 143.475L677.738 150.255L680.218 151.685H680.228L684.998 154.445C685.728 154.865 686.478 155.235 687.248 155.555C687.628 155.715 688.018 155.855 688.408 155.995C689.188 156.255 689.988 156.465 690.788 156.625C691.588 156.785 692.408 156.885 693.218 156.945C693.628 156.975 694.028 156.985 694.438 156.985C697.698 156.985 700.958 156.145 703.888 154.455L708.658 151.695L720.778 144.695C719.428 142.365 717.468 140.385 715.048 138.995L710.438 136.345L708.668 135.265H708.658L694.448 127.055H694.438L680.218 118.845L665.998 110.635L651.778 102.425H651.768L637.558 94.205H637.548L623.328 85.995L616.038 81.785C611.748 79.305 606.468 79.315 602.178 81.785L599.148 83.535L563.978 103.835L535.528 120.255L492.328 145.195L464.418 161.315L452.658 168.105L438.438 176.315H438.428L434.638 178.505C431.418 180.365 428.808 183.015 427.008 186.135L438.438 192.735L445.448 196.785H445.478Z" fill="#FFFFF8"/>
<path d="M666.027 324.116L651.807 315.906H651.798L637.577 307.696L623.358 299.486L609.137 291.276L609.127 291.266L594.908 299.486L580.687 307.696H580.677L566.467 315.906L552.247 324.116H552.238L538.027 332.326H538.017L523.798 340.536L509.577 348.746L495.357 356.956H495.348L481.137 365.166H481.128L466.908 373.386L452.688 381.596L466.908 389.806L481.128 398.016H481.137L495.357 406.236L509.577 414.436L523.798 422.656L525.527 423.656C529.397 425.886 533.707 427.006 538.027 427.006C542.337 427.006 546.657 425.886 550.517 423.656L552.247 422.656L566.467 414.446H566.478L580.687 406.236L594.908 398.026L594.918 398.016L609.137 389.806L623.358 381.596L637.577 373.386H637.587L651.798 365.176H651.807L666.027 356.966L680.247 348.756L694.467 340.546L680.247 332.326L666.027 324.116Z" fill="#FFFFF8"/>
<path d="M609.127 135.276L452.688 225.596V242.026L466.908 233.816V233.806L481.128 225.606L495.348 217.386H495.357L509.577 209.176L523.798 200.966L538.017 192.756L552.247 184.546L566.467 176.336V176.326L580.687 168.126L594.908 159.916V159.906L609.127 151.706V151.696V151.686H609.137L623.358 159.896V159.906L637.577 168.106H637.567L651.798 176.316L666.017 184.526V184.536H666.027L680.247 192.736V192.746L694.467 200.956V184.536V184.526L609.137 135.276L609.127 135.266V135.276Z" fill="#B7B592"/>
<path d="M666.018 135.266V135.276L666.028 135.266H666.018Z" fill="#B7B592"/>
<path d="M602.208 81.7851C606.498 79.3051 611.778 79.3051 616.068 81.7751L623.358 85.9851L637.578 94.1951H637.588L651.798 102.405L651.808 102.415L666.028 110.615L680.248 118.835L694.468 127.045H694.478L708.688 135.255H708.698L710.468 136.335L715.078 138.985C717.498 140.375 719.458 142.355 720.808 144.685C722.158 147.025 722.908 149.705 722.908 152.495V348.245C722.908 353.635 720.038 358.615 715.368 361.315L711.228 363.715L708.688 365.175L694.468 373.385L680.248 381.595L666.028 389.805L657.348 394.815L651.798 398.015L637.578 406.225L628.908 411.225L623.358 414.435L609.138 422.645L609.128 422.655L594.918 430.865H594.908L580.688 439.075L552.248 455.495H552.238L547.568 458.195C544.618 459.905 541.318 460.755 538.028 460.755C534.738 460.755 531.438 459.905 528.488 458.205L523.798 455.495L518.238 452.285L509.588 447.285H509.578L495.358 439.075L489.798 435.865L481.138 430.865L466.918 422.655H466.908L452.688 414.435L438.468 406.225L434.988 404.215C428.348 400.375 424.248 393.285 424.248 385.605V196.555C424.248 192.835 425.238 189.255 427.038 186.135C428.838 183.025 431.448 180.375 434.668 178.505L438.458 176.325H438.468L452.688 168.105L602.208 81.7851Z" stroke="#C1BF93" stroke-width="3" stroke-miterlimit="10"/>
</svg>
