<svg width="801" height="801" viewBox="0 0 801 801" fill="none" xmlns="http://www.w3.org/2000/svg">
<path d="M721.693 559.146L654.093 520.105C652.863 522.225 651.093 524.035 648.893 525.305L641.793 529.405H641.783L627.563 537.615L613.343 545.826L599.123 554.035L584.903 562.245H584.893L570.673 570.465L556.453 578.665L542.233 586.885L528.013 595.095H528.003L513.793 603.305H513.783L499.563 611.516L485.343 619.725L471.123 627.935L456.903 636.146H456.893L442.673 644.365L428.453 652.576L414.233 660.785L400.013 668.995L385.783 677.206L371.573 685.415H371.563L357.343 693.625L343.123 701.835L343.113 701.845L337.543 705.055C333.383 707.455 328.473 707.976 323.973 706.646L385.493 742.615C394.743 748.025 406.173 748.045 415.443 742.675L721.693 565.355C724.083 563.975 724.083 560.526 721.693 559.146Z" fill="#DFE9ED"/>
<path d="M599.124 504.765L584.904 496.545H584.894L570.674 488.335L556.454 480.125L542.234 471.915L528.014 463.705H528.004L513.794 455.495H513.784L499.564 463.705L485.344 471.915L471.124 480.125L456.904 488.335H456.894L442.674 496.545L428.454 504.755L414.234 512.975L400.014 521.185L385.794 529.395H385.784L371.574 537.605H371.564L357.344 545.815L343.124 554.025L328.904 562.235H328.894L314.674 570.455L300.454 578.665L286.234 586.875L272.014 595.085L257.784 603.295L243.574 611.505H243.564L229.344 619.715L243.564 627.925L257.784 636.135L272.014 644.355L286.224 652.555H286.234L300.454 660.775L314.674 668.985H314.684L328.894 677.195L343.124 668.985L357.334 660.775H357.344L371.564 652.565L385.784 644.345L400.004 636.145H400.014L414.224 627.925H414.234L428.454 619.715L442.674 611.505L456.894 603.295L471.124 595.085L485.344 586.865L499.564 578.665L513.784 570.445L528.004 562.235H528.014L542.224 554.025H542.234L556.454 545.815L570.674 537.605L584.894 529.395L599.114 521.185H599.124L613.344 512.965L599.124 504.765ZM272.014 611.495V611.515H272.004L272.014 611.495ZM343.124 603.305H343.114L343.124 603.295V603.305ZM513.784 554.035L513.794 554.025H513.784V554.035Z" fill="#FFFFF8"/>
<path d="M599.123 176.315H599.113L584.893 168.105L570.673 159.895L556.453 151.685L556.443 151.675L542.233 143.475H542.223L528.013 135.275H528.003L513.783 127.065V143.485V192.745V242.015V258.445V291.285V307.705V356.975V406.245V455.505H513.793L528.003 463.705H528.013L542.233 471.925L556.453 480.135L570.673 488.345L584.893 496.555H584.903L599.123 504.765L613.343 512.975V463.715V430.875V348.765V315.915V299.495V283.075V250.225V200.965V164.005L599.123 176.325V176.315ZM528.013 283.065H528.003L528.013 283.055V283.065ZM570.673 274.855V274.835H570.683L570.673 274.855ZM570.673 225.585L570.683 225.575H570.673V225.585ZM599.123 488.345H599.113L599.123 488.335V488.345ZM599.123 373.385H599.113L599.123 373.375V373.385Z" fill="#EAEACC"/>
<path d="M400.013 158.065V94.205V61.365V49.645C400.013 48.185 399.623 46.785 398.923 45.565C398.223 44.345 397.203 43.315 395.943 42.585L385.793 36.725L381.483 34.235C380.713 33.795 379.923 33.405 379.123 33.075C376.703 32.075 374.133 31.585 371.573 31.585C371.143 31.585 370.713 31.595 370.293 31.625C367.733 31.795 365.193 32.455 362.823 33.615C362.433 33.805 362.043 34.015 361.653 34.235L357.343 36.725L343.123 44.935L328.903 53.145H328.893L314.673 61.355L300.463 69.565H300.453L286.233 77.775L272.013 85.985L264.363 90.405C262.333 91.575 260.693 93.245 259.553 95.205C258.413 97.175 257.783 99.435 257.783 101.795V104.365C257.783 106.905 258.793 109.335 260.583 111.125L263.193 113.735C268.833 119.375 272.003 127.035 272.003 135.015V135.245V168.085V241.985L300.443 221.175V168.095V151.675V118.825V102.405L314.663 94.195L328.883 85.985H328.893L343.113 77.775L357.333 69.565L365.733 64.715C368.323 63.225 371.553 65.085 371.553 68.075V77.775V94.195V110.615V180.305L400.003 158.065H400.013ZM282.783 141.445C282.783 141.445 282.793 141.445 282.803 141.445H282.793H282.783Z" fill="#53576B"/>
<path d="M627.564 537.605V521.185V521.175L635.134 500.385L627.554 504.765L613.344 512.965L599.124 521.175V521.185H599.114L584.894 529.395L570.674 537.605L556.454 545.815L542.234 554.025H542.224L528.014 562.235H528.004L513.784 570.445L499.564 578.655V578.665L485.344 586.865L471.124 595.075V595.085L456.894 603.295L442.674 611.505L428.454 619.715L414.234 627.925H414.224L400.014 636.135V636.145H400.004L385.784 644.345L371.564 652.555V652.565L357.344 660.765V660.775V677.195V693.615L371.564 685.405H371.574L385.784 677.195L400.014 668.985L414.234 660.775L428.454 652.565L442.674 644.355L456.894 636.145V636.135H456.904L471.124 627.925L485.344 619.715L499.564 611.505L513.784 603.295H513.794L528.004 595.085H528.014L542.234 586.875L556.454 578.665V578.655L570.674 570.455L584.894 562.245V562.235H584.904L599.124 554.025L613.344 545.815L627.564 537.605Z" fill="#CECDAE"/>
<path d="M357.343 660.775H357.333L343.123 668.975L343.113 668.995C334.313 674.065 323.483 674.065 314.683 668.995H314.673L300.453 660.785V677.205V693.625L314.673 701.835L320.243 705.055C325.593 708.145 332.183 708.145 337.543 705.055L343.113 701.845H343.123L357.343 693.625V660.785V660.775Z" fill="#EAEACC"/>
<path d="M300.453 677.195V660.775L286.233 652.565L286.223 652.555L272.013 644.355L257.783 636.135L243.563 627.925L229.343 619.715L215.123 611.505V627.925V644.345L229.343 652.555L243.563 660.765L243.573 660.775L257.783 668.975L272.013 677.195L286.233 685.405L300.453 693.615V677.205V677.195ZM272.003 660.775H272.013V660.785H272.003V660.775Z" fill="#EAEACC"/>
<path d="M272.014 578.665L286.224 570.455H286.234L300.454 562.235L314.674 554.025L328.894 545.815H328.904L343.124 537.605L357.344 529.395L371.564 521.185H371.574L385.784 512.975L400.014 504.765L414.234 496.545L428.454 488.335L442.674 480.125L456.894 471.915H456.904L471.124 463.705L485.344 455.495L499.564 447.285V430.865V414.445V381.595V365.175V299.485V266.645V184.525V168.105V151.685L485.344 159.895L471.124 168.095L456.904 176.315H456.894L442.674 184.525L428.464 192.735H428.454L414.234 200.945L400.014 209.155L385.794 217.365H385.784L371.574 225.575H371.564L357.344 233.795L343.124 242.005L328.904 250.215H328.894L314.674 258.425L300.454 266.635L286.234 274.845L272.014 283.055L257.784 291.275L243.574 299.475H243.564V315.895V414.435V430.855V447.275V512.965V545.815V562.235V578.655V595.085L257.784 586.875L272.014 578.665ZM385.784 332.335L385.794 332.325H385.784V332.335ZM400.014 274.855H400.004L400.014 274.835V274.855ZM357.344 299.485H357.334L357.344 299.475V299.485Z" fill="#CECDAE"/>
<path d="M243.574 611.505L257.784 603.295L272.014 595.085L286.234 586.875L300.454 578.665L314.674 570.455L328.894 562.245L328.904 562.235L343.124 554.025L357.344 545.815L371.564 537.605H371.574L385.784 529.395H385.794L400.014 521.185L414.234 512.975L428.454 504.765L442.674 496.555L456.894 488.345L456.904 488.335L471.124 480.125L485.344 471.915L499.564 463.705L513.784 455.495V406.235V356.965V307.695V291.275V258.435V242.005V192.735V143.475V127.045L499.564 135.255L485.344 143.465L471.124 151.675L456.904 159.885H456.894L442.674 168.095L428.454 176.315L414.234 184.515L400.014 192.735L385.784 200.945L371.574 209.155H371.564L357.344 217.365L343.124 225.575L328.894 233.795L314.674 241.995L300.454 250.215L286.234 258.425H286.224L272.014 266.635L257.784 274.845L243.564 283.055L229.344 286.075V324.105V373.375V537.605V586.865V619.715L243.564 611.505H243.574ZM243.564 578.665V562.245V545.825V512.975V447.285V430.865V414.445V315.905V299.485L243.574 299.475L257.784 291.275L272.014 283.065L286.234 274.845L300.454 266.635L314.674 258.425L328.894 250.215H328.904L343.124 242.005L357.344 233.795L371.564 225.585L371.574 225.575L385.784 217.375L385.794 217.365L400.014 209.155L414.234 200.945L428.454 192.735H428.464L442.674 184.525L456.894 176.315H456.904L471.124 168.105L485.344 159.895L499.564 151.685V168.095V184.515V266.635V299.475V365.165V381.585V414.435V430.855V447.275L485.344 455.495L471.124 463.705L456.904 471.915H456.894L442.674 480.125L428.454 488.335L414.234 496.545L400.014 504.755L385.784 512.975L371.574 521.185H371.564L357.344 529.395L343.124 537.605L328.904 545.815H328.894L314.674 554.025L300.454 562.235L286.234 570.445L286.224 570.455L272.014 578.655L257.784 586.875L243.564 595.085V578.665Z" fill="#CECDAE"/>
<path d="M200.904 636.135L215.114 644.345H215.124V627.935V611.505L200.894 603.295L186.684 595.085H186.674V614.675C186.674 622.875 191.044 630.445 198.144 634.545L200.894 636.135H200.904Z" fill="#EAEACC"/>
<path d="M215.124 283.055L200.904 274.845H200.894L190.484 268.835C188.024 273.085 186.674 277.975 186.674 283.055V299.475V315.895V430.855V463.695V496.545V512.965V545.815V562.235V578.655V595.085H186.684L200.894 603.295L215.124 611.505L229.344 619.715V586.875V537.615V373.385H229.334L229.344 373.375V324.115V288.215C225.934 288.215 222.524 287.335 219.464 285.565L215.124 283.055ZM200.894 488.345L200.904 488.335H200.894V488.345ZM200.894 373.385L200.904 373.375H200.894V373.385Z" fill="#EAEACC"/>
<path d="M641.784 496.545L632.744 501.765C629.534 503.625 627.564 507.045 627.564 510.755V521.175V537.605L641.784 529.395H641.794L648.894 525.295C653.294 522.755 656.004 518.055 656.014 512.975V504.765V488.335H656.004L641.784 496.545Z" fill="#CECDAE"/>
<path d="M653.874 161.125L641.794 168.095H641.784L627.564 176.315L623.774 178.505C620.544 180.365 616.944 181.295 613.344 181.295V200.945V250.205V283.055V299.475V315.895V348.745V430.855V463.695V512.965L627.554 504.765H627.564L641.784 496.545L656.004 488.335H656.014V471.925V455.495V439.075V422.655V389.805H656.004L656.014 389.795V373.385V356.965H656.004L656.014 356.955V307.695V291.275V242.005H656.004L656.014 241.995V225.585V209.165H656.004L656.014 209.155V176.275C656.014 175.875 656.014 172.595 656.014 169.075C656.014 166.235 655.254 163.505 653.884 161.125H653.874ZM641.784 315.905L641.794 315.895H641.784V315.905ZM641.784 283.065L641.794 283.055H641.784V283.065Z" fill="#CECDAE"/>
<path d="M599.125 159.894H599.115L599.125 159.884V159.894Z" fill="#FFFFF8"/>
<path d="M243.564 233.795L238.824 236.535L229.344 242.005L215.124 250.215H215.114L200.894 258.425C196.494 260.965 192.944 264.585 190.484 268.835L200.894 274.845H200.904L215.124 283.055L219.464 285.565C222.524 287.325 225.934 288.215 229.344 288.215C232.754 288.215 236.164 287.335 239.224 285.575L241.024 284.535L243.564 283.065L257.784 274.845L272.014 266.635L289.694 256.355L485.344 143.465L499.564 135.255L501.344 134.225C509.044 129.775 518.534 129.775 526.234 134.225L528.014 135.255H528.024L542.234 143.465H542.244L556.454 151.675H556.464L570.684 159.895L584.904 168.095L599.124 176.315H599.134L602.924 178.505C606.154 180.365 609.754 181.295 613.354 181.295C616.954 181.295 620.554 180.365 623.784 178.505L627.574 176.315L641.794 168.105L641.804 168.095L653.884 161.125C652.514 158.745 650.524 156.725 648.064 155.305L641.784 151.675L627.564 143.465H627.554L613.344 135.265L599.124 127.055L599.114 127.045L584.894 118.835L570.674 110.625L556.454 102.415L542.234 94.2046H542.224L528.014 85.9946H528.004C519.204 80.9146 508.364 80.9146 499.554 85.9946L485.344 94.1946L471.124 102.405L471.114 102.415L456.904 110.625L243.564 233.795Z" fill="#FFFFF8"/>
<path d="M656.014 209.155V168.625C656.014 163.225 653.134 158.235 648.454 155.535L641.784 151.675L627.564 143.465H627.554L613.344 135.255L599.124 127.045H599.114L584.894 118.835L570.674 110.625L542.234 94.2048H542.224L528.014 85.9948H528.004C523.604 83.4448 518.674 82.1748 513.774 82.1748C508.874 82.1748 503.964 83.4448 499.564 85.9948H499.554L485.344 94.2048L471.124 102.415H471.114L456.904 110.625L387.294 150.805L371.574 159.885H371.564L357.344 168.105L343.124 176.315H343.114L328.904 184.525H328.894L243.564 233.795L229.344 242.005L215.124 250.215H215.114L200.894 258.425C192.094 263.505 186.674 272.895 186.674 283.055V614.675C186.674 622.875 191.044 630.445 198.144 634.545L200.894 636.135H200.904L215.114 644.345H215.124L229.344 652.555L243.564 660.775H243.574L257.784 668.985L272.014 677.195L286.234 685.405L300.454 693.615L314.674 701.825L320.244 705.045C325.594 708.135 332.194 708.135 337.544 705.045L343.114 701.835L343.124 701.825L357.344 693.615L371.564 685.405H371.574L385.784 677.195L400.014 668.985L414.234 660.775L428.454 652.565L442.674 644.355L456.894 636.135H456.904L471.124 627.925L485.344 619.715L499.564 611.505L513.784 603.295H513.794L528.004 595.085H528.014L542.234 586.875L556.454 578.655L570.674 570.455L584.894 562.235H584.904L599.124 554.025L613.344 545.815L627.564 537.605L641.784 529.395H641.794L648.894 525.295C653.294 522.755 656.004 518.055 656.014 512.975V389.795M656.014 209.155H656.004M656.014 209.155V241.995M656.014 241.995H656.004M656.014 241.995V356.955M656.014 356.955H656.004M656.014 356.955V389.795M656.014 389.795H656.004" stroke="#C1BF93" stroke-width="3" stroke-miterlimit="10"/>
<path d="M229.344 322.385V338.805L243.564 330.595H243.574L257.784 322.385L272.014 314.175L286.234 305.965L300.454 297.755L314.674 289.545L328.894 281.335V281.325H328.904L343.124 273.115L357.344 264.905L371.564 256.695H371.574L385.784 248.485H385.794L400.014 240.275L414.234 232.065L428.454 223.855V223.845L442.674 215.645V215.635L456.894 207.435V207.425H456.904L471.124 199.215L485.344 191.005L499.564 182.795L513.784 174.585V174.575V158.165L229.344 322.385Z" fill="#B7B592"/>
<path d="M513.783 158.165V174.575H513.793L528.003 182.775H528.013L542.233 190.995L556.453 199.205L570.673 207.415L584.893 215.625H584.903L599.123 223.835L613.343 232.045V215.635L513.783 158.155V158.165ZM599.123 207.435H599.113L599.123 207.425V207.435Z" fill="#B7B592"/>
</svg>
