<svg width="801" height="801" viewBox="0 0 801 801" fill="none" xmlns="http://www.w3.org/2000/svg">
<path d="M454.6 584.985L399.38 553.105C399.38 553.105 399.35 553.185 399.34 553.225C399.31 553.355 399.27 553.475 399.23 553.605C399.11 554.015 398.99 554.426 398.85 554.826C398.79 554.996 398.73 555.165 398.67 555.335C398.53 555.725 398.39 556.105 398.23 556.485C398.17 556.625 398.12 556.766 398.06 556.896C397.85 557.396 397.62 557.895 397.38 558.375C397.33 558.485 397.27 558.595 397.21 558.695C397.01 559.075 396.81 559.455 396.6 559.835C396.51 559.995 396.42 560.145 396.33 560.305C396.13 560.645 395.91 560.986 395.7 561.326C395.61 561.456 395.53 561.595 395.44 561.725C395.14 562.175 394.82 562.625 394.49 563.055C394.43 563.135 394.37 563.205 394.31 563.275C394.03 563.635 393.74 563.995 393.44 564.335C393.33 564.465 393.21 564.595 393.09 564.735C392.82 565.035 392.55 565.335 392.27 565.625C392.16 565.745 392.05 565.855 391.93 565.975C391.54 566.365 391.14 566.745 390.72 567.115C390.68 567.155 390.64 567.185 390.6 567.215C390.22 567.545 389.83 567.865 389.43 568.175C389.29 568.285 389.16 568.385 389.02 568.485C388.69 568.735 388.36 568.976 388.02 569.206C387.88 569.306 387.74 569.395 387.6 569.495C387.13 569.805 386.65 570.116 386.16 570.396L386.09 570.435L379.07 574.485L371.87 578.646L357.66 586.855L343.43 595.065L336.23 599.235L329.2 603.285L314.98 611.495H314.97L300.76 619.706H300.75L293.65 623.805L286.54 627.905L272.32 636.115H272.31L258.1 644.326L251.08 648.375L243.88 652.525L229.67 660.735L229.66 660.745L223.74 664.155C223.36 664.375 222.98 664.565 222.59 664.755C222.48 664.805 222.36 664.855 222.25 664.915C221.96 665.045 221.67 665.165 221.38 665.275C221.26 665.315 221.15 665.365 221.03 665.405C220.68 665.525 220.33 665.645 219.98 665.735C219.93 665.755 219.87 665.765 219.82 665.785C219.39 665.905 218.95 666.005 218.51 666.085C218.49 666.085 218.47 666.085 218.45 666.095C218.04 666.175 217.63 666.225 217.21 666.275C217.15 666.275 217.09 666.285 217.02 666.295C216.61 666.335 216.2 666.355 215.79 666.365C215.77 666.365 215.74 666.365 215.72 666.365C214.81 666.385 213.89 666.325 212.99 666.185L262.8 694.295C268.7 697.625 275.93 697.565 281.78 694.125L454.64 592.396C457.48 590.726 457.47 586.606 454.61 584.956L454.6 584.985Z" fill="#DFE9ED"/>
<path d="M172.779 151.686V118.836L186.999 110.626L201.219 102.416L207.499 98.7955L211.249 96.6255C211.249 96.6255 211.259 96.6255 211.269 96.6255L211.709 96.3655C213.369 95.4055 215.449 96.6055 215.449 98.5255V99.0555V102.236V106.566V110.636V176.326L243.899 159.896V110.626V94.2055V83.8155C243.899 81.9455 243.399 80.1555 242.499 78.5855C241.599 77.0255 240.289 75.6955 238.669 74.7555L229.679 69.5655L222.179 65.2355C218.019 62.8355 212.889 62.8355 208.729 65.2355L201.239 69.5655L187.019 77.7755L172.799 85.9855H172.789L158.569 94.2055L144.349 102.406L135.819 107.336C134.059 108.356 132.639 109.806 131.649 111.506C130.669 113.206 130.119 115.166 130.119 117.196V119.876C130.119 124.306 132.479 128.406 136.319 130.626H136.329L137.899 131.526C141.879 133.826 144.339 138.076 144.339 142.676V168.086V217.376L171.999 201.406L172.789 151.676L172.779 151.686Z" fill="#53576B"/>
<path d="M377.961 213.855C376.081 214.935 373.991 215.485 371.891 215.485V246.435V266.625V283.055V381.585V430.855V447.275V480.125V529.385V545.815L357.671 554.025L343.441 562.235L329.221 570.445L315.001 578.655L300.781 586.865L300.771 586.875L286.551 595.085L272.331 603.295L258.111 611.505L243.891 619.715V636.135V652.555L251.091 648.405L258.111 644.355L272.321 636.145H272.331L286.551 627.935L293.661 623.835L300.761 619.735H300.771L314.981 611.525H314.991L329.211 603.315L336.241 599.265L343.441 595.105L357.671 586.885L371.881 578.675L379.081 574.515L386.101 570.465L386.171 570.425C386.661 570.135 387.141 569.835 387.611 569.525C387.751 569.435 387.891 569.335 388.031 569.235C388.371 569.005 388.701 568.765 389.031 568.515C389.171 568.415 389.311 568.305 389.441 568.205C389.841 567.895 390.231 567.575 390.611 567.245C390.651 567.205 390.691 567.175 390.731 567.145C391.151 566.775 391.551 566.395 391.941 566.005C392.061 565.885 392.171 565.775 392.281 565.655C392.561 565.365 392.841 565.075 393.101 564.765C393.221 564.635 393.331 564.505 393.451 564.365C393.751 564.015 394.041 563.665 394.321 563.305C394.381 563.225 394.441 563.155 394.501 563.085C394.831 562.655 395.151 562.205 395.451 561.755C395.541 561.625 395.621 561.485 395.711 561.355C395.931 561.015 396.141 560.675 396.341 560.335C396.431 560.175 396.521 560.025 396.611 559.865C396.821 559.495 397.031 559.115 397.221 558.725C397.281 558.615 397.331 558.505 397.391 558.405C397.631 557.915 397.861 557.425 398.071 556.925C398.131 556.785 398.181 556.645 398.241 556.515C398.391 556.135 398.541 555.755 398.681 555.365C398.741 555.195 398.801 555.025 398.861 554.855C398.991 554.455 399.121 554.045 399.241 553.635C399.281 553.505 399.321 553.385 399.351 553.255C399.981 550.915 400.321 548.475 400.341 545.985V545.845V496.575V463.725V430.885V398.045V348.775V315.925V208.605C400.311 206.245 399.681 203.985 398.541 202.005L386.121 209.175L377.971 213.875L377.961 213.855ZM300.781 603.305H300.771V603.295H300.781V603.305Z" fill="#CECDAE"/>
<path d="M125.149 255.565C126.689 256.455 128.399 256.895 130.109 256.895C131.819 256.895 133.539 256.455 135.069 255.565L144.329 250.215L158.549 242.005L161.039 240.565L165.649 237.895L172.759 233.785H172.769L186.979 225.575L201.199 217.355L215.419 209.145L229.639 200.935H229.649L243.859 192.735L258.079 184.525L267.829 178.895L271.629 176.705L272.299 176.315L286.459 168.145L286.519 168.105L287.779 168.835L300.729 176.315H300.739L314.959 184.525L329.179 192.735L343.399 200.945L357.629 209.155L361.219 211.235L365.779 213.865C367.659 214.945 369.749 215.485 371.849 215.485C373.949 215.485 376.039 214.945 377.919 213.855L386.069 209.155L398.489 201.985C397.339 199.985 395.669 198.285 393.609 197.085L386.079 192.745H386.069L379.049 188.685L371.849 184.535L364.749 180.425L357.639 176.325L350.439 172.165L336.219 163.955L329.199 159.905H329.189L314.969 151.695L300.749 143.485L297.889 141.835L293.679 139.405C289.249 136.845 283.799 136.845 279.369 139.405L272.309 143.485L243.869 159.915L215.419 176.345L171.969 201.435L144.309 217.405L135.889 222.265L123.059 229.655L115.859 233.805V233.815L107.789 238.465C105.889 239.565 104.349 241.135 103.289 242.975L115.859 250.235L125.119 255.585L125.149 255.565Z" fill="#FFFFF8"/>
<path d="M215.72 666.395C215.72 666.395 215.77 666.395 215.79 666.395C216.2 666.395 216.61 666.365 217.02 666.325C217.08 666.325 217.14 666.315 217.21 666.305C217.62 666.265 218.04 666.205 218.45 666.125C218.47 666.125 218.49 666.125 218.51 666.115C218.95 666.035 219.38 665.935 219.82 665.815C219.87 665.805 219.93 665.785 219.98 665.765C220.33 665.665 220.68 665.555 221.03 665.435C221.15 665.395 221.27 665.345 221.38 665.305C221.67 665.195 221.96 665.075 222.25 664.945C222.36 664.895 222.48 664.845 222.59 664.785C222.98 664.605 223.36 664.405 223.74 664.185L229.66 660.775H229.67V660.765L243.88 652.555V636.145V619.725L229.67 627.935L224.16 631.115C218.77 634.225 212.12 634.225 206.73 631.115L201.22 627.935L187 619.725L172.78 611.515L158.55 603.305L144.34 595.095H144.33L130.11 586.885V521.195V455.505V373.395V256.895C128.4 256.895 126.68 256.455 125.15 255.565L115.89 250.215L103.32 242.955C102.26 244.785 101.68 246.895 101.68 249.085V594.255C101.73 599.885 104.75 605.065 109.63 607.885L115.89 611.505L123.09 615.665L130.12 619.715L144.34 627.925L158.56 636.135H158.57L165.67 640.235L172.77 644.335H172.78L187 652.545L201.22 660.755V660.765L207.12 664.175C208.95 665.235 210.94 665.905 212.97 666.215C213.88 666.355 214.79 666.415 215.7 666.395H215.72ZM187 636.145H186.99V636.135H187V636.145Z" fill="#EAEACC"/>
<path d="M144.329 578.655L158.549 570.455L172.769 562.235H172.779L186.999 554.025L201.219 545.815L215.439 537.605L229.669 529.395L243.889 521.185L258.109 512.975L272.329 504.765L286.549 496.555V463.715V447.285V414.445V398.015V365.175V348.755V299.485V250.215V213.615L272.329 221.815L258.109 230.035L243.889 238.235L229.669 246.455L215.439 254.665L201.219 262.875L186.999 271.085L172.779 279.295H172.769L158.549 287.515L144.329 295.715L130.109 303.935V373.375V455.485V521.175V586.875L144.329 578.665V578.655ZM144.329 561.275L158.539 553.065L172.759 544.855L186.989 536.645L201.209 528.425L215.429 520.215L229.659 512.005V512.195L243.879 503.985L258.099 495.775L272.329 487.565V488.335L258.109 496.545L243.889 504.755L229.679 512.965L215.449 521.175L201.229 529.395L187.009 537.605H186.999L172.789 545.815H172.779L158.559 554.025L144.339 562.235V561.275H144.329Z" fill="#CECDAE"/>
<path d="M286.55 197.175V184.525V168.105L286.49 168.135L272.33 176.295L271.66 176.695L267.86 178.885L258.11 184.515L243.89 192.715V192.725L229.68 200.925V200.945L215.46 209.155L201.24 217.365L187.02 225.575L172.81 233.775H172.8L165.69 237.885L161.08 240.555L158.59 241.995L144.37 250.205L135.11 255.555C133.57 256.445 131.86 256.885 130.15 256.885V287.505L286.59 197.185L286.55 197.175Z" fill="#CECDAE"/>
<path d="M286.551 184.515H286.561L286.551 184.525V197.175L371.891 246.435V215.485C369.791 215.485 367.691 214.945 365.821 213.865L361.261 211.235L357.671 209.165L343.441 200.945L329.221 192.735L315.001 184.525L300.781 176.315H300.771L287.821 168.835L286.551 168.105V184.515Z" fill="#EAEACC"/>
<path d="M357.671 254.646L343.451 246.446L329.231 238.226L315.001 230.016L300.781 221.816L286.561 213.596H286.551V250.206V299.476V348.746V365.166H286.561L286.551 365.176V398.006V414.436H286.571H286.561V447.266H286.571L286.561 447.276V463.696V496.536H286.571L300.791 504.746L315.011 512.956L329.241 521.166L343.461 529.376L357.681 537.576L371.901 545.796V529.376V480.116V447.266V430.846V381.576V283.046V266.616V262.846L357.681 254.636L357.671 254.646ZM315.001 299.486H314.991V299.476H315.001V299.486ZM357.671 274.836V274.856L357.661 274.846H357.671V274.836Z" fill="#EAEACC"/>
<path d="M272.329 603.295L286.549 595.085L300.769 586.875H300.779L314.999 578.665L329.219 570.445L343.439 562.235L357.669 554.025L371.889 545.815L357.669 537.605L343.449 529.395L329.229 521.175L314.999 512.965L300.779 504.765L286.559 496.545H286.549L272.329 504.755L258.109 512.975L243.889 521.175L229.669 529.395L215.439 537.605L201.219 545.815L186.999 554.025L172.779 562.235H172.769L158.549 570.455L144.329 578.655L130.109 586.875L144.329 595.085H144.339L158.549 603.295L172.779 611.505L186.999 619.715L201.219 627.925L206.729 631.105C212.119 634.215 218.769 634.215 224.159 631.105L229.669 627.925L243.879 619.715L258.099 611.505L272.319 603.295H272.329ZM286.549 562.235H286.569H286.559H286.549ZM229.669 611.515V611.505V611.525V611.515ZM229.669 562.245H229.649H229.659H229.669Z" fill="#FFFFF8"/>
<path d="M343.439 197.175V197.185L343.449 197.175H343.439Z" fill="#B7B592"/>
<path d="M144.329 295.715L158.549 287.515L172.769 279.295H172.779L186.999 271.085L201.219 262.875L215.439 254.665L229.669 246.455L243.889 238.245V238.235L258.109 230.035L272.329 221.825V221.815L286.549 213.615V213.605V213.595H286.559L300.779 221.805V221.815L314.999 230.015L314.989 230.025L329.219 238.235L343.439 246.445H343.449L357.669 254.645V254.655L371.889 262.865V250.215V246.445V246.435L286.549 197.175V197.185L130.109 287.505V291.275V303.935L144.329 295.725V295.715Z" fill="#B7B592"/>
<path d="M336.249 163.935L329.229 159.885H329.219L314.999 151.675L300.779 143.465L297.919 141.815L293.709 139.385C289.279 136.825 283.829 136.825 279.399 139.385L272.339 143.465L130.119 225.585L123.099 229.635L115.899 233.785V233.795L107.829 238.445C105.929 239.545 104.389 241.115 103.329 242.955C102.269 244.785 101.689 246.895 101.689 249.085V594.255C101.739 599.885 104.759 605.065 109.639 607.885L115.899 611.505L123.099 615.665L130.119 619.715L144.339 627.925L158.559 636.135H158.569L165.669 640.235L172.769 644.335H172.779L186.999 652.545L201.219 660.755V660.765L207.119 664.175C212.259 667.135 218.579 667.145 223.719 664.175L229.639 660.765H229.649V660.755L243.859 652.545L251.059 648.385L258.079 644.335L272.289 636.125H272.299L286.519 627.915L293.629 623.815L300.729 619.705H300.739L314.949 611.495H314.959L329.179 603.285L336.209 599.235L343.409 595.075L357.639 586.855L371.849 578.645L379.049 574.485L386.069 570.435L386.139 570.395C394.859 565.335 400.239 556.035 400.289 545.955V545.815V496.545V463.695V430.855V398.015V348.745V315.895V208.575C400.259 206.215 399.629 203.955 398.489 201.975C397.339 199.975 395.669 198.275 393.609 197.075L386.079 192.735H386.069L379.049 188.675L371.849 184.525L364.749 180.415L357.639 176.315L350.439 172.155L336.219 163.945L336.249 163.935Z" stroke="#C1BF93" stroke-width="3" stroke-miterlimit="10"/>
<path d="M753.671 584.985L698.451 553.105C698.451 553.105 698.421 553.185 698.411 553.225C698.381 553.355 698.341 553.475 698.301 553.605C698.181 554.015 698.061 554.426 697.921 554.826C697.861 554.996 697.801 555.165 697.741 555.335C697.601 555.725 697.461 556.105 697.301 556.485C697.241 556.625 697.191 556.766 697.131 556.896C696.921 557.396 696.691 557.895 696.451 558.375C696.401 558.485 696.341 558.595 696.281 558.695C696.081 559.075 695.881 559.455 695.671 559.835C695.581 559.995 695.491 560.145 695.401 560.305C695.201 560.645 694.981 560.986 694.771 561.326C694.681 561.456 694.601 561.595 694.511 561.725C694.211 562.175 693.891 562.625 693.561 563.055C693.501 563.135 693.441 563.205 693.381 563.275C693.101 563.635 692.811 563.995 692.511 564.335C692.401 564.465 692.281 564.595 692.161 564.735C691.891 565.035 691.621 565.335 691.341 565.625C691.231 565.745 691.121 565.855 691.001 565.975C690.611 566.365 690.211 566.745 689.791 567.115C689.751 567.155 689.711 567.185 689.671 567.215C689.291 567.545 688.901 567.865 688.501 568.175C688.361 568.285 688.231 568.385 688.091 568.485C687.761 568.735 687.431 568.976 687.091 569.206C686.951 569.306 686.811 569.395 686.671 569.495C686.201 569.805 685.721 570.116 685.231 570.396L685.161 570.435L678.141 574.485L670.941 578.646L656.731 586.855L642.501 595.065L635.301 599.235L628.271 603.285L614.051 611.495H614.041L599.831 619.706H599.821L592.721 623.805L585.611 627.905L571.391 636.115H571.381L557.171 644.326L550.151 648.375L542.951 652.525L528.741 660.735L528.731 660.745L522.811 664.155C522.431 664.375 522.051 664.565 521.661 664.755C521.551 664.805 521.431 664.855 521.321 664.915C521.031 665.045 520.741 665.165 520.451 665.275C520.331 665.315 520.221 665.365 520.101 665.405C519.751 665.525 519.401 665.645 519.051 665.735C519.001 665.755 518.941 665.765 518.891 665.785C518.461 665.905 518.021 666.005 517.581 666.085C517.561 666.085 517.541 666.085 517.521 666.095C517.111 666.175 516.701 666.225 516.281 666.275C516.221 666.275 516.161 666.285 516.091 666.295C515.681 666.335 515.271 666.355 514.861 666.365C514.841 666.365 514.811 666.365 514.791 666.365C513.881 666.385 512.961 666.325 512.061 666.185L561.871 694.295C567.771 697.625 575.001 697.565 580.851 694.125L753.711 592.396C756.551 590.726 756.541 586.606 753.681 584.956L753.671 584.985Z" fill="#DFE9ED"/>
<path d="M471.849 151.686V118.836L486.069 110.626L500.289 102.416L506.569 98.7955L510.319 96.6255C510.319 96.6255 510.329 96.6255 510.339 96.6255L510.779 96.3655C512.439 95.4055 514.519 96.6055 514.519 98.5255V99.0555V102.236V106.566V110.636V176.326L542.969 159.896V110.626V94.2055V83.8155C542.969 81.9455 542.469 80.1555 541.569 78.5855C540.669 77.0255 539.359 75.6955 537.739 74.7555L528.749 69.5655L521.249 65.2355C517.089 62.8355 511.959 62.8355 507.799 65.2355L500.309 69.5655L486.089 77.7755L471.869 85.9855H471.859L457.639 94.2055L443.419 102.406L434.889 107.336C433.129 108.356 431.709 109.806 430.719 111.506C429.739 113.206 429.189 115.166 429.189 117.196V119.876C429.189 124.306 431.549 128.406 435.389 130.626H435.399L436.969 131.526C440.949 133.826 443.409 138.076 443.409 142.676V168.086V217.376L471.069 201.406L471.859 151.676L471.849 151.686Z" fill="#53576B"/>
<path d="M677.041 213.855C675.161 214.935 673.071 215.485 670.971 215.485V246.435V266.625V283.055V381.585V430.855V447.275V480.125V529.385V545.815L656.751 554.025L642.521 562.235L628.301 570.445L614.081 578.655L599.861 586.865L599.851 586.875L585.631 595.085L571.411 603.295L557.191 611.505L542.971 619.715V636.135V652.555L550.171 648.405L557.191 644.355L571.401 636.145H571.411L585.631 627.935L592.741 623.835L599.841 619.735H599.851L614.061 611.525H614.071L628.291 603.315L635.321 599.265L642.521 595.105L656.751 586.885L670.961 578.675L678.161 574.515L685.181 570.465L685.251 570.425C685.741 570.135 686.221 569.835 686.691 569.525C686.831 569.435 686.971 569.335 687.111 569.235C687.451 569.005 687.781 568.765 688.111 568.515C688.251 568.415 688.391 568.305 688.521 568.205C688.921 567.895 689.311 567.575 689.691 567.245C689.731 567.205 689.771 567.175 689.811 567.145C690.231 566.775 690.631 566.395 691.021 566.005C691.141 565.885 691.251 565.775 691.361 565.655C691.641 565.365 691.921 565.075 692.181 564.765C692.301 564.635 692.411 564.505 692.531 564.365C692.831 564.015 693.121 563.665 693.401 563.305C693.461 563.225 693.521 563.155 693.581 563.085C693.911 562.655 694.231 562.205 694.531 561.755C694.621 561.625 694.701 561.485 694.791 561.355C695.011 561.015 695.221 560.675 695.421 560.335C695.511 560.175 695.601 560.025 695.691 559.865C695.901 559.495 696.111 559.115 696.301 558.725C696.361 558.615 696.411 558.505 696.471 558.405C696.711 557.915 696.941 557.425 697.151 556.925C697.211 556.785 697.261 556.645 697.321 556.515C697.471 556.135 697.621 555.755 697.761 555.365C697.821 555.195 697.881 555.025 697.941 554.855C698.071 554.455 698.201 554.045 698.321 553.635C698.361 553.505 698.401 553.385 698.431 553.255C699.061 550.915 699.401 548.475 699.421 545.985V545.845V496.575V463.725V430.885V398.045V348.775V315.925V208.605C699.391 206.245 698.761 203.985 697.621 202.005L685.201 209.175L677.051 213.875L677.041 213.855ZM599.851 603.305H599.841V603.295H599.851V603.305Z" fill="#CECDAE"/>
<path d="M424.219 255.565C425.759 256.455 427.469 256.895 429.179 256.895C430.889 256.895 432.609 256.455 434.139 255.565L443.399 250.215L457.619 242.005L460.109 240.565L464.719 237.895L471.829 233.785H471.839L486.049 225.575L500.269 217.355L514.489 209.145L528.709 200.935H528.719L542.929 192.735L557.149 184.525L566.899 178.895L570.699 176.705L571.369 176.315L585.529 168.145L585.589 168.105L586.849 168.835L599.799 176.315H599.809L614.029 184.525L628.249 192.735L642.469 200.945L656.699 209.155L660.289 211.235L664.849 213.865C666.729 214.945 668.819 215.485 670.919 215.485C673.019 215.485 675.109 214.945 676.989 213.855L685.139 209.155L697.559 201.985C696.409 199.985 694.739 198.285 692.679 197.085L685.149 192.745H685.139L678.119 188.685L670.919 184.535L663.819 180.425L656.709 176.325L649.509 172.165L635.289 163.955L628.269 159.905H628.259L614.039 151.695L599.819 143.485L596.959 141.835L592.749 139.405C588.319 136.845 582.869 136.845 578.439 139.405L571.379 143.485L542.939 159.915L514.489 176.345L471.039 201.435L443.379 217.405L434.959 222.265L422.129 229.655L414.929 233.805V233.815L406.859 238.465C404.959 239.565 403.419 241.135 402.359 242.975L414.929 250.235L424.189 255.585L424.219 255.565Z" fill="#FFFFF8"/>
<path d="M514.79 666.395C514.79 666.395 514.84 666.395 514.86 666.395C515.27 666.395 515.68 666.365 516.09 666.325C516.15 666.325 516.21 666.315 516.28 666.305C516.69 666.265 517.11 666.205 517.52 666.125C517.54 666.125 517.56 666.125 517.58 666.115C518.02 666.035 518.45 665.935 518.89 665.815C518.94 665.805 519 665.785 519.05 665.765C519.4 665.665 519.75 665.555 520.1 665.435C520.22 665.395 520.34 665.345 520.45 665.305C520.74 665.195 521.03 665.075 521.32 664.945C521.43 664.895 521.55 664.845 521.66 664.785C522.05 664.605 522.43 664.405 522.81 664.185L528.73 660.775H528.74V660.765L542.95 652.555V636.145V619.725L528.74 627.935L523.23 631.115C517.84 634.225 511.19 634.225 505.8 631.115L500.29 627.935L486.07 619.725L471.85 611.515L457.62 603.305L443.41 595.095H443.4L429.18 586.885V521.195V455.505V373.395V256.895C427.47 256.895 425.75 256.455 424.22 255.565L414.96 250.215L402.39 242.955C401.33 244.785 400.75 246.895 400.75 249.085V594.255C400.8 599.885 403.82 605.065 408.7 607.885L414.96 611.505L422.16 615.665L429.19 619.715L443.41 627.925L457.63 636.135H457.64L464.74 640.235L471.84 644.335H471.85L486.07 652.545L500.29 660.755V660.765L506.19 664.175C508.02 665.235 510.01 665.905 512.04 666.215C512.95 666.355 513.86 666.415 514.77 666.395H514.79ZM486.07 636.145H486.06V636.135H486.07V636.145Z" fill="#EAEACC"/>
<path d="M443.409 578.655L457.629 570.455L471.849 562.235H471.859L486.079 554.025L500.299 545.815L514.519 537.605L528.749 529.395L542.969 521.185L557.189 512.975L571.409 504.765L585.629 496.555V463.715V447.285V414.445V398.015V365.175V348.755V299.485V250.215V213.615L571.409 221.815L557.189 230.035L542.969 238.235L528.749 246.455L514.519 254.665L500.299 262.875L486.079 271.085L471.859 279.295H471.849L457.629 287.515L443.409 295.715L429.189 303.935V373.375V455.485V521.175V586.875L443.409 578.665V578.655ZM443.409 561.275L457.619 553.065L471.839 544.855L486.069 536.645L500.289 528.425L514.509 520.215L528.739 512.005V512.195L542.959 503.985L557.179 495.775L571.409 487.565V488.335L557.189 496.545L542.969 504.755L528.759 512.965L514.529 521.175L500.309 529.395L486.089 537.605H486.079L471.869 545.815H471.859L457.639 554.025L443.419 562.235V561.275H443.409Z" fill="#CECDAE"/>
<path d="M585.63 197.175V184.525V168.105L585.57 168.135L571.41 176.295L570.74 176.695L566.94 178.885L557.19 184.515L542.97 192.715V192.725L528.76 200.925V200.945L514.54 209.155L500.32 217.365L486.1 225.575L471.89 233.775H471.88L464.77 237.885L460.16 240.555L457.67 241.995L443.45 250.205L434.19 255.555C432.65 256.445 430.94 256.885 429.23 256.885V287.505L585.67 197.185L585.63 197.175Z" fill="#CECDAE"/>
<path d="M585.631 184.515H585.641L585.631 184.525V197.175L670.971 246.435V215.485C668.871 215.485 666.771 214.945 664.901 213.865L660.341 211.235L656.751 209.165L642.521 200.945L628.301 192.735L614.081 184.525L599.861 176.315H599.851L586.901 168.835L585.631 168.105V184.515Z" fill="#EAEACC"/>
<path d="M656.739 254.646L642.519 246.446L628.299 238.226L614.069 230.016L599.849 221.816L585.629 213.596H585.619V250.206V299.476V348.746V365.166H585.629L585.619 365.176V398.006V414.436H585.639H585.629V447.266H585.639L585.629 447.276V463.696V496.536H585.639L599.859 504.746L614.079 512.956L628.309 521.166L642.529 529.376L656.749 537.576L670.969 545.796V529.376V480.116V447.266V430.846V381.576V283.046V266.616V262.846L656.749 254.636L656.739 254.646ZM614.069 299.486H614.059V299.476H614.069V299.486ZM656.749 274.836V274.856L656.739 274.846H656.749V274.836Z" fill="#EAEACC"/>
<path d="M571.409 603.295L585.629 595.085L599.849 586.875H599.859L614.079 578.665L628.299 570.445L642.519 562.235L656.749 554.025L670.969 545.815L656.749 537.605L642.529 529.395L628.309 521.175L614.079 512.965L599.859 504.765L585.639 496.545H585.629L571.409 504.755L557.189 512.975L542.969 521.175L528.749 529.395L514.519 537.605L500.299 545.815L486.079 554.025L471.859 562.235H471.849L457.629 570.455L443.409 578.655L429.189 586.875L443.409 595.085H443.419L457.629 603.295L471.859 611.505L486.079 619.715L500.299 627.925L505.809 631.105C511.199 634.215 517.849 634.215 523.239 631.105L528.749 627.925L542.959 619.715L557.179 611.505L571.399 603.295H571.409ZM585.629 562.235H585.649H585.639H585.629ZM528.749 611.515V611.505V611.525V611.515ZM528.749 562.245H528.729H528.739H528.749Z" fill="#FFFFF8"/>
<path d="M443.409 295.715L457.629 287.515L471.839 279.295H471.849L486.069 271.085L500.289 262.875L514.519 254.665L528.739 246.455L542.959 238.245V238.235L557.189 230.035L571.409 221.825V221.815L585.629 213.615V213.605V213.595H585.639L599.849 221.805V221.815L614.069 230.015V230.025L628.289 238.235L642.519 246.445L656.739 254.645V254.655L670.959 262.865V250.215V246.445V246.435L585.629 197.175V197.185L429.189 287.505V291.275V303.935L443.409 295.725V295.715Z" fill="#B7B592"/>
<path d="M635.32 163.935L628.3 159.885H628.29L614.07 151.675L599.85 143.465L596.99 141.815L592.78 139.385C588.35 136.825 582.9 136.825 578.47 139.385L571.41 143.465L429.19 225.585L422.17 229.635L414.97 233.785V233.795L406.9 238.445C405 239.545 403.46 241.115 402.4 242.955C401.34 244.785 400.76 246.895 400.76 249.085V594.255C400.81 599.885 403.83 605.065 408.71 607.885L414.97 611.505L422.17 615.665L429.19 619.715L443.41 627.925L457.63 636.135H457.64L464.74 640.235L471.84 644.335H471.85L486.07 652.545L500.29 660.755V660.765L506.19 664.175C511.33 667.135 517.65 667.145 522.79 664.175L528.71 660.765H528.72V660.755L542.93 652.545L550.13 648.385L557.15 644.335L571.36 636.125H571.37L585.59 627.915L592.7 623.815L599.8 619.705H599.81L614.02 611.495H614.03L628.25 603.285L635.28 599.235L642.48 595.075L656.71 586.855L670.92 578.645L678.12 574.485L685.14 570.435L685.21 570.395C693.93 565.335 699.31 556.035 699.36 545.955V545.815V496.545V463.695V430.855V398.015V348.745V315.895V208.575C699.33 206.215 698.7 203.955 697.56 201.975C696.41 199.975 694.74 198.275 692.68 197.075L685.15 192.735H685.14L678.12 188.675L670.92 184.525L663.82 180.415L656.71 176.315L649.51 172.155L635.29 163.945L635.32 163.935Z" stroke="#C1BF93" stroke-width="3" stroke-miterlimit="10"/>
</svg>
