<svg width="801" height="801" viewBox="0 0 801 801" fill="none" xmlns="http://www.w3.org/2000/svg">
<path d="M385.975 570.633L385.905 570.674L378.885 574.724L371.685 578.883L357.475 587.094L343.245 595.304L336.045 599.474L329.015 603.523L314.795 611.734H314.785L300.575 619.943H300.565L293.465 624.044L286.355 628.143L272.135 636.354H272.125L257.915 644.563L250.895 648.614L243.695 652.763L229.485 660.974L229.475 660.984L223.555 664.393C220.255 666.293 216.455 666.964 212.805 666.424L262.615 694.534C268.515 697.864 275.745 697.804 281.595 694.364L454.455 592.633C457.295 590.963 457.285 586.843 454.425 585.193L399.205 553.313C397.295 560.513 392.605 566.784 386.005 570.614L385.975 570.633Z" fill="#DFE9ED"/>
<path d="M343.234 578.884V578.894H343.244L343.234 578.884Z" fill="#DFE9ED"/>
<path d="M286.344 562.464V562.474L272.124 570.684L257.904 578.894L272.124 570.684L286.344 562.474V562.464V562.474L286.354 562.464H286.344Z" fill="#DFE9ED"/>
<path d="M300.565 603.523H300.555L300.565 603.533H300.575V603.523H300.565Z" fill="#DFE9ED"/>
<path d="M229.465 562.464H229.455L229.445 562.474H229.465V562.464L238.475 557.254L229.465 562.464Z" fill="#DFE9ED"/>
<path d="M215.234 570.674L222.344 566.574L215.234 570.674L201.014 578.884L215.234 570.674Z" fill="#DFE9ED"/>
<path d="M201.014 562.474H201.024L201.014 562.464V562.474Z" fill="#DFE9ED"/>
<path d="M229.465 611.724L229.455 611.734H229.445L229.455 611.744H229.465V611.724Z" fill="#DFE9ED"/>
<path d="M158.344 587.094V587.104H158.354L158.344 587.094Z" fill="#DFE9ED"/>
<path d="M186.785 636.363H186.775L186.785 636.373H186.795V636.363H186.785Z" fill="#DFE9ED"/>
<path d="M377.754 214.083C375.874 215.163 373.784 215.713 371.684 215.713V266.853V283.283V381.813V431.083V447.503V480.353V529.613V546.043L357.464 554.253L343.234 562.463L329.014 570.673L314.794 578.883L300.574 587.093L300.564 587.103L286.344 595.313L272.124 603.523L257.904 611.733L243.684 619.943V636.363V652.783L250.884 648.633L257.904 644.583L272.114 636.373H272.124L286.344 628.163L293.454 624.063L300.554 619.963H300.564L314.774 611.753H314.784L329.004 603.543L336.034 599.493L343.234 595.333L357.464 587.113L371.674 578.903L378.874 574.743L385.894 570.693L385.964 570.653C392.574 566.813 397.264 560.553 399.164 553.353C399.774 551.053 400.104 548.653 400.114 546.213V546.073V496.803V463.953V431.113V398.273V349.003V316.153V208.833C400.084 206.473 399.454 204.213 398.314 202.233L385.894 209.403L377.744 214.103L377.754 214.083ZM300.574 603.533H300.564V603.523H300.574V603.533Z" fill="#77552C"/>
<path d="M343.235 217.604V299.704V332.554V381.814V381.824V431.084V431.094V447.504V463.934V480.354V513.204V529.614V529.624L357.455 537.824L371.675 546.044V529.624V480.364V447.514V431.094V381.824V283.294V266.864V215.714C369.575 215.714 367.475 215.174 365.605 214.094L361.045 211.464L357.455 209.394L343.225 201.174V217.594L343.235 217.604ZM357.465 275.064V275.084L357.455 275.074H357.465V275.064Z" fill="#A07F57"/>
<path d="M284.154 153.174C285.564 155.614 286.344 158.424 286.344 161.344V168.334L300.564 176.544H300.574L314.794 184.754L329.014 192.964L343.234 201.174L357.464 209.384L361.054 211.464L365.614 214.094C367.494 215.174 369.584 215.714 371.684 215.714C373.784 215.714 375.874 215.174 377.754 214.084L385.904 209.384L398.324 202.214C397.174 200.214 395.504 198.514 393.444 197.314L385.914 192.974H385.904L378.884 188.914L371.684 184.764L364.584 180.654L357.474 176.554L350.274 172.394L343.254 168.344L336.064 164.184L329.044 160.134H329.034L314.814 151.924L300.594 143.714L297.734 142.064L293.524 139.634C289.094 137.074 283.644 137.074 279.214 139.634L272.154 143.714L278.194 147.204C280.724 148.664 282.774 150.744 284.184 153.194L284.154 153.174Z" fill="#C6A76F"/>
<path d="M223.535 664.414L229.455 661.004H229.465V660.994L243.675 652.784V636.374V619.954L229.465 628.164L223.955 631.344C218.565 634.454 211.915 634.454 206.525 631.344L201.015 628.164L186.795 619.954L172.575 611.744L158.345 603.534L144.135 595.324H144.125L129.905 587.114V521.424V455.734V373.624V257.124C128.195 257.124 126.475 256.684 124.945 255.794L115.685 250.444L103.115 243.184C102.055 245.014 101.475 247.124 101.475 249.314V594.484C101.525 600.114 104.545 605.294 109.425 608.114L115.685 611.734L122.885 615.894L129.915 619.944L144.135 628.154L158.355 636.364H158.365L165.465 640.464L172.565 644.564H172.575L186.795 652.774L201.015 660.984V660.994L206.915 664.404C208.745 665.464 210.735 666.134 212.765 666.444C216.415 666.994 220.215 666.314 223.515 664.414H223.535ZM186.795 636.374H186.785V636.364H186.795V636.374Z" fill="#A07F57"/>
<path d="M215.234 209.384L229.454 201.174H229.464L243.674 192.974L257.894 184.764L264.294 181.064L262.544 182.074C259.664 183.734 256.114 183.734 253.244 182.074L243.674 176.554L231.924 169.774C231.164 169.334 230.544 168.704 230.124 167.974L229.474 168.344L215.244 176.564L208.044 180.724L201.024 184.774L186.804 192.984L172.584 201.194L180.384 205.694C182.374 206.844 183.974 208.474 185.084 210.394C186.194 212.314 186.804 214.524 186.804 216.814V225.824L201.024 217.614L215.244 209.404L215.234 209.384Z" fill="#C6A76F"/>
<path d="M129.904 291.504V373.604V455.714V521.404V587.104L144.124 578.894L158.344 570.684L172.564 562.464H172.574L186.794 554.254L201.014 546.044L215.234 537.834L229.464 529.624L243.684 521.414L257.904 513.204L272.124 504.994L286.344 496.784V463.944V447.514V414.674V398.244V365.404V348.984V299.714V250.444V201.184V184.754V168.334L272.124 176.534L267.654 179.124L264.304 181.064L257.904 184.764L243.684 192.964V192.974L229.474 201.174V201.194L215.254 209.404L201.034 217.614L186.814 225.824L172.604 234.034H172.594L165.484 238.144L158.384 242.254L144.164 250.464L134.904 255.814C133.364 256.704 131.654 257.144 129.944 257.144V291.534L129.904 291.504ZM272.124 488.564L257.904 496.774L243.684 504.984L229.474 513.194L215.244 521.404L201.024 529.624L186.804 537.834H186.794L172.584 546.044H172.574L158.354 554.254L144.134 562.464V561.504L158.344 553.294L172.564 545.084L186.794 536.874L201.014 528.654L215.234 520.444L229.464 512.234V512.424L243.684 504.214L257.904 496.004L272.134 487.794V488.564H272.124Z" fill="#77552C"/>
<path d="M103.104 243.183L115.674 250.443L124.934 255.793C126.474 256.683 128.184 257.123 129.894 257.123C131.604 257.123 133.324 256.683 134.854 255.793L144.114 250.443L158.334 242.233L144.114 234.023L129.894 225.813L122.874 229.863L115.674 234.013V234.023L107.604 238.673C105.704 239.773 104.164 241.343 103.104 243.183Z" fill="#C6A76F"/>
<path d="M357.464 537.833L343.244 529.623L329.024 521.403L314.804 513.193L313.564 512.473L300.584 504.993L286.364 496.773H286.354L272.134 504.983L257.914 513.203L243.694 521.403L229.474 529.623L215.244 537.833L201.024 546.043L186.804 554.253L172.584 562.463H172.574L158.354 570.683L144.134 578.883L129.914 587.103L144.134 595.313H144.144L158.354 603.523L172.584 611.733L186.804 619.943L201.024 628.153L206.534 631.333C211.924 634.443 218.574 634.443 223.964 631.333L229.474 628.153L243.684 619.943L257.904 611.733L272.124 603.523L286.344 595.313L300.564 587.103H300.574L314.794 578.893L329.014 570.673L343.234 562.463L357.464 554.253L371.684 546.043L357.464 537.833ZM238.474 557.253L229.464 562.463H229.444H229.454L238.464 557.253H238.474ZM158.344 587.093H158.354L158.344 587.103V587.093ZM229.464 611.743V611.733V611.753V611.743Z" fill="#C6A76F"/>
<path d="M286.344 168.334V184.744H286.354L286.344 184.754V201.174V250.434V299.704V348.974V365.394H286.354L286.344 365.404V398.234V414.664H286.364H286.354V447.494H286.364L286.354 447.504V463.924V496.764H286.364L300.584 504.974L313.564 512.464L314.804 513.184L329.024 521.394V504.984V488.564V439.294V373.604V357.184V340.764V242.224V225.804V192.954L314.804 184.744L300.584 176.534H300.574L286.354 168.324L286.344 168.334Z" fill="#A07F57"/>
<path d="M329.014 225.804V225.814V242.224V242.234V258.654V275.074V291.494V307.924V324.344V340.764V340.774V357.184V357.194V373.604V373.614V390.034V406.454V422.874V439.294V439.304V455.724V472.144V488.564V488.574V504.984V504.994V521.404L343.234 529.614V513.204V496.774V480.364V480.354V463.934V447.514V447.504V431.094V431.084V414.664V398.244V381.824V381.814V365.404V348.974V332.564V332.554V316.134V299.714V299.704V283.284V266.864V250.444V234.014V217.604V217.594V201.174L329.014 192.964V209.384V225.804Z" fill="#77552C"/>
<path d="M229.465 165.494C229.465 166.374 229.695 167.214 230.125 167.954C230.545 168.694 231.165 169.314 231.925 169.754L243.675 176.534H243.685L253.255 182.054C256.135 183.714 259.685 183.714 262.555 182.054L264.305 181.044L272.125 176.534L286.345 168.324V161.334C286.345 158.414 285.565 155.614 284.155 153.164L272.125 160.114L257.915 168.314H257.905L247.895 162.534L243.685 160.104L229.465 151.894V165.484V165.494Z" fill="#E2B042"/>
<path d="M158.344 242.234L165.454 238.124L172.564 234.014H172.574L186.784 225.804H186.794V216.794C186.794 214.504 186.184 212.294 185.074 210.374L172.574 217.594L172.564 217.604L158.354 225.804H158.344L144.124 217.594L132.214 210.714C130.724 213.294 129.904 216.264 129.904 219.344V225.804V225.814L144.124 234.024L158.344 242.234Z" fill="#E2B042"/>
<path d="M252.074 147.634L259.254 143.494C260.364 142.854 261.734 142.854 262.844 143.494L269.174 147.154C270.134 147.704 270.134 149.094 269.174 149.644L263.114 153.134L247.884 162.544L257.894 168.324H257.904L272.114 160.124L284.144 153.174C282.734 150.724 280.684 148.644 278.154 147.184L272.114 143.704H272.104L263.304 138.624C259.944 136.684 255.814 136.684 252.454 138.624L243.654 143.704V152.244L252.044 147.644L252.074 147.634Z" fill="#F4F0A8"/>
<path d="M158.345 225.804H158.355L172.565 217.604H172.575L185.075 210.374C183.965 208.454 182.365 206.824 180.375 205.674L172.575 201.174V207.204L166.965 210.794L167.035 210.834L159.295 215.304C157.725 216.214 155.785 216.214 154.205 215.304L147.955 211.694C147.295 211.314 147.295 210.354 147.955 209.964L155.325 205.714L158.345 203.894V195.384L156.805 193.844L144.115 201.174L138.525 204.404C135.855 205.944 133.695 208.144 132.205 210.724L144.115 217.604L158.335 225.814L158.345 225.804Z" fill="#F4F0A8"/>
<path d="M158.354 203.903L155.334 205.723L156.764 204.903L166.974 210.803L172.584 207.213V184.763V171.963C172.584 169.723 173.774 167.653 175.714 166.533L186.804 160.133L201.024 151.923L201.034 151.913L215.244 143.713V143.703L226.354 137.293C226.874 136.993 227.434 136.953 227.944 137.093C228.114 137.143 228.274 137.213 228.424 137.293C229.024 137.643 229.464 138.293 229.464 139.083V151.913L243.684 160.123L247.894 162.553L263.124 153.143L261.054 154.333L250.764 148.393L252.074 147.633L243.684 152.233V134.433C243.684 130.553 241.874 126.933 238.854 124.613C238.424 124.283 237.964 123.973 237.484 123.693L236.324 123.023C232.144 120.613 227.024 120.583 222.814 122.913C222.744 122.953 222.674 122.983 222.614 123.023L215.244 127.273L201.034 135.483H201.024L186.804 143.693L172.584 151.903L165.194 156.183C163.754 157.013 162.504 158.093 161.484 159.333C161.194 159.683 160.914 160.053 160.664 160.433C160.334 160.923 160.044 161.433 159.784 161.963C159.134 163.283 158.684 164.713 158.494 166.203C158.414 166.803 158.374 167.403 158.374 168.013V176.533V192.963L156.844 193.843L158.384 195.383V203.893L158.354 203.903Z" fill="#A07F57"/>
<path d="M155.324 205.723L147.954 209.973C147.294 210.353 147.294 211.313 147.954 211.703L154.204 215.313C155.774 216.223 157.714 216.223 159.294 215.313L167.034 210.843L166.964 210.803L156.754 204.903L155.324 205.723Z" fill="#77552C"/>
<path d="M269.174 147.154L262.844 143.494C261.734 142.854 260.364 142.854 259.254 143.494L252.074 147.634L250.764 148.394L261.054 154.334L263.124 153.144L269.184 149.654C270.144 149.104 270.144 147.714 269.184 147.164L269.174 147.154Z" fill="#77552C"/>
<path d="M684.625 570.633L684.555 570.674L677.535 574.724L670.335 578.883L656.125 587.094L641.895 595.304L634.695 599.474L627.665 603.523L613.445 611.734H613.435L599.225 619.943H599.215L592.115 624.044L585.005 628.143L570.785 636.354H570.775L556.565 644.563L549.545 648.614L542.345 652.763L528.135 660.974L528.125 660.984L522.205 664.393C518.905 666.293 515.105 666.964 511.455 666.424L561.265 694.534C567.165 697.864 574.395 697.804 580.245 694.364L753.105 592.633C755.945 590.963 755.935 586.843 753.075 585.193L697.855 553.313C695.945 560.513 691.255 566.784 684.655 570.614L684.625 570.633Z" fill="#DFE9ED"/>
<path d="M641.885 578.884V578.894H641.895L641.885 578.884Z" fill="#DFE9ED"/>
<path d="M585.005 562.464H584.995V562.474L570.775 570.684L556.555 578.894L570.775 570.684L584.995 562.474L585.005 562.464V562.474L585.015 562.464H585.005Z" fill="#DFE9ED"/>
<path d="M599.215 603.523L599.225 603.533V603.523H599.215Z" fill="#DFE9ED"/>
<path d="M528.114 562.464L528.104 562.474H528.124V562.464H528.114L537.124 557.254L528.114 562.464Z" fill="#DFE9ED"/>
<path d="M513.884 570.674L520.994 566.574L513.884 570.674L499.664 578.884L513.884 570.674Z" fill="#DFE9ED"/>
<path d="M499.664 562.474H499.674L499.664 562.464V562.474Z" fill="#DFE9ED"/>
<path d="M528.114 611.724V611.734H528.104L528.114 611.744H528.124V611.724H528.114Z" fill="#DFE9ED"/>
<path d="M456.994 587.094V587.104H457.004L456.994 587.094Z" fill="#DFE9ED"/>
<path d="M485.434 636.363L485.444 636.373V636.363H485.434Z" fill="#DFE9ED"/>
<path d="M676.404 214.083C674.524 215.163 672.434 215.713 670.334 215.713V266.853V283.283V381.813V431.083V447.503V480.353V529.613V546.043L656.114 554.253L641.884 562.463L627.664 570.673L613.444 578.883L599.224 587.093L599.214 587.103L584.994 595.313L570.774 603.523L556.554 611.733L542.334 619.943V636.363V652.783L549.534 648.633L556.554 644.583L570.764 636.373H570.774L584.994 628.163L592.104 624.063L599.204 619.963H599.214L613.424 611.753H613.434L627.654 603.543L634.684 599.493L641.884 595.333L656.114 587.113L670.324 578.903L677.524 574.743L684.544 570.693L684.614 570.653C691.224 566.813 695.914 560.553 697.814 553.353C698.424 551.053 698.754 548.653 698.764 546.213V546.073V496.803V463.953V431.113V398.273V349.003V316.153V208.833C698.734 206.473 698.104 204.213 696.964 202.233L684.544 209.403L676.394 214.103L676.404 214.083ZM599.224 603.533H599.214V603.523H599.224V603.533Z" fill="#77552C"/>
<path d="M641.885 217.604V299.704V332.554V381.814V381.824V431.084V431.094V447.504V463.934V480.354V513.204V529.614V529.624L656.105 537.824L670.325 546.044V529.624V480.364V447.514V431.094V381.824V283.294V266.864V215.714C668.225 215.714 666.125 215.174 664.255 214.094L659.695 211.464L656.105 209.394L641.875 201.174V217.594L641.885 217.604ZM656.115 275.064V275.084L656.105 275.074H656.115V275.064Z" fill="#A07F57"/>
<path d="M582.814 153.174C584.224 155.614 585.004 158.424 585.004 161.344V168.334L599.224 176.544H599.234L613.454 184.754L627.674 192.964L641.894 201.174L656.124 209.384L659.714 211.464L664.274 214.094C666.154 215.174 668.244 215.714 670.344 215.714C672.444 215.714 674.534 215.174 676.414 214.084L684.564 209.384L696.984 202.214C695.834 200.214 694.164 198.514 692.104 197.314L684.574 192.974H684.564L677.544 188.914L670.344 184.764L663.244 180.654L656.134 176.554L648.934 172.394L641.914 168.344L634.724 164.184L627.704 160.134H627.694L613.474 151.924L599.254 143.714L596.394 142.064L592.184 139.634C587.754 137.074 582.304 137.074 577.874 139.634L570.814 143.714L576.854 147.204C579.384 148.664 581.434 150.744 582.844 153.194L582.814 153.174Z" fill="#C6A76F"/>
<path d="M522.185 664.414L528.105 661.004H528.115V660.994L542.325 652.784V636.374V619.954L528.115 628.164L522.605 631.344C517.215 634.454 510.565 634.454 505.175 631.344L499.665 628.164L485.445 619.954L471.225 611.744L456.995 603.534L442.785 595.324H442.775L428.555 587.114V521.424V455.734V373.624V257.124C426.845 257.124 425.125 256.684 423.595 255.794L414.335 250.444L401.765 243.184C400.705 245.014 400.125 247.124 400.125 249.314V594.484C400.175 600.114 403.195 605.294 408.075 608.114L414.335 611.734L421.535 615.894L428.565 619.944L442.785 628.154L457.005 636.364H457.015L464.115 640.464L471.215 644.564H471.225L485.445 652.774L499.665 660.984V660.994L505.565 664.404C507.395 665.464 509.385 666.134 511.415 666.444C515.065 666.994 518.865 666.314 522.165 664.414H522.185ZM485.445 636.374H485.435V636.364H485.445V636.374Z" fill="#A07F57"/>
<path d="M513.884 209.384L528.104 201.174H528.114L542.324 192.974L556.544 184.764L562.944 181.064L561.194 182.074C558.314 183.734 554.764 183.734 551.894 182.074L542.324 176.554L530.574 169.774C529.814 169.334 529.194 168.704 528.774 167.974L528.124 168.344L513.894 176.564L506.694 180.724L499.674 184.774L485.454 192.984L471.234 201.194L479.034 205.694C481.024 206.844 482.624 208.474 483.734 210.394C484.844 212.314 485.454 214.524 485.454 216.814V225.824L499.674 217.614L513.894 209.404L513.884 209.384Z" fill="#C6A76F"/>
<path d="M428.555 291.504V373.604V455.714V521.404V587.104L442.775 578.894L456.995 570.684L471.215 562.464H471.225L485.445 554.254L499.665 546.044L513.885 537.834L528.115 529.624L542.335 521.414L556.555 513.204L570.775 504.994L584.995 496.784V463.944V447.514V414.674V398.244V365.404V348.984V299.714V250.444V201.184V184.754V168.334L570.775 176.534L566.305 179.124L562.955 181.064L556.555 184.764L542.335 192.964V192.974L528.125 201.174V201.194L513.905 209.404L499.685 217.614L485.465 225.824L471.255 234.034H471.245L464.135 238.144L457.035 242.254L442.815 250.464L433.555 255.814C432.015 256.704 430.305 257.144 428.595 257.144V291.534L428.555 291.504ZM570.775 488.564L556.555 496.774L542.335 504.984L528.125 513.194L513.895 521.404L499.675 529.624L485.455 537.834H485.445L471.235 546.044H471.225L457.005 554.254L442.785 562.464V561.504L456.995 553.294L471.215 545.084L485.445 536.874L499.665 528.654L513.885 520.444L528.115 512.234V512.424L542.335 504.214L556.555 496.004L570.785 487.794V488.564H570.775Z" fill="#77552C"/>
<path d="M401.764 243.183L414.334 250.443L423.594 255.793C425.134 256.683 426.844 257.123 428.554 257.123C430.264 257.123 431.984 256.683 433.514 255.793L442.774 250.443L456.994 242.233L442.774 234.023L428.554 225.813L421.534 229.863L414.334 234.013V234.023L406.264 238.673C404.364 239.773 402.824 241.343 401.764 243.183Z" fill="#C6A76F"/>
<path d="M656.114 537.833L641.894 529.623L627.674 521.403L613.454 513.193L612.214 512.473L599.234 504.993L585.014 496.773H585.004L570.784 504.983L556.564 513.203L542.344 521.403L528.124 529.623L513.894 537.833L499.674 546.043L485.454 554.253L471.234 562.463H471.224L457.004 570.683L442.784 578.883L428.564 587.103L442.784 595.313H442.794L457.004 603.523L471.234 611.733L485.454 619.943L499.674 628.153L505.184 631.333C510.574 634.443 517.224 634.443 522.614 631.333L528.124 628.153L542.334 619.943L556.554 611.733L570.774 603.523L584.994 595.313L599.214 587.103H599.224L613.444 578.893L627.664 570.673L641.884 562.463L656.114 554.253L670.334 546.043L656.114 537.833ZM537.124 557.253L528.114 562.463H528.094H528.104L537.114 557.253H537.124ZM456.994 587.093H457.004L456.994 587.103V587.093ZM528.124 611.743V611.733V611.753V611.743Z" fill="#C6A76F"/>
<path d="M584.994 168.334V184.744H585.004L584.994 184.754V201.174V250.434V299.704V348.974V365.394H585.004L584.994 365.404V398.234V414.664H585.014H585.004V447.494H585.014L585.004 447.504V463.924V496.764H585.014L599.234 504.974L612.214 512.464L613.454 513.184L627.674 521.394V504.984V488.564V439.294V373.604V357.184V340.764V242.224V225.804V192.954L613.454 184.744L599.234 176.534H599.224L585.004 168.324L584.994 168.334Z" fill="#A07F57"/>
<path d="M627.664 225.804V225.814V242.224V242.234V258.654V275.074V291.494V307.924V324.344V340.764V340.774V357.184V357.194V373.604V373.614V390.034V406.454V422.874V439.294V439.304V455.724V472.144V488.564V488.574V504.984V504.994V521.404L641.884 529.614V513.204V496.774V480.364V480.354V463.934V447.514V447.504V431.094V431.084V414.664V398.244V381.824V381.814V365.404V348.974V332.564V332.554V316.134V299.714V299.704V283.284V266.864V250.444V234.014V217.604V217.594V201.174L627.664 192.964V209.384V225.804Z" fill="#77552C"/>
<path d="M528.115 165.494C528.115 166.374 528.345 167.214 528.775 167.954C529.195 168.694 529.815 169.314 530.575 169.754L542.325 176.534H542.335L551.905 182.054C554.785 183.714 558.335 183.714 561.205 182.054L562.955 181.044L570.775 176.534L584.995 168.324V161.334C584.995 158.414 584.215 155.614 582.805 153.164L570.775 160.114L556.565 168.314H556.555L546.545 162.534L542.335 160.104L528.115 151.894V165.484V165.494Z" fill="#E2B042"/>
<path d="M456.995 242.234L464.105 238.124L471.215 234.014H471.225L485.435 225.804H485.445V216.794C485.445 214.504 484.835 212.294 483.725 210.374L471.225 217.594L471.215 217.604L457.005 225.804H456.995L442.775 217.594L430.865 210.714C429.375 213.294 428.555 216.264 428.555 219.344V225.804V225.814L442.775 234.024L456.995 242.234Z" fill="#E2B042"/>
<path d="M550.725 147.634L557.905 143.494C559.015 142.854 560.385 142.854 561.495 143.494L567.825 147.154C568.785 147.704 568.785 149.094 567.825 149.644L561.765 153.134L546.535 162.544L556.545 168.324H556.555L570.765 160.124L582.795 153.174C581.385 150.724 579.335 148.644 576.805 147.184L570.765 143.704H570.755L561.955 138.624C558.595 136.684 554.465 136.684 551.105 138.624L542.305 143.704V152.244L550.695 147.644L550.725 147.634Z" fill="#F4F0A8"/>
<path d="M456.993 225.804H457.004L471.214 217.604H471.224L483.724 210.374C482.614 208.454 481.014 206.824 479.023 205.674L471.224 201.174V207.204L465.613 210.794L465.684 210.834L457.944 215.304C456.374 216.214 454.434 216.214 452.854 215.304L446.604 211.694C445.944 211.314 445.944 210.354 446.604 209.964L453.974 205.714L456.993 203.894V195.384L455.454 193.844L442.764 201.174L437.173 204.404C434.503 205.944 432.344 208.144 430.854 210.724L442.764 217.604L456.984 225.814L456.993 225.804Z" fill="#F4F0A8"/>
<path d="M457.004 203.903L453.984 205.723L455.414 204.903L465.624 210.803L471.234 207.213V184.763V171.963C471.234 169.723 472.424 167.653 474.364 166.533L485.454 160.133L499.674 151.923L499.684 151.913L513.894 143.713V143.703L525.004 137.293C525.524 136.993 526.084 136.953 526.594 137.093C526.764 137.143 526.924 137.213 527.074 137.293C527.674 137.643 528.114 138.293 528.114 139.083V151.913L542.334 160.123L546.544 162.553L561.774 153.143L559.704 154.333L549.414 148.393L550.724 147.633L542.334 152.233V134.433C542.334 130.553 540.524 126.933 537.504 124.613C537.074 124.283 536.614 123.973 536.134 123.693L534.974 123.023C530.794 120.613 525.674 120.583 521.464 122.913C521.394 122.953 521.324 122.983 521.264 123.023L513.894 127.273L499.684 135.483H499.674L485.454 143.693L471.234 151.903L463.844 156.183C462.404 157.013 461.154 158.093 460.134 159.333C459.844 159.683 459.564 160.053 459.314 160.433C458.984 160.923 458.694 161.433 458.434 161.963C457.784 163.283 457.334 164.713 457.144 166.203C457.064 166.803 457.024 167.403 457.024 168.013V176.533V192.963L455.494 193.843L457.034 195.383V203.893L457.004 203.903Z" fill="#A07F57"/>
<path d="M453.984 205.723L446.614 209.973C445.954 210.353 445.954 211.313 446.614 211.703L452.864 215.313C454.434 216.223 456.374 216.223 457.954 215.313L465.694 210.843L465.624 210.803L455.414 204.903L453.984 205.723Z" fill="#77552C"/>
<path d="M567.834 147.154L561.504 143.494C560.394 142.854 559.024 142.854 557.914 143.494L550.734 147.634L549.424 148.394L559.714 154.334L561.784 153.144L567.844 149.654C568.804 149.104 568.804 147.714 567.844 147.164L567.834 147.154Z" fill="#77552C"/>
</svg>
