<svg width="801" height="801" viewBox="0 0 801 801" fill="none" xmlns="http://www.w3.org/2000/svg">
<mask id="mask0_2587_16488" style="mask-type:luminance" maskUnits="userSpaceOnUse" x="191" y="467" width="461" height="290">
<path d="M332.428 756.346L651.048 571.636L516.318 467.026L195.728 664.766L191.418 683.976L332.428 756.346Z" fill="white"/>
</mask>
<g mask="url(#mask0_2587_16488)">
<path d="M661.167 454.286H619.867V495.586H661.167V454.286Z" fill="#DFE9ED"/>
<path d="M661.167 495.586H619.867V536.886H661.167V495.586Z" fill="#DFE9ED"/>
<path d="M661.167 536.876H619.867V578.176H661.167V536.876Z" fill="#DFE9ED"/>
<path d="M661.167 578.176H619.867V619.476H661.167V578.176Z" fill="#DFE9ED"/>
<path d="M661.167 619.466H619.867V660.766H661.167V619.466Z" fill="#DFE9ED"/>
<path d="M661.167 660.766H619.867V702.066H661.167V660.766Z" fill="#DFE9ED"/>
<path d="M661.167 702.066H619.867V743.366H661.167V702.066Z" fill="#DFE9ED"/>
<path d="M661.167 743.356H619.867V784.656H661.167V743.356Z" fill="#DFE9ED"/>
<path d="M619.878 454.286H578.578V495.586H619.878V454.286Z" fill="#DFE9ED"/>
<path d="M619.878 495.586H578.578V536.886H619.878V495.586Z" fill="#DFE9ED"/>
<path d="M619.878 536.876H578.578V578.176H619.878V536.876Z" fill="#DFE9ED"/>
<path d="M619.878 578.176H578.578V619.476H619.878V578.176Z" fill="#DFE9ED"/>
<path d="M619.878 619.466H578.578V660.766H619.878V619.466Z" fill="#DFE9ED"/>
<path d="M619.878 660.766H578.578V702.066H619.878V660.766Z" fill="#DFE9ED"/>
<path d="M619.878 702.066H578.578V743.366H619.878V702.066Z" fill="#DFE9ED"/>
<path d="M619.878 743.356H578.578V784.656H619.878V743.356Z" fill="#DFE9ED"/>
<path d="M578.577 454.286H537.277V495.586H578.577V454.286Z" fill="#DFE9ED"/>
<path d="M578.577 495.586H537.277V536.886H578.577V495.586Z" fill="#DFE9ED"/>
<path d="M578.577 536.876H537.277V578.176H578.577V536.876Z" fill="#DFE9ED"/>
<path d="M578.577 578.176H537.277V619.476H578.577V578.176Z" fill="#DFE9ED"/>
<path d="M578.577 619.466H537.277V660.766H578.577V619.466Z" fill="#DFE9ED"/>
<path d="M578.577 660.766H537.277V702.066H578.577V660.766Z" fill="#DFE9ED"/>
<path d="M578.577 702.066H537.277V743.366H578.577V702.066Z" fill="#DFE9ED"/>
<path d="M578.577 743.356H537.277V784.656H578.577V743.356Z" fill="#DFE9ED"/>
<path d="M537.286 454.286H495.986V495.586H537.286V454.286Z" fill="#DFE9ED"/>
<path d="M537.286 495.586H495.986V536.886H537.286V495.586Z" fill="#DFE9ED"/>
<path d="M537.286 536.876H495.986V578.176H537.286V536.876Z" fill="#DFE9ED"/>
<path d="M537.286 578.176H495.986V619.476H537.286V578.176Z" fill="#DFE9ED"/>
<path d="M537.286 619.466H495.986V660.766H537.286V619.466Z" fill="#DFE9ED"/>
<path d="M537.286 660.766H495.986V702.066H537.286V660.766Z" fill="#DFE9ED"/>
<path d="M537.286 702.066H495.986V743.366H537.286V702.066Z" fill="#DFE9ED"/>
<path d="M537.286 743.356H495.986V784.656H537.286V743.356Z" fill="#DFE9ED"/>
<path d="M495.987 454.286H454.688V495.586H495.987V454.286Z" fill="#DFE9ED"/>
<path d="M495.987 495.586H454.688V536.886H495.987V495.586Z" fill="#DFE9ED"/>
<path d="M495.987 536.876H454.688V578.176H495.987V536.876Z" fill="#DFE9ED"/>
<path d="M495.987 578.176H454.688V619.476H495.987V578.176Z" fill="#DFE9ED"/>
<path d="M495.987 619.466H454.688V660.766H495.987V619.466Z" fill="#DFE9ED"/>
<path d="M495.987 660.766H454.688V702.066H495.987V660.766Z" fill="#DFE9ED"/>
<path d="M495.987 702.066H454.688V743.366H495.987V702.066Z" fill="#DFE9ED"/>
<path d="M495.987 743.356H454.688V784.656H495.987V743.356Z" fill="#DFE9ED"/>
<path d="M454.687 454.286H413.387V495.586H454.687V454.286Z" fill="#DFE9ED"/>
<path d="M454.687 495.586H413.387V536.886H454.687V495.586Z" fill="#DFE9ED"/>
<path d="M454.687 536.876H413.387V578.176H454.687V536.876Z" fill="#DFE9ED"/>
<path d="M454.687 578.176H413.387V619.476H454.687V578.176Z" fill="#DFE9ED"/>
<path d="M454.687 619.466H413.387V660.766H454.687V619.466Z" fill="#DFE9ED"/>
<path d="M454.687 660.766H413.387V702.066H454.687V660.766Z" fill="#DFE9ED"/>
<path d="M454.687 702.066H413.387V743.366H454.687V702.066Z" fill="#DFE9ED"/>
<path d="M454.687 743.356H413.387V784.656H454.687V743.356Z" fill="#DFE9ED"/>
<path d="M413.398 454.286H372.098V495.586H413.398V454.286Z" fill="#DFE9ED"/>
<path d="M413.398 495.586H372.098V536.886H413.398V495.586Z" fill="#DFE9ED"/>
<path d="M413.398 536.876H372.098V578.176H413.398V536.876Z" fill="#DFE9ED"/>
<path d="M413.398 578.176H372.098V619.476H413.398V578.176Z" fill="#DFE9ED"/>
<path d="M413.398 619.466H372.098V660.766H413.398V619.466Z" fill="#DFE9ED"/>
<path d="M413.398 660.766H372.098V702.066H413.398V660.766Z" fill="#DFE9ED"/>
<path d="M413.398 702.066H372.098V743.366H413.398V702.066Z" fill="#DFE9ED"/>
<path d="M413.398 743.356H372.098V784.656H413.398V743.356Z" fill="#DFE9ED"/>
<path d="M372.097 454.286H330.797V495.586H372.097V454.286Z" fill="#DFE9ED"/>
<path d="M372.097 495.586H330.797V536.886H372.097V495.586Z" fill="#DFE9ED"/>
<path d="M372.097 536.876H330.797V578.176H372.097V536.876Z" fill="#DFE9ED"/>
<path d="M372.097 578.176H330.797V619.476H372.097V578.176Z" fill="#DFE9ED"/>
<path d="M372.097 619.466H330.797V660.766H372.097V619.466Z" fill="#DFE9ED"/>
<path d="M372.097 660.766H330.797V702.066H372.097V660.766Z" fill="#DFE9ED"/>
<path d="M372.097 702.066H330.797V743.366H372.097V702.066Z" fill="#DFE9ED"/>
<path d="M372.097 743.356H330.797V784.656H372.097V743.356Z" fill="#DFE9ED"/>
<path d="M330.798 454.286H289.498V495.586H330.798V454.286Z" fill="#DFE9ED"/>
<path d="M330.798 495.586H289.498V536.886H330.798V495.586Z" fill="#DFE9ED"/>
<path d="M330.798 536.876H289.498V578.176H330.798V536.876Z" fill="#DFE9ED"/>
<path d="M330.798 578.176H289.498V619.476H330.798V578.176Z" fill="#DFE9ED"/>
<path d="M330.798 619.466H289.498V660.766H330.798V619.466Z" fill="#DFE9ED"/>
<path d="M330.798 660.766H289.498V702.066H330.798V660.766Z" fill="#DFE9ED"/>
<path d="M330.798 702.066H289.498V743.366H330.798V702.066Z" fill="#DFE9ED"/>
<path d="M330.798 743.356H289.498V784.656H330.798V743.356Z" fill="#DFE9ED"/>
<path d="M289.507 454.286H248.207V495.586H289.507V454.286Z" fill="#DFE9ED"/>
<path d="M289.507 495.586H248.207V536.886H289.507V495.586Z" fill="#DFE9ED"/>
<path d="M289.507 536.876H248.207V578.176H289.507V536.876Z" fill="#DFE9ED"/>
<path d="M289.507 578.176H248.207V619.476H289.507V578.176Z" fill="#DFE9ED"/>
<path d="M289.507 619.466H248.207V660.766H289.507V619.466Z" fill="#DFE9ED"/>
<path d="M289.507 660.766H248.207V702.066H289.507V660.766Z" fill="#DFE9ED"/>
<path d="M289.507 702.066H248.207V743.366H289.507V702.066Z" fill="#DFE9ED"/>
<path d="M289.507 743.356H248.207V784.656H289.507V743.356Z" fill="#DFE9ED"/>
<path d="M248.206 454.286H206.906V495.586H248.206V454.286Z" fill="#DFE9ED"/>
<path d="M248.206 495.586H206.906V536.886H248.206V495.586Z" fill="#DFE9ED"/>
<path d="M248.206 536.876H206.906V578.176H248.206V536.876Z" fill="#DFE9ED"/>
<path d="M248.206 578.176H206.906V619.476H248.206V578.176Z" fill="#DFE9ED"/>
<path d="M248.206 619.466H206.906V660.766H248.206V619.466Z" fill="#DFE9ED"/>
<path d="M248.206 660.766H206.906V702.066H248.206V660.766Z" fill="#DFE9ED"/>
<path d="M248.206 702.066H206.906V743.366H248.206V702.066Z" fill="#DFE9ED"/>
<path d="M248.206 743.356H206.906V784.656H248.206V743.356Z" fill="#DFE9ED"/>
<path d="M206.917 454.286H165.617V495.586H206.917V454.286Z" fill="#DFE9ED"/>
<path d="M206.917 495.586H165.617V536.886H206.917V495.586Z" fill="#DFE9ED"/>
<path d="M206.917 536.876H165.617V578.176H206.917V536.876Z" fill="#DFE9ED"/>
<path d="M206.917 578.176H165.617V619.476H206.917V578.176Z" fill="#DFE9ED"/>
<path d="M206.917 619.466H165.617V660.766H206.917V619.466Z" fill="#DFE9ED"/>
<path d="M206.917 660.766H165.617V702.066H206.917V660.766Z" fill="#DFE9ED"/>
<path d="M206.917 702.066H165.617V743.366H206.917V702.066Z" fill="#DFE9ED"/>
<path d="M206.917 743.356H165.617V784.656H206.917V743.356Z" fill="#DFE9ED"/>
</g>
<path d="M385.758 102.327V118.737V118.747H385.768L399.988 115.917V94.1165V94.1065V77.6865L385.758 80.4665V102.327Z" fill="#A5B1C4"/>
<path d="M385.759 102.327V80.4665L371.549 77.6865H371.539V77.6965V94.1065V94.1165V110.527V110.537V126.957L385.759 118.747V118.737V102.327Z" fill="#DFE9ED"/>
<path d="M286.208 192.646V192.636V176.226V159.796V141.306L282.758 141.356L282.208 139.526L271.988 135.176V151.586V168.006V168.016V184.436V200.846L286.198 192.646H286.208Z" fill="#DFE9ED"/>
<mask id="mask1_2587_16488" style="mask-type:luminance" maskUnits="userSpaceOnUse" x="271" y="135" width="30" height="66">
<path d="M290.108 141.126C287.688 142.516 284.708 142.516 282.288 141.126L271.988 135.186V168.016V200.856L286.198 192.656H286.208L300.428 184.446V168.026V151.606V135.176L290.108 141.136V141.126Z" fill="white"/>
</mask>
<g mask="url(#mask1_2587_16488)">
<path d="M300.429 168.006V151.596V151.586V135.166L286.209 139.806V143.386V159.796V176.226V192.636L300.429 184.436V168.016V168.006Z" fill="#A5B1C4"/>
</g>
<mask id="mask2_2587_16488" style="mask-type:luminance" maskUnits="userSpaceOnUse" x="257" y="31" width="143" height="112">
<path d="M385.758 36.6362L381.448 34.1462C375.308 30.6062 367.758 30.6062 361.618 34.1462L357.308 36.6362L343.088 44.8462L328.868 53.0562H328.858L314.638 61.2662L300.428 69.4762H300.418L286.198 77.6862L271.978 85.8962L264.328 90.3162C260.258 92.6662 257.748 97.0062 257.748 101.706V104.276C257.748 106.816 258.758 109.246 260.548 111.036L263.158 113.646C268.798 119.286 271.968 126.946 271.968 134.926V135.156L282.268 141.106C284.688 142.506 287.668 142.506 290.088 141.106L300.408 135.146V118.726V102.306L314.628 94.0962L328.848 85.8862L328.858 85.8762L343.078 77.6662L357.298 69.4562L365.698 64.6062C368.288 63.1162 371.518 64.9762 371.518 67.9662V77.6662H371.528L378.398 81.6362C382.938 84.2562 388.528 84.2562 393.068 81.6362L399.958 77.6562V61.2462V49.5262C399.958 46.6162 398.408 43.9262 395.878 42.4662L385.728 36.6062L385.758 36.6362Z" fill="white"/>
</mask>
<g mask="url(#mask2_2587_16488)">
<path d="M290.848 107.846C287.978 109.506 284.438 109.506 281.568 107.846L271.988 102.316L257.768 94.1064H257.758V104.286C257.758 106.826 258.768 109.256 260.558 111.046L263.168 113.656C268.808 119.296 271.978 126.956 271.978 134.936V135.166L286.188 143.376H286.198L300.418 135.166V118.746V102.326L290.838 107.846H290.848Z" fill="#353644"/>
<path d="M381.099 50.3667L371.539 44.8467L357.319 53.0567L343.099 61.2667L328.869 69.4767L314.659 77.6867H314.649L300.429 85.8967L290.849 91.4267C288.779 92.6167 288.779 95.5967 290.839 96.8067L300.429 102.327L314.649 94.1167L328.869 85.9067L328.879 85.8967L343.099 77.6867L357.319 69.4767L365.719 64.6267C368.309 63.1367 371.539 64.9967 371.539 67.9867V77.6867H371.549L385.759 85.8967L399.989 77.6867V61.2767V44.8467L390.419 50.3667C387.529 52.0367 383.979 52.0267 381.089 50.3667H381.099Z" fill="#353644"/>
<path d="M290.998 107.766L300.428 102.326L293.288 98.2164L291.218 97.0164C288.988 95.7164 288.988 92.4964 291.218 91.2064L300.418 85.8964L314.638 77.6864H314.648L328.858 69.4764L343.088 61.2664L357.308 53.0564L366.158 47.9464C369.478 46.0264 373.578 46.0264 376.898 47.9464L381.598 50.6564C384.168 52.1364 387.328 52.1364 389.898 50.6564L399.978 44.8364L385.748 36.6264L381.438 34.1364C375.298 30.5964 367.748 30.5964 361.608 34.1364L357.298 36.6264L343.078 44.8364L328.858 53.0464H328.848L314.628 61.2564L300.418 69.4664H300.408L286.188 77.6764L271.968 85.8864L257.748 94.0964L271.968 102.306L281.398 107.756C284.358 109.466 288.008 109.466 290.968 107.756L290.998 107.766Z" fill="#53576B"/>
</g>
<path d="M350.179 705.836L325.429 693.246C316.329 689.006 298.099 696.356 293.079 707.266C286.549 721.476 288.689 735.836 294.389 739.906C294.899 740.276 298.089 742.406 298.689 742.576L321.619 755.306L350.179 705.836Z" fill="url(#paint0_linear_2587_16488)"/>
<path d="M351.782 739.746C359.669 726.086 358.951 710.907 350.179 705.842C341.407 700.778 327.903 707.746 320.016 721.406C312.13 735.066 312.847 750.245 321.619 755.31C330.391 760.374 343.896 753.406 351.782 739.746Z" fill="#353644"/>
<path d="M342.829 718.776C341.549 718.036 340.049 717.836 338.479 718.096C339.739 721.476 339.109 726.366 336.489 730.906C333.869 735.446 329.949 738.436 326.389 739.036C326.949 740.526 327.869 741.726 329.149 742.466C333.349 744.896 339.819 741.556 343.599 735.006C347.379 728.456 347.029 721.196 342.829 718.766V718.776Z" fill="#A5B1C4"/>
<path d="M336.478 730.906C339.098 726.366 339.728 721.476 338.468 718.096C334.908 718.696 330.988 721.686 328.368 726.226C325.748 730.766 325.118 735.656 326.378 739.036C329.938 738.436 333.858 735.446 336.478 730.906Z" fill="#DFE9ED"/>
<path d="M662.129 524.107L637.379 511.517C628.279 507.277 610.049 514.627 605.029 525.537C598.499 539.747 600.639 554.107 606.339 558.177C606.849 558.547 610.039 560.677 610.639 560.847L633.569 573.577L662.129 524.107Z" fill="url(#paint1_linear_2587_16488)"/>
<path d="M663.733 558.015C671.62 544.354 670.902 529.175 662.13 524.111C653.359 519.046 639.854 526.014 631.967 539.675C624.081 553.335 624.799 568.514 633.57 573.578C642.342 578.643 655.847 571.675 663.733 558.015Z" fill="#353644"/>
<path d="M654.768 537.046C653.488 536.306 651.988 536.106 650.418 536.366C651.678 539.746 651.048 544.636 648.428 549.176C645.808 553.716 641.888 556.706 638.328 557.306C638.888 558.796 639.808 559.996 641.088 560.736C645.288 563.166 651.758 559.826 655.538 553.276C659.318 546.736 658.968 539.466 654.768 537.036V537.046Z" fill="#A5B1C4"/>
<path d="M648.429 549.186C651.049 544.646 651.679 539.756 650.419 536.376C646.859 536.976 642.939 539.966 640.319 544.506C637.699 549.046 637.069 553.936 638.329 557.316C641.889 556.716 645.809 553.726 648.429 549.186Z" fill="#DFE9ED"/>
<path d="M233.549 642.036L208.799 629.446C199.698 625.206 181.469 632.556 176.449 643.466C169.919 657.676 172.059 672.036 177.759 676.106C178.269 676.476 181.459 678.606 182.059 678.776L204.989 691.506L233.549 642.036Z" fill="url(#paint2_linear_2587_16488)"/>
<path d="M235.153 675.94C243.04 662.28 242.322 647.101 233.55 642.037C224.778 636.972 211.274 643.94 203.387 657.6C195.501 671.26 196.218 686.44 204.99 691.504C213.762 696.568 227.267 689.6 235.153 675.94Z" fill="#353644"/>
<path d="M226.188 654.976C224.908 654.236 223.408 654.036 221.838 654.296C223.098 657.676 222.468 662.566 219.848 667.106C217.228 671.646 213.308 674.636 209.748 675.236C210.308 676.726 211.228 677.926 212.508 678.666C216.708 681.096 223.178 677.756 226.958 671.206C230.738 664.656 230.388 657.396 226.188 654.966V654.976Z" fill="#A5B1C4"/>
<path d="M219.849 667.106C222.469 662.566 223.099 657.676 221.839 654.296C218.279 654.896 214.359 657.886 211.739 662.426C209.119 666.966 208.489 671.856 209.749 675.236C213.309 674.636 217.229 671.646 219.849 667.106Z" fill="#DFE9ED"/>
<path d="M627.538 537.516V521.096V521.086L635.108 500.296L627.528 504.676L613.318 512.876L599.098 521.086V521.096H599.088L584.868 529.306L570.648 537.516L556.428 545.726L542.208 553.936H542.198L527.988 562.146H527.978L513.758 570.356L499.538 578.566V578.576L485.318 586.776L471.098 594.986V594.996L456.868 603.206L442.648 611.416L428.428 619.626L414.208 627.836H414.198L399.988 636.046V636.056H399.978L385.758 644.256L371.538 652.466V652.476L357.318 660.676V660.686V677.106V693.526L371.538 685.316H371.548L385.758 677.106L399.988 668.896L414.208 660.686L428.428 652.476L442.648 644.266L456.868 636.056V636.046H456.878L471.098 627.836L485.318 619.626L499.538 611.416L513.758 603.206H513.768L527.978 594.996H527.988L542.208 586.786L556.428 578.576V578.566L570.648 570.366L584.868 562.156V562.146H584.878L599.098 553.936L613.318 545.726L627.538 537.516Z" fill="#CECDAE"/>
<path d="M613.319 480.036V463.616V430.776V348.666V315.816V299.396V282.976V250.126V200.866V163.906L599.099 176.236H599.089L584.869 168.026V184.436V217.286V233.706V250.126V266.556V282.966V299.396V332.236V365.086V414.356V430.776V447.196V496.466H584.879L599.099 504.676L613.319 512.886V480.046V480.036Z" fill="#EAEACC"/>
<path d="M599.098 504.666L584.878 496.456H584.868L570.648 504.666L556.428 512.876L542.208 521.086L527.988 529.296L527.978 529.306L513.758 537.516L499.538 545.726L485.318 553.936L471.098 562.146H471.088L456.878 570.356H456.868L442.648 578.566L428.428 586.786L414.208 594.996L399.988 603.206L385.758 611.416L371.538 619.626H371.528L357.318 627.836L343.098 636.046H343.088L328.868 644.266L314.648 652.466L300.428 660.686L314.648 668.896H314.658L328.868 677.106L343.098 668.896L357.308 660.686H357.318L371.538 652.476L385.758 644.256L399.978 636.056H399.988L414.198 627.836H414.208L428.428 619.626L442.648 611.416L456.868 603.206L471.098 594.996L485.318 586.776L499.538 578.576L513.758 570.356L527.978 562.146H527.988L542.198 553.936H542.208L556.428 545.726L570.648 537.516L584.868 529.306L599.088 521.096H599.098L613.318 512.876L599.098 504.676V504.666ZM513.758 553.946L513.768 553.936H513.758V553.946Z" fill="#FFFFF8"/>
<path d="M542.198 143.376L527.988 135.176H527.978L513.758 126.966V143.386V192.646V241.916V258.346V291.186V307.606V356.876V406.146V455.406L513.768 455.416L527.978 463.616H527.988L542.208 471.836V455.416V406.156V373.306V356.886V225.506V192.656V143.396L542.198 143.386V143.376ZM527.988 282.976H527.978L527.988 282.966V282.976Z" fill="#EAEACC"/>
<path d="M371.549 159.796L385.759 151.586V135.166L371.539 143.376V159.796H371.549Z" fill="#DFE9ED"/>
<path d="M357.318 660.687H357.308L343.098 668.887L343.088 668.907C334.288 673.977 323.458 673.977 314.658 668.907H314.648L300.428 660.697V677.117V693.537L314.648 701.747L320.218 704.967C325.568 708.057 332.158 708.057 337.518 704.967L343.088 701.757H343.098L357.318 693.537V660.697V660.687Z" fill="#353644"/>
<path d="M414.209 168.016H414.199L399.989 159.806L387.269 150.716L371.549 159.796H371.539L357.319 168.006L343.099 176.216L343.089 176.226L328.879 184.436H328.869V200.856H328.879L338.989 211.176L343.099 225.486L357.319 217.276L371.539 209.066H371.549L385.759 200.856L399.989 192.646L414.209 184.436L434.829 172.536L414.209 168.016Z" fill="#FFFFF8"/>
<path d="M314.649 652.467L328.869 644.267L343.089 636.047H343.099L357.319 627.837L371.529 619.627H371.539L385.759 611.417L399.989 603.207L414.209 594.997L428.429 586.787L442.649 578.577V578.567L456.869 570.367V570.357H456.879L471.089 562.147H471.099L485.319 553.937L499.539 545.727L513.759 537.517L527.979 529.307H527.989V529.297L542.209 521.097V521.087L556.429 512.887V512.877L570.649 504.667L584.869 496.457V480.037V463.617V447.197V447.187V430.777V430.767V414.357V414.347V397.927V381.507V365.087V365.077V348.657V332.237V332.227V315.817V299.397V299.387V282.967V282.957V266.557V266.547V250.127V250.117V233.707V233.697V217.287V217.277V200.857V184.437V184.427V168.017V168.007L570.649 159.807V176.217V192.647V209.067V225.487H570.659L570.649 225.497V241.907V241.917V258.337V274.747L570.659 274.757L570.649 274.767V291.177V307.607V324.017V324.027V340.447V356.867V373.297V389.717V406.137V422.567V438.977V455.407V471.827V488.247L556.429 496.457L542.209 504.667V504.677L542.199 504.667L527.989 512.877H527.979L513.759 521.097L499.539 529.307L485.319 537.507V537.517L471.099 545.717V545.727H471.089L456.869 553.937L442.649 562.147L428.429 570.357L414.209 578.567H414.199L399.989 586.777L385.759 594.987V594.997L371.539 603.207L357.319 611.417H357.309L343.099 619.627H343.089L328.869 627.837L314.649 636.047H314.639L300.429 644.257L286.209 652.467V652.477L300.429 660.687L314.649 652.477V652.467Z" fill="#53576B"/>
<path d="M314.638 636.047H314.648L328.868 627.837L343.088 619.627H343.098L357.308 611.417H357.318L371.538 603.207L385.758 594.997V594.987L399.988 586.777L414.198 578.567H414.208L428.428 570.357L442.648 562.147L456.868 553.937L471.088 545.727H471.098V545.717L485.318 537.517V537.507L499.538 529.307L513.758 521.097L527.978 512.877H527.988L542.198 504.667H542.208L556.428 496.457L570.648 488.247V471.827V455.407V438.977V422.567V406.137V389.717V373.297V356.867V340.447V324.027V324.017V307.607V291.177V274.767V274.747V258.337V241.917V241.907V225.497V225.487V209.067V192.647V176.217V159.807L556.428 151.597V168.007V168.017V184.427V184.437V200.857V217.277V233.707V250.127V266.537V266.547V282.967V282.977V299.387V299.397V315.807V315.817V332.237V348.657V365.077V365.087V381.507V397.927V414.347V414.357V430.767V430.777V447.187V447.197V463.617V480.037L542.208 488.247L527.988 496.457V496.467L513.768 504.677H513.758L499.538 512.887L485.318 521.097L471.098 529.307L456.878 537.517H456.868V537.527L442.648 545.727V545.737L428.438 553.937H428.428V553.947L414.208 562.147V562.157L399.988 570.367L385.768 578.577H385.758L371.548 586.787H371.538L357.318 594.997L343.098 603.207V603.217L343.088 603.207L328.878 611.417H328.868V611.427L314.648 619.627V619.637L300.428 627.847L286.208 636.047V636.057L271.988 644.267L286.198 652.467H286.208L300.428 644.257L314.638 636.047Z" fill="#A5B1C4"/>
<path d="M300.428 677.106V660.686L286.208 652.476L286.198 652.466L271.988 644.266L257.758 636.046L243.538 627.836L229.318 619.626L215.098 611.416V627.836V644.256L229.318 652.466L243.538 660.676L243.548 660.686L257.758 668.886L271.988 677.106L286.208 685.316L300.428 693.526V677.116V677.106ZM271.978 660.686H271.988V660.696H271.978V660.686Z" fill="#EAEACC"/>
<path d="M286.208 636.046L300.428 627.846L314.648 619.636V619.626L328.868 611.426V611.416H328.878L343.088 603.206H343.098L357.318 594.996L371.538 586.786H371.548L385.758 578.576H385.768L399.988 570.366L414.208 562.156V562.146L428.428 553.946V553.936H428.438L442.648 545.736V545.726L456.868 537.526V537.516H456.878L471.098 529.306L485.318 521.096L499.538 512.886L513.758 504.676H513.768L527.988 496.466V496.456L542.208 488.246L556.428 480.036V463.616V447.196V447.186V430.776V430.766V414.356V414.346V397.926V381.506V365.086V365.076V348.656V332.236V315.816V315.806V299.396V299.386V282.976V282.966V266.546V266.536V250.126V233.706V217.276V200.856V184.436V184.426V168.016V168.006V151.596V151.586H556.418L542.208 143.386V159.796V176.226V192.636V192.646V209.066V225.486V225.496V241.916V258.336V274.756V291.186V307.596V324.026V340.446V356.866V356.876V373.286V373.296V389.716V406.136V406.146V422.556V438.986V455.396V455.406V471.826L527.988 480.036H527.978L513.758 488.246L499.538 496.456L485.318 504.666V504.676L471.098 512.876V512.886H471.088L456.868 521.086V521.096L442.648 529.306L428.428 537.516L414.208 545.726L399.988 553.936L385.758 562.146L371.538 570.356L357.318 578.566V578.576L343.098 586.776V586.786H343.088L328.868 594.996L314.648 603.206L300.428 611.416L286.208 619.626H286.198L271.988 627.836L257.758 636.046L271.988 644.266L286.208 636.056V636.046Z" fill="#53576B"/>
<path d="M286.198 619.626H286.208L300.428 611.416L314.648 603.206L328.868 594.996L343.088 586.786H343.098L357.318 578.576L371.538 570.356L385.758 562.146L399.988 553.936L414.208 545.726L428.428 537.516L442.648 529.306L456.868 521.096L471.088 512.886H471.098L485.318 504.676L499.538 496.456L513.758 488.246L527.978 480.036H527.988L542.208 471.826L527.988 463.616H527.978L513.768 455.406H513.758L499.538 463.616L485.318 471.826L471.098 480.036L456.878 488.246H456.868L442.648 496.456L428.428 504.666L414.208 512.886L399.988 521.096L385.768 529.306H385.758L371.548 537.516H371.538L357.318 545.726L343.098 553.936L328.878 562.146H328.868L314.648 570.366L300.428 578.576L286.208 586.786L271.988 594.996L257.758 603.206L243.548 611.416H243.538L229.318 619.626L243.538 627.836L257.758 636.046L271.988 627.836L286.198 619.626Z" fill="#FFFFF8"/>
<path d="M271.989 578.577L286.199 570.367H286.209L300.429 562.147L314.649 553.937L328.869 545.727H328.879L343.099 537.517L357.319 529.307L371.539 521.097H371.549L385.759 512.887L399.989 504.677L414.209 496.457L428.429 488.247L442.649 480.037L456.869 471.827H456.879L471.099 463.617L485.319 455.407L499.539 447.197V430.777V414.357V381.507V365.087V299.397V266.557V184.437V168.017V151.597L485.319 159.807L471.099 168.007L456.879 176.227H456.869L442.649 184.437L428.439 192.647H428.429L414.209 200.857L399.989 209.067L385.769 217.277H385.759L371.549 225.487H371.539L357.319 233.707L343.099 241.917L328.879 250.127H328.869L314.649 258.337L300.429 266.547L286.209 274.757L271.989 282.967L257.759 291.187L243.549 299.387H243.539V315.807V414.347V430.767V447.187V512.877V545.727V562.147V578.567V594.997L257.759 586.787L271.989 578.577ZM385.759 332.247L385.769 332.237H385.759V332.247ZM399.989 274.767H399.979L399.989 274.747V274.767ZM357.319 299.397H357.309L357.319 299.387V299.397Z" fill="#CECDAE"/>
<path d="M243.548 611.416L257.758 603.206L271.988 594.996L286.208 586.786L300.428 578.576L314.648 570.366L328.868 562.156L328.878 562.146L343.098 553.936L357.318 545.726L371.538 537.516H371.548L385.758 529.306H385.768L399.988 521.096L414.208 512.886L428.428 504.676L442.648 496.466L456.868 488.256L456.878 488.246L471.098 480.036L485.318 471.826L499.538 463.616L513.758 455.406V406.146V356.876V307.606V291.186V258.346V241.916V192.646V143.386V126.956L499.538 135.166L485.318 143.376L471.098 151.586L456.878 159.796H456.868L442.648 168.006L428.428 176.226L414.208 184.426L399.988 192.646L385.758 200.856L371.548 209.066H371.538L357.318 217.276L343.098 225.486L328.868 233.706L314.648 241.906L300.428 250.126L286.208 258.336H286.198L271.988 266.546L257.758 274.756L243.538 282.966L229.318 285.986V324.016V373.286V537.516V586.776V619.626L243.538 611.416H243.548ZM243.538 578.576V562.156V545.736V512.886V447.196V430.776V414.356V315.816V299.396L243.548 299.386L257.758 291.186L271.988 282.976L286.208 274.756L300.428 266.546L314.648 258.336L328.868 250.126H328.878L343.098 241.916L357.318 233.706L371.538 225.496L371.548 225.486L385.758 217.286L385.768 217.276L399.988 209.066L414.208 200.856L428.428 192.646H428.438L442.648 184.436L456.868 176.226H456.878L471.098 168.016L485.318 159.806L499.538 151.596V168.006V184.426V266.546V299.386V365.076V381.496V414.346V430.766V447.186L485.318 455.406L471.098 463.616L456.878 471.826H456.868L442.648 480.036L428.428 488.246L414.208 496.456L399.988 504.666L385.758 512.886L371.548 521.096H371.538L357.318 529.306L343.098 537.516L328.878 545.726H328.868L314.648 553.936L300.428 562.146L286.208 570.356L286.198 570.366L271.988 578.566L257.758 586.786L243.538 594.996V578.576Z" fill="#CECDAE"/>
<path d="M200.878 636.046L215.088 644.256H215.098V627.846V611.416L200.868 603.206L186.658 594.996H186.648V614.586C186.648 622.786 191.018 630.356 198.118 634.456L200.868 636.046H200.878Z" fill="#353644"/>
<mask id="mask3_2587_16488" style="mask-type:luminance" maskUnits="userSpaceOnUse" x="186" y="233" width="105" height="387">
<path d="M271.988 250.126H271.978L257.758 241.916L243.538 233.706L229.318 241.916L215.098 250.126H215.088L200.868 258.336C192.068 263.416 186.648 272.806 186.648 282.966V299.386V315.806V430.766V463.606V496.456V512.876V545.726V562.146V578.566V594.996H186.658L200.868 603.206L215.098 611.416L229.318 619.626V586.786V537.526V373.296V324.036V291.186L243.538 282.986L257.758 274.766L271.988 266.556L290.648 255.706L271.988 250.136V250.126ZM200.868 488.256L200.878 488.246H200.868V488.256Z" fill="white"/>
</mask>
<g mask="url(#mask3_2587_16488)">
<path d="M200.868 603.206L215.098 611.416L229.318 619.626V586.786V537.526V373.296V324.036V285.996L215.098 282.976L200.878 274.766H200.868L186.648 266.556V282.976V299.396V315.816V430.776V463.616V496.466V512.886V545.736V562.156V578.576V595.006H186.658L200.868 603.216V603.206Z" fill="#EAEACC"/>
<path d="M271.978 250.126L257.758 241.916L243.538 233.706L229.318 241.916L215.098 250.126H215.088L200.868 258.336L186.648 266.546L200.868 274.756H200.878L215.098 282.966L219.438 285.476C225.548 289.006 233.078 289.006 239.188 285.476L243.528 282.976L257.748 274.756L271.978 266.546L289.738 256.286L271.978 250.126Z" fill="#FFFFF8"/>
</g>
<path d="M641.759 496.456L632.719 501.676C629.509 503.536 627.539 506.956 627.539 510.666V521.086V537.516L641.759 529.306H641.769L648.869 525.206C653.269 522.666 655.979 517.966 655.989 512.886V504.676V488.246H655.979L641.759 496.456Z" fill="#353644"/>
<mask id="mask4_2587_16488" style="mask-type:luminance" maskUnits="userSpaceOnUse" x="456" y="82" width="200" height="431">
<path d="M655.989 168.987C655.989 163.307 652.959 158.057 648.039 155.217L641.759 151.587L627.539 143.377H627.529L613.319 135.177L599.099 126.967L599.089 126.957L584.869 118.747L570.649 110.537L556.429 102.327L542.209 94.1165H542.199L527.989 85.9065H527.979C519.179 80.8265 508.329 80.8165 499.529 85.9065L485.319 94.1065L471.099 102.317L471.089 102.327L456.879 110.537L471.099 118.747L478.319 130.997L485.319 143.377L499.539 135.167C508.339 130.087 519.179 130.087 527.979 135.167H527.989L542.199 143.377H542.209L556.419 151.587H556.429L570.649 159.807L584.869 168.007L599.089 176.227H599.099L613.319 184.437V200.857V250.117V282.967V299.387V315.807V348.657V430.767V463.607V512.876L627.529 504.677H627.539L641.759 496.457L655.979 488.247H655.989V471.837V455.407V438.987V422.567V389.717H655.979L655.989 389.707V373.297V356.877H655.979L655.989 356.867V307.607V291.187V241.917H655.979L655.989 241.907V225.497V209.077H655.979L655.989 209.067V176.227C655.989 176.227 655.989 172.747 655.989 168.987ZM513.759 94.1165L513.769 94.1065H513.759V94.1165ZM599.099 159.807H599.089L599.099 159.797V159.807ZM641.759 315.817L641.769 315.807H641.759V315.817ZM641.759 282.977L641.769 282.967H641.759V282.977ZM641.759 168.017L641.769 168.007H641.759V168.017Z" fill="white"/>
</mask>
<g mask="url(#mask4_2587_16488)">
<path d="M655.978 159.807L641.768 168.007H641.758L627.538 176.227L613.318 175.467V200.857V250.117V282.967V299.387V315.807V348.657V430.767V463.607V512.877L627.528 504.677H627.538L641.758 496.457L655.978 488.247H655.988V471.837V455.407V438.987V422.567V389.717H655.978L655.988 389.707V373.297V356.877H655.978L655.988 356.867V307.607V291.187V241.917H655.978L655.988 241.907V225.497V209.077H655.978L655.988 209.067V159.807H655.978ZM641.758 315.817L641.768 315.807H641.758V315.817ZM641.758 282.977L641.768 282.967H641.758V282.977Z" fill="#CECDAE"/>
<path d="M641.759 151.587L627.539 143.377H627.529L613.319 135.177L599.099 126.967L599.089 126.957L584.869 118.747L570.649 110.537L556.429 102.327L542.209 94.1166H542.199L527.989 85.9066H527.979C519.179 80.8166 508.339 80.8166 499.539 85.8966L485.319 94.1066L471.099 102.317L471.089 102.327L456.879 110.537L471.099 118.747L478.319 130.997L485.319 143.377L499.539 135.167L501.319 134.137C509.019 129.687 518.509 129.687 526.209 134.137L527.989 135.167H527.999L542.209 143.377H542.219L556.429 151.587H556.439L570.659 159.807L584.879 168.007L599.099 176.227H599.109L602.899 178.417C609.349 182.137 617.299 182.137 623.749 178.417L627.539 176.227L641.759 168.017L641.769 168.007L655.979 159.807L641.759 151.587Z" fill="#FFFFF8"/>
</g>
<mask id="mask5_2587_16488" style="mask-type:luminance" maskUnits="userSpaceOnUse" x="243" y="106" width="243" height="152">
<path d="M471.099 118.746L456.879 110.536H456.869V110.526C448.069 105.446 437.229 105.446 428.429 110.526L414.209 118.736L414.199 118.746L410.879 116.826C404.139 112.936 395.829 112.926 389.089 116.826L385.769 118.746H385.759L371.539 126.956L357.319 135.166L343.099 143.376L328.879 151.586H328.869L328.839 151.616C320.059 156.696 314.649 166.076 314.649 176.216V192.646L306.999 188.226C302.929 185.876 297.919 185.876 293.849 188.226L286.199 192.636L286.189 192.646L271.979 200.846V200.866H271.969L257.749 209.066C248.949 214.146 243.529 223.536 243.529 233.696C243.529 233.696 243.529 233.706 243.529 233.716L257.739 241.916L271.959 250.126H271.969L282.629 256.286C284.829 257.556 287.529 257.556 289.729 256.286L297.979 251.526L300.409 250.126L314.629 241.916L328.849 233.706L343.079 225.496V218.726C343.079 212.746 339.889 207.226 334.709 204.236L328.859 200.856H328.849V184.436V184.386C328.849 174.236 334.269 164.856 343.069 159.796H343.079L357.299 151.586L371.519 143.376L385.739 135.166V147.046C385.739 149.856 387.239 152.456 389.669 153.856L399.969 159.806L414.179 168.016H414.189L422.599 172.866C426.199 174.946 430.629 174.946 434.219 172.866L442.629 168.016L456.849 159.806L456.859 159.796L471.079 151.586L485.299 143.376C485.299 133.216 479.879 123.826 471.079 118.746H471.099Z" fill="white"/>
</mask>
<g mask="url(#mask5_2587_16488)">
<path d="M442.65 168.016V168.006L456.87 159.806V159.796H456.88L471.1 151.586L485.32 143.376V126.956L471.1 135.166L456.87 143.376L442.66 151.586H442.65L428.43 155.026V176.226L442.65 168.016Z" fill="#353644"/>
<path d="M399.99 159.806L414.2 168.016H414.21L428.43 176.226V154.806L414.21 151.586L399.99 143.376L385.76 135.166V151.586L399.99 159.806Z" fill="#353644"/>
<path d="M271.979 250.126H271.989L286.199 258.336H286.209L290.389 244.326L286.199 241.916L271.989 233.706L257.759 225.496V225.486L243.539 217.276V233.706L257.759 241.916L271.979 250.126Z" fill="#353644"/>
<path d="M257.759 225.496L271.989 233.706L291.539 244.996L299.099 239.356L301.249 236.546L300.439 233.696L314.659 225.496L328.879 217.276L343.109 209.066L328.889 200.856H328.879V184.436C328.879 174.266 334.289 164.886 343.089 159.806H343.099H343.109L357.329 151.596L371.549 143.386L385.769 135.176L399.999 143.386L414.219 151.596L418.609 154.136C424.689 157.646 432.179 157.646 438.269 154.136L442.659 151.596H442.669L456.879 143.386L471.109 135.176L485.329 126.966L471.109 118.756L456.889 110.546H456.879L442.659 102.326L428.439 110.536L414.219 118.746L414.209 118.756L410.889 116.836C404.149 112.946 395.839 112.936 389.099 116.836L385.779 118.756H385.769L371.549 126.966L357.329 135.176L343.109 143.386L328.889 151.596H328.879V151.606C320.089 156.686 314.669 166.066 314.669 176.226V192.656L300.449 184.446L286.229 192.646L286.219 192.656L272.009 200.856V200.876H271.999L257.779 209.076L243.559 217.286L257.779 225.496H257.759Z" fill="#53576B"/>
<path d="M314.649 241.916L328.869 233.706L343.099 225.496V209.066L328.869 217.276L314.649 225.486L300.429 233.696C291.629 238.786 286.209 248.176 286.209 258.336L300.429 250.126L314.649 241.916Z" fill="#353644"/>
</g>
<path d="M561.918 223.886V240.306V240.316V256.726V256.736L576.138 264.946V248.526V248.516V232.096L561.918 223.886Z" fill="#A5B1C4"/>
<path d="M561.918 312.856V329.276V329.286V345.696V345.706L576.138 353.916V337.496V337.486V321.066L561.918 312.856Z" fill="#A5B1C4"/>
<path d="M561.918 401.836V418.256V418.266V434.676V434.686L576.138 442.896V426.476V426.466V410.046L561.918 401.836Z" fill="#A5B1C4"/>
<path d="M303.598 199.017L300.418 200.857L286.198 209.067L273.808 216.217C272.988 216.687 272.988 217.867 273.808 218.337L282.198 223.177C284.678 224.607 287.718 224.607 290.198 223.177L300.418 217.277L314.638 209.067L317.828 207.227L303.598 199.017Z" fill="#A5B1C4"/>
<path d="M527.988 504.996L513.768 513.206L499.548 521.416L485.328 529.626L499.548 537.836L513.768 529.626L527.988 521.416L542.218 513.206L527.988 504.996Z" fill="#A5B1C4"/>
<path d="M378.649 590.437L364.419 598.647L350.209 606.857L335.979 615.067L350.209 623.277L364.419 615.067L378.649 606.857L392.879 598.647L378.649 590.437Z" fill="#A5B1C4"/>
<path d="M445.199 119.966C443.899 119.216 442.289 119.216 440.989 119.966L428.879 126.956L417.959 133.266V137.076L428.879 143.386L443.099 135.176L454.239 128.746C455.609 127.956 455.609 125.976 454.239 125.186L445.199 119.966Z" fill="#A5B1C4"/>
<path d="M456.878 110.536L471.088 102.326H471.098L485.318 94.1159L499.528 85.9059H499.538C503.938 83.3559 508.848 82.0859 513.748 82.0859C518.648 82.0859 523.578 83.3559 527.978 85.9059H527.988L542.198 94.1159H542.208L570.648 110.536L584.868 118.746L599.088 126.956H599.098L613.318 135.166L627.528 143.376H627.538L641.758 151.586L648.428 155.446C653.108 158.146 655.988 163.136 655.988 168.536V209.066M655.988 209.066H655.978M655.988 209.066V241.906M655.988 241.906H655.978M655.988 241.906V356.866M655.988 356.866H655.978M655.988 356.866V389.706M655.988 389.706H655.978M655.988 389.706V512.886C655.978 517.966 653.268 522.666 648.868 525.206L641.768 529.306H641.758L627.538 537.516L613.318 545.726L599.098 553.936L584.878 562.146H584.868L570.648 570.366L556.428 578.566L542.208 586.786L527.988 594.996H527.978L513.768 603.206H513.758L499.538 611.416L485.318 619.626L471.098 627.836L456.878 636.046H456.868L442.648 644.266L428.428 652.476L414.208 660.686L399.988 668.896L385.758 677.106L371.548 685.316H371.538L357.318 693.526L343.098 701.736L343.088 701.746L337.518 704.956C332.168 708.046 325.568 708.046 320.218 704.956L314.648 701.736L300.428 693.526L286.208 685.316L271.988 677.106L257.758 668.896L243.548 660.686H243.538L229.318 652.466L215.098 644.256H215.088L200.878 636.046H200.868L198.118 634.456C191.018 630.356 186.648 622.786 186.648 614.586V282.966C186.648 272.806 192.068 263.416 200.868 258.336L215.088 250.126H215.098L229.318 241.916L243.538 233.706" stroke="#C1BF93" stroke-width="3" stroke-miterlimit="10"/>
<path d="M328.869 184.436H328.879L343.089 176.226H343.099V176.216L357.319 168.016V168.006L371.539 159.796H371.549L387.269 150.716" stroke="#C1BF93" stroke-width="3" stroke-miterlimit="10"/>
<defs>
<linearGradient id="paint0_linear_2587_16488" x1="289.059" y1="723.666" x2="350.179" y2="723.666" gradientUnits="userSpaceOnUse">
<stop stop-color="#53576B"/>
<stop offset="1" stop-color="#777D99"/>
</linearGradient>
<linearGradient id="paint1_linear_2587_16488" x1="601.009" y1="541.947" x2="662.129" y2="541.947" gradientUnits="userSpaceOnUse">
<stop stop-color="#53576B"/>
<stop offset="1" stop-color="#777D99"/>
</linearGradient>
<linearGradient id="paint2_linear_2587_16488" x1="183.309" y1="679.626" x2="213.439" y2="629.856" gradientUnits="userSpaceOnUse">
<stop stop-color="#53576B"/>
<stop offset="1" stop-color="#777D99"/>
</linearGradient>
</defs>
</svg>
