<svg width="19" height="19" viewBox="0 0 19 19" fill="none" xmlns="http://www.w3.org/2000/svg">
<g clip-path="url(#clip0_2115_891)">
<path d="M9.89062 3.69141C10.0895 3.69141 10.2803 3.77042 10.421 3.91108C10.5616 4.05173 10.6406 4.24249 10.6406 4.44141V8.94141H15.1406C15.3395 8.94141 15.5303 9.02042 15.671 9.16108C15.8116 9.30173 15.8906 9.49249 15.8906 9.69141C15.8906 9.89032 15.8116 10.0811 15.671 10.2217C15.5303 10.3624 15.3395 10.4414 15.1406 10.4414H10.6406V14.9414C10.6406 15.1403 10.5616 15.3311 10.421 15.4717C10.2803 15.6124 10.0895 15.6914 9.89062 15.6914C9.69171 15.6914 9.50095 15.6124 9.3603 15.4717C9.21964 15.3311 9.14062 15.1403 9.14062 14.9414V10.4414H4.64062C4.44171 10.4414 4.25095 10.3624 4.1103 10.2217C3.96964 10.0811 3.89062 9.89032 3.89062 9.69141C3.89062 9.49249 3.96964 9.30173 4.1103 9.16108C4.25095 9.02042 4.44171 8.94141 4.64062 8.94141H9.14062V4.44141C9.14062 4.24249 9.21964 4.05173 9.3603 3.91108C9.50095 3.77042 9.69171 3.69141 9.89062 3.69141Z" fill="white"/>
</g>
<defs>
<clipPath id="clip0_2115_891">
<rect width="18" height="18" fill="white" transform="translate(0.648438 0.697266)"/>
</clipPath>
</defs>
</svg>
