<svg width="33" height="33" viewBox="0 0 33 33" fill="none" xmlns="http://www.w3.org/2000/svg">
<path d="M8.53251 13.7897V17.7897C8.53249 17.9971 8.4841 18.2016 8.39117 18.387L6.69251 21.7897H26.3778L24.6765 18.387C24.5827 18.2019 24.5333 17.9973 24.5325 17.7897V13.7897C24.5325 11.668 23.6897 9.63315 22.1894 8.13286C20.6891 6.63257 18.6542 5.78971 16.5325 5.78971C14.4108 5.78971 12.3759 6.63257 10.8757 8.13286C9.37536 9.63315 8.53251 11.668 8.53251 13.7897ZM11.1992 24.4564H4.53251C4.30514 24.4564 4.08154 24.3982 3.88298 24.2874C3.68442 24.1767 3.51748 24.017 3.39803 23.8235C3.27858 23.63 3.21059 23.4092 3.20053 23.1821C3.19046 22.9549 3.23865 22.729 3.34051 22.5257L5.86584 17.475V13.7897C5.86584 10.9607 6.98965 8.24763 8.99004 6.24724C10.9904 4.24685 13.7035 3.12305 16.5325 3.12305C19.3615 3.12305 22.0746 4.24685 24.075 6.24724C26.0754 8.24763 27.1992 10.9607 27.1992 13.7897V17.475L29.7245 22.5257C29.8264 22.729 29.8746 22.9549 29.8645 23.1821C29.8544 23.4092 29.7864 23.63 29.667 23.8235C29.5475 24.017 29.3806 24.1767 29.182 24.2874C28.9835 24.3982 28.7599 24.4564 28.5325 24.4564H21.8658C21.8658 25.8709 21.3039 27.2274 20.3037 28.2276C19.3036 29.2278 17.947 29.7897 16.5325 29.7897C15.118 29.7897 13.7615 29.2278 12.7613 28.2276C11.7611 27.2274 11.1992 25.8709 11.1992 24.4564ZM19.1992 24.4564H13.8658C13.8658 25.1636 14.1468 25.8419 14.6469 26.342C15.147 26.8421 15.8253 27.123 16.5325 27.123C17.2398 27.123 17.918 26.8421 18.4181 26.342C18.9182 25.8419 19.1992 25.1636 19.1992 24.4564Z" fill="black"/>
</svg>
