<svg width="51" height="51" viewBox="0 0 51 51" fill="none" xmlns="http://www.w3.org/2000/svg">
<g clip-path="url(#clip0_2115_1317)">
<path fill-rule="evenodd" clip-rule="evenodd" d="M25.4588 1.39456C24.633 1.40937 23.9731 2.08869 23.9828 2.91453V8.90344C23.9828 10.9071 26.9875 10.9071 26.9875 8.90344V2.91453C26.9975 2.06697 26.3062 1.37847 25.4588 1.39456ZM11.9492 2.87932C11.6762 2.88078 11.4087 2.95664 11.1756 3.09874C10.9424 3.24084 10.7524 3.4438 10.626 3.68581C10.4995 3.92781 10.4415 4.19971 10.458 4.47225C10.4745 4.74479 10.565 5.00767 10.7198 5.23263L13.7245 9.73385C13.8274 9.91137 13.9656 10.0659 14.1306 10.188C14.2955 10.31 14.4837 10.397 14.6836 10.4434C14.8835 10.4899 15.0907 10.495 15.2926 10.4583C15.4945 10.4216 15.6867 10.3439 15.8574 10.23C16.0281 10.1161 16.1737 9.96851 16.2852 9.79621C16.3966 9.62391 16.4715 9.4306 16.5054 9.22821C16.5392 9.02582 16.5313 8.81865 16.4819 8.61946C16.4326 8.42028 16.343 8.23331 16.2186 8.0701L13.2139 3.56888C13.0778 3.35719 12.8906 3.1831 12.6696 3.06261C12.4486 2.94212 12.2009 2.87909 11.9492 2.87932ZM38.9771 2.87932C38.7329 2.88632 38.4941 2.95279 38.2814 3.07295C38.0686 3.19311 37.8885 3.36334 37.7564 3.56888L34.7517 8.0701C34.6273 8.23331 34.5377 8.42028 34.4884 8.61946C34.4391 8.81865 34.4311 9.02582 34.4649 9.22821C34.4988 9.4306 34.5737 9.62391 34.6852 9.79621C34.7966 9.96851 34.9422 10.1161 35.1129 10.23C35.2836 10.3439 35.4758 10.4216 35.6777 10.4583C35.8796 10.495 36.0869 10.4899 36.2867 10.4435C36.4866 10.397 36.6748 10.31 36.8398 10.188C37.0047 10.0659 37.1429 9.91137 37.2458 9.73385L40.2535 5.23263C40.4106 5.00439 40.5016 4.73712 40.5163 4.4604C40.5309 4.18368 40.4688 3.90829 40.3367 3.66471C40.2045 3.42112 40.0076 3.21883 39.7677 3.08022C39.5277 2.94161 39.2541 2.87208 38.9771 2.87932ZM25.5057 19.4229C25.4567 19.4225 25.4078 19.4244 25.359 19.4288C25.19 19.441 25.0244 19.4816 24.869 19.5491L11.3506 25.6143C11.0332 25.7564 10.775 26.0043 10.62 26.3156L7.61233 32.2693C7.52081 32.4519 7.4675 32.6513 7.45565 32.8552C7.44381 33.0591 7.47368 33.2633 7.54344 33.4553C7.6132 33.6473 7.72139 33.823 7.86138 33.9717C8.00138 34.1205 8.17024 34.2391 8.35765 34.3204L10.4645 35.2388V41.9642C10.4661 42.2522 10.5505 42.5337 10.7076 42.7751C10.8647 43.0165 11.0879 43.2076 11.3506 43.3257L24.869 49.3381C25.0611 49.4236 25.269 49.4677 25.4793 49.4677C25.6896 49.4677 25.8975 49.4236 26.0896 49.3381L39.6197 43.3257C39.8824 43.2076 40.1056 43.0165 40.2627 42.7751C40.4198 42.5337 40.5042 42.2522 40.5059 41.9642V35.142L42.6156 34.2206C42.8033 34.1381 42.9721 34.018 43.1116 33.8678C43.2511 33.7176 43.3584 33.5404 43.4268 33.3471C43.4953 33.1539 43.5234 32.9487 43.5096 32.7441C43.4957 32.5396 43.4401 32.34 43.3463 32.1578L40.3415 26.2598C40.1882 25.9511 39.9333 25.7045 39.6197 25.5615L26.0896 19.5491C25.9054 19.4684 25.7068 19.4254 25.5057 19.4229ZM26.9875 23.2316L35.3151 26.9318L25.4793 31.3039L15.6993 26.9523L23.9828 23.2404V26.9347C23.9828 28.9384 26.9875 28.9384 26.9875 26.9347V23.2316ZM38.3198 28.889L39.9542 32.0932L29.1853 36.8057L27.5832 33.6572L38.3198 28.889ZM12.6828 28.9036L23.4282 33.6807L21.7879 36.9055L11.0191 32.2047L12.6828 28.9036ZM37.5011 36.4536V40.9871L26.9875 45.6526V39.0945L27.1548 39.4231C27.328 39.765 27.6253 40.0277 27.9859 40.1576C28.3464 40.2874 28.743 40.2745 29.0944 40.1215L37.5011 36.4536ZM13.4692 36.5504L21.876 40.2212C22.2259 40.3751 22.6214 40.3898 22.9818 40.2622C23.3422 40.1346 23.6403 39.8744 23.8155 39.5346L23.9828 39.206V45.6556L13.4692 40.9871V36.5504Z" fill="#CCCCCC"/>
</g>
<defs>
<clipPath id="clip0_2115_1317">
<rect width="48" height="48" fill="white" transform="translate(1.44922 1.39453)"/>
</clipPath>
</defs>
</svg>
