<svg width="25" height="25" viewBox="0 0 25 25" fill="none" xmlns="http://www.w3.org/2000/svg">
<path d="M12.3032 2.54175C12.5577 2.09025 13.2079 2.09025 13.4624 2.54175L16.6123 8.13018C16.7072 8.29862 16.8707 8.41742 17.0602 8.45566L23.3485 9.72445C23.8566 9.82696 24.0575 10.4453 23.7067 10.8269L19.3652 15.5495C19.2343 15.6918 19.1719 15.8841 19.1941 16.0761L19.9305 22.4487C19.9901 22.9636 19.464 23.3457 18.9928 23.13L13.1597 20.4604C12.9839 20.3799 12.7818 20.3799 12.6059 20.4604L6.77284 23.13C6.30158 23.3457 5.77557 22.9636 5.83507 22.4487L6.57157 16.0761C6.59377 15.8841 6.53131 15.6918 6.40046 15.5495L2.0589 10.8269C1.70814 10.4453 1.90906 9.82696 2.4171 9.72445L8.70538 8.45566C8.89491 8.41742 9.05843 8.29862 9.15337 8.13018L12.3032 2.54175Z" fill="#8D76FF"/>
</svg>
