<svg width="25" height="25" viewBox="0 0 25 25" fill="none" xmlns="http://www.w3.org/2000/svg">
<path d="M12.5049 2.78711C12.5682 2.67533 12.7287 2.67534 12.792 2.78711L15.9424 8.37598C16.1086 8.67072 16.3949 8.87824 16.7266 8.94531L23.0156 10.2148C23.1415 10.2405 23.1913 10.3936 23.1045 10.4883L18.7627 15.2109C18.5335 15.4603 18.424 15.7974 18.4629 16.1338L19.1992 22.5059C19.214 22.6336 19.0838 22.729 18.9668 22.6758L13.1338 20.0059C12.8258 19.8649 12.471 19.8649 12.1631 20.0059L6.33008 22.6758C6.21309 22.729 6.08289 22.6336 6.09766 22.5059L6.83398 16.1338C6.87287 15.7974 6.76338 15.4603 6.53418 15.2109L2.19238 10.4883C2.10561 10.3936 2.15542 10.2405 2.28125 10.2148L8.57031 8.94531C8.90198 8.87824 9.18827 8.67072 9.35449 8.37598L12.5049 2.78711Z" stroke="white"/>
</svg>
