<svg width="25" height="25" viewBox="0 0 25 25" fill="none" xmlns="http://www.w3.org/2000/svg">
<path d="M12.2801 13.984L7.38008 18.884C7.19674 19.0674 6.96341 19.159 6.68008 19.159C6.39674 19.159 6.16341 19.0674 5.98008 18.884C5.79674 18.7007 5.70508 18.4674 5.70508 18.184C5.70508 17.9007 5.79674 17.6674 5.98008 17.484L10.8801 12.584L5.98008 7.68403C5.79674 7.5007 5.70508 7.26737 5.70508 6.98403C5.70508 6.7007 5.79674 6.46737 5.98008 6.28403C6.16341 6.1007 6.39674 6.00903 6.68008 6.00903C6.96341 6.00903 7.19674 6.1007 7.38008 6.28403L12.2801 11.184L17.1801 6.28403C17.3634 6.1007 17.5967 6.00903 17.8801 6.00903C18.1634 6.00903 18.3967 6.1007 18.5801 6.28403C18.7634 6.46737 18.8551 6.7007 18.8551 6.98403C18.8551 7.26737 18.7634 7.5007 18.5801 7.68403L13.6801 12.584L18.5801 17.484C18.7634 17.6674 18.8551 17.9007 18.8551 18.184C18.8551 18.4674 18.7634 18.7007 18.5801 18.884C18.3967 19.0674 18.1634 19.159 17.8801 19.159C17.5967 19.159 17.3634 19.0674 17.1801 18.884L12.2801 13.984Z" fill="black"/>
</svg>
