<svg width="33" height="33" viewBox="0 0 33 33" fill="none" xmlns="http://www.w3.org/2000/svg">
<g clip-path="url(#clip0_486_607)">
<path d="M16.251 0.583984C8.31502 0.592802 1.88382 7.024 1.875 14.96V18.2079C1.875 26.1476 8.3114 32.584 16.251 32.584C24.1907 32.584 30.6271 26.1476 30.6271 18.2079V14.96C30.6183 7.024 24.1871 0.592802 16.251 0.583984ZM16.251 31.4659C10.0466 31.4661 4.66364 27.1825 3.27053 21.1364C5.65191 26.1464 10.7039 29.3386 16.251 29.3386C21.7982 29.3386 26.8501 26.1463 29.2316 21.1364C27.8384 27.1825 22.4555 31.4661 16.251 31.4659ZM16.251 28.2712C8.89951 28.2712 2.9399 22.3116 2.9399 14.96C2.9399 7.6085 8.89951 1.64888 16.251 1.64888C23.6026 1.64888 29.5622 7.6085 29.5622 14.96C29.5539 22.3081 23.5992 28.2629 16.251 28.2712Z" fill="black"/>
<path d="M16.2517 3.7793C10.0764 3.7793 5.07031 8.78534 5.07031 14.9606C5.07031 21.1359 10.0764 26.142 16.2517 26.142C22.427 26.142 27.433 21.1359 27.433 14.9606C27.426 8.78826 22.424 3.78634 16.2517 3.7793ZM16.2517 25.0771C10.6645 25.0771 6.13521 20.5478 6.13521 14.9606C6.13521 9.37352 10.6645 4.8442 16.2517 4.8442C21.8388 4.8442 26.3681 9.37352 26.3681 14.9606C26.3619 20.5453 21.8363 25.0709 16.2517 25.0771Z" fill="black"/>
<path d="M22.2484 12.1297L18.7715 11.6451L17.2104 8.61817C17.0245 8.26223 16.6562 8.03906 16.2546 8.03906C15.8531 8.03906 15.4848 8.26223 15.2989 8.61817L13.7282 11.6478L10.2587 12.1297C9.84831 12.1839 9.50652 12.4711 9.38231 12.866C9.25703 13.2565 9.37032 13.6841 9.67247 13.9612L12.1616 16.2753L11.5663 19.5647C11.4946 19.9608 11.6542 20.3632 11.9779 20.6025C12.3053 20.8482 12.7438 20.8866 13.1089 20.7015L16.2567 19.1276L19.3933 20.7015C19.7582 20.8865 20.1966 20.8481 20.5237 20.6025C20.8475 20.3631 21.0071 19.9604 20.9353 19.5642L20.3448 16.2796L22.8335 13.9613C23.136 13.6844 23.2497 13.2566 23.1242 12.8661C23.0002 12.4713 22.6586 12.1841 22.2484 12.1297ZM19.6197 15.4995C19.3539 15.7443 19.2319 16.1082 19.2965 16.4638L19.8715 19.75L16.737 18.1766C16.4318 18.0233 16.0721 18.0233 15.7669 18.1766L12.6169 19.7527L13.2074 16.4638C13.2719 16.1086 13.1504 15.7451 12.8852 15.5001L10.4024 13.185L13.8713 12.7058C14.2168 12.6583 14.5177 12.4461 14.6785 12.1366L16.2598 9.10377V9.10694L17.8237 12.1339C17.9847 12.4437 18.2861 12.6559 18.632 12.7031L22.1083 13.1823L19.6197 15.4995Z" fill="black"/>
</g>
<defs>
<clipPath id="clip0_486_607">
<rect width="32" height="32" fill="white" transform="translate(0.25 0.583984)"/>
</clipPath>
</defs>
</svg>
