<svg width="19" height="19" viewBox="0 0 19 19" fill="none" xmlns="http://www.w3.org/2000/svg">
<path d="M5.88151 14.5065C5.88151 15.2398 6.48151 15.8398 7.21484 15.8398H12.5482C13.2815 15.8398 13.8815 15.2398 13.8815 14.5065V7.83984C13.8815 7.10651 13.2815 6.50651 12.5482 6.50651H7.21484C6.48151 6.50651 5.88151 7.10651 5.88151 7.83984V14.5065ZM13.8815 4.50651H12.2148L11.7415 4.03318C11.6215 3.91318 11.4482 3.83984 11.2748 3.83984H8.48818C8.31484 3.83984 8.14151 3.91318 8.02151 4.03318L7.54818 4.50651H5.88151C5.51484 4.50651 5.21484 4.80651 5.21484 5.17318C5.21484 5.53984 5.51484 5.83984 5.88151 5.83984H13.8815C14.2482 5.83984 14.5482 5.53984 14.5482 5.17318C14.5482 4.80651 14.2482 4.50651 13.8815 4.50651Z" fill="#D90050"/>
</svg>
