<svg width="19" height="19" viewBox="0 0 19 19" fill="none" xmlns="http://www.w3.org/2000/svg">
<path d="M11.2148 7.17316H4.54818C3.81284 7.17316 3.21484 7.77116 3.21484 8.50649V15.1732C3.21484 15.9085 3.81284 16.5065 4.54818 16.5065H11.2148C11.9502 16.5065 12.5482 15.9085 12.5482 15.1732V8.50649C12.5482 7.77116 11.9502 7.17316 11.2148 7.17316Z" fill="#707070"/>
<path d="M15.2148 3.17316H8.54818C8.19456 3.17316 7.85542 3.31363 7.60537 3.56368C7.35532 3.81373 7.21484 4.15287 7.21484 4.50649V5.83982H12.5482C12.9018 5.83982 13.2409 5.9803 13.491 6.23035C13.741 6.4804 13.8815 6.81953 13.8815 7.17316V12.5065H15.2148C15.5685 12.5065 15.9076 12.366 16.1577 12.116C16.4077 11.8659 16.5482 11.5268 16.5482 11.1732V4.50649C16.5482 4.15287 16.4077 3.81373 16.1577 3.56368C15.9076 3.31363 15.5685 3.17316 15.2148 3.17316Z" fill="#707070"/>
</svg>
