<svg width="19" height="19" viewBox="0 0 19 19" fill="none" xmlns="http://www.w3.org/2000/svg">
<path d="M6.38281 3.83984C5.71977 3.83984 5.08389 4.10324 4.61505 4.57208C4.1462 5.04092 3.88281 5.6768 3.88281 6.33984V6.83984H6.88281V3.83984H6.38281ZM7.88281 3.83984V6.83984H11.8828V3.83984H7.88281ZM6.88281 7.83984H3.88281V11.8398H6.88281V7.83984ZM7.88281 11.8398V7.83984H11.8828V8.78384L8.82681 11.8398H7.88281ZM6.88281 12.8398H3.88281V13.3398C3.88281 14.0029 4.1462 14.6388 4.61505 15.1076C5.08389 15.5765 5.71977 15.8398 6.38281 15.8398H6.88281V12.8398ZM15.8828 6.83984V6.33984C15.8828 5.6768 15.6194 5.04092 15.1506 4.57208C14.6817 4.10324 14.0459 3.83984 13.3828 3.83984H12.8828V6.83984H15.8828ZM8.86281 13.2168L13.6928 8.38684C14.0437 8.03623 14.5195 7.83936 15.0155 7.83955C15.5116 7.83973 15.9872 8.03696 16.3378 8.38784C16.6884 8.73873 16.8853 9.21452 16.8851 9.71055C16.8849 10.2066 16.6877 10.6822 16.3368 11.0328L11.5068 15.8618C11.2254 16.1432 10.8728 16.343 10.4868 16.4398L8.98881 16.8138C8.83986 16.851 8.68384 16.8489 8.53591 16.8079C8.38798 16.7669 8.25316 16.6884 8.14457 16.5799C8.03597 16.4714 7.95728 16.3366 7.91615 16.1887C7.87501 16.0408 7.87283 15.8848 7.90981 15.7358L8.28481 14.2378C8.38167 13.8518 8.58143 13.4993 8.86281 13.2178" fill="#707070"/>
</svg>
