<svg width="51" height="51" viewBox="0 0 51 51" fill="none" xmlns="http://www.w3.org/2000/svg">
<path d="M19.1829 37.623H12.2529C11.5012 37.623 10.8779 36.9997 10.8779 36.248C10.8779 35.4964 11.5012 34.873 12.2529 34.873H19.1829C19.9345 34.873 20.5579 35.4964 20.5579 36.248C20.5579 36.9997 19.9345 37.623 19.1829 37.623ZM7.39453 33.9564C6.64286 33.9564 6.01953 33.3514 6.01953 32.5814V25.6514C6.01953 24.8997 6.64286 24.2764 7.39453 24.2764C8.1462 24.2764 8.76953 24.8997 8.76953 25.6514V32.5814C8.76953 33.333 8.1462 33.9564 7.39453 33.9564ZM7.39453 20.078C6.64286 20.078 6.01953 19.4547 6.01953 18.703V11.773C6.01953 11.0214 6.64286 10.398 7.39453 10.398C8.1462 10.398 8.76953 11.0214 8.76953 11.773V18.703C8.76953 19.4547 8.1462 20.078 7.39453 20.078ZM36.7279 18.8497C35.9762 18.8497 35.3529 18.2264 35.3529 17.4747V10.563C35.3529 9.81138 35.9762 9.16971 36.7279 9.16971C37.4795 9.16971 38.1029 9.77471 38.1029 10.5264V17.4564C38.1029 18.208 37.4795 18.8314 36.7279 18.8314V18.8497ZM31.8512 8.27138H24.9212C24.1695 8.27138 23.5462 7.64804 23.5462 6.89638C23.5462 6.14471 24.1695 5.52138 24.9212 5.52138H31.8512C32.6029 5.52138 33.2262 6.14471 33.2262 6.89638C33.2262 7.64804 32.6029 8.27138 31.8512 8.27138ZM17.9729 8.27138H11.0612C10.3095 8.27138 9.66786 7.64804 9.66786 6.89638C9.66786 6.14471 10.2729 5.52138 11.0245 5.52138H17.9545C18.7062 5.52138 19.3295 6.14471 19.3295 6.89638C19.3295 7.64804 18.7062 8.27138 17.9545 8.27138H17.9729ZM44.4095 31.243L25.2512 19.528C24.4812 19.0514 23.5279 19.1064 22.8129 19.6747C22.0979 20.2247 21.8229 21.1597 22.0795 22.0214L28.8079 43.453C29.0829 44.2964 29.8162 44.883 30.7145 44.9564H30.8612C31.6862 44.9564 32.4379 44.4797 32.8045 43.728L36.1229 36.743L43.7129 35.203C44.5929 35.0197 45.2529 34.3414 45.3995 33.4614C45.5462 32.5814 45.1612 31.7197 44.4095 31.2614V31.243Z" fill="#CCCCCC"/>
</svg>
