<svg width="51" height="51" viewBox="0 0 51 51" fill="none" xmlns="http://www.w3.org/2000/svg">
<g opacity="0.6">
<g clip-path="url(#clip0_2115_1099)">
<path d="M11.5391 15.5131L19.9409 11.2036L20.7298 11.6166L12.3279 15.9207L11.5391 15.5131Z" fill="#E7E9ED"/>
<path d="M12.3247 15.9207L20.7266 11.6166L20.8166 11.5583L20.9119 11.4895L21.0019 11.4101L21.0866 11.3201L21.1713 11.2195L21.2454 11.1083L21.3089 10.9971L21.3672 10.8754L21.4201 10.7536L21.4572 10.6266L21.4836 10.5048L21.5048 10.383L21.5101 10.2665V9.36653L21.5048 9.25535L21.4836 9.15477L21.4572 9.05947L21.4201 8.97476L21.3672 8.90064L21.3089 8.84241L21.2454 8.79476L21.1713 8.763L21.1554 8.7577L21.0866 8.74711H21.0707L21.0019 8.74182L20.9807 8.74711L20.9119 8.75241L20.8907 8.763L20.8166 8.78417L20.7954 8.79476L20.7266 8.82123L20.7107 8.83182L10.2282 14.2054L10.1329 14.2637L10.0429 14.3325L9.95288 14.4119L9.86288 14.5019L9.78347 14.6025L5.23047 12.2307L25.7243 1.71643V22.7397L25.5707 22.8191L12.3247 15.9207Z" fill="#A7AEBC"/>
<path d="M20.7227 9.85887V8.95886L21.5115 9.36651V10.2665L20.7227 9.85887Z" fill="#C7CED9"/>
<path d="M21.509 9.36655L20.7201 8.9589L20.7148 8.84772L21.5037 9.25537L21.509 9.36655Z" fill="#C7CED9"/>
<path d="M19.9375 11.2036L20.0328 11.1506L20.8163 11.5583L20.7263 11.6165L19.9375 11.2036Z" fill="#E7E9ED"/>
<path d="M20.8187 11.5583L20.0352 11.1507L20.1252 11.0818L20.914 11.4895L20.8187 11.5583Z" fill="#E7E9ED"/>
<path d="M20.9138 11.4895L20.125 11.0819L20.215 11.0024L21.0038 11.4101L20.9138 11.4895Z" fill="#E7E9ED"/>
<path d="M21.0037 11.4101L20.2148 11.0024L20.3048 10.9071L21.0884 11.3201L21.0037 11.4101Z" fill="#E7E9ED"/>
<path d="M21.0882 11.3201L20.3047 10.9071L20.3841 10.8065L21.1729 11.2195L21.0882 11.3201Z" fill="#E7E9ED"/>
<path d="M21.1716 11.2195L20.3828 10.8066L20.4569 10.7007L21.2458 11.1083L21.1716 11.2195Z" fill="#E7E9ED"/>
<path d="M21.2459 11.1084L20.457 10.7007L20.5259 10.5842L21.3094 10.9972L21.2459 11.1084Z" fill="#C7CED9"/>
<path d="M21.3109 10.9971L20.5273 10.5842L20.5856 10.4677L21.3691 10.8754L21.3109 10.9971Z" fill="#C7CED9"/>
<path d="M21.3695 10.8754L20.5859 10.4678L20.6336 10.3407L21.4224 10.7536L21.3695 10.8754Z" fill="#C7CED9"/>
<path d="M21.4216 10.7536L20.6328 10.3406L20.6699 10.2189L21.4587 10.6265L21.4216 10.7536Z" fill="#C7CED9"/>
<path d="M21.4568 10.6265L20.668 10.2189L20.6997 10.0971L21.4833 10.5048L21.4568 10.6265Z" fill="#C7CED9"/>
<path d="M21.4828 10.5048L20.6992 10.0972L20.7151 9.9754L21.5039 10.3831L21.4828 10.5048Z" fill="#C7CED9"/>
<path d="M21.5037 10.383L20.7148 9.97536L20.7201 9.85889L21.509 10.2665L21.5037 10.383Z" fill="#C7CED9"/>
<path d="M21.3125 8.84237L21.3707 8.9006L21.0742 8.74707H21.0901L21.1589 8.75766L21.3125 8.84237Z" fill="#C7CED9"/>
<path d="M21.0705 8.74712L21.3669 8.90065L21.4199 8.97477L20.9805 8.74712L21.0016 8.74182L21.0705 8.74712Z" fill="#C7CED9"/>
<path d="M20.9806 8.74707L21.42 8.97472L21.4571 9.05943L20.8906 8.76295L20.9118 8.75236L20.9806 8.74707Z" fill="#C7CED9"/>
<path d="M20.8883 8.763L21.4547 9.05947L21.4812 9.15477L20.793 8.79477L20.8141 8.78418L20.8883 8.763Z" fill="#C7CED9"/>
<path d="M20.7917 8.79474L21.48 9.15474L21.5012 9.25533L20.7123 8.84768L20.707 8.8318L20.7229 8.82121L20.7917 8.79474Z" fill="#C7CED9"/>
<path d="M21.2463 8.79475L21.3098 8.8424L21.1562 8.75769L21.1721 8.76298L21.2463 8.79475Z" fill="#C7CED9"/>
<path d="M25.7227 1.71643L46.0682 12.3101L46.2588 37.4522L25.7227 26.5356V1.71643Z" fill="#C0C7D0"/>
<path d="M25.5664 50.2747L3.64844 38.8658V12.2254L25.5664 23.6397V50.2747Z" fill="#C7CED9"/>
<path d="M25.7305 0.901123L47.6484 12.3101L25.5664 23.6344L3.64844 12.2254L25.7305 0.901123ZM25.7252 1.71643L5.2314 12.2307L9.7844 14.6025L11.5368 15.5131L12.3256 15.9207L25.5717 22.8191L25.7252 22.7397L46.0708 12.3048L25.7252 1.71643Z" fill="#E7E9ED"/>
<path d="M25.5664 50.2747V23.6343L47.6485 12.3101V38.9504L25.5664 50.2747ZM31.3635 27.9967L41.8566 22.6125L41.9519 22.5596L42.0472 22.4908L42.1372 22.4114L42.2219 22.3214L42.3013 22.2208L42.3755 22.1096L42.4443 21.9931L42.5025 21.8714L42.5502 21.7496L42.5872 21.6278L42.6137 21.5061L42.6296 21.3843V21.2678L42.6349 20.3678V20.2566L42.6137 20.1508L42.5872 20.0555L42.5502 19.9708L42.5025 19.8966L42.4443 19.8384L42.3755 19.7907L42.3013 19.759H42.2855L42.2219 19.7431H42.2007H42.1372H42.116L42.0472 19.7537H42.026L41.9572 19.7802L41.9307 19.7907L41.8619 19.8225H41.8513L31.3688 25.2067L31.2735 25.2596L31.1782 25.3285L31.0882 25.4079L31.0035 25.4979L30.9241 25.5985L30.85 25.7097L30.7812 25.8261L30.7229 25.9479L30.6753 26.0697L30.6382 26.1914L30.6118 26.3132L30.5959 26.435V26.5514L30.5906 26.6944V27.5626L30.6012 27.5785V27.5944L30.6171 27.6685L30.6276 27.695L30.6488 27.7638L30.6594 27.7903L30.6859 27.8485L30.7018 27.8697L30.7335 27.9173L30.7547 27.9385L30.7918 27.9809L30.8182 28.002L30.8553 28.0285L30.9294 28.0603L31.0088 28.0762H31.0935L31.1835 28.0656L31.2788 28.0391L31.3741 27.9967H31.3635Z" fill="#A7AEBC"/>
<path d="M41.8573 22.6178L31.3642 27.9967L30.5859 27.5944V27.5838L31.4383 27.1444L41.0684 22.2049L41.8573 22.6178Z" fill="#E7E9ED"/>
<path d="M41.8591 22.6179L41.0703 22.2049L41.1656 22.152L41.9544 22.5596L41.8591 22.6179Z" fill="#E7E9ED"/>
<path d="M41.949 22.5596L41.1602 22.152L41.2555 22.0831L42.039 22.4908L41.949 22.5596Z" fill="#E7E9ED"/>
<path d="M42.0414 22.4908L41.2578 22.0831L41.3478 22.0037L42.1314 22.4114L42.0414 22.4908Z" fill="#E7E9ED"/>
<path d="M42.1312 22.4114L41.3477 22.0037L41.4324 21.9084L42.2212 22.3214L42.1312 22.4114Z" fill="#E7E9ED"/>
<path d="M42.2224 22.3214L41.4336 21.9085L41.513 21.8079L42.3018 22.2208L42.2224 22.3214Z" fill="#E7E9ED"/>
<path d="M42.3006 22.2207L41.5117 21.8078L41.5858 21.7019L42.3747 22.1096L42.3006 22.2207Z" fill="#E7E9ED"/>
<path d="M42.3787 22.1096L41.5898 21.7019L41.6587 21.5854L42.4475 21.9931L42.3787 22.1096Z" fill="#E7E9ED"/>
<path d="M42.4451 21.9931L41.6562 21.5855L41.7145 21.4637L42.5033 21.8766L42.4451 21.9931Z" fill="#E7E9ED"/>
<path d="M42.4998 21.8766L41.7109 21.4637L41.7586 21.3419L42.5474 21.7549L42.4998 21.8766Z" fill="#C7CED9"/>
<path d="M42.5506 21.7549L41.7617 21.3419L41.8041 21.2202L42.5876 21.6278L42.5506 21.7549Z" fill="#C7CED9"/>
<path d="M42.5882 21.6279L41.8047 21.2202L41.8312 21.0931L42.62 21.5061L42.5882 21.6279Z" fill="#C7CED9"/>
<path d="M42.617 21.506L41.8281 21.0931L41.844 20.9766L42.6328 21.3843L42.617 21.506Z" fill="#C7CED9"/>
<path d="M42.6365 21.3843L41.8477 20.9766L41.853 20.8549L42.6418 21.2678L42.6365 21.3843Z" fill="#C7CED9"/>
<path d="M42.6404 21.2679L41.8516 20.8549V19.9602L42.6404 20.3679V21.2679Z" fill="#C7CED9"/>
<path d="M42.4428 19.8437L42.501 19.9019L42.1992 19.7431H42.2204L42.2839 19.759L42.4428 19.8437Z" fill="#C7CED9"/>
<path d="M42.4401 19.8437L42.2812 19.759L42.2971 19.7643L42.3713 19.796L42.4401 19.8437Z" fill="#C7CED9"/>
<path d="M42.5011 19.9019L42.5488 19.976L42.1094 19.7484L42.1306 19.7431H42.1994L42.5011 19.9019Z" fill="#C7CED9"/>
<path d="M42.1095 19.7484L42.549 19.9761L42.586 20.0608L42.0195 19.7643L42.0407 19.7537L42.1095 19.7484Z" fill="#C7CED9"/>
<path d="M42.0211 19.7643L42.5876 20.0608L42.6193 20.1508L41.9258 19.7908L41.9522 19.7802L42.0211 19.7643Z" fill="#C7CED9"/>
<path d="M41.9271 19.7907L42.6206 20.1507L42.6365 20.2566L41.8477 19.8489V19.8278L41.8582 19.8225L41.9271 19.7907Z" fill="#C7CED9"/>
<path d="M41.8477 19.8489L42.6365 20.2566L42.6418 20.3678L41.853 19.9601L41.8477 19.8489Z" fill="#C7CED9"/>
<path d="M31.3642 27.9967L31.2689 28.0391L30.6071 27.695L30.6018 27.6685L30.5859 27.5944L31.3642 27.9967Z" fill="#E7E9ED"/>
<path d="M30.6055 27.6949L31.2672 28.0391L31.1719 28.0655L30.6372 27.7902L30.6266 27.7638L30.6055 27.6949Z" fill="#E7E9ED"/>
<path d="M30.6367 27.7902L31.1714 28.0655L31.0814 28.0814L30.6791 27.8696L30.6632 27.8485L30.6367 27.7902Z" fill="#E7E9ED"/>
<path d="M30.6797 27.8697L31.082 28.0815L30.9973 28.0762L30.7326 27.9385L30.7167 27.9226L30.6797 27.8697Z" fill="#E7E9ED"/>
<path d="M30.7344 27.9385L30.9991 28.0761L30.9144 28.0602L30.8032 28.002L30.7767 27.9808L30.7344 27.9385Z" fill="#E7E9ED"/>
</g>
</g>
<defs>
<clipPath id="clip0_2115_1099">
<rect width="44" height="49.3736" fill="white" transform="translate(3.64844 0.901123)"/>
</clipPath>
</defs>
</svg>
