<svg width="19" height="19" viewBox="0 0 19 19" fill="none" xmlns="http://www.w3.org/2000/svg">
<g clip-path="url(#clip0_486_293)">
<path d="M9.125 15.9688C4.175 15.9688 0.125 11.3 0.125 9.78125C0.125 8.2625 4.175 3.59375 9.125 3.59375C14.075 3.59375 18.125 8.26531 18.125 9.78125C18.125 11.2972 14.075 15.9688 9.125 15.9688ZM9.125 4.71875C4.72287 4.71875 1.28206 8.969 1.25 9.78125C1.28206 10.5924 4.72287 14.8438 9.125 14.8438C13.5271 14.8438 16.9651 10.5974 17 9.78125C16.9651 8.96506 13.5249 4.71875 9.125 4.71875Z" fill="#CCCCCC"/>
<path d="M9.125 13.7188C8.34624 13.7188 7.58496 13.4878 6.93744 13.0552C6.28993 12.6225 5.78525 12.0076 5.48723 11.2881C5.18921 10.5686 5.11123 9.77688 5.26316 9.01308C5.41509 8.24928 5.7901 7.54769 6.34077 6.99702C6.89144 6.44635 7.59303 6.07134 8.35683 5.91941C9.12063 5.76748 9.91233 5.84546 10.6318 6.14348C11.3513 6.4415 11.9663 6.94618 12.3989 7.59369C12.8316 8.24121 13.0625 9.00249 13.0625 9.78125C13.0613 10.8252 12.6461 11.826 11.9079 12.5642C11.1698 13.3023 10.1689 13.7176 9.125 13.7188ZM9.125 6.96875C8.56874 6.96875 8.02497 7.1337 7.56246 7.44274C7.09995 7.75179 6.73946 8.19104 6.52659 8.70495C6.31372 9.21887 6.25802 9.78437 6.36654 10.3299C6.47506 10.8755 6.74293 11.3767 7.13626 11.77C7.5296 12.1633 8.03074 12.4312 8.57631 12.5397C9.12188 12.6482 9.68738 12.5925 10.2013 12.3797C10.7152 12.1668 11.1545 11.8063 11.4635 11.3438C11.7726 10.8813 11.9375 10.3375 11.9375 9.78125C11.9366 9.0356 11.64 8.32075 11.1128 7.7935C10.5855 7.26625 9.87065 6.96964 9.125 6.96875Z" fill="#CCCCCC"/>
<path d="M1.08594 5.00391L17.0859 14.0039" stroke="#CCCCCC" stroke-linecap="round"/>
</g>
<defs>
<clipPath id="clip0_486_293">
<rect width="18" height="18" fill="white" transform="translate(0.125 0.78125)"/>
</clipPath>
</defs>
</svg>
