<svg width="33" height="33" viewBox="0 0 33 33" fill="none" xmlns="http://www.w3.org/2000/svg">
<g clip-path="url(#clip0_486_617)">
<path fill-rule="evenodd" clip-rule="evenodd" d="M8.68756 16.5199C8.70831 10.0575 14.0113 4.83398 20.4686 4.83398C26.9751 4.83398 32.2496 10.1085 32.2496 16.615C32.2496 23.1215 26.9751 28.3961 20.4686 28.3961C13.9665 28.3961 8.70806 23.039 8.68756 16.558H8.6875C8.6875 16.5517 8.6875 16.5453 8.6875 16.539C8.6875 16.5326 8.6875 16.5263 8.6875 16.5199H8.68756ZM10.1759 16.539C10.1862 22.2232 14.7987 26.9077 20.4686 26.9077C26.1531 26.9077 30.7612 22.2995 30.7612 16.615C30.7612 10.9305 26.1531 6.32235 20.4686 6.32235C14.8169 6.32235 10.1863 10.8997 10.1759 16.539Z" fill="#4D4D4D"/>
<path fill-rule="evenodd" clip-rule="evenodd" d="M11.6602 16.5447C11.6753 11.701 15.6492 7.78809 20.4865 7.78809C25.3611 7.78809 29.3128 11.7398 29.3128 16.6144C29.3128 21.489 25.3611 25.4407 20.4865 25.4407C15.6128 25.4407 11.6752 21.4264 11.6602 16.5726C11.6602 16.568 11.6602 16.5633 11.6602 16.5587C11.6602 16.554 11.6602 16.5494 11.6602 16.5447ZM13.1485 16.5587C13.1561 20.6134 16.4467 23.9523 20.4865 23.9523C24.5391 23.9523 27.8244 20.667 27.8244 16.6144C27.8244 12.5618 24.5391 9.27646 20.4865 9.27646C16.4565 9.27646 13.1561 12.5406 13.1485 16.5587Z" fill="#4D4D4D"/>
<path fill-rule="evenodd" clip-rule="evenodd" d="M20.4004 11.0908C20.8114 11.0908 21.1446 11.424 21.1446 11.835V15.98L24.1211 18.9564C24.4117 19.247 24.4117 19.7182 24.1211 20.0088C23.8304 20.2994 23.3592 20.2994 23.0686 20.0088L19.8742 16.8144C19.7347 16.6749 19.6562 16.4856 19.6562 16.2883V11.835C19.6562 11.424 19.9894 11.0908 20.4004 11.0908Z" fill="#4D4D4D"/>
<path fill-rule="evenodd" clip-rule="evenodd" d="M9.07106 11.8448C9.07106 11.4338 8.73787 11.1006 8.32687 11.1006H2.00981C1.59881 11.1006 1.26562 11.4338 1.26562 11.8448C1.26562 12.2558 1.59881 12.589 2.00981 12.589H8.32687C8.73787 12.589 9.07106 12.2558 9.07106 11.8448Z" fill="#4D4D4D"/>
<path fill-rule="evenodd" clip-rule="evenodd" d="M7.98778 16.7178C7.98778 16.3068 7.65459 15.9736 7.24359 15.9736H0.994184C0.583184 15.9736 0.25 16.3068 0.25 16.7178C0.25 17.1288 0.583184 17.462 0.994184 17.462H7.24359C7.65459 17.462 7.98778 17.1288 7.98778 16.7178Z" fill="#4D4D4D"/>
<path fill-rule="evenodd" clip-rule="evenodd" d="M9.07106 21.4102C9.07106 20.9992 8.73787 20.666 8.32687 20.666H2.00981C1.59881 20.666 1.26562 20.9992 1.26562 21.4102C1.26562 21.8212 1.59881 22.1544 2.00981 22.1544H8.32687C8.73787 22.1544 9.07106 21.8212 9.07106 21.4102Z" fill="#4D4D4D"/>
</g>
<defs>
<clipPath id="clip0_486_617">
<rect width="32" height="32" fill="white" transform="translate(0.25 0.583984)"/>
</clipPath>
</defs>
</svg>
