<svg width="19" height="19" viewBox="0 0 19 19" fill="none" xmlns="http://www.w3.org/2000/svg">
<g clip-path="url(#clip0_555_414)">
<path d="M4.70793 11.3894L4.08138 13.7285L1.79133 13.7769C1.10695 12.5075 0.71875 11.0552 0.71875 9.51182C0.71875 8.0194 1.0817 6.61203 1.72506 5.3728H1.72555L3.76434 5.74658L4.65745 7.77313C4.47052 8.31809 4.36864 8.90309 4.36864 9.51182C4.36871 10.1725 4.48838 10.8055 4.70793 11.3894Z" fill="#FBBB00"/>
<path d="M18.5629 7.83008C18.6662 8.37451 18.7201 8.93676 18.7201 9.51139C18.7201 10.1557 18.6524 10.7843 18.5233 11.3905C18.0852 13.4536 16.9404 15.2551 15.3545 16.5299L15.354 16.5294L12.7861 16.3984L12.4226 14.1296C13.4749 13.5125 14.2973 12.5467 14.7305 11.3905H9.91797V7.83008H14.8007H18.5629Z" fill="#518EF8"/>
<path d="M15.3504 16.53L15.3509 16.5305C13.8085 17.7702 11.8493 18.512 9.71648 18.512C6.28906 18.512 3.30918 16.5963 1.78906 13.7771L4.70566 11.3896C5.4657 13.4181 7.42246 14.8621 9.71648 14.8621C10.7025 14.8621 11.6263 14.5955 12.4189 14.1302L15.3504 16.53Z" fill="#28B446"/>
<path d="M15.4649 2.58369L12.5493 4.97066C11.7289 4.45787 10.7592 4.16164 9.72025 4.16164C7.37431 4.16164 5.38095 5.67185 4.65898 7.77303L1.72705 5.3727H1.72656C3.22443 2.48479 6.24189 0.511719 9.72025 0.511719C11.904 0.511719 13.9062 1.28959 15.4649 2.58369Z" fill="#F14336"/>
</g>
<defs>
<clipPath id="clip0_555_414">
<rect width="18" height="18" fill="white" transform="translate(0.71875 0.511719)"/>
</clipPath>
</defs>
</svg>
