<svg width="24" height="25" viewBox="0 0 24 25" fill="none" xmlns="http://www.w3.org/2000/svg">
<path d="M4 18.584C3.71667 18.584 3.47934 18.488 3.288 18.296C3.09667 18.104 3.00067 17.8667 3 17.584C2.99934 17.3013 3.09534 17.064 3.288 16.872C3.48067 16.68 3.718 16.584 4 16.584H20C20.2833 16.584 20.521 16.68 20.713 16.872C20.905 17.064 21.0007 17.3013 21 17.584C20.9993 17.8667 20.9033 18.1043 20.712 18.297C20.5207 18.4897 20.2833 18.5853 20 18.584H4ZM4 13.584C3.71667 13.584 3.47934 13.488 3.288 13.296C3.09667 13.104 3.00067 12.8667 3 12.584C2.99934 12.3013 3.09534 12.064 3.288 11.872C3.48067 11.68 3.718 11.584 4 11.584H20C20.2833 11.584 20.521 11.68 20.713 11.872C20.905 12.064 21.0007 12.3013 21 12.584C20.9993 12.8667 20.9033 13.1043 20.712 13.297C20.5207 13.4897 20.2833 13.5853 20 13.584H4ZM4 8.58398C3.71667 8.58398 3.47934 8.48798 3.288 8.29598C3.09667 8.10398 3.00067 7.86665 3 7.58398C2.99934 7.30132 3.09534 7.06398 3.288 6.87198C3.48067 6.67998 3.718 6.58398 4 6.58398H20C20.2833 6.58398 20.521 6.67998 20.713 6.87198C20.905 7.06398 21.0007 7.30132 21 7.58398C20.9993 7.86665 20.9033 8.10432 20.712 8.29698C20.5207 8.48965 20.2833 8.58532 20 8.58398H4Z" fill="black"/>
</svg>
