<svg width="16" height="19" viewBox="0 0 16 19" fill="none" xmlns="http://www.w3.org/2000/svg">
<path d="M10.2578 3.74805C10.2578 3.54913 10.1788 3.35837 10.0381 3.21772C9.89749 3.07706 9.70672 2.99805 9.50781 2.99805C9.3089 2.99805 9.11813 3.07706 8.97748 3.21772C8.83683 3.35837 8.75781 3.54913 8.75781 3.74805L8.75781 15.748C8.75781 15.947 8.83683 16.1377 8.97748 16.2784C9.11813 16.419 9.3089 16.498 9.50781 16.498C9.70672 16.498 9.89749 16.419 10.0381 16.2784C10.1788 16.1377 10.2578 15.947 10.2578 15.748L10.2578 3.74805ZM7.25781 3.74805C7.25781 3.54913 7.17879 3.35837 7.03814 3.21772C6.89749 3.07706 6.70672 2.99805 6.50781 2.99805C6.3089 2.99805 6.11813 3.07706 5.97748 3.21772C5.83683 3.35837 5.75781 3.54913 5.75781 3.74805L5.75781 15.748C5.75781 15.947 5.83683 16.1377 5.97748 16.2784C6.11813 16.419 6.3089 16.498 6.50781 16.498C6.70672 16.498 6.89749 16.419 7.03814 16.2784C7.17879 16.1377 7.25781 15.947 7.25781 15.748L7.25781 3.74805Z" fill="#404040"/>
</svg>
