<svg width="19" height="19" viewBox="0 0 19 19" fill="none" xmlns="http://www.w3.org/2000/svg">
<g clip-path="url(#clip0_555_421)">
<path d="M9.21875 18.5117C14.1893 18.5117 18.2188 14.4823 18.2188 9.51172C18.2188 4.54116 14.1893 0.511719 9.21875 0.511719C4.24819 0.511719 0.21875 4.54116 0.21875 9.51172C0.21875 14.4823 4.24819 18.5117 9.21875 18.5117Z" fill="#FFEB3B"/>
<path d="M8.02932 8.76108L7.70511 9.67539H8.3525L8.02932 8.76108ZM8.02932 8.76108L7.70511 9.67539H8.3525L8.02932 8.76108ZM9.21875 4.86755C6.11273 4.86755 3.59375 6.83937 3.59375 9.27346C3.59375 10.8464 4.64614 12.2271 6.23034 13.0054C5.44386 15.7003 4.98159 15.8762 8.21955 13.6088C8.55057 13.6554 8.88446 13.6787 9.21875 13.6784C12.3248 13.6784 14.8438 11.7055 14.8438 9.27244C14.8438 6.83937 12.3248 4.86755 9.21875 4.86755ZM6.10864 10.8106C5.54716 10.8106 5.87852 10.0344 5.78443 8.58824C5.57989 8.55346 4.95909 8.72733 4.95909 8.27221C4.95963 8.1883 4.99341 8.10803 5.05303 8.04899C5.11265 7.98994 5.19325 7.95694 5.27716 7.95721C6.45739 8.0421 7.25716 7.73733 7.25716 8.27221C7.25716 8.73551 6.65989 8.54937 6.43284 8.58824C6.33875 10.0293 6.66909 10.8106 6.10864 10.8106ZM9.16045 10.7615C8.65625 10.9906 8.64398 10.4741 8.52329 10.2502H7.53432C7.41261 10.4793 7.40239 10.9947 6.89716 10.7615C6.51773 10.5877 7.13545 9.70505 7.5967 8.27426C7.62622 8.18288 7.68395 8.10322 7.76159 8.04671C7.83923 7.9902 7.93278 7.95976 8.02881 7.95976C8.12483 7.95976 8.21839 7.9902 8.29602 8.04671C8.37366 8.10322 8.43139 8.18288 8.46091 8.27426C8.93136 9.73267 9.54193 10.5877 9.16045 10.7615ZM9.75977 10.7615C9.2167 10.7615 9.54705 10.0282 9.45295 8.2763C9.45295 7.84983 10.1157 7.85085 10.1157 8.2763V10.1724C10.4286 10.2144 11.1159 10.018 11.1159 10.468C11.1118 10.9436 10.3734 10.7032 9.75977 10.7636V10.7615ZM12.7605 10.6685L11.9995 9.66619L11.887 9.77869V10.4833C11.887 10.526 11.8786 10.5682 11.8623 10.6075C11.8459 10.6468 11.8219 10.6826 11.7917 10.7126C11.7614 10.7426 11.7256 10.7664 11.6861 10.7825C11.6467 10.7986 11.6044 10.8068 11.5618 10.8065C10.9983 10.8065 11.3358 9.99449 11.2376 8.27835C11.2382 8.19272 11.2725 8.11078 11.3333 8.05042C11.394 7.99006 11.4762 7.95619 11.5618 7.95619C12.0517 7.95619 11.84 8.6496 11.886 8.97176C12.8065 8.09324 12.783 8.00017 12.9722 8.00017C13.233 8.00017 13.3925 8.32437 13.2186 8.49619L12.4792 9.23051L13.278 10.2819C13.5388 10.6224 13.0182 11.0121 12.7605 10.6705V10.6685ZM7.70511 9.67539H8.3525L8.02932 8.76108L7.70511 9.67539ZM8.02932 8.76108L7.70511 9.67539H8.3525L8.02932 8.76108ZM8.02932 8.76108L7.70511 9.67539H8.3525L8.02932 8.76108Z" fill="#3E2723"/>
</g>
<defs>
<clipPath id="clip0_555_421">
<rect width="18" height="18" fill="white" transform="translate(0.21875 0.511719)"/>
</clipPath>
</defs>
</svg>
