<svg width="19" height="19" viewBox="0 0 19 19" fill="none" xmlns="http://www.w3.org/2000/svg">
<path d="M12.5 9.03125H5.75C5.6515 9.03128 5.55396 9.01189 5.46296 8.97421C5.37195 8.93653 5.28926 8.88129 5.21961 8.81164C5.14996 8.74199 5.09472 8.6593 5.05704 8.56829C5.01936 8.47729 4.99997 8.37975 5 8.28125V5.65625C5 4.56223 5.4346 3.51302 6.20818 2.73943C6.98177 1.96585 8.03098 1.53125 9.125 1.53125C10.219 1.53125 11.2682 1.96585 12.0418 2.73943C12.8154 3.51302 13.25 4.56223 13.25 5.65625V8.28125C13.25 8.37975 13.2306 8.47729 13.193 8.56829C13.1553 8.6593 13.1 8.74199 13.0304 8.81164C12.9607 8.88129 12.878 8.93653 12.787 8.97421C12.696 9.01189 12.5985 9.03128 12.5 9.03125ZM6.5 7.53125H11.75V5.65625C11.75 4.96006 11.4734 4.29238 10.9812 3.80009C10.4889 3.30781 9.82119 3.03125 9.125 3.03125C8.42881 3.03125 7.76113 3.30781 7.26884 3.80009C6.77656 4.29238 6.5 4.96006 6.5 5.65625V7.53125Z" fill="#CCCCCC"/>
<path d="M12.875 7.53125H5.375C4.57961 7.5321 3.81704 7.84844 3.25462 8.41087C2.69219 8.97329 2.37585 9.73586 2.375 10.5312V15.0312C2.37585 15.8266 2.69219 16.5892 3.25462 17.1516C3.81704 17.7141 4.57961 18.0304 5.375 18.0312H12.875C13.6704 18.0304 14.433 17.7141 14.9954 17.1516C15.5578 16.5892 15.8742 15.8266 15.875 15.0312V10.5312C15.8742 9.73586 15.5578 8.97329 14.9954 8.41087C14.433 7.84844 13.6704 7.5321 12.875 7.53125ZM9.125 13.5312C8.82833 13.5312 8.53832 13.4433 8.29165 13.2785C8.04497 13.1136 7.85271 12.8794 7.73918 12.6053C7.62565 12.3312 7.59594 12.0296 7.65382 11.7386C7.7117 11.4476 7.85456 11.1804 8.06434 10.9706C8.27412 10.7608 8.54139 10.6179 8.83236 10.5601C9.12334 10.5022 9.42494 10.5319 9.69903 10.6454C9.97311 10.759 10.2074 10.9512 10.3722 11.1979C10.537 11.4446 10.625 11.7346 10.625 12.0312C10.625 12.4291 10.4669 12.8106 10.1856 13.0919C9.90435 13.3732 9.52282 13.5312 9.125 13.5312Z" fill="#CCCCCC"/>
</svg>
