<svg width="19" height="19" viewBox="0 0 19 19" fill="none" xmlns="http://www.w3.org/2000/svg">
<path d="M3.80859 16.1445C3.39609 16.1445 3.04309 15.9978 2.74959 15.7043C2.45609 15.4108 2.30909 15.0575 2.30859 14.6445V4.14453C2.30859 3.73203 2.45559 3.37903 2.74959 3.08553C3.04359 2.79203 3.39659 2.64503 3.80859 2.64453H8.30859C8.52109 2.64453 8.69934 2.71653 8.84334 2.86053C8.98734 3.00453 9.05909 3.18253 9.05859 3.39453C9.05809 3.60653 8.98609 3.78478 8.84259 3.92928C8.69909 4.07378 8.52109 4.14553 8.30859 4.14453H3.80859V14.6445H8.30859C8.52109 14.6445 8.69934 14.7165 8.84334 14.8605C8.98734 15.0045 9.05909 15.1825 9.05859 15.3945C9.05809 15.6065 8.98609 15.7848 8.84259 15.9293C8.69909 16.0738 8.52109 16.1455 8.30859 16.1445H3.80859ZM12.9398 10.1445H7.55859C7.34609 10.1445 7.16809 10.0725 7.02459 9.92853C6.88109 9.78453 6.80909 9.60653 6.80859 9.39453C6.80809 9.18253 6.88009 9.00453 7.02459 8.86053C7.16909 8.71653 7.34709 8.64453 7.55859 8.64453H12.9398L11.5336 7.23828C11.3961 7.10078 11.3273 6.93203 11.3273 6.73203C11.3273 6.53203 11.3961 6.35703 11.5336 6.20703C11.6711 6.05703 11.8461 5.97878 12.0586 5.97228C12.2711 5.96578 12.4523 6.03778 12.6023 6.18828L15.2836 8.86953C15.4336 9.01953 15.5086 9.19453 15.5086 9.39453C15.5086 9.59453 15.4336 9.76953 15.2836 9.91953L12.6023 12.6008C12.4523 12.7508 12.2743 12.8228 12.0683 12.8168C11.8623 12.8108 11.6841 12.7325 11.5336 12.582C11.3961 12.432 11.3306 12.254 11.3371 12.048C11.3436 11.842 11.4153 11.67 11.5523 11.532L12.9398 10.1445Z" fill="#707070"/>
</svg>
