<svg width="25" height="25" viewBox="0 0 25 25" fill="none" xmlns="http://www.w3.org/2000/svg">
<path d="M5.64844 10.6973C4.54844 10.6973 3.64844 11.5973 3.64844 12.6973C3.64844 13.7973 4.54844 14.6973 5.64844 14.6973C6.74844 14.6973 7.64844 13.7973 7.64844 12.6973C7.64844 11.5973 6.74844 10.6973 5.64844 10.6973ZM19.6484 10.6973C18.5484 10.6973 17.6484 11.5973 17.6484 12.6973C17.6484 13.7973 18.5484 14.6973 19.6484 14.6973C20.7484 14.6973 21.6484 13.7973 21.6484 12.6973C21.6484 11.5973 20.7484 10.6973 19.6484 10.6973ZM12.6484 10.6973C11.5484 10.6973 10.6484 11.5973 10.6484 12.6973C10.6484 13.7973 11.5484 14.6973 12.6484 14.6973C13.7484 14.6973 14.6484 13.7973 14.6484 12.6973C14.6484 11.5973 13.7484 10.6973 12.6484 10.6973Z" fill="white"/>
</svg>
