<svg width="19" height="19" viewBox="0 0 19 19" fill="none" xmlns="http://www.w3.org/2000/svg">
<path fill-rule="evenodd" clip-rule="evenodd" d="M9.05858 1.89526C10.0435 1.89526 11.0188 2.08925 11.9287 2.46616C12.8387 2.84306 13.6655 3.39551 14.3619 4.09195C15.0583 4.78839 15.6108 5.61518 15.9877 6.52512C16.3646 7.43507 16.5586 8.41034 16.5586 9.39525C16.5586 13.5374 13.2007 16.8953 9.05858 16.8953C4.91647 16.8953 1.55859 13.5374 1.55859 9.39525C1.55859 5.25314 4.91647 1.89526 9.05858 1.89526ZM9.80861 10.1453H8.30859C6.45182 10.1453 4.85773 11.2698 4.17018 12.8751C5.25805 14.4006 7.04216 15.3953 9.05858 15.3953C11.075 15.3953 12.8591 14.4006 13.947 12.875C13.2595 11.2698 11.6654 10.1453 9.80861 10.1453ZM9.05858 4.14526C7.81595 4.14526 6.80858 5.15263 6.80858 6.39526C6.80858 7.6379 7.81595 8.64526 9.05858 8.64526C10.3012 8.64526 11.3086 7.6379 11.3086 6.39526C11.3086 5.15263 10.3013 4.14526 9.05858 4.14526Z" fill="#707070"/>
</svg>
