<svg width="19" height="19" viewBox="0 0 19 19" fill="none" xmlns="http://www.w3.org/2000/svg">
<path d="M16.9419 13.4392C16.9329 13.4203 14.5822 11.2061 14.5681 11.1892C14.1857 10.877 13.221 10.5227 12.3097 11.4283C12.2074 11.5569 11.7082 12.2501 10.4985 11.6589C9.55339 11.0861 8.72588 10.3387 8.06003 9.45672C7.7755 9.10772 7.51699 8.73829 7.28659 8.3514C6.72285 7.09239 7.51272 6.60295 7.57909 6.54297C8.51847 5.66547 8.20066 4.68953 7.88847 4.2789L5.74253 1.84047C4.38152 0.464489 2.61025 2.75826 2.37034 3.17925C0.316344 6.38329 5.6633 12.0553 6.08847 12.5111C6.31788 12.7934 12.2982 18.7562 15.4794 16.7607C15.8938 16.5362 18.2722 14.8604 16.9419 13.4392Z" fill="#CCCCCC"/>
</svg>
