<svg width="19" height="19" viewBox="0 0 19 19" fill="none" xmlns="http://www.w3.org/2000/svg">
<path d="M4.54948 15.8398C4.36059 15.8398 4.20237 15.7758 4.07481 15.6478C3.94726 15.5198 3.88326 15.3616 3.88281 15.1732V13.5565C3.88281 13.3787 3.91615 13.2092 3.98281 13.0478C4.04948 12.8865 4.14392 12.745 4.26615 12.6232L12.6828 4.22318C12.8161 4.10095 12.9635 4.00651 13.1248 3.93984C13.2861 3.87318 13.4555 3.83984 13.6328 3.83984C13.8101 3.83984 13.9824 3.87318 14.1495 3.93984C14.3166 4.00651 14.461 4.10651 14.5828 4.23984L15.4995 5.17318C15.6328 5.2954 15.7299 5.43984 15.7908 5.60651C15.8517 5.77318 15.8824 5.93984 15.8828 6.10651C15.8828 6.28429 15.8521 6.45384 15.7908 6.61518C15.7295 6.77651 15.6324 6.92362 15.4995 7.05651L7.09948 15.4565C6.97726 15.5787 6.83548 15.6732 6.67415 15.7398C6.51281 15.8065 6.34348 15.8398 6.16615 15.8398H4.54948ZM13.6161 7.03984L14.5495 6.10651L13.6161 5.17318L12.6828 6.10651L13.6161 7.03984Z" fill="#707070"/>
</svg>
