<svg width="51" height="51" viewBox="0 0 51 51" fill="none" xmlns="http://www.w3.org/2000/svg">
<g clip-path="url(#clip0_629_1084)">
<path fill-rule="evenodd" clip-rule="evenodd" d="M25.7595 1.32813C24.9338 1.34293 24.2739 2.02225 24.2836 2.8481V8.837C24.2836 10.8406 27.2883 10.8406 27.2883 8.837V2.8481C27.2982 2.00053 26.607 1.31203 25.7595 1.32813ZM12.25 2.81288C11.977 2.81434 11.7095 2.8902 11.4763 3.0323C11.2432 3.1744 11.0532 3.37737 10.9267 3.61937C10.8003 3.86138 10.7422 4.13327 10.7588 4.40581C10.7753 4.67835 10.8658 4.94124 11.0205 5.16619L14.0253 9.66741C14.1282 9.84493 14.2664 9.99948 14.4313 10.1215C14.5963 10.2436 14.7845 10.3305 14.9844 10.377C15.1842 10.4235 15.3915 10.4286 15.5934 10.3918C15.7953 10.3551 15.9875 10.2775 16.1582 10.1636C16.3289 10.0497 16.4745 9.90207 16.5859 9.72977C16.6974 9.55747 16.7723 9.36416 16.8062 9.16177C16.84 8.95939 16.832 8.75221 16.7827 8.55303C16.7334 8.35384 16.6438 8.16688 16.5194 8.00366L13.5147 3.50244C13.3786 3.29075 13.1914 3.11666 12.9704 2.99617C12.7494 2.87568 12.5017 2.81266 12.25 2.81288ZM39.2779 2.81288C39.0337 2.81989 38.7948 2.88635 38.5821 3.00651C38.3694 3.12667 38.1892 3.2969 38.0572 3.50244L35.0525 8.00366C34.9281 8.16688 34.8385 8.35384 34.7892 8.55303C34.7399 8.75221 34.7319 8.95939 34.7657 9.16178C34.7996 9.36416 34.8745 9.55747 34.986 9.72977C35.0974 9.90207 35.243 10.0497 35.4137 10.1636C35.5844 10.2775 35.7766 10.3551 35.9785 10.3918C36.1804 10.4286 36.3876 10.4235 36.5875 10.377C36.7874 10.3305 36.9756 10.2436 37.1405 10.1215C37.3055 9.99948 37.4437 9.84493 37.5466 9.66741L40.5543 5.16619C40.7114 4.93795 40.8024 4.67068 40.817 4.39396C40.8317 4.11724 40.7696 3.84186 40.6374 3.59827C40.5053 3.35469 40.3084 3.1524 40.0684 3.01379C39.8285 2.87517 39.5549 2.80564 39.2779 2.81288ZM25.8065 19.3565C25.7575 19.356 25.7086 19.358 25.6598 19.3623C25.4908 19.3745 25.3251 19.4152 25.1697 19.4827L11.6514 25.5479C11.334 25.69 11.0758 25.9379 10.9208 26.2492L7.91312 32.2028C7.82159 32.3855 7.76828 32.5848 7.75643 32.7887C7.74459 32.9927 7.77446 33.1969 7.84422 33.3888C7.91398 33.5808 8.02217 33.7566 8.16216 33.9053C8.30216 34.054 8.47102 34.1727 8.65843 34.2539L10.7653 35.1724V41.8978C10.7669 42.1858 10.8513 42.4673 11.0084 42.7087C11.1655 42.9501 11.3887 43.1412 11.6514 43.2593L25.1697 49.2717C25.3619 49.3571 25.5698 49.4013 25.7801 49.4013C25.9904 49.4013 26.1983 49.3571 26.3904 49.2717L39.9205 43.2593C40.1832 43.1412 40.4064 42.9501 40.5635 42.7087C40.7206 42.4673 40.805 42.1858 40.8066 41.8978V35.0755L42.9164 34.1542C43.1041 34.0716 43.2729 33.9516 43.4124 33.8013C43.5519 33.6511 43.6592 33.4739 43.7276 33.2807C43.796 33.0874 43.8242 32.8822 43.8104 32.6777C43.7965 32.4731 43.7409 32.2736 43.647 32.0913L40.6423 26.1934C40.489 25.8847 40.2341 25.6381 39.9205 25.495L26.3904 19.4827C26.2062 19.4019 26.0076 19.359 25.8065 19.3565ZM27.2883 23.1652L35.6159 26.8654L25.7801 31.2375L16 26.8859L24.2836 23.174V26.8683C24.2836 28.8719 27.2883 28.8719 27.2883 26.8683V23.1652ZM38.6206 28.8225L40.255 32.0268L29.4861 36.7393L27.884 33.5908L38.6206 28.8225ZM12.9836 28.8372L23.729 33.6142L22.0887 36.839L11.3198 32.1383L12.9836 28.8372ZM37.8019 36.3872V40.9207L27.2883 45.5862V39.028L27.4556 39.3567C27.6287 39.6985 27.9261 39.9613 28.2866 40.0911C28.6472 40.2209 29.0438 40.208 29.3951 40.055L37.8019 36.3872ZM13.77 36.484L22.1768 40.1548C22.5267 40.3087 22.9222 40.3233 23.2826 40.1957C23.643 40.0682 23.9411 39.808 24.1163 39.4682L24.2836 39.1395V45.5891L13.77 40.9207V36.484Z" fill="#CCCCCC"/>
</g>
<defs>
<clipPath id="clip0_629_1084">
<rect width="48" height="48" fill="white" transform="translate(1.75 1.32812)"/>
</clipPath>
</defs>
</svg>
