<svg width="19" height="19" viewBox="0 0 19 19" fill="none" xmlns="http://www.w3.org/2000/svg">
<path fill-rule="evenodd" clip-rule="evenodd" d="M8.05415 1.82813C7.03759 1.82821 6.03579 2.0714 5.13234 2.5374C4.22888 3.00339 3.44996 3.67869 2.86057 4.50694C2.27118 5.33519 1.8884 6.29239 1.74418 7.29866C1.59995 8.30493 1.69846 9.3311 2.03148 10.2916C2.3645 11.252 2.92238 12.1189 3.65857 12.8199C4.39477 13.5209 5.28792 14.0357 6.26353 14.3213C7.23914 14.6069 8.2689 14.6551 9.26691 14.4618C10.2649 14.2685 11.2022 13.8393 12.0006 13.2101L14.7396 15.9491C14.8811 16.0857 15.0705 16.1613 15.2672 16.1596C15.4638 16.1579 15.652 16.079 15.791 15.94C15.9301 15.8009 16.0089 15.6128 16.0107 15.4162C16.0124 15.2195 15.9368 15.0301 15.8001 14.8886L13.0611 12.1496C13.8021 11.2096 14.2635 10.0799 14.3925 8.88992C14.5214 7.69991 14.3127 6.49764 13.7903 5.4207C13.2679 4.34375 12.4528 3.43564 11.4384 2.8003C10.4239 2.16495 9.25112 1.82804 8.05415 1.82813ZM3.17915 8.20312C3.17915 6.91019 3.69276 5.67022 4.607 4.75598C5.52124 3.84174 6.76121 3.32812 8.05415 3.32812C9.34708 3.32812 10.5871 3.84174 11.5013 4.75598C12.4155 5.67022 12.9291 6.91019 12.9291 8.20312C12.9291 9.49606 12.4155 10.736 11.5013 11.6503C10.5871 12.5645 9.34708 13.0781 8.05415 13.0781C6.76121 13.0781 5.52124 12.5645 4.607 11.6503C3.69276 10.736 3.17915 9.49606 3.17915 8.20312Z" fill="#707070"/>
</svg>
