<svg width="24" height="24" viewBox="0 0 24 24" fill="none" xmlns="http://www.w3.org/2000/svg">
<path d="M2.4548 16.0605C2.7361 16.3417 3.11756 16.4997 3.5153 16.4997C3.91305 16.4997 4.29451 16.3417 4.5758 16.0605L12.0008 8.63551L19.4258 16.0605C19.7087 16.3337 20.0876 16.4849 20.4809 16.4815C20.8742 16.4781 21.2504 16.3204 21.5285 16.0422C21.8066 15.7641 21.9644 15.3879 21.9678 14.9946C21.9712 14.6013 21.82 14.2224 21.5468 13.9395L13.0613 5.45401C12.78 5.1728 12.3986 5.01483 12.0008 5.01483C11.6031 5.01483 11.2216 5.1728 10.9403 5.45401L2.4548 13.9395C2.1736 14.2208 2.01563 14.6023 2.01562 15C2.01562 15.3978 2.1736 15.7792 2.4548 16.0605Z" fill="white"/>
</svg>
