<svg width="19" height="19" viewBox="0 0 19 19" fill="none" xmlns="http://www.w3.org/2000/svg">
<path d="M5.10417 14.6174C5.10417 15.3507 5.70417 15.9507 6.4375 15.9507H11.7708C12.5042 15.9507 13.1042 15.3507 13.1042 14.6174V7.95068C13.1042 7.21735 12.5042 6.61735 11.7708 6.61735H6.4375C5.70417 6.61735 5.10417 7.21735 5.10417 7.95068V14.6174ZM13.1042 4.61735H11.4375L10.9642 4.14402C10.8442 4.02402 10.6708 3.95068 10.4975 3.95068H7.71083C7.5375 3.95068 7.36417 4.02402 7.24417 4.14402L6.77083 4.61735H5.10417C4.7375 4.61735 4.4375 4.91735 4.4375 5.28402C4.4375 5.65068 4.7375 5.95068 5.10417 5.95068H13.1042C13.4708 5.95068 13.7708 5.65068 13.7708 5.28402C13.7708 4.91735 13.4708 4.61735 13.1042 4.61735Z" fill="#707070"/>
</svg>
