<svg width="19" height="19" viewBox="0 0 19 19" fill="none" xmlns="http://www.w3.org/2000/svg">
<g clip-path="url(#clip0_2104_1048)">
<path d="M14.0039 1.875H5.50391C3.43284 1.875 1.75391 3.55393 1.75391 5.625V14.125C1.75391 16.1961 3.43284 17.875 5.50391 17.875H14.0039C16.075 17.875 17.7539 16.1961 17.7539 14.125V5.625C17.7539 3.55393 16.075 1.875 14.0039 1.875Z" fill="url(#paint0_radial_2104_1048)"/>
<path d="M14.0039 1.875H5.50391C3.43284 1.875 1.75391 3.55393 1.75391 5.625V14.125C1.75391 16.1961 3.43284 17.875 5.50391 17.875H14.0039C16.075 17.875 17.7539 16.1961 17.7539 14.125V5.625C17.7539 3.55393 16.075 1.875 14.0039 1.875Z" fill="url(#paint1_radial_2104_1048)"/>
<path d="M9.75447 3.625C8.05709 3.625 7.84403 3.63244 7.17741 3.66275C6.51203 3.69325 6.05784 3.79856 5.66047 3.95312C5.24934 4.11275 4.90066 4.32631 4.55328 4.67381C4.20559 5.02125 3.99203 5.36994 3.83191 5.78087C3.67691 6.17838 3.57147 6.63275 3.54153 7.29781C3.51172 7.9645 3.50391 8.17763 3.50391 9.87506C3.50391 11.5725 3.51141 11.7849 3.54166 12.4515C3.57228 13.1169 3.67759 13.5711 3.83203 13.9684C3.99178 14.3796 4.20534 14.7283 4.55284 15.0756C4.90016 15.4233 5.24884 15.6374 5.65966 15.797C6.05734 15.9516 6.51159 16.0569 7.17684 16.0874C7.84353 16.1177 8.05641 16.1251 9.75372 16.1251C11.4513 16.1251 11.6637 16.1177 12.3303 16.0874C12.9957 16.0569 13.4503 15.9516 13.848 15.797C14.259 15.6374 14.6072 15.4233 14.9544 15.0756C15.3021 14.7283 15.5156 14.3796 15.6758 13.9686C15.8294 13.5711 15.9349 13.1167 15.9662 12.4516C15.9961 11.785 16.0039 11.5725 16.0039 9.87506C16.0039 8.17763 15.9961 7.96462 15.9662 7.29794C15.9349 6.63256 15.8294 6.17844 15.6758 5.78106C15.5156 5.36994 15.3021 5.02125 14.9544 4.67381C14.6068 4.32619 14.2591 4.11262 13.8477 3.95319C13.4492 3.79856 12.9948 3.69319 12.3294 3.66275C11.6627 3.63244 11.4505 3.625 9.75253 3.625H9.75447ZM9.19378 4.75131C9.36022 4.75106 9.54591 4.75131 9.75447 4.75131C11.4233 4.75131 11.621 4.75731 12.28 4.78725C12.8894 4.81512 13.2202 4.91694 13.4405 5.0025C13.7322 5.11575 13.9401 5.25119 14.1587 5.47C14.3775 5.68875 14.5128 5.89706 14.6264 6.18875C14.712 6.40875 14.8139 6.7395 14.8417 7.34888C14.8716 8.00775 14.8781 8.20562 14.8781 9.87362C14.8781 11.5416 14.8716 11.7396 14.8417 12.3984C14.8138 13.0077 14.712 13.3385 14.6264 13.5586C14.5132 13.8503 14.3775 14.0579 14.1587 14.2766C13.94 14.4953 13.7323 14.6307 13.4405 14.744C13.2204 14.8299 12.8894 14.9315 12.28 14.9594C11.6212 14.9893 11.4233 14.9958 9.75447 14.9958C8.08559 14.9958 7.88778 14.9893 7.22897 14.9594C6.61959 14.9313 6.28884 14.8294 6.06834 14.7439C5.77672 14.6306 5.56834 14.4952 5.34959 14.2764C5.13084 14.0577 4.99547 13.8499 4.88191 13.5581C4.79634 13.338 4.69441 13.0072 4.66666 12.3979C4.63672 11.739 4.63072 11.5411 4.63072 9.87206C4.63072 8.203 4.63672 8.00619 4.66666 7.34731C4.69453 6.73794 4.79634 6.40719 4.88191 6.18687C4.99522 5.89519 5.13084 5.68688 5.34966 5.46813C5.56847 5.24938 5.77672 5.11394 6.06841 5.00044C6.28872 4.9145 6.61959 4.81294 7.22897 4.78494C7.80553 4.75887 8.02897 4.75106 9.19378 4.74975V4.75131ZM13.0907 5.78906C12.6767 5.78906 12.3407 6.12469 12.3407 6.53881C12.3407 6.95288 12.6767 7.28881 13.0907 7.28881C13.5048 7.28881 13.8407 6.95288 13.8407 6.53881C13.8407 6.12475 13.5048 5.78881 13.0907 5.78881V5.78906ZM9.75447 6.66538C7.98197 6.66538 6.54484 8.1025 6.54484 9.87506C6.54484 11.6476 7.98197 13.0841 9.75447 13.0841C11.527 13.0841 12.9637 11.6476 12.9637 9.87506C12.9637 8.10256 11.5269 6.66538 9.75434 6.66538H9.75447ZM9.75447 7.79169C10.905 7.79169 11.8378 8.72438 11.8378 9.87506C11.8378 11.0256 10.905 11.9584 9.75447 11.9584C8.60391 11.9584 7.67116 11.0256 7.67116 9.87506C7.67116 8.72438 8.60384 7.79169 9.75447 7.79169Z" fill="white"/>
</g>
<defs>
<radialGradient id="paint0_radial_2104_1048" cx="0" cy="0" r="1" gradientUnits="userSpaceOnUse" gradientTransform="translate(6.00391 19.1073) rotate(-90) scale(15.8572 14.7484)">
<stop stop-color="#FFDD55"/>
<stop offset="0.1" stop-color="#FFDD55"/>
<stop offset="0.5" stop-color="#FF543E"/>
<stop offset="1" stop-color="#C837AB"/>
</radialGradient>
<radialGradient id="paint1_radial_2104_1048" cx="0" cy="0" r="1" gradientUnits="userSpaceOnUse" gradientTransform="translate(-0.926156 3.02756) rotate(78.681) scale(7.08825 29.218)">
<stop stop-color="#3771C8"/>
<stop offset="0.128" stop-color="#3771C8"/>
<stop offset="1" stop-color="#6600FF" stop-opacity="0"/>
</radialGradient>
<clipPath id="clip0_2104_1048">
<rect width="16" height="16" fill="white" transform="translate(1.75391 1.875)"/>
</clipPath>
</defs>
</svg>
