<svg width="19" height="19" viewBox="0 0 19 19" fill="none" xmlns="http://www.w3.org/2000/svg">
<path d="M6.63047 8.97568L11.5805 6.42568M6.63047 10.9257L11.5805 13.4757M2.35547 9.95068C2.35547 10.5474 2.59252 11.1197 3.01448 11.5417C3.43644 11.9636 4.00873 12.2007 4.60547 12.2007C5.20221 12.2007 5.7745 11.9636 6.19646 11.5417C6.61842 11.1197 6.85547 10.5474 6.85547 9.95068C6.85547 9.35395 6.61842 8.78165 6.19646 8.35969C5.7745 7.93774 5.20221 7.70068 4.60547 7.70068C4.00873 7.70068 3.43644 7.93774 3.01448 8.35969C2.59252 8.78165 2.35547 9.35395 2.35547 9.95068ZM11.3555 5.45068C11.3555 6.04742 11.5925 6.61972 12.0145 7.04167C12.4364 7.46363 13.0087 7.70068 13.6055 7.70068C14.2022 7.70068 14.7745 7.46363 15.1965 7.04167C15.6184 6.61972 15.8555 6.04742 15.8555 5.45068C15.8555 4.85395 15.6184 4.28165 15.1965 3.85969C14.7745 3.43774 14.2022 3.20068 13.6055 3.20068C13.0087 3.20068 12.4364 3.43774 12.0145 3.85969C11.5925 4.28165 11.3555 4.85395 11.3555 5.45068ZM11.3555 14.4507C11.3555 15.0474 11.5925 15.6197 12.0145 16.0417C12.4364 16.4636 13.0087 16.7007 13.6055 16.7007C14.2022 16.7007 14.7745 16.4636 15.1965 16.0417C15.6184 15.6197 15.8555 15.0474 15.8555 14.4507C15.8555 13.8539 15.6184 13.2816 15.1965 12.8597C14.7745 12.4377 14.2022 12.2007 13.6055 12.2007C13.0087 12.2007 12.4364 12.4377 12.0145 12.8597C11.5925 13.2816 11.3555 13.8539 11.3555 14.4507Z" stroke="#707070" stroke-width="1.5" stroke-linecap="round" stroke-linejoin="round"/>
</svg>
