<svg width="19" height="19" viewBox="0 0 19 19" fill="none" xmlns="http://www.w3.org/2000/svg">
<g clip-path="url(#clip0_2104_1041)">
<path d="M9.75391 18.875C14.7245 18.875 18.7539 14.8456 18.7539 9.875C18.7539 4.90444 14.7245 0.875 9.75391 0.875C4.78334 0.875 0.753906 4.90444 0.753906 9.875C0.753906 14.8456 4.78334 18.875 9.75391 18.875Z" fill="#FFEB3B"/>
<path d="M8.56447 9.12399L8.24027 10.0383H8.88766L8.56447 9.12399ZM8.56447 9.12399L8.24027 10.0383H8.88766L8.56447 9.12399ZM9.75391 5.23047C6.64788 5.23047 4.12891 7.20229 4.12891 9.63638C4.12891 11.2093 5.18129 12.59 6.7655 13.3683C5.97902 16.0632 5.51675 16.2391 8.7547 13.9717C9.08572 14.0183 9.41962 14.0416 9.75391 14.0413C12.8599 14.0413 15.3789 12.0684 15.3789 9.63536C15.3789 7.20229 12.8599 5.23047 9.75391 5.23047ZM6.64379 11.1735C6.08232 11.1735 6.41368 10.3973 6.31959 8.95115C6.11504 8.91638 5.49425 9.09024 5.49425 8.63513C5.49479 8.55122 5.52857 8.47095 5.58819 8.4119C5.64781 8.35286 5.72841 8.31986 5.81232 8.32013C6.99254 8.40501 7.79232 8.10024 7.79232 8.63513C7.79232 9.09842 7.19504 8.91229 6.968 8.95115C6.87391 10.3922 7.20425 11.1735 6.64379 11.1735ZM9.69561 11.1244C9.19141 11.3535 9.17913 10.8371 9.05845 10.6131H8.06947C7.94777 10.8422 7.93754 11.3576 7.43232 11.1244C7.05288 10.9506 7.67061 10.068 8.13186 8.63717C8.16138 8.5458 8.21911 8.46613 8.29675 8.40962C8.37438 8.35312 8.46794 8.32268 8.56396 8.32268C8.65999 8.32268 8.75354 8.35312 8.83118 8.40962C8.90882 8.46613 8.96655 8.5458 8.99607 8.63717C9.46652 10.0956 10.0771 10.9506 9.69561 11.1244ZM10.2949 11.1244C9.75186 11.1244 10.0822 10.3912 9.98811 8.63922C9.98811 8.21274 10.6508 8.21376 10.6508 8.63922V10.5354C10.9638 10.5773 11.6511 10.3809 11.6511 10.8309C11.647 11.3065 10.9086 11.0662 10.2949 11.1265V11.1244ZM13.2956 11.0314L12.5347 10.0291L12.4222 10.1416V10.8463C12.4222 10.8889 12.4138 10.9311 12.3974 10.9704C12.381 11.0098 12.357 11.0455 12.3268 11.0755C12.2966 11.1056 12.2607 11.1293 12.2213 11.1454C12.1818 11.1616 12.1396 11.1697 12.097 11.1694C11.5335 11.1694 11.871 10.3574 11.7728 8.64126C11.7733 8.55564 11.8077 8.4737 11.8684 8.41334C11.9292 8.35298 12.0113 8.3191 12.097 8.31911C12.5869 8.31911 12.3752 9.01251 12.4212 9.33467C13.3416 8.45615 13.3181 8.36308 13.5073 8.36308C13.7681 8.36308 13.9277 8.68729 13.7538 8.85911L13.0144 9.59342L13.8131 10.6448C14.0739 10.9854 13.5533 11.375 13.2956 11.0334V11.0314ZM8.24027 10.0383H8.88766L8.56447 9.12399L8.24027 10.0383ZM8.56447 9.12399L8.24027 10.0383H8.88766L8.56447 9.12399ZM8.56447 9.12399L8.24027 10.0383H8.88766L8.56447 9.12399Z" fill="#3E2723"/>
</g>
<defs>
<clipPath id="clip0_2104_1041">
<rect width="18" height="18" fill="white" transform="translate(0.753906 0.875)"/>
</clipPath>
</defs>
</svg>
