<svg width="19" height="19" viewBox="0 0 19 19" fill="none" xmlns="http://www.w3.org/2000/svg">
<path d="M8.70391 10.925L7.09141 9.3125C6.95391 9.175 6.77891 9.10625 6.56641 9.10625C6.35391 9.10625 6.17891 9.175 6.04141 9.3125C5.90391 9.45 5.83516 9.625 5.83516 9.8375C5.83516 10.05 5.90391 10.225 6.04141 10.3625L8.17891 12.5C8.32891 12.65 8.50391 12.725 8.70391 12.725C8.90391 12.725 9.07891 12.65 9.22891 12.5L13.4664 8.2625C13.6039 8.125 13.6727 7.95 13.6727 7.7375C13.6727 7.525 13.6039 7.35 13.4664 7.2125C13.3289 7.075 13.1539 7.00625 12.9414 7.00625C12.7289 7.00625 12.5539 7.075 12.4164 7.2125L8.70391 10.925ZM4.50391 16.625C4.09141 16.625 3.73841 16.4783 3.44491 16.1847C3.15141 15.8912 3.00441 15.538 3.00391 15.125V4.625C3.00391 4.2125 3.15091 3.8595 3.44491 3.566C3.73891 3.2725 4.09191 3.1255 4.50391 3.125H15.0039C15.4164 3.125 15.7697 3.272 16.0637 3.566C16.3577 3.86 16.5044 4.213 16.5039 4.625V15.125C16.5039 15.5375 16.3572 15.8907 16.0637 16.1847C15.7702 16.4788 15.4169 16.6255 15.0039 16.625H4.50391Z" fill="#707070"/>
</svg>
