<svg width="19" height="19" viewBox="0 0 19 19" fill="none" xmlns="http://www.w3.org/2000/svg">
<path d="M7.78255 5.47998L9.78255 3.47998M9.78255 3.47998L11.7826 5.47998M9.78255 3.47998V10.1466M6.44922 8.14665C5.82789 8.14665 5.51722 8.14665 5.27255 8.24798C5.11067 8.31499 4.96359 8.41324 4.8397 8.53713C4.71582 8.66102 4.61756 8.8081 4.55055 8.96998C4.44922 9.21465 4.44922 9.52531 4.44922 10.1466V13.3466C4.44922 14.0933 4.44922 14.4666 4.59455 14.752C4.72238 15.0029 4.92635 15.2068 5.17722 15.3346C5.46189 15.48 5.83522 15.48 6.58055 15.48H12.9852C13.7306 15.48 14.1032 15.48 14.3879 15.3346C14.6386 15.2066 14.8426 15.0026 14.9706 14.752C15.1159 14.4666 15.1159 14.094 15.1159 13.3486V10.1466C15.1159 9.52531 15.1159 9.21465 15.0146 8.96998C14.9475 8.8081 14.8493 8.66102 14.7254 8.53713C14.6015 8.41324 14.4544 8.31499 14.2926 8.24798C14.0479 8.14665 13.7372 8.14665 13.1159 8.14665" stroke="#707070" stroke-width="1.33333" stroke-linecap="round" stroke-linejoin="round"/>
</svg>
