<svg width="19" height="19" viewBox="0 0 19 19" fill="none" xmlns="http://www.w3.org/2000/svg">
<g clip-path="url(#clip0_2122_649)">
<path d="M9.10677 17.284C9.46039 17.284 9.79953 17.1435 10.0496 16.8935C10.2996 16.6434 10.4401 16.3043 10.4401 15.9507H7.77344C7.77344 16.3043 7.91391 16.6434 8.16396 16.8935C8.41401 17.1435 8.75315 17.284 9.10677 17.284Z" fill="#707070"/>
<path d="M15.0547 14.206C15.1051 14.0841 15.1183 13.95 15.0926 13.8207C15.0668 13.6913 15.0033 13.5725 14.91 13.4793L13.772 12.3413V8.61731C13.7707 7.49608 13.3657 6.4128 12.6312 5.56566C11.8967 4.71852 10.8817 4.16415 9.77199 4.00398V3.28398C9.77199 3.10717 9.70176 2.9376 9.57673 2.81257C9.45171 2.68755 9.28214 2.61731 9.10533 2.61731C8.92852 2.61731 8.75895 2.68755 8.63392 2.81257C8.5089 2.9376 8.43866 3.10717 8.43866 3.28398V4.00398C7.32893 4.16415 6.31396 4.71852 5.57945 5.56566C4.84493 6.4128 4.43997 7.49608 4.43866 8.61731V12.3413L3.30066 13.4793C3.20745 13.5725 3.14398 13.6913 3.11827 13.8206C3.09256 13.9499 3.10576 14.0839 3.15621 14.2057C3.20665 14.3275 3.29208 14.4317 3.40169 14.5049C3.51129 14.5782 3.64016 14.6173 3.77199 14.6173H14.4387C14.5705 14.6173 14.6994 14.5783 14.809 14.5051C14.9187 14.4319 15.0042 14.3278 15.0547 14.206ZM5.38133 13.284L5.57666 13.0886C5.70169 12.9636 5.77196 12.7941 5.77199 12.6173V8.61731C5.77199 7.73325 6.12318 6.88541 6.7483 6.26029C7.37343 5.63517 8.22127 5.28398 9.10533 5.28398C9.98938 5.28398 10.8372 5.63517 11.4623 6.26029C12.0875 6.88541 12.4387 7.73325 12.4387 8.61731V12.6173C12.4387 12.7941 12.509 12.9636 12.634 13.0886L12.8293 13.284H5.38133Z" fill="#707070"/>
</g>
<defs>
<clipPath id="clip0_2122_649">
<rect width="16" height="16" fill="white" transform="translate(1.10547 1.95068)"/>
</clipPath>
</defs>
</svg>
