<svg width="24" height="24" viewBox="0 0 24 24" fill="none" xmlns="http://www.w3.org/2000/svg">
<path d="M21.5452 7.93949C21.2639 7.65828 20.8824 7.50031 20.4847 7.50031C20.0869 7.50031 19.7055 7.65828 19.4242 7.93949L11.9992 15.3645L4.57419 7.93949C4.29129 7.66625 3.91239 7.51506 3.51909 7.51848C3.1258 7.5219 2.74958 7.67965 2.47147 7.95776C2.19335 8.23587 2.0356 8.61209 2.03218 9.00539C2.02877 9.39868 2.17996 9.77759 2.4532 10.0605L10.9387 18.546C11.22 18.8272 11.6014 18.9852 11.9992 18.9852C12.3969 18.9852 12.7784 18.8272 13.0597 18.546L21.5452 10.0605C21.8264 9.7792 21.9844 9.39774 21.9844 8.99999C21.9844 8.60224 21.8264 8.22078 21.5452 7.93949Z" fill="white"/>
</svg>
