<svg width="19" height="18" viewBox="0 0 19 18" fill="none" xmlns="http://www.w3.org/2000/svg">
<g clip-path="url(#clip0_2104_1011)">
<path d="M14.6708 8.39443C14.3718 8.39443 14.1292 8.15176 14.1292 7.85276C14.1292 6.33339 13.5377 4.90555 12.4635 3.83089C12.2517 3.6191 12.2517 3.27676 12.4635 3.06497C12.6753 2.85318 13.0177 2.85318 13.2294 3.06497C14.5083 4.34385 15.2125 6.04414 15.2125 7.85276C15.2125 8.15176 14.9698 8.39443 14.6708 8.39443Z" fill="#707070"/>
<path d="M3.83854 8.39443C3.53954 8.39443 3.29688 8.15176 3.29688 7.85276C3.29688 6.04414 4.00104 4.34385 5.27992 3.06497C5.49171 2.85318 5.83404 2.85318 6.04583 3.06497C6.25763 3.27676 6.25763 3.6191 6.04583 3.83089C4.97171 4.90501 4.38021 6.33339 4.38021 7.85276C4.38021 8.15176 4.13754 8.39443 3.83854 8.39443Z" fill="#707070"/>
<path d="M14.3329 11.6612C13.5139 10.969 13.0443 9.95713 13.0443 8.88517V7.375C13.0443 5.46888 11.6284 3.891 9.79427 3.62667V3.04167C9.79427 2.74213 9.5516 2.5 9.2526 2.5C8.9536 2.5 8.71094 2.74213 8.71094 3.04167V3.62667C6.87631 3.891 5.46094 5.46888 5.46094 7.375V8.88517C5.46094 9.95713 4.99131 10.969 4.16744 11.6655C3.95673 11.8459 3.83594 12.1081 3.83594 12.3854C3.83594 12.9081 4.26115 13.3333 4.78385 13.3333H13.7214C14.2441 13.3333 14.6693 12.9081 14.6693 12.3854C14.6693 12.1081 14.5485 11.8459 14.3329 11.6612Z" fill="#707070"/>
<path d="M9.2518 15.5C10.2328 15.5 11.0534 14.8007 11.2419 13.875H7.26172C7.45022 14.8007 8.27084 15.5 9.2518 15.5Z" fill="#707070"/>
</g>
<defs>
<clipPath id="clip0_2104_1011">
<rect width="13" height="13" fill="white" transform="translate(2.75391 2.5)"/>
</clipPath>
</defs>
</svg>
