<svg width="19" height="19" viewBox="0 0 19 19" fill="none" xmlns="http://www.w3.org/2000/svg">
<path d="M8.42564 8.54899C9.10598 7.86869 10.0218 7.47591 10.9836 7.4519C11.9454 7.42789 12.8797 7.77449 13.5931 8.41999L13.7289 8.54899L15.8499 10.6707C16.5407 11.3627 16.9338 12.2972 16.9456 13.2749C16.9574 14.2526 16.5868 15.1962 15.9129 15.9047C15.239 16.6131 14.3151 17.0303 13.338 17.0673C12.3609 17.1044 11.408 16.7584 10.6824 16.103L10.5474 15.974L8.95589 14.3825C8.82138 14.2475 8.74328 14.0664 8.73747 13.876C8.73165 13.6855 8.79855 13.5 8.92457 13.357C9.0506 13.2141 9.2263 13.1245 9.41599 13.1064C9.60568 13.0884 9.79514 13.1432 9.94589 13.2597L10.0164 13.322L11.6079 14.9135C12.0204 15.3285 12.5784 15.5664 13.1635 15.5768C13.7485 15.5872 14.3146 15.3693 14.7417 14.9692C15.1687 14.5692 15.4231 14.0186 15.451 13.4341C15.4788 12.8496 15.2778 12.2773 14.8906 11.8385L14.7894 11.7312L12.6684 9.61024C12.4594 9.40127 12.2114 9.2355 11.9384 9.12241C11.6654 9.00931 11.3728 8.9511 11.0773 8.9511C10.7818 8.9511 10.4891 9.00931 10.2161 9.12241C9.94313 9.2355 9.69507 9.40127 9.48614 9.61024C9.34541 9.75087 9.15457 9.82984 8.95562 9.82977C8.75667 9.8297 8.56589 9.7506 8.42526 9.60987C8.28463 9.46914 8.20566 9.2783 8.20573 9.07935C8.2058 8.8804 8.28491 8.68962 8.42564 8.54899ZM3.65264 3.77599C4.33298 3.09569 5.24879 2.70291 6.21061 2.6789C7.17243 2.65489 8.10669 3.00149 8.82014 3.64699L8.95589 3.77599L10.5466 5.36824C10.6811 5.50321 10.7592 5.68432 10.7651 5.87478C10.7709 6.06524 10.704 6.25078 10.5779 6.3937C10.4519 6.53663 10.2762 6.62622 10.0865 6.64429C9.89684 6.66236 9.70738 6.60755 9.55664 6.49099L9.48614 6.42874L7.89539 4.83799C7.48211 4.42741 6.9257 4.19313 6.34321 4.18442C5.76072 4.17572 5.19756 4.39328 4.77221 4.79133C4.34686 5.18938 4.09247 5.7369 4.06257 6.31869C4.03267 6.90047 4.22958 7.47118 4.61189 7.91074L4.71314 8.01874L6.83489 10.1405C7.25682 10.5623 7.82902 10.7993 8.42564 10.7993C9.02226 10.7993 9.59445 10.5623 10.0164 10.1405C10.086 10.0708 10.1687 10.0155 10.2597 9.97779C10.3507 9.94006 10.4482 9.92062 10.5467 9.92059C10.6453 9.92056 10.7428 9.93992 10.8338 9.97759C10.9249 10.0153 11.0076 10.0705 11.0773 10.1401C11.1469 10.2098 11.2022 10.2924 11.24 10.3834C11.2777 10.4744 11.2971 10.572 11.2972 10.6705C11.2972 10.769 11.2778 10.8665 11.2402 10.9576C11.2025 11.0486 11.1473 11.1313 11.0776 11.201C10.3973 11.8813 9.48149 12.2741 8.51966 12.2981C7.55784 12.3221 6.62358 11.9755 5.91014 11.33L5.77364 11.201L3.65264 9.07924C2.94962 8.37601 2.55469 7.42236 2.55469 6.42799C2.55469 5.43363 2.94962 4.47922 3.65264 3.77599Z" fill="#707070"/>
</svg>
